G04 #@! TF.GenerationSoftware,KiCad,Pcbnew,(5.0.0)*
G04 #@! TF.CreationDate,2018-11-08T10:10:24+09:00*
G04 #@! TF.ProjectId,HeadphoneSwitch,4865616470686F6E655377697463682E,rev?*
G04 #@! TF.SameCoordinates,Original*
G04 #@! TF.FileFunction,Legend,Bot*
G04 #@! TF.FilePolarity,Positive*
%FSLAX46Y46*%
G04 Gerber Fmt 4.6, Leading zero omitted, Abs format (unit mm)*
G04 Created by KiCad (PCBNEW (5.0.0)) date 11/08/18 10:10:24*
%MOMM*%
%LPD*%
G01*
G04 APERTURE LIST*
%ADD10C,0.100000*%
G04 APERTURE END LIST*
D10*
X159275000Y-101064285D02*
X159232142Y-101021428D01*
X159103571Y-100935714D01*
X159017857Y-100892857D01*
X158889285Y-100850000D01*
X158675000Y-100807142D01*
X158503571Y-100807142D01*
X158289285Y-100850000D01*
X158160714Y-100892857D01*
X158075000Y-100935714D01*
X157946428Y-101021428D01*
X157903571Y-101064285D01*
X158889285Y-101792857D02*
X158932142Y-101707142D01*
X158932142Y-101535714D01*
X158889285Y-101450000D01*
X158846428Y-101407142D01*
X158760714Y-101364285D01*
X158503571Y-101364285D01*
X158417857Y-101407142D01*
X158375000Y-101450000D01*
X158332142Y-101535714D01*
X158332142Y-101707142D01*
X158375000Y-101792857D01*
X159275000Y-102092857D02*
X159232142Y-102135714D01*
X159103571Y-102221428D01*
X159017857Y-102264285D01*
X158889285Y-102307142D01*
X158675000Y-102350000D01*
X158503571Y-102350000D01*
X158289285Y-102307142D01*
X158160714Y-102264285D01*
X158075000Y-102221428D01*
X157946428Y-102135714D01*
X157903571Y-102092857D01*
X158117857Y-103421428D02*
X158075000Y-103464285D01*
X158032142Y-103550000D01*
X158032142Y-103764285D01*
X158075000Y-103850000D01*
X158117857Y-103892857D01*
X158203571Y-103935714D01*
X158289285Y-103935714D01*
X158417857Y-103892857D01*
X158932142Y-103378571D01*
X158932142Y-103935714D01*
X158032142Y-104492857D02*
X158032142Y-104578571D01*
X158075000Y-104664285D01*
X158117857Y-104707142D01*
X158203571Y-104750000D01*
X158375000Y-104792857D01*
X158589285Y-104792857D01*
X158760714Y-104750000D01*
X158846428Y-104707142D01*
X158889285Y-104664285D01*
X158932142Y-104578571D01*
X158932142Y-104492857D01*
X158889285Y-104407142D01*
X158846428Y-104364285D01*
X158760714Y-104321428D01*
X158589285Y-104278571D01*
X158375000Y-104278571D01*
X158203571Y-104321428D01*
X158117857Y-104364285D01*
X158075000Y-104407142D01*
X158032142Y-104492857D01*
X158932142Y-105650000D02*
X158932142Y-105135714D01*
X158932142Y-105392857D02*
X158032142Y-105392857D01*
X158160714Y-105307142D01*
X158246428Y-105221428D01*
X158289285Y-105135714D01*
X158417857Y-106164285D02*
X158375000Y-106078571D01*
X158332142Y-106035714D01*
X158246428Y-105992857D01*
X158203571Y-105992857D01*
X158117857Y-106035714D01*
X158075000Y-106078571D01*
X158032142Y-106164285D01*
X158032142Y-106335714D01*
X158075000Y-106421428D01*
X158117857Y-106464285D01*
X158203571Y-106507142D01*
X158246428Y-106507142D01*
X158332142Y-106464285D01*
X158375000Y-106421428D01*
X158417857Y-106335714D01*
X158417857Y-106164285D01*
X158460714Y-106078571D01*
X158503571Y-106035714D01*
X158589285Y-105992857D01*
X158760714Y-105992857D01*
X158846428Y-106035714D01*
X158889285Y-106078571D01*
X158932142Y-106164285D01*
X158932142Y-106335714D01*
X158889285Y-106421428D01*
X158846428Y-106464285D01*
X158760714Y-106507142D01*
X158589285Y-106507142D01*
X158503571Y-106464285D01*
X158460714Y-106421428D01*
X158417857Y-106335714D01*
X158589285Y-106892857D02*
X158589285Y-107578571D01*
X158117857Y-107964285D02*
X158075000Y-108007142D01*
X158032142Y-108092857D01*
X158032142Y-108307142D01*
X158075000Y-108392857D01*
X158117857Y-108435714D01*
X158203571Y-108478571D01*
X158289285Y-108478571D01*
X158417857Y-108435714D01*
X158932142Y-107921428D01*
X158932142Y-108478571D01*
X158032142Y-109035714D02*
X158032142Y-109121428D01*
X158075000Y-109207142D01*
X158117857Y-109250000D01*
X158203571Y-109292857D01*
X158375000Y-109335714D01*
X158589285Y-109335714D01*
X158760714Y-109292857D01*
X158846428Y-109250000D01*
X158889285Y-109207142D01*
X158932142Y-109121428D01*
X158932142Y-109035714D01*
X158889285Y-108950000D01*
X158846428Y-108907142D01*
X158760714Y-108864285D01*
X158589285Y-108821428D01*
X158375000Y-108821428D01*
X158203571Y-108864285D01*
X158117857Y-108907142D01*
X158075000Y-108950000D01*
X158032142Y-109035714D01*
X158932142Y-110192857D02*
X158932142Y-109678571D01*
X158932142Y-109935714D02*
X158032142Y-109935714D01*
X158160714Y-109850000D01*
X158246428Y-109764285D01*
X158289285Y-109678571D01*
X158417857Y-110707142D02*
X158375000Y-110621428D01*
X158332142Y-110578571D01*
X158246428Y-110535714D01*
X158203571Y-110535714D01*
X158117857Y-110578571D01*
X158075000Y-110621428D01*
X158032142Y-110707142D01*
X158032142Y-110878571D01*
X158075000Y-110964285D01*
X158117857Y-111007142D01*
X158203571Y-111050000D01*
X158246428Y-111050000D01*
X158332142Y-111007142D01*
X158375000Y-110964285D01*
X158417857Y-110878571D01*
X158417857Y-110707142D01*
X158460714Y-110621428D01*
X158503571Y-110578571D01*
X158589285Y-110535714D01*
X158760714Y-110535714D01*
X158846428Y-110578571D01*
X158889285Y-110621428D01*
X158932142Y-110707142D01*
X158932142Y-110878571D01*
X158889285Y-110964285D01*
X158846428Y-111007142D01*
X158760714Y-111050000D01*
X158589285Y-111050000D01*
X158503571Y-111007142D01*
X158460714Y-110964285D01*
X158417857Y-110878571D01*
X159482142Y-99264285D02*
X160125000Y-99264285D01*
X160253571Y-99221428D01*
X160339285Y-99135714D01*
X160382142Y-99007142D01*
X160382142Y-98921428D01*
X160382142Y-99692857D02*
X159482142Y-99692857D01*
X160382142Y-100592857D02*
X160382142Y-100078571D01*
X160382142Y-100335714D02*
X159482142Y-100335714D01*
X159610714Y-100250000D01*
X159696428Y-100164285D01*
X159739285Y-100078571D01*
X159910714Y-101278571D02*
X159910714Y-100978571D01*
X160382142Y-100978571D02*
X159482142Y-100978571D01*
X159482142Y-101407142D01*
X160382142Y-102178571D02*
X160382142Y-101750000D01*
X159482142Y-101750000D01*
X159910714Y-102778571D02*
X159953571Y-102907142D01*
X159996428Y-102950000D01*
X160082142Y-102992857D01*
X160210714Y-102992857D01*
X160296428Y-102950000D01*
X160339285Y-102907142D01*
X160382142Y-102821428D01*
X160382142Y-102478571D01*
X159482142Y-102478571D01*
X159482142Y-102778571D01*
X159525000Y-102864285D01*
X159567857Y-102907142D01*
X159653571Y-102950000D01*
X159739285Y-102950000D01*
X159825000Y-102907142D01*
X159867857Y-102864285D01*
X159910714Y-102778571D01*
X159910714Y-102478571D01*
X160339285Y-104021428D02*
X160382142Y-104150000D01*
X160382142Y-104364285D01*
X160339285Y-104450000D01*
X160296428Y-104492857D01*
X160210714Y-104535714D01*
X160125000Y-104535714D01*
X160039285Y-104492857D01*
X159996428Y-104450000D01*
X159953571Y-104364285D01*
X159910714Y-104192857D01*
X159867857Y-104107142D01*
X159825000Y-104064285D01*
X159739285Y-104021428D01*
X159653571Y-104021428D01*
X159567857Y-104064285D01*
X159525000Y-104107142D01*
X159482142Y-104192857D01*
X159482142Y-104407142D01*
X159525000Y-104535714D01*
X160339285Y-105264285D02*
X160382142Y-105178571D01*
X160382142Y-105007142D01*
X160339285Y-104921428D01*
X160253571Y-104878571D01*
X159910714Y-104878571D01*
X159825000Y-104921428D01*
X159782142Y-105007142D01*
X159782142Y-105178571D01*
X159825000Y-105264285D01*
X159910714Y-105307142D01*
X159996428Y-105307142D01*
X160082142Y-104878571D01*
X160382142Y-105692857D02*
X159782142Y-105692857D01*
X159482142Y-105692857D02*
X159525000Y-105650000D01*
X159567857Y-105692857D01*
X159525000Y-105735714D01*
X159482142Y-105692857D01*
X159567857Y-105692857D01*
X160382142Y-106121428D02*
X159782142Y-106121428D01*
X159482142Y-106121428D02*
X159525000Y-106078571D01*
X159567857Y-106121428D01*
X159525000Y-106164285D01*
X159482142Y-106121428D01*
X159567857Y-106121428D01*
X160339285Y-106935714D02*
X160382142Y-106850000D01*
X160382142Y-106678571D01*
X160339285Y-106592857D01*
X160296428Y-106550000D01*
X160210714Y-106507142D01*
X159953571Y-106507142D01*
X159867857Y-106550000D01*
X159825000Y-106592857D01*
X159782142Y-106678571D01*
X159782142Y-106850000D01*
X159825000Y-106935714D01*
X160382142Y-107321428D02*
X159482142Y-107321428D01*
X160382142Y-107707142D02*
X159910714Y-107707142D01*
X159825000Y-107664285D01*
X159782142Y-107578571D01*
X159782142Y-107450000D01*
X159825000Y-107364285D01*
X159867857Y-107321428D01*
X160382142Y-108135714D02*
X159782142Y-108135714D01*
X159482142Y-108135714D02*
X159525000Y-108092857D01*
X159567857Y-108135714D01*
X159525000Y-108178571D01*
X159482142Y-108135714D01*
X159567857Y-108135714D01*
X159482142Y-109121428D02*
X159482142Y-109635714D01*
X160382142Y-109378571D02*
X159482142Y-109378571D01*
X160382142Y-110321428D02*
X159910714Y-110321428D01*
X159825000Y-110278571D01*
X159782142Y-110192857D01*
X159782142Y-110021428D01*
X159825000Y-109935714D01*
X160339285Y-110321428D02*
X160382142Y-110235714D01*
X160382142Y-110021428D01*
X160339285Y-109935714D01*
X160253571Y-109892857D01*
X160167857Y-109892857D01*
X160082142Y-109935714D01*
X160039285Y-110021428D01*
X160039285Y-110235714D01*
X159996428Y-110321428D01*
X159782142Y-110750000D02*
X160382142Y-110750000D01*
X159867857Y-110750000D02*
X159825000Y-110792857D01*
X159782142Y-110878571D01*
X159782142Y-111007142D01*
X159825000Y-111092857D01*
X159910714Y-111135714D01*
X160382142Y-111135714D01*
X160382142Y-111950000D02*
X159910714Y-111950000D01*
X159825000Y-111907142D01*
X159782142Y-111821428D01*
X159782142Y-111650000D01*
X159825000Y-111564285D01*
X160339285Y-111950000D02*
X160382142Y-111864285D01*
X160382142Y-111650000D01*
X160339285Y-111564285D01*
X160253571Y-111521428D01*
X160167857Y-111521428D01*
X160082142Y-111564285D01*
X160039285Y-111650000D01*
X160039285Y-111864285D01*
X159996428Y-111950000D01*
X160382142Y-112378571D02*
X159482142Y-112378571D01*
X160039285Y-112464285D02*
X160382142Y-112721428D01*
X159782142Y-112721428D02*
X160125000Y-112378571D01*
X160382142Y-113492857D02*
X159910714Y-113492857D01*
X159825000Y-113450000D01*
X159782142Y-113364285D01*
X159782142Y-113192857D01*
X159825000Y-113107142D01*
X160339285Y-113492857D02*
X160382142Y-113407142D01*
X160382142Y-113192857D01*
X160339285Y-113107142D01*
X160253571Y-113064285D01*
X160167857Y-113064285D01*
X160082142Y-113107142D01*
X160039285Y-113192857D01*
X160039285Y-113407142D01*
X159996428Y-113492857D01*
G04 #@! TO.C,U1*
X144475100Y-80003600D02*
X144475100Y-130003600D01*
X198475100Y-80003600D02*
X144475100Y-80003600D01*
X198475100Y-130003600D02*
X198475100Y-80003600D01*
X144475100Y-130003600D02*
X198475100Y-130003600D01*
G04 #@! TD*
M02*
