G04 #@! TF.GenerationSoftware,KiCad,Pcbnew,(5.0.0)*
G04 #@! TF.CreationDate,2018-11-08T09:58:05+09:00*
G04 #@! TF.ProjectId,MicSwitch003,4D69635377697463683030332E6B6963,rev?*
G04 #@! TF.SameCoordinates,Original*
G04 #@! TF.FileFunction,Copper,L2,Bot,Signal*
G04 #@! TF.FilePolarity,Positive*
%FSLAX46Y46*%
G04 Gerber Fmt 4.6, Leading zero omitted, Abs format (unit mm)*
G04 Created by KiCad (PCBNEW (5.0.0)) date 11/08/18 09:58:05*
%MOMM*%
%LPD*%
G01*
G04 APERTURE LIST*
G04 #@! TA.AperFunction,ComponentPad*
%ADD10O,2.641600X1.320800*%
G04 #@! TD*
G04 #@! TA.AperFunction,ComponentPad*
%ADD11O,1.524000X3.048000*%
G04 #@! TD*
G04 #@! TA.AperFunction,ComponentPad*
%ADD12C,1.676400*%
G04 #@! TD*
G04 #@! TA.AperFunction,ComponentPad*
%ADD13C,1.320800*%
G04 #@! TD*
G04 #@! TA.AperFunction,ComponentPad*
%ADD14O,3.048000X1.524000*%
G04 #@! TD*
G04 #@! TA.AperFunction,ViaPad*
%ADD15C,0.609600*%
G04 #@! TD*
G04 #@! TA.AperFunction,ViaPad*
%ADD16C,0.600000*%
G04 #@! TD*
G04 #@! TA.AperFunction,Conductor*
%ADD17C,0.762000*%
G04 #@! TD*
G04 #@! TA.AperFunction,Conductor*
%ADD18C,0.508000*%
G04 #@! TD*
G04 #@! TA.AperFunction,Conductor*
%ADD19C,0.250000*%
G04 #@! TD*
G04 #@! TA.AperFunction,Conductor*
%ADD20C,0.500000*%
G04 #@! TD*
G04 APERTURE END LIST*
D10*
G04 #@! TO.P,D1,A*
G04 #@! TO.N,Net-(D1-PadA)*
X124845100Y-116038600D03*
G04 #@! TO.P,D1,C*
G04 #@! TO.N,+5V*
X132465100Y-116038600D03*
G04 #@! TD*
G04 #@! TO.P,D2,A*
G04 #@! TO.N,Net-(D1-PadA)*
X137837100Y-116054600D03*
G04 #@! TO.P,D2,C*
G04 #@! TO.N,+5V*
X145457100Y-116054600D03*
G04 #@! TD*
G04 #@! TO.P,D3,A*
G04 #@! TO.N,Net-(D1-PadA)*
X150867100Y-115987600D03*
G04 #@! TO.P,D3,C*
G04 #@! TO.N,+5V*
X158487100Y-115987600D03*
G04 #@! TD*
G04 #@! TO.P,D4,A*
G04 #@! TO.N,Net-(D1-PadA)*
X163848100Y-115946600D03*
G04 #@! TO.P,D4,C*
G04 #@! TO.N,+5V*
X171468100Y-115946600D03*
G04 #@! TD*
D11*
G04 #@! TO.P,DSS1,3*
G04 #@! TO.N,+5V*
X191331100Y-120351600D03*
G04 #@! TO.P,DSS1,2*
G04 #@! TO.N,GND*
X193871100Y-120351600D03*
G04 #@! TO.P,DSS1,1*
G04 #@! TO.N,Net-(C1-Pad1)*
X196411100Y-120351600D03*
G04 #@! TD*
D12*
G04 #@! TO.P,DC+5V1,1*
G04 #@! TO.N,Net-(C1-Pad1)*
X188485100Y-125920600D03*
G04 #@! TO.P,DC+5V1,2*
G04 #@! TO.N,GND*
X185985100Y-125920600D03*
G04 #@! TD*
G04 #@! TO.P,CONTROL1,1*
G04 #@! TO.N,+5V*
X164266100Y-125993600D03*
G04 #@! TO.P,CONTROL1,2*
G04 #@! TO.N,Net-(C2-Pad1)*
X161766100Y-125993600D03*
G04 #@! TD*
D11*
G04 #@! TO.P,Q1,S*
G04 #@! TO.N,GND*
X179233100Y-121172600D03*
G04 #@! TO.P,Q1,D*
G04 #@! TO.N,Net-(D1-PadA)*
X176693100Y-121172600D03*
G04 #@! TO.P,Q1,G*
G04 #@! TO.N,Net-(Q1-PadG)*
X174153100Y-121172600D03*
G04 #@! TD*
D13*
G04 #@! TO.P,R1,2*
G04 #@! TO.N,Net-(C2-Pad1)*
X169458100Y-119369600D03*
G04 #@! TO.P,R1,1*
G04 #@! TO.N,Net-(Q1-PadG)*
X169458100Y-126989600D03*
G04 #@! TD*
G04 #@! TO.P,R2,2*
G04 #@! TO.N,Net-(Q1-PadG)*
X173515100Y-126993600D03*
G04 #@! TO.P,R2,1*
G04 #@! TO.N,GND*
X181135100Y-126993600D03*
G04 #@! TD*
D14*
G04 #@! TO.P,RL1,16*
G04 #@! TO.N,Net-(D1-PadA)*
X124599100Y-113074600D03*
G04 #@! TO.P,RL1,P2*
G04 #@! TO.N,Net-(FROM-AMP1-Pad1)*
X124599100Y-105454600D03*
G04 #@! TO.P,RL1,O2*
G04 #@! TO.N,Net-(CN3-LEFT1-Pad1)*
X124599100Y-100374600D03*
G04 #@! TO.P,RL1,S2*
G04 #@! TO.N,Net-(CN2-RIGHT1-Pad1)*
X124599100Y-95294600D03*
G04 #@! TO.P,RL1,S1*
G04 #@! TO.N,Net-(CN2-RIGHT1-Pad2)*
X132219100Y-95294600D03*
G04 #@! TO.P,RL1,O1*
G04 #@! TO.N,Net-(CN3-LEFT1-Pad2)*
X132219100Y-100374600D03*
G04 #@! TO.P,RL1,P1*
G04 #@! TO.N,Net-(FROM-AMP1-Pad2)*
X132219100Y-105454600D03*
G04 #@! TO.P,RL1,1*
G04 #@! TO.N,+5V*
X132219100Y-113074600D03*
G04 #@! TD*
G04 #@! TO.P,RL2,16*
G04 #@! TO.N,Net-(D1-PadA)*
X137583100Y-113063600D03*
G04 #@! TO.P,RL2,P2*
G04 #@! TO.N,Net-(CN1-MICIN1-Pad3)*
X137583100Y-105443600D03*
G04 #@! TO.P,RL2,O2*
G04 #@! TO.N,Net-(CN3-LEFT1-Pad3)*
X137583100Y-100363600D03*
G04 #@! TO.P,RL2,S2*
G04 #@! TO.N,Net-(CN2-RIGHT1-Pad3)*
X137583100Y-95283600D03*
G04 #@! TO.P,RL2,S1*
G04 #@! TO.N,Net-(CN2-RIGHT1-Pad4)*
X145203100Y-95283600D03*
G04 #@! TO.P,RL2,O1*
G04 #@! TO.N,Net-(CN3-LEFT1-Pad4)*
X145203100Y-100363600D03*
G04 #@! TO.P,RL2,P1*
G04 #@! TO.N,Net-(CN1-MICIN1-Pad4)*
X145203100Y-105443600D03*
G04 #@! TO.P,RL2,1*
G04 #@! TO.N,+5V*
X145203100Y-113063600D03*
G04 #@! TD*
G04 #@! TO.P,RL3,16*
G04 #@! TO.N,Net-(D1-PadA)*
X150621100Y-113023600D03*
G04 #@! TO.P,RL3,P2*
G04 #@! TO.N,Net-(CN1-MICIN1-Pad5)*
X150621100Y-105403600D03*
G04 #@! TO.P,RL3,O2*
G04 #@! TO.N,Net-(CN3-LEFT1-Pad5)*
X150621100Y-100323600D03*
G04 #@! TO.P,RL3,S2*
G04 #@! TO.N,Net-(CN2-RIGHT1-Pad5)*
X150621100Y-95243600D03*
G04 #@! TO.P,RL3,S1*
G04 #@! TO.N,Net-(CN2-RIGHT1-Pad6)*
X158241100Y-95243600D03*
G04 #@! TO.P,RL3,O1*
G04 #@! TO.N,Net-(CN3-LEFT1-Pad6)*
X158241100Y-100323600D03*
G04 #@! TO.P,RL3,P1*
G04 #@! TO.N,Net-(CN1-MICIN1-Pad6)*
X158241100Y-105403600D03*
G04 #@! TO.P,RL3,1*
G04 #@! TO.N,+5V*
X158241100Y-113023600D03*
G04 #@! TD*
G04 #@! TO.P,RL4,16*
G04 #@! TO.N,Net-(D1-PadA)*
X163616100Y-113070600D03*
G04 #@! TO.P,RL4,P2*
G04 #@! TO.N,Net-(CN1-MICIN1-Pad7)*
X163616100Y-105450600D03*
G04 #@! TO.P,RL4,O2*
G04 #@! TO.N,Net-(CN3-LEFT1-Pad7)*
X163616100Y-100370600D03*
G04 #@! TO.P,RL4,S2*
G04 #@! TO.N,Net-(CN2-RIGHT1-Pad7)*
X163616100Y-95290600D03*
G04 #@! TO.P,RL4,S1*
G04 #@! TO.N,Net-(CN2-RIGHT1-Pad8)*
X171236100Y-95290600D03*
G04 #@! TO.P,RL4,O1*
G04 #@! TO.N,Net-(CN3-LEFT1-Pad8)*
X171236100Y-100370600D03*
G04 #@! TO.P,RL4,P1*
G04 #@! TO.N,Net-(CN1-MICIN1-Pad8)*
X171236100Y-105450600D03*
G04 #@! TO.P,RL4,1*
G04 #@! TO.N,+5V*
X171236100Y-113070600D03*
G04 #@! TD*
D12*
G04 #@! TO.P,CN1-MICIN1,1*
G04 #@! TO.N,Net-(CN1-MICIN1-Pad1)*
X121001100Y-84203600D03*
G04 #@! TO.P,CN1-MICIN1,2*
G04 #@! TO.N,Net-(CN1-MICIN1-Pad2)*
X123501100Y-84203600D03*
G04 #@! TO.P,CN1-MICIN1,3*
G04 #@! TO.N,Net-(CN1-MICIN1-Pad3)*
X126001100Y-84203600D03*
G04 #@! TO.P,CN1-MICIN1,4*
G04 #@! TO.N,Net-(CN1-MICIN1-Pad4)*
X128501100Y-84203600D03*
G04 #@! TO.P,CN1-MICIN1,5*
G04 #@! TO.N,Net-(CN1-MICIN1-Pad5)*
X131001100Y-84203600D03*
G04 #@! TO.P,CN1-MICIN1,6*
G04 #@! TO.N,Net-(CN1-MICIN1-Pad6)*
X133501100Y-84203600D03*
G04 #@! TO.P,CN1-MICIN1,7*
G04 #@! TO.N,Net-(CN1-MICIN1-Pad7)*
X136001100Y-84203600D03*
G04 #@! TO.P,CN1-MICIN1,8*
G04 #@! TO.N,Net-(CN1-MICIN1-Pad8)*
X138501100Y-84203600D03*
G04 #@! TD*
G04 #@! TO.P,CN2-RIGHT1,1*
G04 #@! TO.N,Net-(CN2-RIGHT1-Pad1)*
X171001100Y-84203600D03*
G04 #@! TO.P,CN2-RIGHT1,2*
G04 #@! TO.N,Net-(CN2-RIGHT1-Pad2)*
X173501100Y-84203600D03*
G04 #@! TO.P,CN2-RIGHT1,3*
G04 #@! TO.N,Net-(CN2-RIGHT1-Pad3)*
X176001100Y-84203600D03*
G04 #@! TO.P,CN2-RIGHT1,4*
G04 #@! TO.N,Net-(CN2-RIGHT1-Pad4)*
X178501100Y-84203600D03*
G04 #@! TO.P,CN2-RIGHT1,5*
G04 #@! TO.N,Net-(CN2-RIGHT1-Pad5)*
X181001100Y-84203600D03*
G04 #@! TO.P,CN2-RIGHT1,6*
G04 #@! TO.N,Net-(CN2-RIGHT1-Pad6)*
X183501100Y-84203600D03*
G04 #@! TO.P,CN2-RIGHT1,7*
G04 #@! TO.N,Net-(CN2-RIGHT1-Pad7)*
X186001100Y-84203600D03*
G04 #@! TO.P,CN2-RIGHT1,8*
G04 #@! TO.N,Net-(CN2-RIGHT1-Pad8)*
X188501100Y-84203600D03*
G04 #@! TD*
G04 #@! TO.P,CN3-LEFT1,1*
G04 #@! TO.N,Net-(CN3-LEFT1-Pad1)*
X146001100Y-84203600D03*
G04 #@! TO.P,CN3-LEFT1,2*
G04 #@! TO.N,Net-(CN3-LEFT1-Pad2)*
X148501100Y-84203600D03*
G04 #@! TO.P,CN3-LEFT1,3*
G04 #@! TO.N,Net-(CN3-LEFT1-Pad3)*
X151001100Y-84203600D03*
G04 #@! TO.P,CN3-LEFT1,4*
G04 #@! TO.N,Net-(CN3-LEFT1-Pad4)*
X153501100Y-84203600D03*
G04 #@! TO.P,CN3-LEFT1,5*
G04 #@! TO.N,Net-(CN3-LEFT1-Pad5)*
X156001100Y-84203600D03*
G04 #@! TO.P,CN3-LEFT1,6*
G04 #@! TO.N,Net-(CN3-LEFT1-Pad6)*
X158501100Y-84203600D03*
G04 #@! TO.P,CN3-LEFT1,7*
G04 #@! TO.N,Net-(CN3-LEFT1-Pad7)*
X161001100Y-84203600D03*
G04 #@! TO.P,CN3-LEFT1,8*
G04 #@! TO.N,Net-(CN3-LEFT1-Pad8)*
X163501100Y-84203600D03*
G04 #@! TD*
D14*
G04 #@! TO.P,RL5,16*
G04 #@! TO.N,Net-(D1-PadA)*
X176791100Y-113213600D03*
G04 #@! TO.P,RL5,P2*
G04 #@! TO.N,Net-(C7-Pad2)*
X176791100Y-105593600D03*
G04 #@! TO.P,RL5,O2*
G04 #@! TO.N,Net-(C9-Pad2)*
X176791100Y-100513600D03*
G04 #@! TO.P,RL5,S2*
G04 #@! TO.N,Net-(C8-Pad2)*
X176791100Y-95433600D03*
G04 #@! TO.P,RL5,S1*
G04 #@! TO.N,Net-(C8-Pad1)*
X184411100Y-95433600D03*
G04 #@! TO.P,RL5,O1*
G04 #@! TO.N,Net-(C9-Pad1)*
X184411100Y-100513600D03*
G04 #@! TO.P,RL5,P1*
G04 #@! TO.N,Net-(C7-Pad1)*
X184411100Y-105593600D03*
G04 #@! TO.P,RL5,1*
G04 #@! TO.N,+5V*
X184411100Y-113213600D03*
G04 #@! TD*
D10*
G04 #@! TO.P,D5,A*
G04 #@! TO.N,Net-(D1-PadA)*
X176691100Y-116003600D03*
G04 #@! TO.P,D5,C*
G04 #@! TO.N,+5V*
X184311100Y-116003600D03*
G04 #@! TD*
D12*
G04 #@! TO.P,KEY-IN1,1*
G04 #@! TO.N,Net-(C7-Pad1)*
X194301100Y-111703600D03*
G04 #@! TO.P,KEY-IN1,2*
G04 #@! TO.N,Net-(C7-Pad2)*
X194301100Y-114203600D03*
G04 #@! TD*
G04 #@! TO.P,LEFT-KEY1,1*
G04 #@! TO.N,Net-(C9-Pad1)*
X194301100Y-101703600D03*
G04 #@! TO.P,LEFT-KEY1,2*
G04 #@! TO.N,Net-(C9-Pad2)*
X194301100Y-104203600D03*
G04 #@! TD*
G04 #@! TO.P,RIGHT-KEY1,1*
G04 #@! TO.N,Net-(C8-Pad1)*
X194301100Y-91703600D03*
G04 #@! TO.P,RIGHT-KEY1,2*
G04 #@! TO.N,Net-(C8-Pad2)*
X194301100Y-94203600D03*
G04 #@! TD*
D11*
G04 #@! TO.P,KEYPAD2,2*
G04 #@! TO.N,Net-(FROM-AMP1-Pad2)*
X117631100Y-96903600D03*
G04 #@! TO.P,KEYPAD2,1*
G04 #@! TO.N,Net-(CN1-MICIN1-Pad5)*
X120171100Y-96903600D03*
G04 #@! TD*
D12*
G04 #@! TO.P,TO-AMP,1*
G04 #@! TO.N,Net-(CN1-MICIN1-Pad1)*
X110201100Y-84203600D03*
G04 #@! TO.P,TO-AMP,2*
G04 #@! TO.N,Net-(CN1-MICIN1-Pad2)*
X112701100Y-84203600D03*
G04 #@! TD*
G04 #@! TO.P,FROM-AMP,1*
G04 #@! TO.N,Net-(FROM-AMP1-Pad1)*
X110201100Y-96203600D03*
G04 #@! TO.P,FROM-AMP,2*
G04 #@! TO.N,Net-(FROM-AMP1-Pad2)*
X112701100Y-96203600D03*
G04 #@! TD*
D11*
G04 #@! TO.P,KEYPAD1,2*
G04 #@! TO.N,Net-(C3-Pad2)*
X120371100Y-103803600D03*
G04 #@! TO.P,KEYPAD1,1*
G04 #@! TO.N,Net-(KEYPAD1-Pad1)*
X117831100Y-103803600D03*
G04 #@! TD*
D13*
G04 #@! TO.P,R3,2*
G04 #@! TO.N,Net-(C6-Pad1)*
X117211100Y-119203600D03*
G04 #@! TO.P,R3,1*
G04 #@! TO.N,Net-(KEYPAD1-Pad1)*
X109591100Y-119203600D03*
G04 #@! TD*
G04 #@! TO.P,R4,2*
G04 #@! TO.N,Net-(C5-Pad1)*
X129311100Y-119303600D03*
G04 #@! TO.P,R4,1*
G04 #@! TO.N,Net-(C6-Pad1)*
X121691100Y-119303600D03*
G04 #@! TD*
G04 #@! TO.P,R5,2*
G04 #@! TO.N,Net-(C4-Pad1)*
X142211100Y-119503600D03*
G04 #@! TO.P,R5,1*
G04 #@! TO.N,Net-(C5-Pad1)*
X134591100Y-119503600D03*
G04 #@! TD*
G04 #@! TO.P,R6,2*
G04 #@! TO.N,Net-(C3-Pad1)*
X155111100Y-119403600D03*
G04 #@! TO.P,R6,1*
G04 #@! TO.N,Net-(C4-Pad1)*
X147491100Y-119403600D03*
G04 #@! TD*
G04 #@! TO.P,OK1,4*
G04 #@! TO.N,Net-(C6-Pad1)*
X116911100Y-122333600D03*
G04 #@! TO.P,OK1,3*
G04 #@! TO.N,Net-(C3-Pad2)*
X116911100Y-124873600D03*
G04 #@! TO.P,OK1,2*
G04 #@! TO.N,Net-(OK1-Pad2)*
X109291100Y-124873600D03*
G04 #@! TO.P,OK1,1*
G04 #@! TO.N,Net-(OK1-Pad1)*
X109291100Y-122333600D03*
G04 #@! TD*
G04 #@! TO.P,OK2,4*
G04 #@! TO.N,Net-(C5-Pad1)*
X129411100Y-122233600D03*
G04 #@! TO.P,OK2,3*
G04 #@! TO.N,Net-(C3-Pad2)*
X129411100Y-124773600D03*
G04 #@! TO.P,OK2,2*
G04 #@! TO.N,Net-(OK1-Pad2)*
X121791100Y-124773600D03*
G04 #@! TO.P,OK2,1*
G04 #@! TO.N,Net-(OK2-Pad1)*
X121791100Y-122233600D03*
G04 #@! TD*
G04 #@! TO.P,OK3,4*
G04 #@! TO.N,Net-(C4-Pad1)*
X142311100Y-122233600D03*
G04 #@! TO.P,OK3,3*
G04 #@! TO.N,Net-(C3-Pad2)*
X142311100Y-124773600D03*
G04 #@! TO.P,OK3,2*
G04 #@! TO.N,Net-(OK1-Pad2)*
X134691100Y-124773600D03*
G04 #@! TO.P,OK3,1*
G04 #@! TO.N,Net-(OK3-Pad1)*
X134691100Y-122233600D03*
G04 #@! TD*
G04 #@! TO.P,OK4,4*
G04 #@! TO.N,Net-(C3-Pad1)*
X155311100Y-122233600D03*
G04 #@! TO.P,OK4,3*
G04 #@! TO.N,Net-(C3-Pad2)*
X155311100Y-124773600D03*
G04 #@! TO.P,OK4,2*
G04 #@! TO.N,Net-(OK1-Pad2)*
X147691100Y-124773600D03*
G04 #@! TO.P,OK4,1*
G04 #@! TO.N,Net-(OK4-Pad1)*
X147691100Y-122233600D03*
G04 #@! TD*
D12*
G04 #@! TO.P,TO-ARUDINO1,1*
G04 #@! TO.N,Net-(R7-Pad1)*
X102701100Y-119003600D03*
G04 #@! TO.P,TO-ARUDINO1,2*
G04 #@! TO.N,Net-(R8-Pad1)*
X102701100Y-116503600D03*
G04 #@! TO.P,TO-ARUDINO1,3*
G04 #@! TO.N,Net-(R9-Pad1)*
X102701100Y-114003600D03*
G04 #@! TO.P,TO-ARUDINO1,4*
G04 #@! TO.N,Net-(R10-Pad1)*
X102701100Y-111503600D03*
G04 #@! TO.P,TO-ARUDINO1,5*
G04 #@! TO.N,Net-(OK1-Pad2)*
X102701100Y-109003600D03*
G04 #@! TD*
G04 #@! TO.P,TO-KEYPADSW1,1*
G04 #@! TO.N,Net-(C6-Pad1)*
X102701100Y-102003600D03*
G04 #@! TO.P,TO-KEYPADSW1,2*
G04 #@! TO.N,Net-(C5-Pad1)*
X102701100Y-99503600D03*
G04 #@! TO.P,TO-KEYPADSW1,3*
G04 #@! TO.N,Net-(C4-Pad1)*
X102701100Y-97003600D03*
G04 #@! TO.P,TO-KEYPADSW1,4*
G04 #@! TO.N,Net-(C3-Pad1)*
X102701100Y-94503600D03*
G04 #@! TO.P,TO-KEYPADSW1,5*
G04 #@! TO.N,Net-(C3-Pad2)*
X102701100Y-92003600D03*
G04 #@! TD*
D13*
G04 #@! TO.P,R7,2*
G04 #@! TO.N,Net-(OK1-Pad1)*
X117311100Y-116003600D03*
G04 #@! TO.P,R7,1*
G04 #@! TO.N,Net-(R7-Pad1)*
X109691100Y-116003600D03*
G04 #@! TD*
G04 #@! TO.P,R8,2*
G04 #@! TO.N,Net-(OK2-Pad1)*
X117311100Y-113003600D03*
G04 #@! TO.P,R8,1*
G04 #@! TO.N,Net-(R8-Pad1)*
X109691100Y-113003600D03*
G04 #@! TD*
G04 #@! TO.P,R9,2*
G04 #@! TO.N,Net-(OK3-Pad1)*
X117311100Y-110003600D03*
G04 #@! TO.P,R9,1*
G04 #@! TO.N,Net-(R9-Pad1)*
X109691100Y-110003600D03*
G04 #@! TD*
G04 #@! TO.P,R10,2*
G04 #@! TO.N,Net-(OK4-Pad1)*
X117311100Y-107003600D03*
G04 #@! TO.P,R10,1*
G04 #@! TO.N,Net-(R10-Pad1)*
X109691100Y-107003600D03*
G04 #@! TD*
G04 #@! TO.P,C1,2*
G04 #@! TO.N,GND*
X185231100Y-119903600D03*
G04 #@! TO.P,C1,1*
G04 #@! TO.N,Net-(C1-Pad1)*
X187771100Y-119903600D03*
G04 #@! TD*
G04 #@! TO.P,C2,2*
G04 #@! TO.N,GND*
X163771100Y-119403600D03*
G04 #@! TO.P,C2,1*
G04 #@! TO.N,Net-(C2-Pad1)*
X161231100Y-119403600D03*
G04 #@! TD*
G04 #@! TO.P,C3,2*
G04 #@! TO.N,Net-(C3-Pad2)*
X114271100Y-128103600D03*
G04 #@! TO.P,C3,1*
G04 #@! TO.N,Net-(C3-Pad1)*
X111731100Y-128103600D03*
G04 #@! TD*
G04 #@! TO.P,C4,2*
G04 #@! TO.N,Net-(C3-Pad2)*
X124231100Y-128003600D03*
G04 #@! TO.P,C4,1*
G04 #@! TO.N,Net-(C4-Pad1)*
X126771100Y-128003600D03*
G04 #@! TD*
G04 #@! TO.P,C5,2*
G04 #@! TO.N,Net-(C3-Pad2)*
X139771100Y-128003600D03*
G04 #@! TO.P,C5,1*
G04 #@! TO.N,Net-(C5-Pad1)*
X137231100Y-128003600D03*
G04 #@! TD*
G04 #@! TO.P,C6,2*
G04 #@! TO.N,Net-(C3-Pad2)*
X152971100Y-128003600D03*
G04 #@! TO.P,C6,1*
G04 #@! TO.N,Net-(C6-Pad1)*
X150431100Y-128003600D03*
G04 #@! TD*
G04 #@! TO.P,C7,2*
G04 #@! TO.N,Net-(C7-Pad2)*
X188201100Y-114273600D03*
G04 #@! TO.P,C7,1*
G04 #@! TO.N,Net-(C7-Pad1)*
X188201100Y-111733600D03*
G04 #@! TD*
G04 #@! TO.P,C8,2*
G04 #@! TO.N,Net-(C8-Pad2)*
X188101100Y-94273600D03*
G04 #@! TO.P,C8,1*
G04 #@! TO.N,Net-(C8-Pad1)*
X188101100Y-91733600D03*
G04 #@! TD*
G04 #@! TO.P,C9,2*
G04 #@! TO.N,Net-(C9-Pad2)*
X188201100Y-104273600D03*
G04 #@! TO.P,C9,1*
G04 #@! TO.N,Net-(C9-Pad1)*
X188201100Y-101733600D03*
G04 #@! TD*
D15*
G04 #@! TO.N,Net-(C6-Pad1)*
X108407100Y-102063600D03*
G04 #@! TO.N,Net-(C5-Pad1)*
X139903100Y-124669600D03*
D16*
G04 #@! TO.N,Net-(C4-Pad1)*
X121501100Y-126503600D03*
D15*
G04 #@! TO.N,Net-(C3-Pad1)*
X117551100Y-129241600D03*
G04 #@! TO.N,Net-(OK1-Pad2)*
X127457100Y-126447600D03*
G04 #@! TO.N,Net-(CN2-RIGHT1-Pad1)*
X144729100Y-81489600D03*
G04 #@! TO.N,Net-(CN2-RIGHT1-Pad2)*
X136093100Y-88347600D03*
G04 #@! TO.N,Net-(FROM-AMP1-Pad2)*
X125679100Y-102063600D03*
G04 #@! TO.N,Net-(CN2-RIGHT1-Pad3)*
X142189100Y-95205600D03*
X151333100Y-86061600D03*
G04 #@! TO.N,Net-(CN1-MICIN1-Pad6)*
X139395100Y-90125600D03*
G04 #@! TO.N,Net-(CN1-MICIN1-Pad7)*
X140919100Y-89109600D03*
G04 #@! TD*
D17*
G04 #@! TO.N,+5V*
X135077100Y-116287600D02*
X132537100Y-116287600D01*
X136601100Y-117811600D02*
X135077100Y-116287600D01*
X143713100Y-117811600D02*
X136601100Y-117811600D01*
X145237100Y-116287600D02*
X143713100Y-117811600D01*
X132537100Y-116287600D02*
X132465100Y-116038600D01*
X145237100Y-116287600D02*
X145457100Y-116054600D01*
X164033100Y-124415600D02*
X164033100Y-125939600D01*
X158699100Y-119081600D02*
X164033100Y-124415600D01*
X158699100Y-116033600D02*
X158699100Y-117557600D01*
X158699100Y-117557600D02*
X158699100Y-119081600D01*
X164033100Y-125939600D02*
X164266100Y-125993600D01*
X158699100Y-116033600D02*
X158487100Y-115987600D01*
X166827100Y-116033600D02*
X171399100Y-116033600D01*
X165303100Y-117557600D02*
X166827100Y-116033600D01*
X158699100Y-117557600D02*
X165303100Y-117557600D01*
X171399100Y-116033600D02*
X171468100Y-115946600D01*
X148285100Y-116287600D02*
X145745100Y-116287600D01*
X149555100Y-117557600D02*
X148285100Y-116287600D01*
X158699100Y-117557600D02*
X149555100Y-117557600D01*
X145745100Y-116287600D02*
X145457100Y-116054600D01*
D18*
G04 #@! TO.N,GND*
X167335100Y-119335600D02*
X163779100Y-119335600D01*
X168859100Y-117811600D02*
X167335100Y-119335600D01*
X176479100Y-117811600D02*
X168859100Y-117811600D01*
X179019100Y-120351600D02*
X176479100Y-117811600D01*
X179019100Y-121113600D02*
X179019100Y-120351600D01*
X163779100Y-119335600D02*
X163771100Y-119403600D01*
X179019100Y-121113600D02*
X179233100Y-121172600D01*
X193751100Y-120859600D02*
X193751100Y-120351600D01*
X190449100Y-124161600D02*
X193751100Y-120859600D01*
X187655100Y-124161600D02*
X190449100Y-124161600D01*
X186131100Y-125685600D02*
X187655100Y-124161600D01*
X193751100Y-120351600D02*
X193871100Y-120351600D01*
X186131100Y-125685600D02*
X185985100Y-125920600D01*
D17*
G04 #@! TO.N,Net-(D1-PadA)*
X161493100Y-112985600D02*
X163525100Y-112985600D01*
X159715100Y-111207600D02*
X161493100Y-112985600D01*
X152603100Y-111207600D02*
X159715100Y-111207600D01*
X150825100Y-112985600D02*
X152603100Y-111207600D01*
X163525100Y-112985600D02*
X163616100Y-113070600D01*
X150825100Y-112985600D02*
X150621100Y-113023600D01*
D18*
G04 #@! TO.N,Net-(C8-Pad2)*
X181559100Y-95205600D02*
X176987100Y-95205600D01*
X183083100Y-93681600D02*
X181559100Y-95205600D01*
X187401100Y-93681600D02*
X183083100Y-93681600D01*
X187909100Y-94189600D02*
X187401100Y-93681600D01*
X176987100Y-95205600D02*
X176791100Y-95433600D01*
X187909100Y-94189600D02*
X188101100Y-94273600D01*
G04 #@! TO.N,Net-(C3-Pad2)*
X131267100Y-124923600D02*
X129489100Y-124923600D01*
X132791100Y-126447600D02*
X131267100Y-124923600D01*
X138125100Y-126447600D02*
X132791100Y-126447600D01*
X139649100Y-127971600D02*
X138125100Y-126447600D01*
X129489100Y-124923600D02*
X129411100Y-124773600D01*
X139649100Y-127971600D02*
X139771100Y-128003600D01*
X111201100Y-119081600D02*
X116789100Y-124669600D01*
X111201100Y-112477600D02*
X111201100Y-119081600D01*
X110185100Y-111461600D02*
X111201100Y-112477600D01*
X108915100Y-111461600D02*
X110185100Y-111461600D01*
X101041100Y-103587600D02*
X108915100Y-111461600D01*
X101041100Y-93681600D02*
X101041100Y-103587600D01*
X102565100Y-92157600D02*
X101041100Y-93681600D01*
X116789100Y-124669600D02*
X116911100Y-124873600D01*
X102565100Y-92157600D02*
X102701100Y-92003600D01*
X119583100Y-102825600D02*
X120345100Y-103587600D01*
X119583100Y-102571600D02*
X119583100Y-102825600D01*
X115011100Y-97999600D02*
X119583100Y-102571600D01*
X108661100Y-97999600D02*
X115011100Y-97999600D01*
X102819100Y-92157600D02*
X108661100Y-97999600D01*
X120345100Y-103587600D02*
X120371100Y-103803600D01*
X102819100Y-92157600D02*
X102701100Y-92003600D01*
G04 #@! TO.N,Net-(C6-Pad1)*
X120853100Y-119335600D02*
X121615100Y-119335600D01*
X118059100Y-122129600D02*
X120853100Y-119335600D01*
X117043100Y-122129600D02*
X118059100Y-122129600D01*
X121615100Y-119335600D02*
X121691100Y-119303600D01*
X117043100Y-122129600D02*
X116911100Y-122333600D01*
X141681100Y-128225600D02*
X150317100Y-128225600D01*
X140411100Y-129495600D02*
X141681100Y-128225600D01*
X132029100Y-129495600D02*
X140411100Y-129495600D01*
X121869100Y-119335600D02*
X132029100Y-129495600D01*
X150317100Y-128225600D02*
X150431100Y-128003600D01*
X121869100Y-119335600D02*
X121691100Y-119303600D01*
X115773100Y-109429600D02*
X108407100Y-102063600D01*
X115773100Y-117811600D02*
X115773100Y-109429600D01*
X117043100Y-119081600D02*
X115773100Y-117811600D01*
X117043100Y-119081600D02*
X117211100Y-119203600D01*
G04 #@! TO.N,Net-(C5-Pad1)*
X134823100Y-119589600D02*
X139903100Y-124669600D01*
X134823100Y-119589600D02*
X134591100Y-119503600D01*
X104343100Y-99523600D02*
X102819100Y-99523600D01*
X114757100Y-109937600D02*
X104343100Y-99523600D01*
X114757100Y-118827600D02*
X114757100Y-109937600D01*
X116789100Y-120859600D02*
X114757100Y-118827600D01*
X117805100Y-120859600D02*
X116789100Y-120859600D01*
X120853100Y-117811600D02*
X117805100Y-120859600D01*
X127965100Y-117811600D02*
X120853100Y-117811600D01*
X129235100Y-119081600D02*
X127965100Y-117811600D01*
X102819100Y-99523600D02*
X102701100Y-99503600D01*
X129235100Y-119081600D02*
X129311100Y-119303600D01*
G04 #@! TO.N,Net-(C4-Pad1)*
X126695100Y-127971600D02*
X126771100Y-128003600D01*
D19*
X126771100Y-127971100D02*
X126771100Y-128003600D01*
D20*
X126110701Y-127343201D02*
X126771100Y-128003600D01*
X125271100Y-126503600D02*
X126110701Y-127343201D01*
X121501100Y-126503600D02*
X125271100Y-126503600D01*
D18*
G04 #@! TO.N,Net-(C3-Pad1)*
X114757100Y-126447600D02*
X117551100Y-129241600D01*
X113487100Y-126447600D02*
X114757100Y-126447600D01*
X111963100Y-127971600D02*
X113487100Y-126447600D01*
X111963100Y-127971600D02*
X111731100Y-128103600D01*
G04 #@! TO.N,Net-(OK1-Pad2)*
X138633100Y-124923600D02*
X134823100Y-124923600D01*
X140157100Y-126447600D02*
X138633100Y-124923600D01*
X145999100Y-126447600D02*
X140157100Y-126447600D01*
X147523100Y-124923600D02*
X145999100Y-126447600D01*
X134823100Y-124923600D02*
X134691100Y-124773600D01*
X147523100Y-124923600D02*
X147691100Y-124773600D01*
X114757100Y-124923600D02*
X109423100Y-124923600D01*
X116281100Y-126447600D02*
X114757100Y-124923600D01*
X120091100Y-126447600D02*
X116281100Y-126447600D01*
X121615100Y-124923600D02*
X120091100Y-126447600D01*
X109423100Y-124923600D02*
X109291100Y-124873600D01*
X121615100Y-124923600D02*
X121791100Y-124773600D01*
X106375100Y-112731600D02*
X102819100Y-109175600D01*
X106375100Y-122891600D02*
X106375100Y-112731600D01*
X108153100Y-124669600D02*
X106375100Y-122891600D01*
X109169100Y-124669600D02*
X108153100Y-124669600D01*
X102819100Y-109175600D02*
X102701100Y-109003600D01*
X109169100Y-124669600D02*
X109291100Y-124873600D01*
X126695100Y-126447600D02*
X127457100Y-126447600D01*
X125171100Y-124923600D02*
X126695100Y-126447600D01*
X121869100Y-124923600D02*
X125171100Y-124923600D01*
X121869100Y-124923600D02*
X121791100Y-124773600D01*
G04 #@! TO.N,Net-(OK3-Pad1)*
X124663100Y-110191600D02*
X117551100Y-110191600D01*
X130251100Y-115779600D02*
X124663100Y-110191600D01*
X130251100Y-117811600D02*
X130251100Y-115779600D01*
X134569100Y-122129600D02*
X130251100Y-117811600D01*
X117551100Y-110191600D02*
X117311100Y-110003600D01*
X134569100Y-122129600D02*
X134691100Y-122233600D01*
G04 #@! TO.N,Net-(CN2-RIGHT1-Pad1)*
X124409100Y-91649600D02*
X124409100Y-95205600D01*
X118313100Y-85553600D02*
X124409100Y-91649600D01*
X118313100Y-83013600D02*
X118313100Y-85553600D01*
X119837100Y-81489600D02*
X118313100Y-83013600D01*
X144729100Y-81489600D02*
X119837100Y-81489600D01*
X124409100Y-95205600D02*
X124599100Y-95294600D01*
G04 #@! TO.N,Net-(CN2-RIGHT1-Pad2)*
X132283100Y-92157600D02*
X132283100Y-95205600D01*
X136093100Y-88347600D02*
X132283100Y-92157600D01*
X132283100Y-95205600D02*
X132219100Y-95294600D01*
G04 #@! TO.N,Net-(FROM-AMP1-Pad2)*
X122377100Y-102063600D02*
X125679100Y-102063600D01*
X117805100Y-97491600D02*
X122377100Y-102063600D01*
X117805100Y-96983600D02*
X117805100Y-97491600D01*
X117805100Y-96983600D02*
X117631100Y-96903600D01*
G04 #@! TO.N,Net-(CN1-MICIN1-Pad3)*
X137363100Y-103079600D02*
X137363100Y-105365600D01*
X134569100Y-100285600D02*
X137363100Y-103079600D01*
X134569100Y-99777600D02*
X134569100Y-100285600D01*
X131775100Y-96983600D02*
X134569100Y-99777600D01*
X130759100Y-96983600D02*
X131775100Y-96983600D01*
X127965100Y-94189600D02*
X130759100Y-96983600D01*
X127965100Y-86061600D02*
X127965100Y-94189600D01*
X126187100Y-84283600D02*
X127965100Y-86061600D01*
X137363100Y-105365600D02*
X137583100Y-105443600D01*
X126187100Y-84283600D02*
X126001100Y-84203600D01*
G04 #@! TO.N,Net-(CN3-LEFT1-Pad3)*
X142189100Y-100285600D02*
X137617100Y-100285600D01*
X145491100Y-96983600D02*
X142189100Y-100285600D01*
X146507100Y-96983600D02*
X145491100Y-96983600D01*
X148285100Y-95205600D02*
X146507100Y-96983600D01*
X148285100Y-86823600D02*
X148285100Y-95205600D01*
X150825100Y-84283600D02*
X148285100Y-86823600D01*
X137617100Y-100285600D02*
X137583100Y-100363600D01*
X150825100Y-84283600D02*
X151001100Y-84203600D01*
G04 #@! TO.N,Net-(CN2-RIGHT1-Pad3)*
X142189100Y-95205600D02*
X137617100Y-95205600D01*
X162763100Y-86061600D02*
X151333100Y-86061600D01*
X163017100Y-85807600D02*
X162763100Y-86061600D01*
X174447100Y-85807600D02*
X163017100Y-85807600D01*
X175971100Y-84283600D02*
X174447100Y-85807600D01*
X137617100Y-95205600D02*
X137583100Y-95283600D01*
X175971100Y-84283600D02*
X176001100Y-84203600D01*
G04 #@! TO.N,Net-(CN2-RIGHT1-Pad4)*
X144983100Y-85553600D02*
X144983100Y-95205600D01*
X144221100Y-84791600D02*
X144983100Y-85553600D01*
X144221100Y-83521600D02*
X144221100Y-84791600D01*
X145237100Y-82505600D02*
X144221100Y-83521600D01*
X176733100Y-82505600D02*
X145237100Y-82505600D01*
X178257100Y-84029600D02*
X176733100Y-82505600D01*
X144983100Y-95205600D02*
X145203100Y-95283600D01*
X178257100Y-84029600D02*
X178501100Y-84203600D01*
G04 #@! TO.N,Net-(CN1-MICIN1-Pad4)*
X140411100Y-105619600D02*
X144983100Y-105619600D01*
X138887100Y-107143600D02*
X140411100Y-105619600D01*
X136347100Y-107143600D02*
X138887100Y-107143600D01*
X134569100Y-105365600D02*
X136347100Y-107143600D01*
X134569100Y-104857600D02*
X134569100Y-105365600D01*
X131775100Y-102063600D02*
X134569100Y-104857600D01*
X130759100Y-102063600D02*
X131775100Y-102063600D01*
X126949100Y-98253600D02*
X130759100Y-102063600D01*
X126949100Y-92665600D02*
X126949100Y-98253600D01*
X119329100Y-85045600D02*
X126949100Y-92665600D01*
X119329100Y-83521600D02*
X119329100Y-85045600D01*
X120345100Y-82505600D02*
X119329100Y-83521600D01*
X126949100Y-82505600D02*
X120345100Y-82505600D01*
X128473100Y-84029600D02*
X126949100Y-82505600D01*
X144983100Y-105619600D02*
X145203100Y-105443600D01*
X128473100Y-84029600D02*
X128501100Y-84203600D01*
G04 #@! TO.N,Net-(CN1-MICIN1-Pad5)*
X148031100Y-105619600D02*
X150571100Y-105619600D01*
X145491100Y-108159600D02*
X148031100Y-105619600D01*
X131775100Y-108159600D02*
X145491100Y-108159600D01*
X126949100Y-103333600D02*
X131775100Y-108159600D01*
X126949100Y-99777600D02*
X126949100Y-103333600D01*
X124155100Y-96983600D02*
X126949100Y-99777600D01*
X120345100Y-96983600D02*
X124155100Y-96983600D01*
X150571100Y-105619600D02*
X150621100Y-105403600D01*
X120345100Y-96983600D02*
X120171100Y-96903600D01*
G04 #@! TO.N,Net-(CN2-RIGHT1-Pad5)*
X155143100Y-95205600D02*
X150825100Y-95205600D01*
X163525100Y-86823600D02*
X155143100Y-95205600D01*
X178257100Y-86823600D02*
X163525100Y-86823600D01*
X180797100Y-84283600D02*
X178257100Y-86823600D01*
X150825100Y-95205600D02*
X150621100Y-95243600D01*
X180797100Y-84283600D02*
X181001100Y-84203600D01*
G04 #@! TO.N,Net-(CN2-RIGHT1-Pad6)*
X160731100Y-95205600D02*
X158445100Y-95205600D01*
X168097100Y-87839600D02*
X160731100Y-95205600D01*
X179781100Y-87839600D02*
X168097100Y-87839600D01*
X183337100Y-84283600D02*
X179781100Y-87839600D01*
X158445100Y-95205600D02*
X158241100Y-95243600D01*
X183337100Y-84283600D02*
X183501100Y-84203600D01*
G04 #@! TO.N,Net-(CN1-MICIN1-Pad6)*
X133553100Y-84283600D02*
X139395100Y-90125600D01*
X133553100Y-84283600D02*
X133501100Y-84203600D01*
G04 #@! TO.N,Net-(CN1-MICIN1-Pad7)*
X136093100Y-84283600D02*
X140919100Y-89109600D01*
X136093100Y-84283600D02*
X136001100Y-84203600D01*
G04 #@! TO.N,Net-(CN2-RIGHT1-Pad7)*
X168351100Y-95205600D02*
X163779100Y-95205600D01*
X174701100Y-88855600D02*
X168351100Y-95205600D01*
X181305100Y-88855600D02*
X174701100Y-88855600D01*
X185877100Y-84283600D02*
X181305100Y-88855600D01*
X163779100Y-95205600D02*
X163616100Y-95290600D01*
X185877100Y-84283600D02*
X186001100Y-84203600D01*
G04 #@! TD*
M02*
