G04 #@! TF.GenerationSoftware,KiCad,Pcbnew,(5.0.0)*
G04 #@! TF.CreationDate,2018-11-08T09:58:05+09:00*
G04 #@! TF.ProjectId,MicSwitch003,4D69635377697463683030332E6B6963,rev?*
G04 #@! TF.SameCoordinates,Original*
G04 #@! TF.FileFunction,Soldermask,Bot*
G04 #@! TF.FilePolarity,Negative*
%FSLAX46Y46*%
G04 Gerber Fmt 4.6, Leading zero omitted, Abs format (unit mm)*
G04 Created by KiCad (PCBNEW (5.0.0)) date 11/08/18 09:58:05*
%MOMM*%
%LPD*%
G01*
G04 APERTURE LIST*
%ADD10O,2.743200X1.422400*%
%ADD11O,1.625600X3.149600*%
%ADD12C,1.778000*%
%ADD13C,1.422400*%
%ADD14O,3.149600X1.625600*%
%ADD15C,3.600000*%
G04 APERTURE END LIST*
D10*
G04 #@! TO.C,D1*
X124845100Y-116038600D03*
X132465100Y-116038600D03*
G04 #@! TD*
G04 #@! TO.C,D2*
X137837100Y-116054600D03*
X145457100Y-116054600D03*
G04 #@! TD*
G04 #@! TO.C,D3*
X150867100Y-115987600D03*
X158487100Y-115987600D03*
G04 #@! TD*
G04 #@! TO.C,D4*
X163848100Y-115946600D03*
X171468100Y-115946600D03*
G04 #@! TD*
D11*
G04 #@! TO.C,DSS1*
X191331100Y-120351600D03*
X193871100Y-120351600D03*
X196411100Y-120351600D03*
G04 #@! TD*
D12*
G04 #@! TO.C,DC+5V1*
X188485100Y-125920600D03*
X185985100Y-125920600D03*
G04 #@! TD*
G04 #@! TO.C,CONTROL1*
X164266100Y-125993600D03*
X161766100Y-125993600D03*
G04 #@! TD*
D11*
G04 #@! TO.C,Q1*
X179233100Y-121172600D03*
X176693100Y-121172600D03*
X174153100Y-121172600D03*
G04 #@! TD*
D13*
G04 #@! TO.C,R1*
X169458100Y-119369600D03*
X169458100Y-126989600D03*
G04 #@! TD*
G04 #@! TO.C,R2*
X173515100Y-126993600D03*
X181135100Y-126993600D03*
G04 #@! TD*
D14*
G04 #@! TO.C,RL1*
X124599100Y-113074600D03*
X124599100Y-105454600D03*
X124599100Y-100374600D03*
X124599100Y-95294600D03*
X132219100Y-95294600D03*
X132219100Y-100374600D03*
X132219100Y-105454600D03*
X132219100Y-113074600D03*
G04 #@! TD*
G04 #@! TO.C,RL2*
X137583100Y-113063600D03*
X137583100Y-105443600D03*
X137583100Y-100363600D03*
X137583100Y-95283600D03*
X145203100Y-95283600D03*
X145203100Y-100363600D03*
X145203100Y-105443600D03*
X145203100Y-113063600D03*
G04 #@! TD*
G04 #@! TO.C,RL3*
X150621100Y-113023600D03*
X150621100Y-105403600D03*
X150621100Y-100323600D03*
X150621100Y-95243600D03*
X158241100Y-95243600D03*
X158241100Y-100323600D03*
X158241100Y-105403600D03*
X158241100Y-113023600D03*
G04 #@! TD*
G04 #@! TO.C,RL4*
X163616100Y-113070600D03*
X163616100Y-105450600D03*
X163616100Y-100370600D03*
X163616100Y-95290600D03*
X171236100Y-95290600D03*
X171236100Y-100370600D03*
X171236100Y-105450600D03*
X171236100Y-113070600D03*
G04 #@! TD*
D12*
G04 #@! TO.C,CN1-MICIN1*
X121001100Y-84203600D03*
X123501100Y-84203600D03*
X126001100Y-84203600D03*
X128501100Y-84203600D03*
X131001100Y-84203600D03*
X133501100Y-84203600D03*
X136001100Y-84203600D03*
X138501100Y-84203600D03*
G04 #@! TD*
G04 #@! TO.C,CN2-RIGHT1*
X171001100Y-84203600D03*
X173501100Y-84203600D03*
X176001100Y-84203600D03*
X178501100Y-84203600D03*
X181001100Y-84203600D03*
X183501100Y-84203600D03*
X186001100Y-84203600D03*
X188501100Y-84203600D03*
G04 #@! TD*
G04 #@! TO.C,CN3-LEFT1*
X146001100Y-84203600D03*
X148501100Y-84203600D03*
X151001100Y-84203600D03*
X153501100Y-84203600D03*
X156001100Y-84203600D03*
X158501100Y-84203600D03*
X161001100Y-84203600D03*
X163501100Y-84203600D03*
G04 #@! TD*
D14*
G04 #@! TO.C,RL5*
X176791100Y-113213600D03*
X176791100Y-105593600D03*
X176791100Y-100513600D03*
X176791100Y-95433600D03*
X184411100Y-95433600D03*
X184411100Y-100513600D03*
X184411100Y-105593600D03*
X184411100Y-113213600D03*
G04 #@! TD*
D10*
G04 #@! TO.C,D5*
X176691100Y-116003600D03*
X184311100Y-116003600D03*
G04 #@! TD*
D12*
G04 #@! TO.C,KEY-IN1*
X194301100Y-111703600D03*
X194301100Y-114203600D03*
G04 #@! TD*
G04 #@! TO.C,LEFT-KEY1*
X194301100Y-101703600D03*
X194301100Y-104203600D03*
G04 #@! TD*
G04 #@! TO.C,RIGHT-KEY1*
X194301100Y-91703600D03*
X194301100Y-94203600D03*
G04 #@! TD*
D11*
G04 #@! TO.C,KEYPAD2*
X117631100Y-96903600D03*
X120171100Y-96903600D03*
G04 #@! TD*
D12*
G04 #@! TO.C,TO-AMP*
X110201100Y-84203600D03*
X112701100Y-84203600D03*
G04 #@! TD*
G04 #@! TO.C,FROM-AMP*
X110201100Y-96203600D03*
X112701100Y-96203600D03*
G04 #@! TD*
D11*
G04 #@! TO.C,KEYPAD1*
X120371100Y-103803600D03*
X117831100Y-103803600D03*
G04 #@! TD*
D13*
G04 #@! TO.C,R3*
X117211100Y-119203600D03*
X109591100Y-119203600D03*
G04 #@! TD*
G04 #@! TO.C,R4*
X129311100Y-119303600D03*
X121691100Y-119303600D03*
G04 #@! TD*
G04 #@! TO.C,R5*
X142211100Y-119503600D03*
X134591100Y-119503600D03*
G04 #@! TD*
G04 #@! TO.C,R6*
X155111100Y-119403600D03*
X147491100Y-119403600D03*
G04 #@! TD*
G04 #@! TO.C,OK1*
X116911100Y-122333600D03*
X116911100Y-124873600D03*
X109291100Y-124873600D03*
X109291100Y-122333600D03*
G04 #@! TD*
G04 #@! TO.C,OK2*
X129411100Y-122233600D03*
X129411100Y-124773600D03*
X121791100Y-124773600D03*
X121791100Y-122233600D03*
G04 #@! TD*
G04 #@! TO.C,OK3*
X142311100Y-122233600D03*
X142311100Y-124773600D03*
X134691100Y-124773600D03*
X134691100Y-122233600D03*
G04 #@! TD*
G04 #@! TO.C,OK4*
X155311100Y-122233600D03*
X155311100Y-124773600D03*
X147691100Y-124773600D03*
X147691100Y-122233600D03*
G04 #@! TD*
D12*
G04 #@! TO.C,TO-ARUDINO1*
X102701100Y-119003600D03*
X102701100Y-116503600D03*
X102701100Y-114003600D03*
X102701100Y-111503600D03*
X102701100Y-109003600D03*
G04 #@! TD*
G04 #@! TO.C,TO-KEYPADSW1*
X102701100Y-102003600D03*
X102701100Y-99503600D03*
X102701100Y-97003600D03*
X102701100Y-94503600D03*
X102701100Y-92003600D03*
G04 #@! TD*
D13*
G04 #@! TO.C,R7*
X117311100Y-116003600D03*
X109691100Y-116003600D03*
G04 #@! TD*
G04 #@! TO.C,R8*
X117311100Y-113003600D03*
X109691100Y-113003600D03*
G04 #@! TD*
G04 #@! TO.C,R9*
X117311100Y-110003600D03*
X109691100Y-110003600D03*
G04 #@! TD*
G04 #@! TO.C,R10*
X117311100Y-107003600D03*
X109691100Y-107003600D03*
G04 #@! TD*
G04 #@! TO.C,C1*
X185231100Y-119903600D03*
X187771100Y-119903600D03*
G04 #@! TD*
G04 #@! TO.C,C2*
X163771100Y-119403600D03*
X161231100Y-119403600D03*
G04 #@! TD*
G04 #@! TO.C,C3*
X114271100Y-128103600D03*
X111731100Y-128103600D03*
G04 #@! TD*
G04 #@! TO.C,C4*
X124231100Y-128003600D03*
X126771100Y-128003600D03*
G04 #@! TD*
G04 #@! TO.C,C5*
X139771100Y-128003600D03*
X137231100Y-128003600D03*
G04 #@! TD*
G04 #@! TO.C,C6*
X152971100Y-128003600D03*
X150431100Y-128003600D03*
G04 #@! TD*
G04 #@! TO.C,C7*
X188201100Y-114273600D03*
X188201100Y-111733600D03*
G04 #@! TD*
G04 #@! TO.C,C8*
X188101100Y-94273600D03*
X188101100Y-91733600D03*
G04 #@! TD*
G04 #@! TO.C,C9*
X188201100Y-104273600D03*
X188201100Y-101733600D03*
G04 #@! TD*
D15*
G04 #@! TO.C,REF\002A\002A*
X102001100Y-126503600D03*
G04 #@! TD*
G04 #@! TO.C,REF\002A\002A*
X102001100Y-85003600D03*
G04 #@! TD*
G04 #@! TO.C,REF\002A\002A*
X195001100Y-126503600D03*
G04 #@! TD*
G04 #@! TO.C,REF\002A\002A*
X195001100Y-85003600D03*
G04 #@! TD*
M02*
