G04 #@! TF.GenerationSoftware,KiCad,Pcbnew,(5.0.0)*
G04 #@! TF.CreationDate,2018-11-08T09:58:05+09:00*
G04 #@! TF.ProjectId,MicSwitch003,4D69635377697463683030332E6B6963,rev?*
G04 #@! TF.SameCoordinates,Original*
G04 #@! TF.FileFunction,Legend,Top*
G04 #@! TF.FilePolarity,Positive*
%FSLAX46Y46*%
G04 Gerber Fmt 4.6, Leading zero omitted, Abs format (unit mm)*
G04 Created by KiCad (PCBNEW (5.0.0)) date 11/08/18 09:58:05*
%MOMM*%
%LPD*%
G01*
G04 APERTURE LIST*
%ADD10C,0.436880*%
%ADD11C,0.121920*%
%ADD12C,0.097536*%
%ADD13C,0.100000*%
%ADD14C,0.152400*%
%ADD15C,0.127000*%
%ADD16C,0.254000*%
%ADD17C,0.115824*%
%ADD18C,0.096520*%
%ADD19C,0.060000*%
%ADD20C,0.048768*%
%ADD21C,0.057912*%
G04 APERTURE END LIST*
D10*
X134756330Y-91665961D02*
X134756330Y-89590781D01*
X135448057Y-91073053D01*
X136139784Y-89590781D01*
X136139784Y-91665961D01*
X137127965Y-91665961D02*
X137127965Y-90282508D01*
X137127965Y-89590781D02*
X137029147Y-89689600D01*
X137127965Y-89788418D01*
X137226783Y-89689600D01*
X137127965Y-89590781D01*
X137127965Y-89788418D01*
X139005508Y-91567143D02*
X138807872Y-91665961D01*
X138412600Y-91665961D01*
X138214964Y-91567143D01*
X138116146Y-91468325D01*
X138017328Y-91270689D01*
X138017328Y-90677780D01*
X138116146Y-90480144D01*
X138214964Y-90381326D01*
X138412600Y-90282508D01*
X138807872Y-90282508D01*
X139005508Y-90381326D01*
X139796053Y-91567143D02*
X140092508Y-91665961D01*
X140586598Y-91665961D01*
X140784234Y-91567143D01*
X140883052Y-91468325D01*
X140981870Y-91270689D01*
X140981870Y-91073053D01*
X140883052Y-90875417D01*
X140784234Y-90776599D01*
X140586598Y-90677780D01*
X140191326Y-90578962D01*
X139993689Y-90480144D01*
X139894871Y-90381326D01*
X139796053Y-90183690D01*
X139796053Y-89986054D01*
X139894871Y-89788418D01*
X139993689Y-89689600D01*
X140191326Y-89590781D01*
X140685416Y-89590781D01*
X140981870Y-89689600D01*
X141673597Y-90282508D02*
X142068869Y-91665961D01*
X142464142Y-90677780D01*
X142859414Y-91665961D01*
X143254687Y-90282508D01*
X144045231Y-91665961D02*
X144045231Y-90282508D01*
X144045231Y-89590781D02*
X143946413Y-89689600D01*
X144045231Y-89788418D01*
X144144049Y-89689600D01*
X144045231Y-89590781D01*
X144045231Y-89788418D01*
X144736958Y-90282508D02*
X145527503Y-90282508D01*
X145033412Y-89590781D02*
X145033412Y-91369507D01*
X145132230Y-91567143D01*
X145329867Y-91665961D01*
X145527503Y-91665961D01*
X147108592Y-91567143D02*
X146910956Y-91665961D01*
X146515684Y-91665961D01*
X146318048Y-91567143D01*
X146219229Y-91468325D01*
X146120411Y-91270689D01*
X146120411Y-90677780D01*
X146219229Y-90480144D01*
X146318048Y-90381326D01*
X146515684Y-90282508D01*
X146910956Y-90282508D01*
X147108592Y-90381326D01*
X147997955Y-91665961D02*
X147997955Y-89590781D01*
X148887318Y-91665961D02*
X148887318Y-90578962D01*
X148788500Y-90381326D01*
X148590864Y-90282508D01*
X148294409Y-90282508D01*
X148096773Y-90381326D01*
X147997955Y-90480144D01*
X151258952Y-90282508D02*
X151753043Y-91665961D01*
X152247133Y-90282508D01*
X154124677Y-91665961D02*
X152938860Y-91665961D01*
X153531768Y-91665961D02*
X153531768Y-89590781D01*
X153334132Y-89887236D01*
X153136496Y-90084872D01*
X152938860Y-90183690D01*
X155014040Y-91468325D02*
X155112858Y-91567143D01*
X155014040Y-91665961D01*
X154915222Y-91567143D01*
X155014040Y-91468325D01*
X155014040Y-91665961D01*
X156002221Y-91665961D02*
X156002221Y-90282508D01*
X156002221Y-90677780D02*
X156101039Y-90480144D01*
X156199857Y-90381326D01*
X156397493Y-90282508D01*
X156595129Y-90282508D01*
X158275037Y-89590781D02*
X157286856Y-89590781D01*
X157188038Y-90578962D01*
X157286856Y-90480144D01*
X157484492Y-90381326D01*
X157978583Y-90381326D01*
X158176219Y-90480144D01*
X158275037Y-90578962D01*
X158373855Y-90776599D01*
X158373855Y-91270689D01*
X158275037Y-91468325D01*
X158176219Y-91567143D01*
X157978583Y-91665961D01*
X157484492Y-91665961D01*
X157286856Y-91567143D01*
X157188038Y-91468325D01*
D11*
X162585928Y-91005613D02*
X162539967Y-90959651D01*
X162448043Y-90821765D01*
X162402081Y-90729841D01*
X162356119Y-90591956D01*
X162310157Y-90362146D01*
X162310157Y-90178299D01*
X162356119Y-89948489D01*
X162402081Y-89810603D01*
X162448043Y-89718680D01*
X162539967Y-89580794D01*
X162585928Y-89534832D01*
X163367281Y-90591956D02*
X163275357Y-90637918D01*
X163091509Y-90637918D01*
X162999586Y-90591956D01*
X162953624Y-90545994D01*
X162907662Y-90454070D01*
X162907662Y-90178299D01*
X162953624Y-90086375D01*
X162999586Y-90040413D01*
X163091509Y-89994451D01*
X163275357Y-89994451D01*
X163367281Y-90040413D01*
X163689014Y-91005613D02*
X163734976Y-90959651D01*
X163826900Y-90821765D01*
X163872862Y-90729841D01*
X163918824Y-90591956D01*
X163964786Y-90362146D01*
X163964786Y-90178299D01*
X163918824Y-89948489D01*
X163872862Y-89810603D01*
X163826900Y-89718680D01*
X163734976Y-89580794D01*
X163689014Y-89534832D01*
X165113833Y-89764641D02*
X165159795Y-89718680D01*
X165251719Y-89672718D01*
X165481528Y-89672718D01*
X165573452Y-89718680D01*
X165619414Y-89764641D01*
X165665376Y-89856565D01*
X165665376Y-89948489D01*
X165619414Y-90086375D01*
X165067871Y-90637918D01*
X165665376Y-90637918D01*
X166262881Y-89672718D02*
X166354805Y-89672718D01*
X166446728Y-89718680D01*
X166492690Y-89764641D01*
X166538652Y-89856565D01*
X166584614Y-90040413D01*
X166584614Y-90270222D01*
X166538652Y-90454070D01*
X166492690Y-90545994D01*
X166446728Y-90591956D01*
X166354805Y-90637918D01*
X166262881Y-90637918D01*
X166170957Y-90591956D01*
X166124995Y-90545994D01*
X166079033Y-90454070D01*
X166033071Y-90270222D01*
X166033071Y-90040413D01*
X166079033Y-89856565D01*
X166124995Y-89764641D01*
X166170957Y-89718680D01*
X166262881Y-89672718D01*
X167503852Y-90637918D02*
X166952309Y-90637918D01*
X167228081Y-90637918D02*
X167228081Y-89672718D01*
X167136157Y-89810603D01*
X167044233Y-89902527D01*
X166952309Y-89948489D01*
X168055395Y-90086375D02*
X167963471Y-90040413D01*
X167917509Y-89994451D01*
X167871548Y-89902527D01*
X167871548Y-89856565D01*
X167917509Y-89764641D01*
X167963471Y-89718680D01*
X168055395Y-89672718D01*
X168239243Y-89672718D01*
X168331167Y-89718680D01*
X168377128Y-89764641D01*
X168423090Y-89856565D01*
X168423090Y-89902527D01*
X168377128Y-89994451D01*
X168331167Y-90040413D01*
X168239243Y-90086375D01*
X168055395Y-90086375D01*
X167963471Y-90132337D01*
X167917509Y-90178299D01*
X167871548Y-90270222D01*
X167871548Y-90454070D01*
X167917509Y-90545994D01*
X167963471Y-90591956D01*
X168055395Y-90637918D01*
X168239243Y-90637918D01*
X168331167Y-90591956D01*
X168377128Y-90545994D01*
X168423090Y-90454070D01*
X168423090Y-90270222D01*
X168377128Y-90178299D01*
X168331167Y-90132337D01*
X168239243Y-90086375D01*
X168836748Y-90270222D02*
X169572138Y-90270222D01*
X169985795Y-89764641D02*
X170031757Y-89718680D01*
X170123681Y-89672718D01*
X170353490Y-89672718D01*
X170445414Y-89718680D01*
X170491376Y-89764641D01*
X170537338Y-89856565D01*
X170537338Y-89948489D01*
X170491376Y-90086375D01*
X169939833Y-90637918D01*
X170537338Y-90637918D01*
X171134843Y-89672718D02*
X171226767Y-89672718D01*
X171318690Y-89718680D01*
X171364652Y-89764641D01*
X171410614Y-89856565D01*
X171456576Y-90040413D01*
X171456576Y-90270222D01*
X171410614Y-90454070D01*
X171364652Y-90545994D01*
X171318690Y-90591956D01*
X171226767Y-90637918D01*
X171134843Y-90637918D01*
X171042919Y-90591956D01*
X170996957Y-90545994D01*
X170950995Y-90454070D01*
X170905033Y-90270222D01*
X170905033Y-90040413D01*
X170950995Y-89856565D01*
X170996957Y-89764641D01*
X171042919Y-89718680D01*
X171134843Y-89672718D01*
X172375814Y-90637918D02*
X171824271Y-90637918D01*
X172100043Y-90637918D02*
X172100043Y-89672718D01*
X172008119Y-89810603D01*
X171916195Y-89902527D01*
X171824271Y-89948489D01*
X172927357Y-90086375D02*
X172835433Y-90040413D01*
X172789471Y-89994451D01*
X172743509Y-89902527D01*
X172743509Y-89856565D01*
X172789471Y-89764641D01*
X172835433Y-89718680D01*
X172927357Y-89672718D01*
X173111205Y-89672718D01*
X173203128Y-89718680D01*
X173249090Y-89764641D01*
X173295052Y-89856565D01*
X173295052Y-89902527D01*
X173249090Y-89994451D01*
X173203128Y-90040413D01*
X173111205Y-90086375D01*
X172927357Y-90086375D01*
X172835433Y-90132337D01*
X172789471Y-90178299D01*
X172743509Y-90270222D01*
X172743509Y-90454070D01*
X172789471Y-90545994D01*
X172835433Y-90591956D01*
X172927357Y-90637918D01*
X173111205Y-90637918D01*
X173203128Y-90591956D01*
X173249090Y-90545994D01*
X173295052Y-90454070D01*
X173295052Y-90270222D01*
X173249090Y-90178299D01*
X173203128Y-90132337D01*
X173111205Y-90086375D01*
X163321319Y-91242438D02*
X163321319Y-91931866D01*
X163275357Y-92069752D01*
X163183433Y-92161676D01*
X163045548Y-92207638D01*
X162953624Y-92207638D01*
X163780938Y-92207638D02*
X163780938Y-91242438D01*
X164746138Y-92207638D02*
X164194595Y-92207638D01*
X164470367Y-92207638D02*
X164470367Y-91242438D01*
X164378443Y-91380323D01*
X164286519Y-91472247D01*
X164194595Y-91518209D01*
X165481528Y-91702057D02*
X165159795Y-91702057D01*
X165159795Y-92207638D02*
X165159795Y-91242438D01*
X165619414Y-91242438D01*
X166446728Y-92207638D02*
X165987109Y-92207638D01*
X165987109Y-91242438D01*
X167090195Y-91702057D02*
X167228081Y-91748019D01*
X167274043Y-91793980D01*
X167320005Y-91885904D01*
X167320005Y-92023790D01*
X167274043Y-92115714D01*
X167228081Y-92161676D01*
X167136157Y-92207638D01*
X166768462Y-92207638D01*
X166768462Y-91242438D01*
X167090195Y-91242438D01*
X167182119Y-91288400D01*
X167228081Y-91334361D01*
X167274043Y-91426285D01*
X167274043Y-91518209D01*
X167228081Y-91610133D01*
X167182119Y-91656095D01*
X167090195Y-91702057D01*
X166768462Y-91702057D01*
X168423090Y-92161676D02*
X168560976Y-92207638D01*
X168790786Y-92207638D01*
X168882709Y-92161676D01*
X168928671Y-92115714D01*
X168974633Y-92023790D01*
X168974633Y-91931866D01*
X168928671Y-91839942D01*
X168882709Y-91793980D01*
X168790786Y-91748019D01*
X168606938Y-91702057D01*
X168515014Y-91656095D01*
X168469052Y-91610133D01*
X168423090Y-91518209D01*
X168423090Y-91426285D01*
X168469052Y-91334361D01*
X168515014Y-91288400D01*
X168606938Y-91242438D01*
X168836748Y-91242438D01*
X168974633Y-91288400D01*
X169755986Y-92161676D02*
X169664062Y-92207638D01*
X169480214Y-92207638D01*
X169388290Y-92161676D01*
X169342328Y-92069752D01*
X169342328Y-91702057D01*
X169388290Y-91610133D01*
X169480214Y-91564171D01*
X169664062Y-91564171D01*
X169755986Y-91610133D01*
X169801948Y-91702057D01*
X169801948Y-91793980D01*
X169342328Y-91885904D01*
X170215605Y-92207638D02*
X170215605Y-91564171D01*
X170215605Y-91242438D02*
X170169643Y-91288400D01*
X170215605Y-91334361D01*
X170261567Y-91288400D01*
X170215605Y-91242438D01*
X170215605Y-91334361D01*
X170675224Y-92207638D02*
X170675224Y-91564171D01*
X170675224Y-91242438D02*
X170629262Y-91288400D01*
X170675224Y-91334361D01*
X170721186Y-91288400D01*
X170675224Y-91242438D01*
X170675224Y-91334361D01*
X171548500Y-92161676D02*
X171456576Y-92207638D01*
X171272728Y-92207638D01*
X171180805Y-92161676D01*
X171134843Y-92115714D01*
X171088881Y-92023790D01*
X171088881Y-91748019D01*
X171134843Y-91656095D01*
X171180805Y-91610133D01*
X171272728Y-91564171D01*
X171456576Y-91564171D01*
X171548500Y-91610133D01*
X171962157Y-92207638D02*
X171962157Y-91242438D01*
X172375814Y-92207638D02*
X172375814Y-91702057D01*
X172329852Y-91610133D01*
X172237928Y-91564171D01*
X172100043Y-91564171D01*
X172008119Y-91610133D01*
X171962157Y-91656095D01*
X172835433Y-92207638D02*
X172835433Y-91564171D01*
X172835433Y-91242438D02*
X172789471Y-91288400D01*
X172835433Y-91334361D01*
X172881395Y-91288400D01*
X172835433Y-91242438D01*
X172835433Y-91334361D01*
X173892557Y-91242438D02*
X174444100Y-91242438D01*
X174168328Y-92207638D02*
X174168328Y-91242438D01*
X175179490Y-92207638D02*
X175179490Y-91702057D01*
X175133528Y-91610133D01*
X175041605Y-91564171D01*
X174857757Y-91564171D01*
X174765833Y-91610133D01*
X175179490Y-92161676D02*
X175087567Y-92207638D01*
X174857757Y-92207638D01*
X174765833Y-92161676D01*
X174719871Y-92069752D01*
X174719871Y-91977828D01*
X174765833Y-91885904D01*
X174857757Y-91839942D01*
X175087567Y-91839942D01*
X175179490Y-91793980D01*
X175639109Y-91564171D02*
X175639109Y-92207638D01*
X175639109Y-91656095D02*
X175685071Y-91610133D01*
X175776995Y-91564171D01*
X175914881Y-91564171D01*
X176006805Y-91610133D01*
X176052767Y-91702057D01*
X176052767Y-92207638D01*
X176926043Y-92207638D02*
X176926043Y-91702057D01*
X176880081Y-91610133D01*
X176788157Y-91564171D01*
X176604309Y-91564171D01*
X176512386Y-91610133D01*
X176926043Y-92161676D02*
X176834119Y-92207638D01*
X176604309Y-92207638D01*
X176512386Y-92161676D01*
X176466424Y-92069752D01*
X176466424Y-91977828D01*
X176512386Y-91885904D01*
X176604309Y-91839942D01*
X176834119Y-91839942D01*
X176926043Y-91793980D01*
X177385662Y-92207638D02*
X177385662Y-91242438D01*
X177477586Y-91839942D02*
X177753357Y-92207638D01*
X177753357Y-91564171D02*
X177385662Y-91931866D01*
X178580671Y-92207638D02*
X178580671Y-91702057D01*
X178534709Y-91610133D01*
X178442786Y-91564171D01*
X178258938Y-91564171D01*
X178167014Y-91610133D01*
X178580671Y-92161676D02*
X178488748Y-92207638D01*
X178258938Y-92207638D01*
X178167014Y-92161676D01*
X178121052Y-92069752D01*
X178121052Y-91977828D01*
X178167014Y-91885904D01*
X178258938Y-91839942D01*
X178488748Y-91839942D01*
X178580671Y-91793980D01*
D12*
X120152810Y-105431440D02*
X120079271Y-105394670D01*
X119968963Y-105394670D01*
X119858654Y-105431440D01*
X119785115Y-105504979D01*
X119748346Y-105578518D01*
X119711576Y-105725596D01*
X119711576Y-105835904D01*
X119748346Y-105982982D01*
X119785115Y-106056521D01*
X119858654Y-106130060D01*
X119968963Y-106166830D01*
X120042502Y-106166830D01*
X120152810Y-106130060D01*
X120189580Y-106093291D01*
X120189580Y-105835904D01*
X120042502Y-105835904D01*
X120520506Y-106166830D02*
X120520506Y-105394670D01*
X120961740Y-106166830D01*
X120961740Y-105394670D01*
X121329435Y-106166830D02*
X121329435Y-105394670D01*
X121513283Y-105394670D01*
X121623591Y-105431440D01*
X121697130Y-105504979D01*
X121733900Y-105578518D01*
X121770669Y-105725596D01*
X121770669Y-105835904D01*
X121733900Y-105982982D01*
X121697130Y-106056521D01*
X121623591Y-106130060D01*
X121513283Y-106166830D01*
X121329435Y-106166830D01*
D11*
X119968660Y-98731440D02*
X119895121Y-98694670D01*
X119784812Y-98694670D01*
X119674504Y-98731440D01*
X119600965Y-98804979D01*
X119564195Y-98878518D01*
X119527426Y-99025596D01*
X119527426Y-99135904D01*
X119564195Y-99282982D01*
X119600965Y-99356521D01*
X119674504Y-99430060D01*
X119784812Y-99466830D01*
X119858351Y-99466830D01*
X119968660Y-99430060D01*
X120005429Y-99393291D01*
X120005429Y-99135904D01*
X119858351Y-99135904D01*
X120336355Y-99466830D02*
X120336355Y-98694670D01*
X120777589Y-99466830D01*
X120777589Y-98694670D01*
X121145285Y-99466830D02*
X121145285Y-98694670D01*
X121329132Y-98694670D01*
X121439441Y-98731440D01*
X121512980Y-98804979D01*
X121549749Y-98878518D01*
X121586519Y-99025596D01*
X121586519Y-99135904D01*
X121549749Y-99282982D01*
X121512980Y-99356521D01*
X121439441Y-99430060D01*
X121329132Y-99466830D01*
X121145285Y-99466830D01*
D13*
G04 #@! TO.C,D1*
G36*
X131576100Y-115784600D02*
X130941100Y-115784600D01*
X130941100Y-116292600D01*
X131576100Y-116292600D01*
X131576100Y-115784600D01*
G37*
G36*
X126369100Y-115784600D02*
X125734100Y-115784600D01*
X125734100Y-116292600D01*
X126369100Y-116292600D01*
X126369100Y-115784600D01*
G37*
G36*
X130560100Y-115022600D02*
X130052100Y-115022600D01*
X130052100Y-117054600D01*
X130560100Y-117054600D01*
X130560100Y-115022600D01*
G37*
D14*
X130687100Y-117054600D02*
X126623100Y-117054600D01*
X130941100Y-116800600D02*
X130941100Y-115276600D01*
X130687100Y-115022600D02*
X126623100Y-115022600D01*
X130687100Y-115022600D02*
G75*
G02X130941100Y-115276600I0J-254000D01*
G01*
X130687100Y-117054600D02*
G75*
G03X130941100Y-116800600I0J254000D01*
G01*
X126369100Y-115276600D02*
G75*
G02X126623100Y-115022600I254000J0D01*
G01*
X126369100Y-116800600D02*
X126369100Y-115276600D01*
X126369100Y-116800600D02*
G75*
G03X126623100Y-117054600I254000J0D01*
G01*
X128655100Y-116038600D02*
X128655100Y-115403600D01*
X128655100Y-116673600D02*
X128655100Y-116038600D01*
X128655100Y-116038600D02*
X127639100Y-116673600D01*
X128655100Y-116038600D02*
X127131100Y-116038600D01*
X127639100Y-115403600D02*
X128655100Y-116038600D01*
X127639100Y-116673600D02*
X127639100Y-115403600D01*
X129290100Y-116038600D02*
X128655100Y-116038600D01*
D13*
G04 #@! TO.C,D2*
G36*
X144568100Y-115800600D02*
X143933100Y-115800600D01*
X143933100Y-116308600D01*
X144568100Y-116308600D01*
X144568100Y-115800600D01*
G37*
G36*
X139361100Y-115800600D02*
X138726100Y-115800600D01*
X138726100Y-116308600D01*
X139361100Y-116308600D01*
X139361100Y-115800600D01*
G37*
G36*
X143552100Y-115038600D02*
X143044100Y-115038600D01*
X143044100Y-117070600D01*
X143552100Y-117070600D01*
X143552100Y-115038600D01*
G37*
D14*
X143679100Y-117070600D02*
X139615100Y-117070600D01*
X143933100Y-116816600D02*
X143933100Y-115292600D01*
X143679100Y-115038600D02*
X139615100Y-115038600D01*
X143679100Y-115038600D02*
G75*
G02X143933100Y-115292600I0J-254000D01*
G01*
X143679100Y-117070600D02*
G75*
G03X143933100Y-116816600I0J254000D01*
G01*
X139361100Y-115292600D02*
G75*
G02X139615100Y-115038600I254000J0D01*
G01*
X139361100Y-116816600D02*
X139361100Y-115292600D01*
X139361100Y-116816600D02*
G75*
G03X139615100Y-117070600I254000J0D01*
G01*
X141647100Y-116054600D02*
X141647100Y-115419600D01*
X141647100Y-116689600D02*
X141647100Y-116054600D01*
X141647100Y-116054600D02*
X140631100Y-116689600D01*
X141647100Y-116054600D02*
X140123100Y-116054600D01*
X140631100Y-115419600D02*
X141647100Y-116054600D01*
X140631100Y-116689600D02*
X140631100Y-115419600D01*
X142282100Y-116054600D02*
X141647100Y-116054600D01*
D13*
G04 #@! TO.C,D3*
G36*
X157598100Y-115733600D02*
X156963100Y-115733600D01*
X156963100Y-116241600D01*
X157598100Y-116241600D01*
X157598100Y-115733600D01*
G37*
G36*
X152391100Y-115733600D02*
X151756100Y-115733600D01*
X151756100Y-116241600D01*
X152391100Y-116241600D01*
X152391100Y-115733600D01*
G37*
G36*
X156582100Y-114971600D02*
X156074100Y-114971600D01*
X156074100Y-117003600D01*
X156582100Y-117003600D01*
X156582100Y-114971600D01*
G37*
D14*
X156709100Y-117003600D02*
X152645100Y-117003600D01*
X156963100Y-116749600D02*
X156963100Y-115225600D01*
X156709100Y-114971600D02*
X152645100Y-114971600D01*
X156709100Y-114971600D02*
G75*
G02X156963100Y-115225600I0J-254000D01*
G01*
X156709100Y-117003600D02*
G75*
G03X156963100Y-116749600I0J254000D01*
G01*
X152391100Y-115225600D02*
G75*
G02X152645100Y-114971600I254000J0D01*
G01*
X152391100Y-116749600D02*
X152391100Y-115225600D01*
X152391100Y-116749600D02*
G75*
G03X152645100Y-117003600I254000J0D01*
G01*
X154677100Y-115987600D02*
X154677100Y-115352600D01*
X154677100Y-116622600D02*
X154677100Y-115987600D01*
X154677100Y-115987600D02*
X153661100Y-116622600D01*
X154677100Y-115987600D02*
X153153100Y-115987600D01*
X153661100Y-115352600D02*
X154677100Y-115987600D01*
X153661100Y-116622600D02*
X153661100Y-115352600D01*
X155312100Y-115987600D02*
X154677100Y-115987600D01*
D13*
G04 #@! TO.C,D4*
G36*
X170579100Y-115692600D02*
X169944100Y-115692600D01*
X169944100Y-116200600D01*
X170579100Y-116200600D01*
X170579100Y-115692600D01*
G37*
G36*
X165372100Y-115692600D02*
X164737100Y-115692600D01*
X164737100Y-116200600D01*
X165372100Y-116200600D01*
X165372100Y-115692600D01*
G37*
G36*
X169563100Y-114930600D02*
X169055100Y-114930600D01*
X169055100Y-116962600D01*
X169563100Y-116962600D01*
X169563100Y-114930600D01*
G37*
D14*
X169690100Y-116962600D02*
X165626100Y-116962600D01*
X169944100Y-116708600D02*
X169944100Y-115184600D01*
X169690100Y-114930600D02*
X165626100Y-114930600D01*
X169690100Y-114930600D02*
G75*
G02X169944100Y-115184600I0J-254000D01*
G01*
X169690100Y-116962600D02*
G75*
G03X169944100Y-116708600I0J254000D01*
G01*
X165372100Y-115184600D02*
G75*
G02X165626100Y-114930600I254000J0D01*
G01*
X165372100Y-116708600D02*
X165372100Y-115184600D01*
X165372100Y-116708600D02*
G75*
G03X165626100Y-116962600I254000J0D01*
G01*
X167658100Y-115946600D02*
X167658100Y-115311600D01*
X167658100Y-116581600D02*
X167658100Y-115946600D01*
X167658100Y-115946600D02*
X166642100Y-116581600D01*
X167658100Y-115946600D02*
X166134100Y-115946600D01*
X166642100Y-115311600D02*
X167658100Y-115946600D01*
X166642100Y-116581600D02*
X166642100Y-115311600D01*
X168293100Y-115946600D02*
X167658100Y-115946600D01*
D15*
G04 #@! TO.C,DSS1*
X197427100Y-119335600D02*
X197427100Y-121367600D01*
X190315100Y-119335600D02*
X197427100Y-119335600D01*
X190315100Y-121367600D02*
X190315100Y-119335600D01*
X197427100Y-121367600D02*
X190315100Y-121367600D01*
D13*
G04 #@! TO.C,DC+5V1*
G36*
X187185100Y-129120600D02*
X187285100Y-129120600D01*
X187285100Y-129020600D01*
X187185100Y-129020600D01*
X187185100Y-129120600D01*
G37*
G36*
X185555100Y-128620600D02*
X188805100Y-128620600D01*
X188805100Y-128120600D01*
X185555100Y-128120600D01*
X185555100Y-128620600D01*
G37*
G36*
X188675100Y-129120600D02*
X190975100Y-129120600D01*
X190975100Y-128620600D01*
X188675100Y-128620600D01*
X188675100Y-129120600D01*
G37*
G36*
X183485100Y-129110600D02*
X185785100Y-129110600D01*
X185785100Y-128610600D01*
X183485100Y-128610600D01*
X183485100Y-129110600D01*
G37*
G36*
X183485100Y-129120600D02*
X183985100Y-129120600D01*
X183985100Y-122720600D01*
X183485100Y-122720600D01*
X183485100Y-129120600D01*
G37*
G36*
X190485100Y-129120600D02*
X190985100Y-129120600D01*
X190985100Y-122720600D01*
X190485100Y-122720600D01*
X190485100Y-129120600D01*
G37*
G36*
X183485100Y-123720600D02*
X190985100Y-123720600D01*
X190985100Y-122720600D01*
X183485100Y-122720600D01*
X183485100Y-123720600D01*
G37*
G36*
X186985100Y-129020600D02*
X187485100Y-129020600D01*
X187485100Y-128520600D01*
X186985100Y-128520600D01*
X186985100Y-129020600D01*
G37*
G04 #@! TO.C,CONTROL1*
G36*
X162966100Y-129193600D02*
X163066100Y-129193600D01*
X163066100Y-129093600D01*
X162966100Y-129093600D01*
X162966100Y-129193600D01*
G37*
G36*
X161336100Y-128693600D02*
X164586100Y-128693600D01*
X164586100Y-128193600D01*
X161336100Y-128193600D01*
X161336100Y-128693600D01*
G37*
G36*
X164456100Y-129193600D02*
X166756100Y-129193600D01*
X166756100Y-128693600D01*
X164456100Y-128693600D01*
X164456100Y-129193600D01*
G37*
G36*
X159266100Y-129183600D02*
X161566100Y-129183600D01*
X161566100Y-128683600D01*
X159266100Y-128683600D01*
X159266100Y-129183600D01*
G37*
G36*
X159266100Y-129193600D02*
X159766100Y-129193600D01*
X159766100Y-122793600D01*
X159266100Y-122793600D01*
X159266100Y-129193600D01*
G37*
G36*
X166266100Y-129193600D02*
X166766100Y-129193600D01*
X166766100Y-122793600D01*
X166266100Y-122793600D01*
X166266100Y-129193600D01*
G37*
G36*
X159266100Y-123793600D02*
X166766100Y-123793600D01*
X166766100Y-122793600D01*
X159266100Y-122793600D01*
X159266100Y-123793600D01*
G37*
G36*
X162766100Y-129093600D02*
X163266100Y-129093600D01*
X163266100Y-128593600D01*
X162766100Y-128593600D01*
X162766100Y-129093600D01*
G37*
G04 #@! TO.C,Q1*
G36*
X180122100Y-119902600D02*
X182027100Y-119902600D01*
X182027100Y-119394600D01*
X180122100Y-119394600D01*
X180122100Y-119902600D01*
G37*
G36*
X177582100Y-119902600D02*
X178344100Y-119902600D01*
X178344100Y-119394600D01*
X177582100Y-119394600D01*
X177582100Y-119902600D01*
G37*
G36*
X175042100Y-119902600D02*
X175804100Y-119902600D01*
X175804100Y-119394600D01*
X175042100Y-119394600D01*
X175042100Y-119902600D01*
G37*
G36*
X171359100Y-119902600D02*
X173264100Y-119902600D01*
X173264100Y-119394600D01*
X171359100Y-119394600D01*
X171359100Y-119902600D01*
G37*
G36*
X171359100Y-119394600D02*
X182027100Y-119394600D01*
X182027100Y-118632600D01*
X171359100Y-118632600D01*
X171359100Y-119394600D01*
G37*
X172451300Y-122341000D02*
G75*
G03X172451300Y-122341000I-254000J0D01*
G01*
D14*
X171740100Y-122696600D02*
X171613100Y-119775600D01*
X181773100Y-119775600D02*
X181646100Y-122696600D01*
X171740100Y-122696600D02*
X171994100Y-122950600D01*
X181392100Y-122950600D02*
X171994100Y-122950600D01*
X181392100Y-122950600D02*
X181646100Y-122696600D01*
G04 #@! TO.C,R1*
X170601100Y-120258600D02*
X170601100Y-120639600D01*
X168315100Y-120258600D02*
X168315100Y-120639600D01*
X170474100Y-120766600D02*
X170474100Y-125592600D01*
X170474100Y-120766600D02*
X170601100Y-120639600D01*
X168442100Y-120766600D02*
X168442100Y-125592600D01*
X168442100Y-120766600D02*
X168315100Y-120639600D01*
X170474100Y-125592600D02*
X170601100Y-125719600D01*
X170601100Y-126100600D02*
X170601100Y-125719600D01*
X168442100Y-125592600D02*
X168315100Y-125719600D01*
X168315100Y-126100600D02*
X168315100Y-125719600D01*
X168569100Y-120004600D02*
G75*
G03X168315100Y-120258600I0J-254000D01*
G01*
X170347100Y-120004600D02*
G75*
G02X170601100Y-120258600I0J-254000D01*
G01*
X170601100Y-126100600D02*
G75*
G02X170347100Y-126354600I-254000J0D01*
G01*
X168315100Y-126100600D02*
G75*
G03X168569100Y-126354600I254000J0D01*
G01*
G04 #@! TO.C,R2*
X174404100Y-125850600D02*
X174785100Y-125850600D01*
X174404100Y-128136600D02*
X174785100Y-128136600D01*
X174912100Y-125977600D02*
X179738100Y-125977600D01*
X174912100Y-125977600D02*
X174785100Y-125850600D01*
X174912100Y-128009600D02*
X179738100Y-128009600D01*
X174912100Y-128009600D02*
X174785100Y-128136600D01*
X179738100Y-125977600D02*
X179865100Y-125850600D01*
X180246100Y-125850600D02*
X179865100Y-125850600D01*
X179738100Y-128009600D02*
X179865100Y-128136600D01*
X180246100Y-128136600D02*
X179865100Y-128136600D01*
X174150100Y-127882600D02*
G75*
G03X174404100Y-128136600I254000J0D01*
G01*
X174150100Y-126104600D02*
G75*
G02X174404100Y-125850600I254000J0D01*
G01*
X180246100Y-125850600D02*
G75*
G02X180500100Y-126104600I0J-254000D01*
G01*
X180246100Y-128136600D02*
G75*
G03X180500100Y-127882600I0J254000D01*
G01*
D13*
G04 #@! TO.C,RL1*
G36*
X129679100Y-114344600D02*
X129679100Y-113074600D01*
X127139100Y-113074600D01*
X127139100Y-114344600D01*
X129679100Y-114344600D01*
G37*
D14*
X124599100Y-98469600D02*
X124268900Y-98774400D01*
X132219100Y-97199600D02*
X132219100Y-96361400D01*
X132219100Y-98469600D02*
X132549300Y-98774400D01*
X132219100Y-99282400D02*
X132219100Y-98469600D01*
X131584100Y-97834600D02*
X132219100Y-98469600D01*
X130314100Y-97834600D02*
X131584100Y-97834600D01*
X130314100Y-105454600D02*
X130314100Y-97834600D01*
X131203100Y-105454600D02*
X130314100Y-105454600D01*
X124599100Y-97199600D02*
X124599100Y-96361400D01*
X124599100Y-99282400D02*
X124599100Y-98469600D01*
X125234100Y-97834600D02*
X124599100Y-98469600D01*
X126504100Y-97834600D02*
X125234100Y-97834600D01*
X126504100Y-105454600D02*
X126504100Y-97834600D01*
X125615100Y-105454600D02*
X126504100Y-105454600D01*
X129044100Y-112439600D02*
X127774100Y-109899600D01*
X132219100Y-111169600D02*
X132219100Y-112058600D01*
X129044100Y-111169600D02*
X129044100Y-109899600D01*
X129044100Y-111169600D02*
X132219100Y-111169600D01*
X129044100Y-112439600D02*
X129044100Y-111169600D01*
X127774100Y-109899600D02*
X127774100Y-111169600D01*
X129044100Y-109899600D02*
X127774100Y-109899600D01*
X127774100Y-112439600D02*
X129044100Y-112439600D01*
X127774100Y-111169600D02*
X127774100Y-112439600D01*
X124599100Y-111169600D02*
X127774100Y-111169600D01*
X124599100Y-112058600D02*
X124599100Y-111169600D01*
X129679100Y-114344600D02*
X133489100Y-114344600D01*
X129679100Y-113074600D02*
X129679100Y-114344600D01*
X127139100Y-114344600D02*
X129679100Y-114344600D01*
X127139100Y-113074600D02*
X129679100Y-113074600D01*
X127139100Y-114344600D02*
X127139100Y-113074600D01*
X123329100Y-114344600D02*
X127139100Y-114344600D01*
X123329100Y-94024600D02*
X123329100Y-114344600D01*
X133489100Y-94024600D02*
X123329100Y-94024600D01*
X133489100Y-114344600D02*
X133489100Y-94024600D01*
D13*
G04 #@! TO.C,RL2*
G36*
X142663100Y-114333600D02*
X142663100Y-113063600D01*
X140123100Y-113063600D01*
X140123100Y-114333600D01*
X142663100Y-114333600D01*
G37*
D14*
X137583100Y-98458600D02*
X137252900Y-98763400D01*
X145203100Y-97188600D02*
X145203100Y-96350400D01*
X145203100Y-98458600D02*
X145533300Y-98763400D01*
X145203100Y-99271400D02*
X145203100Y-98458600D01*
X144568100Y-97823600D02*
X145203100Y-98458600D01*
X143298100Y-97823600D02*
X144568100Y-97823600D01*
X143298100Y-105443600D02*
X143298100Y-97823600D01*
X144187100Y-105443600D02*
X143298100Y-105443600D01*
X137583100Y-97188600D02*
X137583100Y-96350400D01*
X137583100Y-99271400D02*
X137583100Y-98458600D01*
X138218100Y-97823600D02*
X137583100Y-98458600D01*
X139488100Y-97823600D02*
X138218100Y-97823600D01*
X139488100Y-105443600D02*
X139488100Y-97823600D01*
X138599100Y-105443600D02*
X139488100Y-105443600D01*
X142028100Y-112428600D02*
X140758100Y-109888600D01*
X145203100Y-111158600D02*
X145203100Y-112047600D01*
X142028100Y-111158600D02*
X142028100Y-109888600D01*
X142028100Y-111158600D02*
X145203100Y-111158600D01*
X142028100Y-112428600D02*
X142028100Y-111158600D01*
X140758100Y-109888600D02*
X140758100Y-111158600D01*
X142028100Y-109888600D02*
X140758100Y-109888600D01*
X140758100Y-112428600D02*
X142028100Y-112428600D01*
X140758100Y-111158600D02*
X140758100Y-112428600D01*
X137583100Y-111158600D02*
X140758100Y-111158600D01*
X137583100Y-112047600D02*
X137583100Y-111158600D01*
X142663100Y-114333600D02*
X146473100Y-114333600D01*
X142663100Y-113063600D02*
X142663100Y-114333600D01*
X140123100Y-114333600D02*
X142663100Y-114333600D01*
X140123100Y-113063600D02*
X142663100Y-113063600D01*
X140123100Y-114333600D02*
X140123100Y-113063600D01*
X136313100Y-114333600D02*
X140123100Y-114333600D01*
X136313100Y-94013600D02*
X136313100Y-114333600D01*
X146473100Y-94013600D02*
X136313100Y-94013600D01*
X146473100Y-114333600D02*
X146473100Y-94013600D01*
D13*
G04 #@! TO.C,RL3*
G36*
X155701100Y-114293600D02*
X155701100Y-113023600D01*
X153161100Y-113023600D01*
X153161100Y-114293600D01*
X155701100Y-114293600D01*
G37*
D14*
X150621100Y-98418600D02*
X150290900Y-98723400D01*
X158241100Y-97148600D02*
X158241100Y-96310400D01*
X158241100Y-98418600D02*
X158571300Y-98723400D01*
X158241100Y-99231400D02*
X158241100Y-98418600D01*
X157606100Y-97783600D02*
X158241100Y-98418600D01*
X156336100Y-97783600D02*
X157606100Y-97783600D01*
X156336100Y-105403600D02*
X156336100Y-97783600D01*
X157225100Y-105403600D02*
X156336100Y-105403600D01*
X150621100Y-97148600D02*
X150621100Y-96310400D01*
X150621100Y-99231400D02*
X150621100Y-98418600D01*
X151256100Y-97783600D02*
X150621100Y-98418600D01*
X152526100Y-97783600D02*
X151256100Y-97783600D01*
X152526100Y-105403600D02*
X152526100Y-97783600D01*
X151637100Y-105403600D02*
X152526100Y-105403600D01*
X155066100Y-112388600D02*
X153796100Y-109848600D01*
X158241100Y-111118600D02*
X158241100Y-112007600D01*
X155066100Y-111118600D02*
X155066100Y-109848600D01*
X155066100Y-111118600D02*
X158241100Y-111118600D01*
X155066100Y-112388600D02*
X155066100Y-111118600D01*
X153796100Y-109848600D02*
X153796100Y-111118600D01*
X155066100Y-109848600D02*
X153796100Y-109848600D01*
X153796100Y-112388600D02*
X155066100Y-112388600D01*
X153796100Y-111118600D02*
X153796100Y-112388600D01*
X150621100Y-111118600D02*
X153796100Y-111118600D01*
X150621100Y-112007600D02*
X150621100Y-111118600D01*
X155701100Y-114293600D02*
X159511100Y-114293600D01*
X155701100Y-113023600D02*
X155701100Y-114293600D01*
X153161100Y-114293600D02*
X155701100Y-114293600D01*
X153161100Y-113023600D02*
X155701100Y-113023600D01*
X153161100Y-114293600D02*
X153161100Y-113023600D01*
X149351100Y-114293600D02*
X153161100Y-114293600D01*
X149351100Y-93973600D02*
X149351100Y-114293600D01*
X159511100Y-93973600D02*
X149351100Y-93973600D01*
X159511100Y-114293600D02*
X159511100Y-93973600D01*
D13*
G04 #@! TO.C,RL4*
G36*
X168696100Y-114340600D02*
X168696100Y-113070600D01*
X166156100Y-113070600D01*
X166156100Y-114340600D01*
X168696100Y-114340600D01*
G37*
D14*
X163616100Y-98465600D02*
X163285900Y-98770400D01*
X171236100Y-97195600D02*
X171236100Y-96357400D01*
X171236100Y-98465600D02*
X171566300Y-98770400D01*
X171236100Y-99278400D02*
X171236100Y-98465600D01*
X170601100Y-97830600D02*
X171236100Y-98465600D01*
X169331100Y-97830600D02*
X170601100Y-97830600D01*
X169331100Y-105450600D02*
X169331100Y-97830600D01*
X170220100Y-105450600D02*
X169331100Y-105450600D01*
X163616100Y-97195600D02*
X163616100Y-96357400D01*
X163616100Y-99278400D02*
X163616100Y-98465600D01*
X164251100Y-97830600D02*
X163616100Y-98465600D01*
X165521100Y-97830600D02*
X164251100Y-97830600D01*
X165521100Y-105450600D02*
X165521100Y-97830600D01*
X164632100Y-105450600D02*
X165521100Y-105450600D01*
X168061100Y-112435600D02*
X166791100Y-109895600D01*
X171236100Y-111165600D02*
X171236100Y-112054600D01*
X168061100Y-111165600D02*
X168061100Y-109895600D01*
X168061100Y-111165600D02*
X171236100Y-111165600D01*
X168061100Y-112435600D02*
X168061100Y-111165600D01*
X166791100Y-109895600D02*
X166791100Y-111165600D01*
X168061100Y-109895600D02*
X166791100Y-109895600D01*
X166791100Y-112435600D02*
X168061100Y-112435600D01*
X166791100Y-111165600D02*
X166791100Y-112435600D01*
X163616100Y-111165600D02*
X166791100Y-111165600D01*
X163616100Y-112054600D02*
X163616100Y-111165600D01*
X168696100Y-114340600D02*
X172506100Y-114340600D01*
X168696100Y-113070600D02*
X168696100Y-114340600D01*
X166156100Y-114340600D02*
X168696100Y-114340600D01*
X166156100Y-113070600D02*
X168696100Y-113070600D01*
X166156100Y-114340600D02*
X166156100Y-113070600D01*
X162346100Y-114340600D02*
X166156100Y-114340600D01*
X162346100Y-94020600D02*
X162346100Y-114340600D01*
X172506100Y-94020600D02*
X162346100Y-94020600D01*
X172506100Y-114340600D02*
X172506100Y-94020600D01*
D13*
G04 #@! TO.C,CN1-MICIN1*
G36*
X121501100Y-81003600D02*
X118501100Y-81003600D01*
X118501100Y-81503600D01*
X121501100Y-81503600D01*
X121501100Y-81003600D01*
G37*
G36*
X141001100Y-81003600D02*
X138001100Y-81003600D01*
X138001100Y-81503600D01*
X141001100Y-81503600D01*
X141001100Y-81003600D01*
G37*
G36*
X121401100Y-81003600D02*
X121001100Y-81003600D01*
X121001100Y-82403600D01*
X121401100Y-82403600D01*
X121401100Y-81003600D01*
G37*
G36*
X138501100Y-81003600D02*
X138101100Y-81003600D01*
X138101100Y-82403600D01*
X138501100Y-82403600D01*
X138501100Y-81003600D01*
G37*
G36*
X138501100Y-82003600D02*
X121001100Y-82003600D01*
X121001100Y-82403600D01*
X138501100Y-82403600D01*
X138501100Y-82003600D01*
G37*
G36*
X140991100Y-86893600D02*
X118491100Y-86893600D01*
X118491100Y-87393600D01*
X140991100Y-87393600D01*
X140991100Y-86893600D01*
G37*
G36*
X141001100Y-81003600D02*
X140501100Y-81003600D01*
X140501100Y-87403600D01*
X141001100Y-87403600D01*
X141001100Y-81003600D01*
G37*
G36*
X119001100Y-81003600D02*
X118501100Y-81003600D01*
X118501100Y-87403600D01*
X119001100Y-87403600D01*
X119001100Y-81003600D01*
G37*
G36*
X125001100Y-81603600D02*
X123501100Y-81603600D01*
X123501100Y-82103600D01*
X125001100Y-82103600D01*
X125001100Y-81603600D01*
G37*
G36*
X136001100Y-81603600D02*
X134501100Y-81603600D01*
X134501100Y-82103600D01*
X136001100Y-82103600D01*
X136001100Y-81603600D01*
G37*
D15*
X129601100Y-81503600D02*
G75*
G03X129601100Y-81503600I-100000J0D01*
G01*
D13*
G36*
X130301100Y-81503600D02*
X128701100Y-81503600D01*
X128701100Y-81803600D01*
X130301100Y-81803600D01*
X130301100Y-81503600D01*
G37*
G36*
X124001100Y-81103600D02*
X123501100Y-81103600D01*
X123501100Y-81603600D01*
X124001100Y-81603600D01*
X124001100Y-81103600D01*
G37*
G36*
X124601100Y-81603600D02*
X123501100Y-81603600D01*
X123501100Y-82003600D01*
X124601100Y-82003600D01*
X124601100Y-81603600D01*
G37*
G36*
X125001100Y-81103600D02*
X124501100Y-81103600D01*
X124501100Y-82003600D01*
X125001100Y-82003600D01*
X125001100Y-81103600D01*
G37*
G36*
X135501100Y-81603600D02*
X135001100Y-81603600D01*
X135001100Y-82003600D01*
X135501100Y-82003600D01*
X135501100Y-81603600D01*
G37*
G36*
X135001100Y-81103600D02*
X134501100Y-81103600D01*
X134501100Y-82003600D01*
X135001100Y-82003600D01*
X135001100Y-81103600D01*
G37*
G36*
X136001100Y-81103600D02*
X135501100Y-81103600D01*
X135501100Y-82103600D01*
X136001100Y-82103600D01*
X136001100Y-81103600D01*
G37*
D15*
X123501100Y-81103600D02*
X123501100Y-82103600D01*
X124001100Y-81103600D02*
X123501100Y-81103600D01*
X124001100Y-81603600D02*
X124001100Y-81103600D01*
X124501100Y-81603600D02*
X124001100Y-81603600D01*
X124501100Y-81103600D02*
X124501100Y-81603600D01*
X125001100Y-81103600D02*
X124501100Y-81103600D01*
X125001100Y-82103600D02*
X125001100Y-81103600D01*
X134501100Y-81103600D02*
X134501100Y-82103600D01*
X135001100Y-81103600D02*
X134501100Y-81103600D01*
X135001100Y-81603600D02*
X135001100Y-81103600D01*
X135501100Y-81603600D02*
X135001100Y-81603600D01*
X135501100Y-81103600D02*
X135501100Y-81603600D01*
X136001100Y-81103600D02*
X135501100Y-81103600D01*
X136001100Y-82103600D02*
X136001100Y-81103600D01*
D13*
G04 #@! TO.C,CN2-RIGHT1*
G36*
X171501100Y-81003600D02*
X168501100Y-81003600D01*
X168501100Y-81503600D01*
X171501100Y-81503600D01*
X171501100Y-81003600D01*
G37*
G36*
X191001100Y-81003600D02*
X188001100Y-81003600D01*
X188001100Y-81503600D01*
X191001100Y-81503600D01*
X191001100Y-81003600D01*
G37*
G36*
X171401100Y-81003600D02*
X171001100Y-81003600D01*
X171001100Y-82403600D01*
X171401100Y-82403600D01*
X171401100Y-81003600D01*
G37*
G36*
X188501100Y-81003600D02*
X188101100Y-81003600D01*
X188101100Y-82403600D01*
X188501100Y-82403600D01*
X188501100Y-81003600D01*
G37*
G36*
X188501100Y-82003600D02*
X171001100Y-82003600D01*
X171001100Y-82403600D01*
X188501100Y-82403600D01*
X188501100Y-82003600D01*
G37*
G36*
X190991100Y-86893600D02*
X168491100Y-86893600D01*
X168491100Y-87393600D01*
X190991100Y-87393600D01*
X190991100Y-86893600D01*
G37*
G36*
X191001100Y-81003600D02*
X190501100Y-81003600D01*
X190501100Y-87403600D01*
X191001100Y-87403600D01*
X191001100Y-81003600D01*
G37*
G36*
X169001100Y-81003600D02*
X168501100Y-81003600D01*
X168501100Y-87403600D01*
X169001100Y-87403600D01*
X169001100Y-81003600D01*
G37*
G36*
X175001100Y-81603600D02*
X173501100Y-81603600D01*
X173501100Y-82103600D01*
X175001100Y-82103600D01*
X175001100Y-81603600D01*
G37*
G36*
X186001100Y-81603600D02*
X184501100Y-81603600D01*
X184501100Y-82103600D01*
X186001100Y-82103600D01*
X186001100Y-81603600D01*
G37*
D15*
X179601100Y-81503600D02*
G75*
G03X179601100Y-81503600I-100000J0D01*
G01*
D13*
G36*
X180301100Y-81503600D02*
X178701100Y-81503600D01*
X178701100Y-81803600D01*
X180301100Y-81803600D01*
X180301100Y-81503600D01*
G37*
G36*
X174001100Y-81103600D02*
X173501100Y-81103600D01*
X173501100Y-81603600D01*
X174001100Y-81603600D01*
X174001100Y-81103600D01*
G37*
G36*
X174601100Y-81603600D02*
X173501100Y-81603600D01*
X173501100Y-82003600D01*
X174601100Y-82003600D01*
X174601100Y-81603600D01*
G37*
G36*
X175001100Y-81103600D02*
X174501100Y-81103600D01*
X174501100Y-82003600D01*
X175001100Y-82003600D01*
X175001100Y-81103600D01*
G37*
G36*
X185501100Y-81603600D02*
X185001100Y-81603600D01*
X185001100Y-82003600D01*
X185501100Y-82003600D01*
X185501100Y-81603600D01*
G37*
G36*
X185001100Y-81103600D02*
X184501100Y-81103600D01*
X184501100Y-82003600D01*
X185001100Y-82003600D01*
X185001100Y-81103600D01*
G37*
G36*
X186001100Y-81103600D02*
X185501100Y-81103600D01*
X185501100Y-82103600D01*
X186001100Y-82103600D01*
X186001100Y-81103600D01*
G37*
D15*
X173501100Y-81103600D02*
X173501100Y-82103600D01*
X174001100Y-81103600D02*
X173501100Y-81103600D01*
X174001100Y-81603600D02*
X174001100Y-81103600D01*
X174501100Y-81603600D02*
X174001100Y-81603600D01*
X174501100Y-81103600D02*
X174501100Y-81603600D01*
X175001100Y-81103600D02*
X174501100Y-81103600D01*
X175001100Y-82103600D02*
X175001100Y-81103600D01*
X184501100Y-81103600D02*
X184501100Y-82103600D01*
X185001100Y-81103600D02*
X184501100Y-81103600D01*
X185001100Y-81603600D02*
X185001100Y-81103600D01*
X185501100Y-81603600D02*
X185001100Y-81603600D01*
X185501100Y-81103600D02*
X185501100Y-81603600D01*
X186001100Y-81103600D02*
X185501100Y-81103600D01*
X186001100Y-82103600D02*
X186001100Y-81103600D01*
D13*
G04 #@! TO.C,CN3-LEFT1*
G36*
X146501100Y-81003600D02*
X143501100Y-81003600D01*
X143501100Y-81503600D01*
X146501100Y-81503600D01*
X146501100Y-81003600D01*
G37*
G36*
X166001100Y-81003600D02*
X163001100Y-81003600D01*
X163001100Y-81503600D01*
X166001100Y-81503600D01*
X166001100Y-81003600D01*
G37*
G36*
X146401100Y-81003600D02*
X146001100Y-81003600D01*
X146001100Y-82403600D01*
X146401100Y-82403600D01*
X146401100Y-81003600D01*
G37*
G36*
X163501100Y-81003600D02*
X163101100Y-81003600D01*
X163101100Y-82403600D01*
X163501100Y-82403600D01*
X163501100Y-81003600D01*
G37*
G36*
X163501100Y-82003600D02*
X146001100Y-82003600D01*
X146001100Y-82403600D01*
X163501100Y-82403600D01*
X163501100Y-82003600D01*
G37*
G36*
X165991100Y-86893600D02*
X143491100Y-86893600D01*
X143491100Y-87393600D01*
X165991100Y-87393600D01*
X165991100Y-86893600D01*
G37*
G36*
X166001100Y-81003600D02*
X165501100Y-81003600D01*
X165501100Y-87403600D01*
X166001100Y-87403600D01*
X166001100Y-81003600D01*
G37*
G36*
X144001100Y-81003600D02*
X143501100Y-81003600D01*
X143501100Y-87403600D01*
X144001100Y-87403600D01*
X144001100Y-81003600D01*
G37*
G36*
X150001100Y-81603600D02*
X148501100Y-81603600D01*
X148501100Y-82103600D01*
X150001100Y-82103600D01*
X150001100Y-81603600D01*
G37*
G36*
X161001100Y-81603600D02*
X159501100Y-81603600D01*
X159501100Y-82103600D01*
X161001100Y-82103600D01*
X161001100Y-81603600D01*
G37*
D15*
X154601100Y-81503600D02*
G75*
G03X154601100Y-81503600I-100000J0D01*
G01*
D13*
G36*
X155301100Y-81503600D02*
X153701100Y-81503600D01*
X153701100Y-81803600D01*
X155301100Y-81803600D01*
X155301100Y-81503600D01*
G37*
G36*
X149001100Y-81103600D02*
X148501100Y-81103600D01*
X148501100Y-81603600D01*
X149001100Y-81603600D01*
X149001100Y-81103600D01*
G37*
G36*
X149601100Y-81603600D02*
X148501100Y-81603600D01*
X148501100Y-82003600D01*
X149601100Y-82003600D01*
X149601100Y-81603600D01*
G37*
G36*
X150001100Y-81103600D02*
X149501100Y-81103600D01*
X149501100Y-82003600D01*
X150001100Y-82003600D01*
X150001100Y-81103600D01*
G37*
G36*
X160501100Y-81603600D02*
X160001100Y-81603600D01*
X160001100Y-82003600D01*
X160501100Y-82003600D01*
X160501100Y-81603600D01*
G37*
G36*
X160001100Y-81103600D02*
X159501100Y-81103600D01*
X159501100Y-82003600D01*
X160001100Y-82003600D01*
X160001100Y-81103600D01*
G37*
G36*
X161001100Y-81103600D02*
X160501100Y-81103600D01*
X160501100Y-82103600D01*
X161001100Y-82103600D01*
X161001100Y-81103600D01*
G37*
D15*
X148501100Y-81103600D02*
X148501100Y-82103600D01*
X149001100Y-81103600D02*
X148501100Y-81103600D01*
X149001100Y-81603600D02*
X149001100Y-81103600D01*
X149501100Y-81603600D02*
X149001100Y-81603600D01*
X149501100Y-81103600D02*
X149501100Y-81603600D01*
X150001100Y-81103600D02*
X149501100Y-81103600D01*
X150001100Y-82103600D02*
X150001100Y-81103600D01*
X159501100Y-81103600D02*
X159501100Y-82103600D01*
X160001100Y-81103600D02*
X159501100Y-81103600D01*
X160001100Y-81603600D02*
X160001100Y-81103600D01*
X160501100Y-81603600D02*
X160001100Y-81603600D01*
X160501100Y-81103600D02*
X160501100Y-81603600D01*
X161001100Y-81103600D02*
X160501100Y-81103600D01*
X161001100Y-82103600D02*
X161001100Y-81103600D01*
D13*
G04 #@! TO.C,RL5*
G36*
X181871100Y-114483600D02*
X181871100Y-113213600D01*
X179331100Y-113213600D01*
X179331100Y-114483600D01*
X181871100Y-114483600D01*
G37*
D14*
X176791100Y-98608600D02*
X176460900Y-98913400D01*
X184411100Y-97338600D02*
X184411100Y-96500400D01*
X184411100Y-98608600D02*
X184741300Y-98913400D01*
X184411100Y-99421400D02*
X184411100Y-98608600D01*
X183776100Y-97973600D02*
X184411100Y-98608600D01*
X182506100Y-97973600D02*
X183776100Y-97973600D01*
X182506100Y-105593600D02*
X182506100Y-97973600D01*
X183395100Y-105593600D02*
X182506100Y-105593600D01*
X176791100Y-97338600D02*
X176791100Y-96500400D01*
X176791100Y-99421400D02*
X176791100Y-98608600D01*
X177426100Y-97973600D02*
X176791100Y-98608600D01*
X178696100Y-97973600D02*
X177426100Y-97973600D01*
X178696100Y-105593600D02*
X178696100Y-97973600D01*
X177807100Y-105593600D02*
X178696100Y-105593600D01*
X181236100Y-112578600D02*
X179966100Y-110038600D01*
X184411100Y-111308600D02*
X184411100Y-112197600D01*
X181236100Y-111308600D02*
X181236100Y-110038600D01*
X181236100Y-111308600D02*
X184411100Y-111308600D01*
X181236100Y-112578600D02*
X181236100Y-111308600D01*
X179966100Y-110038600D02*
X179966100Y-111308600D01*
X181236100Y-110038600D02*
X179966100Y-110038600D01*
X179966100Y-112578600D02*
X181236100Y-112578600D01*
X179966100Y-111308600D02*
X179966100Y-112578600D01*
X176791100Y-111308600D02*
X179966100Y-111308600D01*
X176791100Y-112197600D02*
X176791100Y-111308600D01*
X181871100Y-114483600D02*
X185681100Y-114483600D01*
X181871100Y-113213600D02*
X181871100Y-114483600D01*
X179331100Y-114483600D02*
X181871100Y-114483600D01*
X179331100Y-113213600D02*
X181871100Y-113213600D01*
X179331100Y-114483600D02*
X179331100Y-113213600D01*
X175521100Y-114483600D02*
X179331100Y-114483600D01*
X175521100Y-94163600D02*
X175521100Y-114483600D01*
X185681100Y-94163600D02*
X175521100Y-94163600D01*
X185681100Y-114483600D02*
X185681100Y-94163600D01*
D13*
G04 #@! TO.C,D5*
G36*
X183422100Y-115749600D02*
X182787100Y-115749600D01*
X182787100Y-116257600D01*
X183422100Y-116257600D01*
X183422100Y-115749600D01*
G37*
G36*
X178215100Y-115749600D02*
X177580100Y-115749600D01*
X177580100Y-116257600D01*
X178215100Y-116257600D01*
X178215100Y-115749600D01*
G37*
G36*
X182406100Y-114987600D02*
X181898100Y-114987600D01*
X181898100Y-117019600D01*
X182406100Y-117019600D01*
X182406100Y-114987600D01*
G37*
D14*
X182533100Y-117019600D02*
X178469100Y-117019600D01*
X182787100Y-116765600D02*
X182787100Y-115241600D01*
X182533100Y-114987600D02*
X178469100Y-114987600D01*
X182533100Y-114987600D02*
G75*
G02X182787100Y-115241600I0J-254000D01*
G01*
X182533100Y-117019600D02*
G75*
G03X182787100Y-116765600I0J254000D01*
G01*
X178215100Y-115241600D02*
G75*
G02X178469100Y-114987600I254000J0D01*
G01*
X178215100Y-116765600D02*
X178215100Y-115241600D01*
X178215100Y-116765600D02*
G75*
G03X178469100Y-117019600I254000J0D01*
G01*
X180501100Y-116003600D02*
X180501100Y-115368600D01*
X180501100Y-116638600D02*
X180501100Y-116003600D01*
X180501100Y-116003600D02*
X179485100Y-116638600D01*
X180501100Y-116003600D02*
X178977100Y-116003600D01*
X179485100Y-115368600D02*
X180501100Y-116003600D01*
X179485100Y-116638600D02*
X179485100Y-115368600D01*
X181136100Y-116003600D02*
X180501100Y-116003600D01*
D13*
G04 #@! TO.C,KEY-IN1*
G36*
X197501100Y-113003600D02*
X197501100Y-112903600D01*
X197401100Y-112903600D01*
X197401100Y-113003600D01*
X197501100Y-113003600D01*
G37*
G36*
X197001100Y-114633600D02*
X197001100Y-111383600D01*
X196501100Y-111383600D01*
X196501100Y-114633600D01*
X197001100Y-114633600D01*
G37*
G36*
X197501100Y-111513600D02*
X197501100Y-109213600D01*
X197001100Y-109213600D01*
X197001100Y-111513600D01*
X197501100Y-111513600D01*
G37*
G36*
X197491100Y-116703600D02*
X197491100Y-114403600D01*
X196991100Y-114403600D01*
X196991100Y-116703600D01*
X197491100Y-116703600D01*
G37*
G36*
X197501100Y-116703600D02*
X197501100Y-116203600D01*
X191101100Y-116203600D01*
X191101100Y-116703600D01*
X197501100Y-116703600D01*
G37*
G36*
X197501100Y-109703600D02*
X197501100Y-109203600D01*
X191101100Y-109203600D01*
X191101100Y-109703600D01*
X197501100Y-109703600D01*
G37*
G36*
X192101100Y-116703600D02*
X192101100Y-109203600D01*
X191101100Y-109203600D01*
X191101100Y-116703600D01*
X192101100Y-116703600D01*
G37*
G36*
X197401100Y-113203600D02*
X197401100Y-112703600D01*
X196901100Y-112703600D01*
X196901100Y-113203600D01*
X197401100Y-113203600D01*
G37*
G04 #@! TO.C,LEFT-KEY1*
G36*
X197501100Y-103003600D02*
X197501100Y-102903600D01*
X197401100Y-102903600D01*
X197401100Y-103003600D01*
X197501100Y-103003600D01*
G37*
G36*
X197001100Y-104633600D02*
X197001100Y-101383600D01*
X196501100Y-101383600D01*
X196501100Y-104633600D01*
X197001100Y-104633600D01*
G37*
G36*
X197501100Y-101513600D02*
X197501100Y-99213600D01*
X197001100Y-99213600D01*
X197001100Y-101513600D01*
X197501100Y-101513600D01*
G37*
G36*
X197491100Y-106703600D02*
X197491100Y-104403600D01*
X196991100Y-104403600D01*
X196991100Y-106703600D01*
X197491100Y-106703600D01*
G37*
G36*
X197501100Y-106703600D02*
X197501100Y-106203600D01*
X191101100Y-106203600D01*
X191101100Y-106703600D01*
X197501100Y-106703600D01*
G37*
G36*
X197501100Y-99703600D02*
X197501100Y-99203600D01*
X191101100Y-99203600D01*
X191101100Y-99703600D01*
X197501100Y-99703600D01*
G37*
G36*
X192101100Y-106703600D02*
X192101100Y-99203600D01*
X191101100Y-99203600D01*
X191101100Y-106703600D01*
X192101100Y-106703600D01*
G37*
G36*
X197401100Y-103203600D02*
X197401100Y-102703600D01*
X196901100Y-102703600D01*
X196901100Y-103203600D01*
X197401100Y-103203600D01*
G37*
G04 #@! TO.C,RIGHT-KEY1*
G36*
X197501100Y-93003600D02*
X197501100Y-92903600D01*
X197401100Y-92903600D01*
X197401100Y-93003600D01*
X197501100Y-93003600D01*
G37*
G36*
X197001100Y-94633600D02*
X197001100Y-91383600D01*
X196501100Y-91383600D01*
X196501100Y-94633600D01*
X197001100Y-94633600D01*
G37*
G36*
X197501100Y-91513600D02*
X197501100Y-89213600D01*
X197001100Y-89213600D01*
X197001100Y-91513600D01*
X197501100Y-91513600D01*
G37*
G36*
X197491100Y-96703600D02*
X197491100Y-94403600D01*
X196991100Y-94403600D01*
X196991100Y-96703600D01*
X197491100Y-96703600D01*
G37*
G36*
X197501100Y-96703600D02*
X197501100Y-96203600D01*
X191101100Y-96203600D01*
X191101100Y-96703600D01*
X197501100Y-96703600D01*
G37*
G36*
X197501100Y-89703600D02*
X197501100Y-89203600D01*
X191101100Y-89203600D01*
X191101100Y-89703600D01*
X197501100Y-89703600D01*
G37*
G36*
X192101100Y-96703600D02*
X192101100Y-89203600D01*
X191101100Y-89203600D01*
X191101100Y-96703600D01*
X192101100Y-96703600D01*
G37*
G36*
X197401100Y-93203600D02*
X197401100Y-92703600D01*
X196901100Y-92703600D01*
X196901100Y-93203600D01*
X197401100Y-93203600D01*
G37*
D14*
G04 #@! TO.C,KEYPAD2*
X118266100Y-95633600D02*
X118901100Y-96268600D01*
X116996100Y-95633600D02*
X118266100Y-95633600D01*
X116361100Y-96268600D02*
X116996100Y-95633600D01*
X116361100Y-97538600D02*
X116361100Y-96268600D01*
X116996100Y-98173600D02*
X116361100Y-97538600D01*
X118266100Y-98173600D02*
X116996100Y-98173600D01*
X118901100Y-97538600D02*
X118266100Y-98173600D01*
X119536100Y-95633600D02*
X120806100Y-95633600D01*
X121441100Y-96268600D02*
X120806100Y-95633600D01*
X120806100Y-98173600D02*
X121441100Y-97538600D01*
X121441100Y-97538600D02*
X121441100Y-96268600D01*
X118901100Y-96268600D02*
X119536100Y-95633600D01*
X118901100Y-97538600D02*
X118901100Y-96268600D01*
X119536100Y-98173600D02*
X118901100Y-97538600D01*
X120806100Y-98173600D02*
X119536100Y-98173600D01*
D13*
G04 #@! TO.C,TO-AMP*
G36*
X111501100Y-81003600D02*
X111401100Y-81003600D01*
X111401100Y-81103600D01*
X111501100Y-81103600D01*
X111501100Y-81003600D01*
G37*
G36*
X113131100Y-81503600D02*
X109881100Y-81503600D01*
X109881100Y-82003600D01*
X113131100Y-82003600D01*
X113131100Y-81503600D01*
G37*
G36*
X110011100Y-81003600D02*
X107711100Y-81003600D01*
X107711100Y-81503600D01*
X110011100Y-81503600D01*
X110011100Y-81003600D01*
G37*
G36*
X115201100Y-81013600D02*
X112901100Y-81013600D01*
X112901100Y-81513600D01*
X115201100Y-81513600D01*
X115201100Y-81013600D01*
G37*
G36*
X115201100Y-81003600D02*
X114701100Y-81003600D01*
X114701100Y-87403600D01*
X115201100Y-87403600D01*
X115201100Y-81003600D01*
G37*
G36*
X108201100Y-81003600D02*
X107701100Y-81003600D01*
X107701100Y-87403600D01*
X108201100Y-87403600D01*
X108201100Y-81003600D01*
G37*
G36*
X115201100Y-86403600D02*
X107701100Y-86403600D01*
X107701100Y-87403600D01*
X115201100Y-87403600D01*
X115201100Y-86403600D01*
G37*
G36*
X111701100Y-81103600D02*
X111201100Y-81103600D01*
X111201100Y-81603600D01*
X111701100Y-81603600D01*
X111701100Y-81103600D01*
G37*
G04 #@! TO.C,FROM-AMP*
G36*
X111501100Y-93003600D02*
X111401100Y-93003600D01*
X111401100Y-93103600D01*
X111501100Y-93103600D01*
X111501100Y-93003600D01*
G37*
G36*
X113131100Y-93503600D02*
X109881100Y-93503600D01*
X109881100Y-94003600D01*
X113131100Y-94003600D01*
X113131100Y-93503600D01*
G37*
G36*
X110011100Y-93003600D02*
X107711100Y-93003600D01*
X107711100Y-93503600D01*
X110011100Y-93503600D01*
X110011100Y-93003600D01*
G37*
G36*
X115201100Y-93013600D02*
X112901100Y-93013600D01*
X112901100Y-93513600D01*
X115201100Y-93513600D01*
X115201100Y-93013600D01*
G37*
G36*
X115201100Y-93003600D02*
X114701100Y-93003600D01*
X114701100Y-99403600D01*
X115201100Y-99403600D01*
X115201100Y-93003600D01*
G37*
G36*
X108201100Y-93003600D02*
X107701100Y-93003600D01*
X107701100Y-99403600D01*
X108201100Y-99403600D01*
X108201100Y-93003600D01*
G37*
G36*
X115201100Y-98403600D02*
X107701100Y-98403600D01*
X107701100Y-99403600D01*
X115201100Y-99403600D01*
X115201100Y-98403600D01*
G37*
G36*
X111701100Y-93103600D02*
X111201100Y-93103600D01*
X111201100Y-93603600D01*
X111701100Y-93603600D01*
X111701100Y-93103600D01*
G37*
D14*
G04 #@! TO.C,KEYPAD1*
X119736100Y-105073600D02*
X119101100Y-104438600D01*
X121006100Y-105073600D02*
X119736100Y-105073600D01*
X121641100Y-104438600D02*
X121006100Y-105073600D01*
X121641100Y-103168600D02*
X121641100Y-104438600D01*
X121006100Y-102533600D02*
X121641100Y-103168600D01*
X119736100Y-102533600D02*
X121006100Y-102533600D01*
X119101100Y-103168600D02*
X119736100Y-102533600D01*
X118466100Y-105073600D02*
X117196100Y-105073600D01*
X116561100Y-104438600D02*
X117196100Y-105073600D01*
X117196100Y-102533600D02*
X116561100Y-103168600D01*
X116561100Y-103168600D02*
X116561100Y-104438600D01*
X119101100Y-104438600D02*
X118466100Y-105073600D01*
X119101100Y-103168600D02*
X119101100Y-104438600D01*
X118466100Y-102533600D02*
X119101100Y-103168600D01*
X117196100Y-102533600D02*
X118466100Y-102533600D01*
G04 #@! TO.C,R3*
X116322100Y-120346600D02*
X115941100Y-120346600D01*
X116322100Y-118060600D02*
X115941100Y-118060600D01*
X115814100Y-120219600D02*
X110988100Y-120219600D01*
X115814100Y-120219600D02*
X115941100Y-120346600D01*
X115814100Y-118187600D02*
X110988100Y-118187600D01*
X115814100Y-118187600D02*
X115941100Y-118060600D01*
X110988100Y-120219600D02*
X110861100Y-120346600D01*
X110480100Y-120346600D02*
X110861100Y-120346600D01*
X110988100Y-118187600D02*
X110861100Y-118060600D01*
X110480100Y-118060600D02*
X110861100Y-118060600D01*
X116576100Y-118314600D02*
G75*
G03X116322100Y-118060600I-254000J0D01*
G01*
X116576100Y-120092600D02*
G75*
G02X116322100Y-120346600I-254000J0D01*
G01*
X110480100Y-120346600D02*
G75*
G02X110226100Y-120092600I0J254000D01*
G01*
X110480100Y-118060600D02*
G75*
G03X110226100Y-118314600I0J-254000D01*
G01*
G04 #@! TO.C,R4*
X128422100Y-120446600D02*
X128041100Y-120446600D01*
X128422100Y-118160600D02*
X128041100Y-118160600D01*
X127914100Y-120319600D02*
X123088100Y-120319600D01*
X127914100Y-120319600D02*
X128041100Y-120446600D01*
X127914100Y-118287600D02*
X123088100Y-118287600D01*
X127914100Y-118287600D02*
X128041100Y-118160600D01*
X123088100Y-120319600D02*
X122961100Y-120446600D01*
X122580100Y-120446600D02*
X122961100Y-120446600D01*
X123088100Y-118287600D02*
X122961100Y-118160600D01*
X122580100Y-118160600D02*
X122961100Y-118160600D01*
X128676100Y-118414600D02*
G75*
G03X128422100Y-118160600I-254000J0D01*
G01*
X128676100Y-120192600D02*
G75*
G02X128422100Y-120446600I-254000J0D01*
G01*
X122580100Y-120446600D02*
G75*
G02X122326100Y-120192600I0J254000D01*
G01*
X122580100Y-118160600D02*
G75*
G03X122326100Y-118414600I0J-254000D01*
G01*
G04 #@! TO.C,R5*
X141322100Y-120646600D02*
X140941100Y-120646600D01*
X141322100Y-118360600D02*
X140941100Y-118360600D01*
X140814100Y-120519600D02*
X135988100Y-120519600D01*
X140814100Y-120519600D02*
X140941100Y-120646600D01*
X140814100Y-118487600D02*
X135988100Y-118487600D01*
X140814100Y-118487600D02*
X140941100Y-118360600D01*
X135988100Y-120519600D02*
X135861100Y-120646600D01*
X135480100Y-120646600D02*
X135861100Y-120646600D01*
X135988100Y-118487600D02*
X135861100Y-118360600D01*
X135480100Y-118360600D02*
X135861100Y-118360600D01*
X141576100Y-118614600D02*
G75*
G03X141322100Y-118360600I-254000J0D01*
G01*
X141576100Y-120392600D02*
G75*
G02X141322100Y-120646600I-254000J0D01*
G01*
X135480100Y-120646600D02*
G75*
G02X135226100Y-120392600I0J254000D01*
G01*
X135480100Y-118360600D02*
G75*
G03X135226100Y-118614600I0J-254000D01*
G01*
G04 #@! TO.C,R6*
X154222100Y-120546600D02*
X153841100Y-120546600D01*
X154222100Y-118260600D02*
X153841100Y-118260600D01*
X153714100Y-120419600D02*
X148888100Y-120419600D01*
X153714100Y-120419600D02*
X153841100Y-120546600D01*
X153714100Y-118387600D02*
X148888100Y-118387600D01*
X153714100Y-118387600D02*
X153841100Y-118260600D01*
X148888100Y-120419600D02*
X148761100Y-120546600D01*
X148380100Y-120546600D02*
X148761100Y-120546600D01*
X148888100Y-118387600D02*
X148761100Y-118260600D01*
X148380100Y-118260600D02*
X148761100Y-118260600D01*
X154476100Y-118514600D02*
G75*
G03X154222100Y-118260600I-254000J0D01*
G01*
X154476100Y-120292600D02*
G75*
G02X154222100Y-120546600I-254000J0D01*
G01*
X148380100Y-120546600D02*
G75*
G02X148126100Y-120292600I0J254000D01*
G01*
X148380100Y-118260600D02*
G75*
G03X148126100Y-118514600I0J-254000D01*
G01*
G04 #@! TO.C,OK1*
X112085100Y-121063600D02*
G75*
G03X114117100Y-121063600I1016000J0D01*
G01*
X110180100Y-121063600D02*
X112085100Y-121063600D01*
X116022100Y-121063600D02*
X114117100Y-121063600D01*
X116022100Y-126143600D02*
X110180100Y-126143600D01*
X110180100Y-121063600D02*
X110180100Y-126143600D01*
X116022100Y-126143600D02*
X116022100Y-121063600D01*
G04 #@! TO.C,OK2*
X124585100Y-120963600D02*
G75*
G03X126617100Y-120963600I1016000J0D01*
G01*
X122680100Y-120963600D02*
X124585100Y-120963600D01*
X128522100Y-120963600D02*
X126617100Y-120963600D01*
X128522100Y-126043600D02*
X122680100Y-126043600D01*
X122680100Y-120963600D02*
X122680100Y-126043600D01*
X128522100Y-126043600D02*
X128522100Y-120963600D01*
G04 #@! TO.C,OK3*
X137485100Y-120963600D02*
G75*
G03X139517100Y-120963600I1016000J0D01*
G01*
X135580100Y-120963600D02*
X137485100Y-120963600D01*
X141422100Y-120963600D02*
X139517100Y-120963600D01*
X141422100Y-126043600D02*
X135580100Y-126043600D01*
X135580100Y-120963600D02*
X135580100Y-126043600D01*
X141422100Y-126043600D02*
X141422100Y-120963600D01*
G04 #@! TO.C,OK4*
X150485100Y-120963600D02*
G75*
G03X152517100Y-120963600I1016000J0D01*
G01*
X148580100Y-120963600D02*
X150485100Y-120963600D01*
X154422100Y-120963600D02*
X152517100Y-120963600D01*
X154422100Y-126043600D02*
X148580100Y-126043600D01*
X148580100Y-120963600D02*
X148580100Y-126043600D01*
X154422100Y-126043600D02*
X154422100Y-120963600D01*
D13*
G04 #@! TO.C,TO-ARUDINO1*
G36*
X100401100Y-109503600D02*
X100401100Y-111003600D01*
X100901100Y-111003600D01*
X100901100Y-109503600D01*
X100401100Y-109503600D01*
G37*
G36*
X100401100Y-110003600D02*
X100401100Y-110503600D01*
X100801100Y-110503600D01*
X100801100Y-110003600D01*
X100401100Y-110003600D01*
G37*
G36*
X99901100Y-110503600D02*
X99901100Y-111003600D01*
X100801100Y-111003600D01*
X100801100Y-110503600D01*
X99901100Y-110503600D01*
G37*
G36*
X99901100Y-109503600D02*
X99901100Y-110003600D01*
X100901100Y-110003600D01*
X100901100Y-109503600D01*
X99901100Y-109503600D01*
G37*
G36*
X100401100Y-108003600D02*
X100401100Y-120003600D01*
X100901100Y-120003600D01*
X100901100Y-108003600D01*
X100401100Y-108003600D01*
G37*
G36*
X99501100Y-107603600D02*
X99501100Y-108103600D01*
X100901100Y-108103600D01*
X100901100Y-107603600D01*
X99501100Y-107603600D01*
G37*
G36*
X99501100Y-106503600D02*
X99501100Y-108103600D01*
X100001100Y-108103600D01*
X100001100Y-106503600D01*
X99501100Y-106503600D01*
G37*
G36*
X99501100Y-119903600D02*
X99501100Y-121503600D01*
X100001100Y-121503600D01*
X100001100Y-119903600D01*
X99501100Y-119903600D01*
G37*
G36*
X99501100Y-119903600D02*
X99501100Y-120403600D01*
X100901100Y-120403600D01*
X100901100Y-119903600D01*
X99501100Y-119903600D01*
G37*
G36*
X105401100Y-106503600D02*
X105401100Y-121503600D01*
X105901100Y-121503600D01*
X105901100Y-106503600D01*
X105401100Y-106503600D01*
G37*
G36*
X99501100Y-106503600D02*
X99501100Y-107003600D01*
X105901100Y-107003600D01*
X105901100Y-106503600D01*
X99501100Y-106503600D01*
G37*
G36*
X99501100Y-121003600D02*
X99501100Y-121503600D01*
X105901100Y-121503600D01*
X105901100Y-121003600D01*
X99501100Y-121003600D01*
G37*
G36*
X100401100Y-116503600D02*
X100401100Y-118003600D01*
X100901100Y-118003600D01*
X100901100Y-116503600D01*
X100401100Y-116503600D01*
G37*
D15*
X100001100Y-114003600D02*
G75*
G03X100001100Y-114003600I-100000J0D01*
G01*
D13*
G36*
X99901100Y-113203600D02*
X99901100Y-114803600D01*
X100201100Y-114803600D01*
X100201100Y-113203600D01*
X99901100Y-113203600D01*
G37*
G36*
X100401100Y-117003600D02*
X100401100Y-117503600D01*
X100801100Y-117503600D01*
X100801100Y-117003600D01*
X100401100Y-117003600D01*
G37*
G36*
X99901100Y-117503600D02*
X99901100Y-118003600D01*
X100801100Y-118003600D01*
X100801100Y-117503600D01*
X99901100Y-117503600D01*
G37*
G36*
X99901100Y-116503600D02*
X99901100Y-117003600D01*
X100901100Y-117003600D01*
X100901100Y-116503600D01*
X99901100Y-116503600D01*
G37*
G04 #@! TO.C,TO-KEYPADSW1*
G36*
X100401100Y-92503600D02*
X100401100Y-94003600D01*
X100901100Y-94003600D01*
X100901100Y-92503600D01*
X100401100Y-92503600D01*
G37*
G36*
X100401100Y-93003600D02*
X100401100Y-93503600D01*
X100801100Y-93503600D01*
X100801100Y-93003600D01*
X100401100Y-93003600D01*
G37*
G36*
X99901100Y-93503600D02*
X99901100Y-94003600D01*
X100801100Y-94003600D01*
X100801100Y-93503600D01*
X99901100Y-93503600D01*
G37*
G36*
X99901100Y-92503600D02*
X99901100Y-93003600D01*
X100901100Y-93003600D01*
X100901100Y-92503600D01*
X99901100Y-92503600D01*
G37*
G36*
X100401100Y-91003600D02*
X100401100Y-103003600D01*
X100901100Y-103003600D01*
X100901100Y-91003600D01*
X100401100Y-91003600D01*
G37*
G36*
X99501100Y-90603600D02*
X99501100Y-91103600D01*
X100901100Y-91103600D01*
X100901100Y-90603600D01*
X99501100Y-90603600D01*
G37*
G36*
X99501100Y-89503600D02*
X99501100Y-91103600D01*
X100001100Y-91103600D01*
X100001100Y-89503600D01*
X99501100Y-89503600D01*
G37*
G36*
X99501100Y-102903600D02*
X99501100Y-104503600D01*
X100001100Y-104503600D01*
X100001100Y-102903600D01*
X99501100Y-102903600D01*
G37*
G36*
X99501100Y-102903600D02*
X99501100Y-103403600D01*
X100901100Y-103403600D01*
X100901100Y-102903600D01*
X99501100Y-102903600D01*
G37*
G36*
X105401100Y-89503600D02*
X105401100Y-104503600D01*
X105901100Y-104503600D01*
X105901100Y-89503600D01*
X105401100Y-89503600D01*
G37*
G36*
X99501100Y-89503600D02*
X99501100Y-90003600D01*
X105901100Y-90003600D01*
X105901100Y-89503600D01*
X99501100Y-89503600D01*
G37*
G36*
X99501100Y-104003600D02*
X99501100Y-104503600D01*
X105901100Y-104503600D01*
X105901100Y-104003600D01*
X99501100Y-104003600D01*
G37*
G36*
X100401100Y-99503600D02*
X100401100Y-101003600D01*
X100901100Y-101003600D01*
X100901100Y-99503600D01*
X100401100Y-99503600D01*
G37*
D15*
X100001100Y-97003600D02*
G75*
G03X100001100Y-97003600I-100000J0D01*
G01*
D13*
G36*
X99901100Y-96203600D02*
X99901100Y-97803600D01*
X100201100Y-97803600D01*
X100201100Y-96203600D01*
X99901100Y-96203600D01*
G37*
G36*
X100401100Y-100003600D02*
X100401100Y-100503600D01*
X100801100Y-100503600D01*
X100801100Y-100003600D01*
X100401100Y-100003600D01*
G37*
G36*
X99901100Y-100503600D02*
X99901100Y-101003600D01*
X100801100Y-101003600D01*
X100801100Y-100503600D01*
X99901100Y-100503600D01*
G37*
G36*
X99901100Y-99503600D02*
X99901100Y-100003600D01*
X100901100Y-100003600D01*
X100901100Y-99503600D01*
X99901100Y-99503600D01*
G37*
D14*
G04 #@! TO.C,R7*
X116422100Y-117146600D02*
X116041100Y-117146600D01*
X116422100Y-114860600D02*
X116041100Y-114860600D01*
X115914100Y-117019600D02*
X111088100Y-117019600D01*
X115914100Y-117019600D02*
X116041100Y-117146600D01*
X115914100Y-114987600D02*
X111088100Y-114987600D01*
X115914100Y-114987600D02*
X116041100Y-114860600D01*
X111088100Y-117019600D02*
X110961100Y-117146600D01*
X110580100Y-117146600D02*
X110961100Y-117146600D01*
X111088100Y-114987600D02*
X110961100Y-114860600D01*
X110580100Y-114860600D02*
X110961100Y-114860600D01*
X116676100Y-115114600D02*
G75*
G03X116422100Y-114860600I-254000J0D01*
G01*
X116676100Y-116892600D02*
G75*
G02X116422100Y-117146600I-254000J0D01*
G01*
X110580100Y-117146600D02*
G75*
G02X110326100Y-116892600I0J254000D01*
G01*
X110580100Y-114860600D02*
G75*
G03X110326100Y-115114600I0J-254000D01*
G01*
G04 #@! TO.C,R8*
X116422100Y-114146600D02*
X116041100Y-114146600D01*
X116422100Y-111860600D02*
X116041100Y-111860600D01*
X115914100Y-114019600D02*
X111088100Y-114019600D01*
X115914100Y-114019600D02*
X116041100Y-114146600D01*
X115914100Y-111987600D02*
X111088100Y-111987600D01*
X115914100Y-111987600D02*
X116041100Y-111860600D01*
X111088100Y-114019600D02*
X110961100Y-114146600D01*
X110580100Y-114146600D02*
X110961100Y-114146600D01*
X111088100Y-111987600D02*
X110961100Y-111860600D01*
X110580100Y-111860600D02*
X110961100Y-111860600D01*
X116676100Y-112114600D02*
G75*
G03X116422100Y-111860600I-254000J0D01*
G01*
X116676100Y-113892600D02*
G75*
G02X116422100Y-114146600I-254000J0D01*
G01*
X110580100Y-114146600D02*
G75*
G02X110326100Y-113892600I0J254000D01*
G01*
X110580100Y-111860600D02*
G75*
G03X110326100Y-112114600I0J-254000D01*
G01*
G04 #@! TO.C,R9*
X116422100Y-111146600D02*
X116041100Y-111146600D01*
X116422100Y-108860600D02*
X116041100Y-108860600D01*
X115914100Y-111019600D02*
X111088100Y-111019600D01*
X115914100Y-111019600D02*
X116041100Y-111146600D01*
X115914100Y-108987600D02*
X111088100Y-108987600D01*
X115914100Y-108987600D02*
X116041100Y-108860600D01*
X111088100Y-111019600D02*
X110961100Y-111146600D01*
X110580100Y-111146600D02*
X110961100Y-111146600D01*
X111088100Y-108987600D02*
X110961100Y-108860600D01*
X110580100Y-108860600D02*
X110961100Y-108860600D01*
X116676100Y-109114600D02*
G75*
G03X116422100Y-108860600I-254000J0D01*
G01*
X116676100Y-110892600D02*
G75*
G02X116422100Y-111146600I-254000J0D01*
G01*
X110580100Y-111146600D02*
G75*
G02X110326100Y-110892600I0J254000D01*
G01*
X110580100Y-108860600D02*
G75*
G03X110326100Y-109114600I0J-254000D01*
G01*
G04 #@! TO.C,R10*
X116422100Y-108146600D02*
X116041100Y-108146600D01*
X116422100Y-105860600D02*
X116041100Y-105860600D01*
X115914100Y-108019600D02*
X111088100Y-108019600D01*
X115914100Y-108019600D02*
X116041100Y-108146600D01*
X115914100Y-105987600D02*
X111088100Y-105987600D01*
X115914100Y-105987600D02*
X116041100Y-105860600D01*
X111088100Y-108019600D02*
X110961100Y-108146600D01*
X110580100Y-108146600D02*
X110961100Y-108146600D01*
X111088100Y-105987600D02*
X110961100Y-105860600D01*
X110580100Y-105860600D02*
X110961100Y-105860600D01*
X116676100Y-106114600D02*
G75*
G03X116422100Y-105860600I-254000J0D01*
G01*
X116676100Y-107892600D02*
G75*
G02X116422100Y-108146600I-254000J0D01*
G01*
X110580100Y-108146600D02*
G75*
G02X110326100Y-107892600I0J254000D01*
G01*
X110580100Y-105860600D02*
G75*
G03X110326100Y-106114600I0J-254000D01*
G01*
G04 #@! TO.C,C1*
X186755100Y-119903600D02*
X186882100Y-119903600D01*
D16*
X186755100Y-119903600D02*
X186755100Y-119141600D01*
X186755100Y-120665600D02*
X186755100Y-119903600D01*
X186247100Y-119903600D02*
X186247100Y-119141600D01*
X186247100Y-119903600D02*
X186247100Y-120665600D01*
D14*
X186120100Y-119903600D02*
X186247100Y-119903600D01*
X188660100Y-118379600D02*
G75*
G02X188914100Y-118633600I0J-254000D01*
G01*
X184088100Y-118633600D02*
G75*
G02X184342100Y-118379600I254000J0D01*
G01*
X188660100Y-121427600D02*
G75*
G03X188914100Y-121173600I0J254000D01*
G01*
X184088100Y-121173600D02*
G75*
G03X184342100Y-121427600I254000J0D01*
G01*
X188914100Y-121173600D02*
X188914100Y-118633600D01*
X184088100Y-121173600D02*
X184088100Y-118633600D01*
X184342100Y-118379600D02*
X188660100Y-118379600D01*
X188660100Y-121427600D02*
X184342100Y-121427600D01*
G04 #@! TO.C,C2*
X162247100Y-119403600D02*
X162120100Y-119403600D01*
D16*
X162247100Y-119403600D02*
X162247100Y-120165600D01*
X162247100Y-118641600D02*
X162247100Y-119403600D01*
X162755100Y-119403600D02*
X162755100Y-120165600D01*
X162755100Y-119403600D02*
X162755100Y-118641600D01*
D14*
X162882100Y-119403600D02*
X162755100Y-119403600D01*
X160342100Y-120927600D02*
G75*
G02X160088100Y-120673600I0J254000D01*
G01*
X164914100Y-120673600D02*
G75*
G02X164660100Y-120927600I-254000J0D01*
G01*
X160342100Y-117879600D02*
G75*
G03X160088100Y-118133600I0J-254000D01*
G01*
X164914100Y-118133600D02*
G75*
G03X164660100Y-117879600I-254000J0D01*
G01*
X160088100Y-118133600D02*
X160088100Y-120673600D01*
X164914100Y-118133600D02*
X164914100Y-120673600D01*
X164660100Y-120927600D02*
X160342100Y-120927600D01*
X160342100Y-117879600D02*
X164660100Y-117879600D01*
G04 #@! TO.C,C3*
X112747100Y-128103600D02*
X112620100Y-128103600D01*
D16*
X112747100Y-128103600D02*
X112747100Y-128865600D01*
X112747100Y-127341600D02*
X112747100Y-128103600D01*
X113255100Y-128103600D02*
X113255100Y-128865600D01*
X113255100Y-128103600D02*
X113255100Y-127341600D01*
D14*
X113382100Y-128103600D02*
X113255100Y-128103600D01*
X110842100Y-129627600D02*
G75*
G02X110588100Y-129373600I0J254000D01*
G01*
X115414100Y-129373600D02*
G75*
G02X115160100Y-129627600I-254000J0D01*
G01*
X110842100Y-126579600D02*
G75*
G03X110588100Y-126833600I0J-254000D01*
G01*
X115414100Y-126833600D02*
G75*
G03X115160100Y-126579600I-254000J0D01*
G01*
X110588100Y-126833600D02*
X110588100Y-129373600D01*
X115414100Y-126833600D02*
X115414100Y-129373600D01*
X115160100Y-129627600D02*
X110842100Y-129627600D01*
X110842100Y-126579600D02*
X115160100Y-126579600D01*
G04 #@! TO.C,C4*
X125755100Y-128003600D02*
X125882100Y-128003600D01*
D16*
X125755100Y-128003600D02*
X125755100Y-127241600D01*
X125755100Y-128765600D02*
X125755100Y-128003600D01*
X125247100Y-128003600D02*
X125247100Y-127241600D01*
X125247100Y-128003600D02*
X125247100Y-128765600D01*
D14*
X125120100Y-128003600D02*
X125247100Y-128003600D01*
X127660100Y-126479600D02*
G75*
G02X127914100Y-126733600I0J-254000D01*
G01*
X123088100Y-126733600D02*
G75*
G02X123342100Y-126479600I254000J0D01*
G01*
X127660100Y-129527600D02*
G75*
G03X127914100Y-129273600I0J254000D01*
G01*
X123088100Y-129273600D02*
G75*
G03X123342100Y-129527600I254000J0D01*
G01*
X127914100Y-129273600D02*
X127914100Y-126733600D01*
X123088100Y-129273600D02*
X123088100Y-126733600D01*
X123342100Y-126479600D02*
X127660100Y-126479600D01*
X127660100Y-129527600D02*
X123342100Y-129527600D01*
G04 #@! TO.C,C5*
X138247100Y-128003600D02*
X138120100Y-128003600D01*
D16*
X138247100Y-128003600D02*
X138247100Y-128765600D01*
X138247100Y-127241600D02*
X138247100Y-128003600D01*
X138755100Y-128003600D02*
X138755100Y-128765600D01*
X138755100Y-128003600D02*
X138755100Y-127241600D01*
D14*
X138882100Y-128003600D02*
X138755100Y-128003600D01*
X136342100Y-129527600D02*
G75*
G02X136088100Y-129273600I0J254000D01*
G01*
X140914100Y-129273600D02*
G75*
G02X140660100Y-129527600I-254000J0D01*
G01*
X136342100Y-126479600D02*
G75*
G03X136088100Y-126733600I0J-254000D01*
G01*
X140914100Y-126733600D02*
G75*
G03X140660100Y-126479600I-254000J0D01*
G01*
X136088100Y-126733600D02*
X136088100Y-129273600D01*
X140914100Y-126733600D02*
X140914100Y-129273600D01*
X140660100Y-129527600D02*
X136342100Y-129527600D01*
X136342100Y-126479600D02*
X140660100Y-126479600D01*
G04 #@! TO.C,C6*
X151447100Y-128003600D02*
X151320100Y-128003600D01*
D16*
X151447100Y-128003600D02*
X151447100Y-128765600D01*
X151447100Y-127241600D02*
X151447100Y-128003600D01*
X151955100Y-128003600D02*
X151955100Y-128765600D01*
X151955100Y-128003600D02*
X151955100Y-127241600D01*
D14*
X152082100Y-128003600D02*
X151955100Y-128003600D01*
X149542100Y-129527600D02*
G75*
G02X149288100Y-129273600I0J254000D01*
G01*
X154114100Y-129273600D02*
G75*
G02X153860100Y-129527600I-254000J0D01*
G01*
X149542100Y-126479600D02*
G75*
G03X149288100Y-126733600I0J-254000D01*
G01*
X154114100Y-126733600D02*
G75*
G03X153860100Y-126479600I-254000J0D01*
G01*
X149288100Y-126733600D02*
X149288100Y-129273600D01*
X154114100Y-126733600D02*
X154114100Y-129273600D01*
X153860100Y-129527600D02*
X149542100Y-129527600D01*
X149542100Y-126479600D02*
X153860100Y-126479600D01*
G04 #@! TO.C,C7*
X188201100Y-112749600D02*
X188201100Y-112622600D01*
D16*
X188201100Y-112749600D02*
X187439100Y-112749600D01*
X188963100Y-112749600D02*
X188201100Y-112749600D01*
X188201100Y-113257600D02*
X187439100Y-113257600D01*
X188201100Y-113257600D02*
X188963100Y-113257600D01*
D14*
X188201100Y-113384600D02*
X188201100Y-113257600D01*
X186677100Y-110844600D02*
G75*
G02X186931100Y-110590600I254000J0D01*
G01*
X186931100Y-115416600D02*
G75*
G02X186677100Y-115162600I0J254000D01*
G01*
X189725100Y-110844600D02*
G75*
G03X189471100Y-110590600I-254000J0D01*
G01*
X189471100Y-115416600D02*
G75*
G03X189725100Y-115162600I0J254000D01*
G01*
X189471100Y-110590600D02*
X186931100Y-110590600D01*
X189471100Y-115416600D02*
X186931100Y-115416600D01*
X186677100Y-115162600D02*
X186677100Y-110844600D01*
X189725100Y-110844600D02*
X189725100Y-115162600D01*
G04 #@! TO.C,C8*
X188101100Y-92749600D02*
X188101100Y-92622600D01*
D16*
X188101100Y-92749600D02*
X187339100Y-92749600D01*
X188863100Y-92749600D02*
X188101100Y-92749600D01*
X188101100Y-93257600D02*
X187339100Y-93257600D01*
X188101100Y-93257600D02*
X188863100Y-93257600D01*
D14*
X188101100Y-93384600D02*
X188101100Y-93257600D01*
X186577100Y-90844600D02*
G75*
G02X186831100Y-90590600I254000J0D01*
G01*
X186831100Y-95416600D02*
G75*
G02X186577100Y-95162600I0J254000D01*
G01*
X189625100Y-90844600D02*
G75*
G03X189371100Y-90590600I-254000J0D01*
G01*
X189371100Y-95416600D02*
G75*
G03X189625100Y-95162600I0J254000D01*
G01*
X189371100Y-90590600D02*
X186831100Y-90590600D01*
X189371100Y-95416600D02*
X186831100Y-95416600D01*
X186577100Y-95162600D02*
X186577100Y-90844600D01*
X189625100Y-90844600D02*
X189625100Y-95162600D01*
G04 #@! TO.C,C9*
X188201100Y-102749600D02*
X188201100Y-102622600D01*
D16*
X188201100Y-102749600D02*
X187439100Y-102749600D01*
X188963100Y-102749600D02*
X188201100Y-102749600D01*
X188201100Y-103257600D02*
X187439100Y-103257600D01*
X188201100Y-103257600D02*
X188963100Y-103257600D01*
D14*
X188201100Y-103384600D02*
X188201100Y-103257600D01*
X186677100Y-100844600D02*
G75*
G02X186931100Y-100590600I254000J0D01*
G01*
X186931100Y-105416600D02*
G75*
G02X186677100Y-105162600I0J254000D01*
G01*
X189725100Y-100844600D02*
G75*
G03X189471100Y-100590600I-254000J0D01*
G01*
X189471100Y-105416600D02*
G75*
G03X189725100Y-105162600I0J254000D01*
G01*
X189471100Y-100590600D02*
X186931100Y-100590600D01*
X189471100Y-105416600D02*
X186931100Y-105416600D01*
X186677100Y-105162600D02*
X186677100Y-100844600D01*
X189725100Y-100844600D02*
X189725100Y-105162600D01*
G04 #@! TD*
G04 #@! TO.C,D1*
D17*
X130545085Y-118669238D02*
X130545085Y-117704038D01*
X130774895Y-117704038D01*
X130912781Y-117750000D01*
X131004704Y-117841923D01*
X131050666Y-117933847D01*
X131096628Y-118117695D01*
X131096628Y-118255580D01*
X131050666Y-118439428D01*
X131004704Y-118531352D01*
X130912781Y-118623276D01*
X130774895Y-118669238D01*
X130545085Y-118669238D01*
X132015866Y-118669238D02*
X131464323Y-118669238D01*
X131740095Y-118669238D02*
X131740095Y-117704038D01*
X131648171Y-117841923D01*
X131556247Y-117933847D01*
X131464323Y-117979809D01*
G04 #@! TO.C,D2*
D18*
X142215733Y-118243838D02*
X142215733Y-117278638D01*
X142445542Y-117278638D01*
X142583428Y-117324600D01*
X142675352Y-117416523D01*
X142721314Y-117508447D01*
X142767276Y-117692295D01*
X142767276Y-117830180D01*
X142721314Y-118014028D01*
X142675352Y-118105952D01*
X142583428Y-118197876D01*
X142445542Y-118243838D01*
X142215733Y-118243838D01*
X143134971Y-117370561D02*
X143180933Y-117324600D01*
X143272857Y-117278638D01*
X143502666Y-117278638D01*
X143594590Y-117324600D01*
X143640552Y-117370561D01*
X143686514Y-117462485D01*
X143686514Y-117554409D01*
X143640552Y-117692295D01*
X143089009Y-118243838D01*
X143686514Y-118243838D01*
G04 #@! TO.C,D3*
D17*
X155745085Y-118369238D02*
X155745085Y-117404038D01*
X155974895Y-117404038D01*
X156112781Y-117450000D01*
X156204704Y-117541923D01*
X156250666Y-117633847D01*
X156296628Y-117817695D01*
X156296628Y-117955580D01*
X156250666Y-118139428D01*
X156204704Y-118231352D01*
X156112781Y-118323276D01*
X155974895Y-118369238D01*
X155745085Y-118369238D01*
X156618362Y-117404038D02*
X157215866Y-117404038D01*
X156894133Y-117771733D01*
X157032019Y-117771733D01*
X157123942Y-117817695D01*
X157169904Y-117863657D01*
X157215866Y-117955580D01*
X157215866Y-118185390D01*
X157169904Y-118277314D01*
X157123942Y-118323276D01*
X157032019Y-118369238D01*
X156756247Y-118369238D01*
X156664323Y-118323276D01*
X156618362Y-118277314D01*
G04 #@! TO.C,D4*
X166770085Y-118369238D02*
X166770085Y-117404038D01*
X166999895Y-117404038D01*
X167137781Y-117450000D01*
X167229704Y-117541923D01*
X167275666Y-117633847D01*
X167321628Y-117817695D01*
X167321628Y-117955580D01*
X167275666Y-118139428D01*
X167229704Y-118231352D01*
X167137781Y-118323276D01*
X166999895Y-118369238D01*
X166770085Y-118369238D01*
X168148942Y-117725771D02*
X168148942Y-118369238D01*
X167919133Y-117358076D02*
X167689323Y-118047504D01*
X168286828Y-118047504D01*
G04 #@! TO.C,DSS1*
D18*
X193445257Y-123422838D02*
X193445257Y-122457638D01*
X193675066Y-122457638D01*
X193812952Y-122503600D01*
X193904876Y-122595523D01*
X193950838Y-122687447D01*
X193996800Y-122871295D01*
X193996800Y-123009180D01*
X193950838Y-123193028D01*
X193904876Y-123284952D01*
X193812952Y-123376876D01*
X193675066Y-123422838D01*
X193445257Y-123422838D01*
X194364495Y-123376876D02*
X194502381Y-123422838D01*
X194732190Y-123422838D01*
X194824114Y-123376876D01*
X194870076Y-123330914D01*
X194916038Y-123238990D01*
X194916038Y-123147066D01*
X194870076Y-123055142D01*
X194824114Y-123009180D01*
X194732190Y-122963219D01*
X194548342Y-122917257D01*
X194456419Y-122871295D01*
X194410457Y-122825333D01*
X194364495Y-122733409D01*
X194364495Y-122641485D01*
X194410457Y-122549561D01*
X194456419Y-122503600D01*
X194548342Y-122457638D01*
X194778152Y-122457638D01*
X194916038Y-122503600D01*
X195283733Y-123376876D02*
X195421619Y-123422838D01*
X195651428Y-123422838D01*
X195743352Y-123376876D01*
X195789314Y-123330914D01*
X195835276Y-123238990D01*
X195835276Y-123147066D01*
X195789314Y-123055142D01*
X195743352Y-123009180D01*
X195651428Y-122963219D01*
X195467581Y-122917257D01*
X195375657Y-122871295D01*
X195329695Y-122825333D01*
X195283733Y-122733409D01*
X195283733Y-122641485D01*
X195329695Y-122549561D01*
X195375657Y-122503600D01*
X195467581Y-122457638D01*
X195697390Y-122457638D01*
X195835276Y-122503600D01*
X196754514Y-123422838D02*
X196202971Y-123422838D01*
X196478742Y-123422838D02*
X196478742Y-122457638D01*
X196386819Y-122595523D01*
X196294895Y-122687447D01*
X196202971Y-122733409D01*
D19*
X189271428Y-121574714D02*
X189271428Y-121517571D01*
X189300000Y-121460428D01*
X189328571Y-121431857D01*
X189385714Y-121403285D01*
X189500000Y-121374714D01*
X189642857Y-121374714D01*
X189757142Y-121403285D01*
X189814285Y-121431857D01*
X189842857Y-121460428D01*
X189871428Y-121517571D01*
X189871428Y-121574714D01*
X189842857Y-121631857D01*
X189814285Y-121660428D01*
X189757142Y-121689000D01*
X189642857Y-121717571D01*
X189500000Y-121717571D01*
X189385714Y-121689000D01*
X189328571Y-121660428D01*
X189300000Y-121631857D01*
X189271428Y-121574714D01*
X189814285Y-121117571D02*
X189842857Y-121089000D01*
X189871428Y-121117571D01*
X189842857Y-121146142D01*
X189814285Y-121117571D01*
X189871428Y-121117571D01*
X189271428Y-120717571D02*
X189271428Y-120660428D01*
X189300000Y-120603285D01*
X189328571Y-120574714D01*
X189385714Y-120546142D01*
X189500000Y-120517571D01*
X189642857Y-120517571D01*
X189757142Y-120546142D01*
X189814285Y-120574714D01*
X189842857Y-120603285D01*
X189871428Y-120660428D01*
X189871428Y-120717571D01*
X189842857Y-120774714D01*
X189814285Y-120803285D01*
X189757142Y-120831857D01*
X189642857Y-120860428D01*
X189500000Y-120860428D01*
X189385714Y-120831857D01*
X189328571Y-120803285D01*
X189300000Y-120774714D01*
X189271428Y-120717571D01*
X189871428Y-119946142D02*
X189871428Y-120289000D01*
X189871428Y-120117571D02*
X189271428Y-120117571D01*
X189357142Y-120174714D01*
X189414285Y-120231857D01*
X189442857Y-120289000D01*
X189471428Y-119431857D02*
X189871428Y-119431857D01*
X189471428Y-119689000D02*
X189785714Y-119689000D01*
X189842857Y-119660428D01*
X189871428Y-119603285D01*
X189871428Y-119517571D01*
X189842857Y-119460428D01*
X189814285Y-119431857D01*
G04 #@! TO.C,DC+5V1*
D17*
X177813323Y-129269238D02*
X177813323Y-128304038D01*
X178043133Y-128304038D01*
X178181019Y-128350000D01*
X178272942Y-128441923D01*
X178318904Y-128533847D01*
X178364866Y-128717695D01*
X178364866Y-128855580D01*
X178318904Y-129039428D01*
X178272942Y-129131352D01*
X178181019Y-129223276D01*
X178043133Y-129269238D01*
X177813323Y-129269238D01*
X179330066Y-129177314D02*
X179284104Y-129223276D01*
X179146219Y-129269238D01*
X179054295Y-129269238D01*
X178916409Y-129223276D01*
X178824485Y-129131352D01*
X178778523Y-129039428D01*
X178732562Y-128855580D01*
X178732562Y-128717695D01*
X178778523Y-128533847D01*
X178824485Y-128441923D01*
X178916409Y-128350000D01*
X179054295Y-128304038D01*
X179146219Y-128304038D01*
X179284104Y-128350000D01*
X179330066Y-128395961D01*
X179743723Y-128901542D02*
X180479114Y-128901542D01*
X180111419Y-129269238D02*
X180111419Y-128533847D01*
X181398352Y-128304038D02*
X180938733Y-128304038D01*
X180892771Y-128763657D01*
X180938733Y-128717695D01*
X181030657Y-128671733D01*
X181260466Y-128671733D01*
X181352390Y-128717695D01*
X181398352Y-128763657D01*
X181444314Y-128855580D01*
X181444314Y-129085390D01*
X181398352Y-129177314D01*
X181352390Y-129223276D01*
X181260466Y-129269238D01*
X181030657Y-129269238D01*
X180938733Y-129223276D01*
X180892771Y-129177314D01*
X181720085Y-128304038D02*
X182041819Y-129269238D01*
X182363552Y-128304038D01*
X183190866Y-129269238D02*
X182639323Y-129269238D01*
X182915095Y-129269238D02*
X182915095Y-128304038D01*
X182823171Y-128441923D01*
X182731247Y-128533847D01*
X182639323Y-128579809D01*
D19*
X192089285Y-129275285D02*
X192117857Y-129303857D01*
X192146428Y-129389571D01*
X192146428Y-129446714D01*
X192117857Y-129532428D01*
X192060714Y-129589571D01*
X192003571Y-129618142D01*
X191889285Y-129646714D01*
X191803571Y-129646714D01*
X191689285Y-129618142D01*
X191632142Y-129589571D01*
X191575000Y-129532428D01*
X191546428Y-129446714D01*
X191546428Y-129389571D01*
X191575000Y-129303857D01*
X191603571Y-129275285D01*
X191546428Y-128903857D02*
X191546428Y-128789571D01*
X191575000Y-128732428D01*
X191632142Y-128675285D01*
X191746428Y-128646714D01*
X191946428Y-128646714D01*
X192060714Y-128675285D01*
X192117857Y-128732428D01*
X192146428Y-128789571D01*
X192146428Y-128903857D01*
X192117857Y-128961000D01*
X192060714Y-129018142D01*
X191946428Y-129046714D01*
X191746428Y-129046714D01*
X191632142Y-129018142D01*
X191575000Y-128961000D01*
X191546428Y-128903857D01*
X192146428Y-128389571D02*
X191546428Y-128389571D01*
X192146428Y-128046714D01*
X191546428Y-128046714D01*
X191917857Y-127761000D02*
X191917857Y-127303857D01*
X191546428Y-126846714D02*
X191975000Y-126846714D01*
X192060714Y-126875285D01*
X192117857Y-126932428D01*
X192146428Y-127018142D01*
X192146428Y-127075285D01*
X192117857Y-126589571D02*
X192146428Y-126503857D01*
X192146428Y-126361000D01*
X192117857Y-126303857D01*
X192089285Y-126275285D01*
X192032142Y-126246714D01*
X191975000Y-126246714D01*
X191917857Y-126275285D01*
X191889285Y-126303857D01*
X191860714Y-126361000D01*
X191832142Y-126475285D01*
X191803571Y-126532428D01*
X191775000Y-126561000D01*
X191717857Y-126589571D01*
X191660714Y-126589571D01*
X191603571Y-126561000D01*
X191575000Y-126532428D01*
X191546428Y-126475285D01*
X191546428Y-126332428D01*
X191575000Y-126246714D01*
X191546428Y-126075285D02*
X191546428Y-125732428D01*
X192146428Y-125903857D02*
X191546428Y-125903857D01*
X191917857Y-125532428D02*
X191917857Y-125075285D01*
X191546428Y-124846714D02*
X192146428Y-124446714D01*
X191546428Y-124446714D02*
X192146428Y-124846714D01*
X191975000Y-124246714D02*
X191975000Y-123961000D01*
X192146428Y-124303857D02*
X191546428Y-124103857D01*
X192146428Y-123903857D01*
X191917857Y-123703857D02*
X191917857Y-123246714D01*
X191603571Y-122989571D02*
X191575000Y-122961000D01*
X191546428Y-122903857D01*
X191546428Y-122761000D01*
X191575000Y-122703857D01*
X191603571Y-122675285D01*
X191660714Y-122646714D01*
X191717857Y-122646714D01*
X191803571Y-122675285D01*
X192146428Y-123018142D01*
X192146428Y-122646714D01*
D20*
X188968033Y-124693022D02*
X188637107Y-124693022D01*
X188802570Y-124693022D02*
X188802570Y-124113902D01*
X188747416Y-124196634D01*
X188692262Y-124251788D01*
X188637107Y-124279365D01*
G04 #@! TO.C,CONTROL1*
D17*
X167731637Y-129087114D02*
X167685676Y-129133076D01*
X167547790Y-129179038D01*
X167455866Y-129179038D01*
X167317980Y-129133076D01*
X167226057Y-129041152D01*
X167180095Y-128949228D01*
X167134133Y-128765380D01*
X167134133Y-128627495D01*
X167180095Y-128443647D01*
X167226057Y-128351723D01*
X167317980Y-128259800D01*
X167455866Y-128213838D01*
X167547790Y-128213838D01*
X167685676Y-128259800D01*
X167731637Y-128305761D01*
X168329142Y-128213838D02*
X168512990Y-128213838D01*
X168604914Y-128259800D01*
X168696837Y-128351723D01*
X168742799Y-128535571D01*
X168742799Y-128857304D01*
X168696837Y-129041152D01*
X168604914Y-129133076D01*
X168512990Y-129179038D01*
X168329142Y-129179038D01*
X168237218Y-129133076D01*
X168145295Y-129041152D01*
X168099333Y-128857304D01*
X168099333Y-128535571D01*
X168145295Y-128351723D01*
X168237218Y-128259800D01*
X168329142Y-128213838D01*
X169156457Y-129179038D02*
X169156457Y-128213838D01*
X169707999Y-129179038D01*
X169707999Y-128213838D01*
X170029733Y-128213838D02*
X170581276Y-128213838D01*
X170305504Y-129179038D02*
X170305504Y-128213838D01*
X171454552Y-129179038D02*
X171132818Y-128719419D01*
X170903009Y-129179038D02*
X170903009Y-128213838D01*
X171270704Y-128213838D01*
X171362628Y-128259800D01*
X171408590Y-128305761D01*
X171454552Y-128397685D01*
X171454552Y-128535571D01*
X171408590Y-128627495D01*
X171362628Y-128673457D01*
X171270704Y-128719419D01*
X170903009Y-128719419D01*
X172052057Y-128213838D02*
X172235904Y-128213838D01*
X172327828Y-128259800D01*
X172419752Y-128351723D01*
X172465714Y-128535571D01*
X172465714Y-128857304D01*
X172419752Y-129041152D01*
X172327828Y-129133076D01*
X172235904Y-129179038D01*
X172052057Y-129179038D01*
X171960133Y-129133076D01*
X171868209Y-129041152D01*
X171822247Y-128857304D01*
X171822247Y-128535571D01*
X171868209Y-128351723D01*
X171960133Y-128259800D01*
X172052057Y-128213838D01*
X173338990Y-129179038D02*
X172879371Y-129179038D01*
X172879371Y-128213838D01*
X174166304Y-129179038D02*
X173614761Y-129179038D01*
X173890533Y-129179038D02*
X173890533Y-128213838D01*
X173798609Y-128351723D01*
X173706685Y-128443647D01*
X173614761Y-128489609D01*
D18*
X160667499Y-122528571D02*
X160643690Y-122552380D01*
X160572261Y-122576190D01*
X160524642Y-122576190D01*
X160453214Y-122552380D01*
X160405595Y-122504761D01*
X160381785Y-122457142D01*
X160357976Y-122361904D01*
X160357976Y-122290476D01*
X160381785Y-122195238D01*
X160405595Y-122147619D01*
X160453214Y-122100000D01*
X160524642Y-122076190D01*
X160572261Y-122076190D01*
X160643690Y-122100000D01*
X160667499Y-122123809D01*
X160977023Y-122076190D02*
X161072261Y-122076190D01*
X161119880Y-122100000D01*
X161167499Y-122147619D01*
X161191309Y-122242857D01*
X161191309Y-122409523D01*
X161167499Y-122504761D01*
X161119880Y-122552380D01*
X161072261Y-122576190D01*
X160977023Y-122576190D01*
X160929404Y-122552380D01*
X160881785Y-122504761D01*
X160857976Y-122409523D01*
X160857976Y-122242857D01*
X160881785Y-122147619D01*
X160929404Y-122100000D01*
X160977023Y-122076190D01*
X161405595Y-122576190D02*
X161405595Y-122076190D01*
X161691309Y-122576190D01*
X161691309Y-122076190D01*
X161929404Y-122385714D02*
X162310357Y-122385714D01*
X162691309Y-122076190D02*
X162691309Y-122433333D01*
X162667499Y-122504761D01*
X162619880Y-122552380D01*
X162548452Y-122576190D01*
X162500833Y-122576190D01*
X162905595Y-122552380D02*
X162977023Y-122576190D01*
X163096071Y-122576190D01*
X163143690Y-122552380D01*
X163167499Y-122528571D01*
X163191309Y-122480952D01*
X163191309Y-122433333D01*
X163167499Y-122385714D01*
X163143690Y-122361904D01*
X163096071Y-122338095D01*
X163000833Y-122314285D01*
X162953214Y-122290476D01*
X162929404Y-122266666D01*
X162905595Y-122219047D01*
X162905595Y-122171428D01*
X162929404Y-122123809D01*
X162953214Y-122100000D01*
X163000833Y-122076190D01*
X163119880Y-122076190D01*
X163191309Y-122100000D01*
X163334166Y-122076190D02*
X163619880Y-122076190D01*
X163477023Y-122576190D02*
X163477023Y-122076190D01*
X163786547Y-122385714D02*
X164167499Y-122385714D01*
X164357976Y-122076190D02*
X164691309Y-122576190D01*
X164691309Y-122076190D02*
X164357976Y-122576190D01*
X164857976Y-122433333D02*
X165096071Y-122433333D01*
X164810357Y-122576190D02*
X164977023Y-122076190D01*
X165143690Y-122576190D01*
X165310357Y-122385714D02*
X165691309Y-122385714D01*
X165905595Y-122123809D02*
X165929404Y-122100000D01*
X165977023Y-122076190D01*
X166096071Y-122076190D01*
X166143690Y-122100000D01*
X166167499Y-122123809D01*
X166191309Y-122171428D01*
X166191309Y-122219047D01*
X166167499Y-122290476D01*
X165881785Y-122576190D01*
X166191309Y-122576190D01*
D20*
X164749033Y-124766022D02*
X164418107Y-124766022D01*
X164583570Y-124766022D02*
X164583570Y-124186902D01*
X164528416Y-124269634D01*
X164473262Y-124324788D01*
X164418107Y-124352365D01*
G04 #@! TO.C,Q1*
D17*
X172561661Y-124723761D02*
X172469737Y-124677800D01*
X172377814Y-124585876D01*
X172239928Y-124447990D01*
X172148004Y-124402028D01*
X172056080Y-124402028D01*
X172102042Y-124631838D02*
X172010118Y-124585876D01*
X171918195Y-124493952D01*
X171872233Y-124310104D01*
X171872233Y-123988371D01*
X171918195Y-123804523D01*
X172010118Y-123712600D01*
X172102042Y-123666638D01*
X172285890Y-123666638D01*
X172377814Y-123712600D01*
X172469737Y-123804523D01*
X172515699Y-123988371D01*
X172515699Y-124310104D01*
X172469737Y-124493952D01*
X172377814Y-124585876D01*
X172285890Y-124631838D01*
X172102042Y-124631838D01*
X173434937Y-124631838D02*
X172883395Y-124631838D01*
X173159166Y-124631838D02*
X173159166Y-123666638D01*
X173067242Y-123804523D01*
X172975318Y-123896447D01*
X172883395Y-123942409D01*
G04 #@! TO.C,R1*
X166322728Y-121419238D02*
X166000995Y-120959619D01*
X165771185Y-121419238D02*
X165771185Y-120454038D01*
X166138881Y-120454038D01*
X166230804Y-120500000D01*
X166276766Y-120545961D01*
X166322728Y-120637885D01*
X166322728Y-120775771D01*
X166276766Y-120867695D01*
X166230804Y-120913657D01*
X166138881Y-120959619D01*
X165771185Y-120959619D01*
X167241966Y-121419238D02*
X166690423Y-121419238D01*
X166966195Y-121419238D02*
X166966195Y-120454038D01*
X166874271Y-120591923D01*
X166782347Y-120683847D01*
X166690423Y-120729809D01*
G04 #@! TO.C,R2*
X177322728Y-125619238D02*
X177000995Y-125159619D01*
X176771185Y-125619238D02*
X176771185Y-124654038D01*
X177138881Y-124654038D01*
X177230804Y-124700000D01*
X177276766Y-124745961D01*
X177322728Y-124837885D01*
X177322728Y-124975771D01*
X177276766Y-125067695D01*
X177230804Y-125113657D01*
X177138881Y-125159619D01*
X176771185Y-125159619D01*
X177690423Y-124745961D02*
X177736385Y-124700000D01*
X177828309Y-124654038D01*
X178058119Y-124654038D01*
X178150042Y-124700000D01*
X178196004Y-124745961D01*
X178241966Y-124837885D01*
X178241966Y-124929809D01*
X178196004Y-125067695D01*
X177644462Y-125619238D01*
X178241966Y-125619238D01*
G04 #@! TO.C,RL1*
X124315276Y-93569238D02*
X123993542Y-93109619D01*
X123763733Y-93569238D02*
X123763733Y-92604038D01*
X124131428Y-92604038D01*
X124223352Y-92650000D01*
X124269314Y-92695961D01*
X124315276Y-92787885D01*
X124315276Y-92925771D01*
X124269314Y-93017695D01*
X124223352Y-93063657D01*
X124131428Y-93109619D01*
X123763733Y-93109619D01*
X125188552Y-93569238D02*
X124728933Y-93569238D01*
X124728933Y-92604038D01*
X126015866Y-93569238D02*
X125464323Y-93569238D01*
X125740095Y-93569238D02*
X125740095Y-92604038D01*
X125648171Y-92741923D01*
X125556247Y-92833847D01*
X125464323Y-92879809D01*
G04 #@! TO.C,RL2*
X136915276Y-93569238D02*
X136593542Y-93109619D01*
X136363733Y-93569238D02*
X136363733Y-92604038D01*
X136731428Y-92604038D01*
X136823352Y-92650000D01*
X136869314Y-92695961D01*
X136915276Y-92787885D01*
X136915276Y-92925771D01*
X136869314Y-93017695D01*
X136823352Y-93063657D01*
X136731428Y-93109619D01*
X136363733Y-93109619D01*
X137788552Y-93569238D02*
X137328933Y-93569238D01*
X137328933Y-92604038D01*
X138064323Y-92695961D02*
X138110285Y-92650000D01*
X138202209Y-92604038D01*
X138432019Y-92604038D01*
X138523942Y-92650000D01*
X138569904Y-92695961D01*
X138615866Y-92787885D01*
X138615866Y-92879809D01*
X138569904Y-93017695D01*
X138018362Y-93569238D01*
X138615866Y-93569238D01*
G04 #@! TO.C,RL3*
X150065276Y-93494238D02*
X149743542Y-93034619D01*
X149513733Y-93494238D02*
X149513733Y-92529038D01*
X149881428Y-92529038D01*
X149973352Y-92575000D01*
X150019314Y-92620961D01*
X150065276Y-92712885D01*
X150065276Y-92850771D01*
X150019314Y-92942695D01*
X149973352Y-92988657D01*
X149881428Y-93034619D01*
X149513733Y-93034619D01*
X150938552Y-93494238D02*
X150478933Y-93494238D01*
X150478933Y-92529038D01*
X151168362Y-92529038D02*
X151765866Y-92529038D01*
X151444133Y-92896733D01*
X151582019Y-92896733D01*
X151673942Y-92942695D01*
X151719904Y-92988657D01*
X151765866Y-93080580D01*
X151765866Y-93310390D01*
X151719904Y-93402314D01*
X151673942Y-93448276D01*
X151582019Y-93494238D01*
X151306247Y-93494238D01*
X151214323Y-93448276D01*
X151168362Y-93402314D01*
G04 #@! TO.C,RL4*
X162915276Y-93569238D02*
X162593542Y-93109619D01*
X162363733Y-93569238D02*
X162363733Y-92604038D01*
X162731428Y-92604038D01*
X162823352Y-92650000D01*
X162869314Y-92695961D01*
X162915276Y-92787885D01*
X162915276Y-92925771D01*
X162869314Y-93017695D01*
X162823352Y-93063657D01*
X162731428Y-93109619D01*
X162363733Y-93109619D01*
X163788552Y-93569238D02*
X163328933Y-93569238D01*
X163328933Y-92604038D01*
X164523942Y-92925771D02*
X164523942Y-93569238D01*
X164294133Y-92558076D02*
X164064323Y-93247504D01*
X164661828Y-93247504D01*
G04 #@! TO.C,CN1-MICIN1*
D13*
X127436190Y-88707142D02*
X127388571Y-88754761D01*
X127245714Y-88802380D01*
X127150476Y-88802380D01*
X127007619Y-88754761D01*
X126912380Y-88659523D01*
X126864761Y-88564285D01*
X126817142Y-88373809D01*
X126817142Y-88230952D01*
X126864761Y-88040476D01*
X126912380Y-87945238D01*
X127007619Y-87850000D01*
X127150476Y-87802380D01*
X127245714Y-87802380D01*
X127388571Y-87850000D01*
X127436190Y-87897619D01*
X127864761Y-88802380D02*
X127864761Y-87802380D01*
X128436190Y-88802380D01*
X128436190Y-87802380D01*
X129436190Y-88802380D02*
X128864761Y-88802380D01*
X129150476Y-88802380D02*
X129150476Y-87802380D01*
X129055238Y-87945238D01*
X128960000Y-88040476D01*
X128864761Y-88088095D01*
X129864761Y-88421428D02*
X130626666Y-88421428D01*
X131102857Y-88802380D02*
X131102857Y-87802380D01*
X131436190Y-88516666D01*
X131769523Y-87802380D01*
X131769523Y-88802380D01*
X132245714Y-88802380D02*
X132245714Y-87802380D01*
X133293333Y-88707142D02*
X133245714Y-88754761D01*
X133102857Y-88802380D01*
X133007619Y-88802380D01*
X132864761Y-88754761D01*
X132769523Y-88659523D01*
X132721904Y-88564285D01*
X132674285Y-88373809D01*
X132674285Y-88230952D01*
X132721904Y-88040476D01*
X132769523Y-87945238D01*
X132864761Y-87850000D01*
X133007619Y-87802380D01*
X133102857Y-87802380D01*
X133245714Y-87850000D01*
X133293333Y-87897619D01*
X133721904Y-88802380D02*
X133721904Y-87802380D01*
X134198095Y-88802380D02*
X134198095Y-87802380D01*
X134769523Y-88802380D01*
X134769523Y-87802380D01*
X135769523Y-88802380D02*
X135198095Y-88802380D01*
X135483809Y-88802380D02*
X135483809Y-87802380D01*
X135388571Y-87945238D01*
X135293333Y-88040476D01*
X135198095Y-88088095D01*
D21*
X119415251Y-88159988D02*
X119387674Y-88187565D01*
X119304942Y-88215142D01*
X119249788Y-88215142D01*
X119167057Y-88187565D01*
X119111902Y-88132411D01*
X119084325Y-88077257D01*
X119056748Y-87966948D01*
X119056748Y-87884217D01*
X119084325Y-87773908D01*
X119111902Y-87718754D01*
X119167057Y-87663600D01*
X119249788Y-87636022D01*
X119304942Y-87636022D01*
X119387674Y-87663600D01*
X119415251Y-87691177D01*
X119773754Y-87636022D02*
X119884062Y-87636022D01*
X119939217Y-87663600D01*
X119994371Y-87718754D01*
X120021948Y-87829062D01*
X120021948Y-88022102D01*
X119994371Y-88132411D01*
X119939217Y-88187565D01*
X119884062Y-88215142D01*
X119773754Y-88215142D01*
X119718600Y-88187565D01*
X119663445Y-88132411D01*
X119635868Y-88022102D01*
X119635868Y-87829062D01*
X119663445Y-87718754D01*
X119718600Y-87663600D01*
X119773754Y-87636022D01*
X120270142Y-88215142D02*
X120270142Y-87636022D01*
X120601068Y-88215142D01*
X120601068Y-87636022D01*
X120876840Y-87994525D02*
X121318074Y-87994525D01*
X121759308Y-87636022D02*
X121759308Y-88049680D01*
X121731731Y-88132411D01*
X121676577Y-88187565D01*
X121593845Y-88215142D01*
X121538691Y-88215142D01*
X122007502Y-88187565D02*
X122090234Y-88215142D01*
X122228120Y-88215142D01*
X122283274Y-88187565D01*
X122310851Y-88159988D01*
X122338428Y-88104834D01*
X122338428Y-88049680D01*
X122310851Y-87994525D01*
X122283274Y-87966948D01*
X122228120Y-87939371D01*
X122117811Y-87911794D01*
X122062657Y-87884217D01*
X122035080Y-87856640D01*
X122007502Y-87801485D01*
X122007502Y-87746331D01*
X122035080Y-87691177D01*
X122062657Y-87663600D01*
X122117811Y-87636022D01*
X122255697Y-87636022D01*
X122338428Y-87663600D01*
X122503891Y-87636022D02*
X122834817Y-87636022D01*
X122669354Y-88215142D02*
X122669354Y-87636022D01*
X123027857Y-87994525D02*
X123469091Y-87994525D01*
X123689708Y-87636022D02*
X124075788Y-88215142D01*
X124075788Y-87636022D02*
X123689708Y-88215142D01*
X124268828Y-88049680D02*
X124544600Y-88049680D01*
X124213674Y-88215142D02*
X124406714Y-87636022D01*
X124599754Y-88215142D01*
X124792794Y-87994525D02*
X125234028Y-87994525D01*
X125592531Y-87884217D02*
X125537377Y-87856640D01*
X125509800Y-87829062D01*
X125482222Y-87773908D01*
X125482222Y-87746331D01*
X125509800Y-87691177D01*
X125537377Y-87663600D01*
X125592531Y-87636022D01*
X125702840Y-87636022D01*
X125757994Y-87663600D01*
X125785571Y-87691177D01*
X125813148Y-87746331D01*
X125813148Y-87773908D01*
X125785571Y-87829062D01*
X125757994Y-87856640D01*
X125702840Y-87884217D01*
X125592531Y-87884217D01*
X125537377Y-87911794D01*
X125509800Y-87939371D01*
X125482222Y-87994525D01*
X125482222Y-88104834D01*
X125509800Y-88159988D01*
X125537377Y-88187565D01*
X125592531Y-88215142D01*
X125702840Y-88215142D01*
X125757994Y-88187565D01*
X125785571Y-88159988D01*
X125813148Y-88104834D01*
X125813148Y-87994525D01*
X125785571Y-87939371D01*
X125757994Y-87911794D01*
X125702840Y-87884217D01*
D20*
X121664033Y-85476022D02*
X121333107Y-85476022D01*
X121498570Y-85476022D02*
X121498570Y-84896902D01*
X121443416Y-84979634D01*
X121388262Y-85034788D01*
X121333107Y-85062365D01*
G04 #@! TO.C,CN2-RIGHT1*
D13*
X177243333Y-88707142D02*
X177195714Y-88754761D01*
X177052857Y-88802380D01*
X176957619Y-88802380D01*
X176814761Y-88754761D01*
X176719523Y-88659523D01*
X176671904Y-88564285D01*
X176624285Y-88373809D01*
X176624285Y-88230952D01*
X176671904Y-88040476D01*
X176719523Y-87945238D01*
X176814761Y-87850000D01*
X176957619Y-87802380D01*
X177052857Y-87802380D01*
X177195714Y-87850000D01*
X177243333Y-87897619D01*
X177671904Y-88802380D02*
X177671904Y-87802380D01*
X178243333Y-88802380D01*
X178243333Y-87802380D01*
X178671904Y-87897619D02*
X178719523Y-87850000D01*
X178814761Y-87802380D01*
X179052857Y-87802380D01*
X179148095Y-87850000D01*
X179195714Y-87897619D01*
X179243333Y-87992857D01*
X179243333Y-88088095D01*
X179195714Y-88230952D01*
X178624285Y-88802380D01*
X179243333Y-88802380D01*
X179671904Y-88421428D02*
X180433809Y-88421428D01*
X181481428Y-88802380D02*
X181148095Y-88326190D01*
X180910000Y-88802380D02*
X180910000Y-87802380D01*
X181290952Y-87802380D01*
X181386190Y-87850000D01*
X181433809Y-87897619D01*
X181481428Y-87992857D01*
X181481428Y-88135714D01*
X181433809Y-88230952D01*
X181386190Y-88278571D01*
X181290952Y-88326190D01*
X180910000Y-88326190D01*
X181910000Y-88802380D02*
X181910000Y-87802380D01*
X182910000Y-87850000D02*
X182814761Y-87802380D01*
X182671904Y-87802380D01*
X182529047Y-87850000D01*
X182433809Y-87945238D01*
X182386190Y-88040476D01*
X182338571Y-88230952D01*
X182338571Y-88373809D01*
X182386190Y-88564285D01*
X182433809Y-88659523D01*
X182529047Y-88754761D01*
X182671904Y-88802380D01*
X182767142Y-88802380D01*
X182910000Y-88754761D01*
X182957619Y-88707142D01*
X182957619Y-88373809D01*
X182767142Y-88373809D01*
X183386190Y-88802380D02*
X183386190Y-87802380D01*
X183386190Y-88278571D02*
X183957619Y-88278571D01*
X183957619Y-88802380D02*
X183957619Y-87802380D01*
X184290952Y-87802380D02*
X184862380Y-87802380D01*
X184576666Y-88802380D02*
X184576666Y-87802380D01*
X185719523Y-88802380D02*
X185148095Y-88802380D01*
X185433809Y-88802380D02*
X185433809Y-87802380D01*
X185338571Y-87945238D01*
X185243333Y-88040476D01*
X185148095Y-88088095D01*
D21*
X169415251Y-88159988D02*
X169387674Y-88187565D01*
X169304942Y-88215142D01*
X169249788Y-88215142D01*
X169167057Y-88187565D01*
X169111902Y-88132411D01*
X169084325Y-88077257D01*
X169056748Y-87966948D01*
X169056748Y-87884217D01*
X169084325Y-87773908D01*
X169111902Y-87718754D01*
X169167057Y-87663600D01*
X169249788Y-87636022D01*
X169304942Y-87636022D01*
X169387674Y-87663600D01*
X169415251Y-87691177D01*
X169773754Y-87636022D02*
X169884062Y-87636022D01*
X169939217Y-87663600D01*
X169994371Y-87718754D01*
X170021948Y-87829062D01*
X170021948Y-88022102D01*
X169994371Y-88132411D01*
X169939217Y-88187565D01*
X169884062Y-88215142D01*
X169773754Y-88215142D01*
X169718600Y-88187565D01*
X169663445Y-88132411D01*
X169635868Y-88022102D01*
X169635868Y-87829062D01*
X169663445Y-87718754D01*
X169718600Y-87663600D01*
X169773754Y-87636022D01*
X170270142Y-88215142D02*
X170270142Y-87636022D01*
X170601068Y-88215142D01*
X170601068Y-87636022D01*
X170876840Y-87994525D02*
X171318074Y-87994525D01*
X171759308Y-87636022D02*
X171759308Y-88049680D01*
X171731731Y-88132411D01*
X171676577Y-88187565D01*
X171593845Y-88215142D01*
X171538691Y-88215142D01*
X172007502Y-88187565D02*
X172090234Y-88215142D01*
X172228120Y-88215142D01*
X172283274Y-88187565D01*
X172310851Y-88159988D01*
X172338428Y-88104834D01*
X172338428Y-88049680D01*
X172310851Y-87994525D01*
X172283274Y-87966948D01*
X172228120Y-87939371D01*
X172117811Y-87911794D01*
X172062657Y-87884217D01*
X172035080Y-87856640D01*
X172007502Y-87801485D01*
X172007502Y-87746331D01*
X172035080Y-87691177D01*
X172062657Y-87663600D01*
X172117811Y-87636022D01*
X172255697Y-87636022D01*
X172338428Y-87663600D01*
X172503891Y-87636022D02*
X172834817Y-87636022D01*
X172669354Y-88215142D02*
X172669354Y-87636022D01*
X173027857Y-87994525D02*
X173469091Y-87994525D01*
X173689708Y-87636022D02*
X174075788Y-88215142D01*
X174075788Y-87636022D02*
X173689708Y-88215142D01*
X174268828Y-88049680D02*
X174544600Y-88049680D01*
X174213674Y-88215142D02*
X174406714Y-87636022D01*
X174599754Y-88215142D01*
X174792794Y-87994525D02*
X175234028Y-87994525D01*
X175592531Y-87884217D02*
X175537377Y-87856640D01*
X175509800Y-87829062D01*
X175482222Y-87773908D01*
X175482222Y-87746331D01*
X175509800Y-87691177D01*
X175537377Y-87663600D01*
X175592531Y-87636022D01*
X175702840Y-87636022D01*
X175757994Y-87663600D01*
X175785571Y-87691177D01*
X175813148Y-87746331D01*
X175813148Y-87773908D01*
X175785571Y-87829062D01*
X175757994Y-87856640D01*
X175702840Y-87884217D01*
X175592531Y-87884217D01*
X175537377Y-87911794D01*
X175509800Y-87939371D01*
X175482222Y-87994525D01*
X175482222Y-88104834D01*
X175509800Y-88159988D01*
X175537377Y-88187565D01*
X175592531Y-88215142D01*
X175702840Y-88215142D01*
X175757994Y-88187565D01*
X175785571Y-88159988D01*
X175813148Y-88104834D01*
X175813148Y-87994525D01*
X175785571Y-87939371D01*
X175757994Y-87911794D01*
X175702840Y-87884217D01*
D20*
X171664033Y-85476022D02*
X171333107Y-85476022D01*
X171498570Y-85476022D02*
X171498570Y-84896902D01*
X171443416Y-84979634D01*
X171388262Y-85034788D01*
X171333107Y-85062365D01*
G04 #@! TO.C,CN3-LEFT1*
D13*
X152195714Y-88607142D02*
X152148095Y-88654761D01*
X152005238Y-88702380D01*
X151910000Y-88702380D01*
X151767142Y-88654761D01*
X151671904Y-88559523D01*
X151624285Y-88464285D01*
X151576666Y-88273809D01*
X151576666Y-88130952D01*
X151624285Y-87940476D01*
X151671904Y-87845238D01*
X151767142Y-87750000D01*
X151910000Y-87702380D01*
X152005238Y-87702380D01*
X152148095Y-87750000D01*
X152195714Y-87797619D01*
X152624285Y-88702380D02*
X152624285Y-87702380D01*
X153195714Y-88702380D01*
X153195714Y-87702380D01*
X153576666Y-87702380D02*
X154195714Y-87702380D01*
X153862380Y-88083333D01*
X154005238Y-88083333D01*
X154100476Y-88130952D01*
X154148095Y-88178571D01*
X154195714Y-88273809D01*
X154195714Y-88511904D01*
X154148095Y-88607142D01*
X154100476Y-88654761D01*
X154005238Y-88702380D01*
X153719523Y-88702380D01*
X153624285Y-88654761D01*
X153576666Y-88607142D01*
X154624285Y-88321428D02*
X155386190Y-88321428D01*
X156338571Y-88702380D02*
X155862380Y-88702380D01*
X155862380Y-87702380D01*
X156671904Y-88178571D02*
X157005238Y-88178571D01*
X157148095Y-88702380D02*
X156671904Y-88702380D01*
X156671904Y-87702380D01*
X157148095Y-87702380D01*
X157910000Y-88178571D02*
X157576666Y-88178571D01*
X157576666Y-88702380D02*
X157576666Y-87702380D01*
X158052857Y-87702380D01*
X158290952Y-87702380D02*
X158862380Y-87702380D01*
X158576666Y-88702380D02*
X158576666Y-87702380D01*
X159719523Y-88702380D02*
X159148095Y-88702380D01*
X159433809Y-88702380D02*
X159433809Y-87702380D01*
X159338571Y-87845238D01*
X159243333Y-87940476D01*
X159148095Y-87988095D01*
D21*
X144415251Y-88159988D02*
X144387674Y-88187565D01*
X144304942Y-88215142D01*
X144249788Y-88215142D01*
X144167057Y-88187565D01*
X144111902Y-88132411D01*
X144084325Y-88077257D01*
X144056748Y-87966948D01*
X144056748Y-87884217D01*
X144084325Y-87773908D01*
X144111902Y-87718754D01*
X144167057Y-87663600D01*
X144249788Y-87636022D01*
X144304942Y-87636022D01*
X144387674Y-87663600D01*
X144415251Y-87691177D01*
X144773754Y-87636022D02*
X144884062Y-87636022D01*
X144939217Y-87663600D01*
X144994371Y-87718754D01*
X145021948Y-87829062D01*
X145021948Y-88022102D01*
X144994371Y-88132411D01*
X144939217Y-88187565D01*
X144884062Y-88215142D01*
X144773754Y-88215142D01*
X144718600Y-88187565D01*
X144663445Y-88132411D01*
X144635868Y-88022102D01*
X144635868Y-87829062D01*
X144663445Y-87718754D01*
X144718600Y-87663600D01*
X144773754Y-87636022D01*
X145270142Y-88215142D02*
X145270142Y-87636022D01*
X145601068Y-88215142D01*
X145601068Y-87636022D01*
X145876840Y-87994525D02*
X146318074Y-87994525D01*
X146759308Y-87636022D02*
X146759308Y-88049680D01*
X146731731Y-88132411D01*
X146676577Y-88187565D01*
X146593845Y-88215142D01*
X146538691Y-88215142D01*
X147007502Y-88187565D02*
X147090234Y-88215142D01*
X147228120Y-88215142D01*
X147283274Y-88187565D01*
X147310851Y-88159988D01*
X147338428Y-88104834D01*
X147338428Y-88049680D01*
X147310851Y-87994525D01*
X147283274Y-87966948D01*
X147228120Y-87939371D01*
X147117811Y-87911794D01*
X147062657Y-87884217D01*
X147035080Y-87856640D01*
X147007502Y-87801485D01*
X147007502Y-87746331D01*
X147035080Y-87691177D01*
X147062657Y-87663600D01*
X147117811Y-87636022D01*
X147255697Y-87636022D01*
X147338428Y-87663600D01*
X147503891Y-87636022D02*
X147834817Y-87636022D01*
X147669354Y-88215142D02*
X147669354Y-87636022D01*
X148027857Y-87994525D02*
X148469091Y-87994525D01*
X148689708Y-87636022D02*
X149075788Y-88215142D01*
X149075788Y-87636022D02*
X148689708Y-88215142D01*
X149268828Y-88049680D02*
X149544600Y-88049680D01*
X149213674Y-88215142D02*
X149406714Y-87636022D01*
X149599754Y-88215142D01*
X149792794Y-87994525D02*
X150234028Y-87994525D01*
X150592531Y-87884217D02*
X150537377Y-87856640D01*
X150509800Y-87829062D01*
X150482222Y-87773908D01*
X150482222Y-87746331D01*
X150509800Y-87691177D01*
X150537377Y-87663600D01*
X150592531Y-87636022D01*
X150702840Y-87636022D01*
X150757994Y-87663600D01*
X150785571Y-87691177D01*
X150813148Y-87746331D01*
X150813148Y-87773908D01*
X150785571Y-87829062D01*
X150757994Y-87856640D01*
X150702840Y-87884217D01*
X150592531Y-87884217D01*
X150537377Y-87911794D01*
X150509800Y-87939371D01*
X150482222Y-87994525D01*
X150482222Y-88104834D01*
X150509800Y-88159988D01*
X150537377Y-88187565D01*
X150592531Y-88215142D01*
X150702840Y-88215142D01*
X150757994Y-88187565D01*
X150785571Y-88159988D01*
X150813148Y-88104834D01*
X150813148Y-87994525D01*
X150785571Y-87939371D01*
X150757994Y-87911794D01*
X150702840Y-87884217D01*
D20*
X146664033Y-85476022D02*
X146333107Y-85476022D01*
X146498570Y-85476022D02*
X146498570Y-84896902D01*
X146443416Y-84979634D01*
X146388262Y-85034788D01*
X146333107Y-85062365D01*
G04 #@! TO.C,RL5*
D17*
X176390276Y-93694238D02*
X176068542Y-93234619D01*
X175838733Y-93694238D02*
X175838733Y-92729038D01*
X176206428Y-92729038D01*
X176298352Y-92775000D01*
X176344314Y-92820961D01*
X176390276Y-92912885D01*
X176390276Y-93050771D01*
X176344314Y-93142695D01*
X176298352Y-93188657D01*
X176206428Y-93234619D01*
X175838733Y-93234619D01*
X177263552Y-93694238D02*
X176803933Y-93694238D01*
X176803933Y-92729038D01*
X178044904Y-92729038D02*
X177585285Y-92729038D01*
X177539323Y-93188657D01*
X177585285Y-93142695D01*
X177677209Y-93096733D01*
X177907019Y-93096733D01*
X177998942Y-93142695D01*
X178044904Y-93188657D01*
X178090866Y-93280580D01*
X178090866Y-93510390D01*
X178044904Y-93602314D01*
X177998942Y-93648276D01*
X177907019Y-93694238D01*
X177677209Y-93694238D01*
X177585285Y-93648276D01*
X177539323Y-93602314D01*
G04 #@! TO.C,D5*
X179270085Y-118419238D02*
X179270085Y-117454038D01*
X179499895Y-117454038D01*
X179637781Y-117500000D01*
X179729704Y-117591923D01*
X179775666Y-117683847D01*
X179821628Y-117867695D01*
X179821628Y-118005580D01*
X179775666Y-118189428D01*
X179729704Y-118281352D01*
X179637781Y-118373276D01*
X179499895Y-118419238D01*
X179270085Y-118419238D01*
X180694904Y-117454038D02*
X180235285Y-117454038D01*
X180189323Y-117913657D01*
X180235285Y-117867695D01*
X180327209Y-117821733D01*
X180557019Y-117821733D01*
X180648942Y-117867695D01*
X180694904Y-117913657D01*
X180740866Y-118005580D01*
X180740866Y-118235390D01*
X180694904Y-118327314D01*
X180648942Y-118373276D01*
X180557019Y-118419238D01*
X180327209Y-118419238D01*
X180235285Y-118373276D01*
X180189323Y-118327314D01*
G04 #@! TO.C,KEY-IN1*
X191453704Y-117944238D02*
X191453704Y-116979038D01*
X192005247Y-117944238D02*
X191591590Y-117392695D01*
X192005247Y-116979038D02*
X191453704Y-117530580D01*
X192418904Y-117438657D02*
X192740638Y-117438657D01*
X192878523Y-117944238D02*
X192418904Y-117944238D01*
X192418904Y-116979038D01*
X192878523Y-116979038D01*
X193476028Y-117484619D02*
X193476028Y-117944238D01*
X193154295Y-116979038D02*
X193476028Y-117484619D01*
X193797762Y-116979038D01*
X194119495Y-117576542D02*
X194854885Y-117576542D01*
X195314504Y-117944238D02*
X195314504Y-116979038D01*
X195774123Y-117944238D02*
X195774123Y-116979038D01*
X196325666Y-117944238D01*
X196325666Y-116979038D01*
X197290866Y-117944238D02*
X196739323Y-117944238D01*
X197015095Y-117944238D02*
X197015095Y-116979038D01*
X196923171Y-117116923D01*
X196831247Y-117208847D01*
X196739323Y-117254809D01*
D19*
X190639285Y-115750285D02*
X190667857Y-115778857D01*
X190696428Y-115864571D01*
X190696428Y-115921714D01*
X190667857Y-116007428D01*
X190610714Y-116064571D01*
X190553571Y-116093142D01*
X190439285Y-116121714D01*
X190353571Y-116121714D01*
X190239285Y-116093142D01*
X190182142Y-116064571D01*
X190125000Y-116007428D01*
X190096428Y-115921714D01*
X190096428Y-115864571D01*
X190125000Y-115778857D01*
X190153571Y-115750285D01*
X190096428Y-115378857D02*
X190096428Y-115264571D01*
X190125000Y-115207428D01*
X190182142Y-115150285D01*
X190296428Y-115121714D01*
X190496428Y-115121714D01*
X190610714Y-115150285D01*
X190667857Y-115207428D01*
X190696428Y-115264571D01*
X190696428Y-115378857D01*
X190667857Y-115436000D01*
X190610714Y-115493142D01*
X190496428Y-115521714D01*
X190296428Y-115521714D01*
X190182142Y-115493142D01*
X190125000Y-115436000D01*
X190096428Y-115378857D01*
X190696428Y-114864571D02*
X190096428Y-114864571D01*
X190696428Y-114521714D01*
X190096428Y-114521714D01*
X190467857Y-114236000D02*
X190467857Y-113778857D01*
X190096428Y-113321714D02*
X190525000Y-113321714D01*
X190610714Y-113350285D01*
X190667857Y-113407428D01*
X190696428Y-113493142D01*
X190696428Y-113550285D01*
X190667857Y-113064571D02*
X190696428Y-112978857D01*
X190696428Y-112836000D01*
X190667857Y-112778857D01*
X190639285Y-112750285D01*
X190582142Y-112721714D01*
X190525000Y-112721714D01*
X190467857Y-112750285D01*
X190439285Y-112778857D01*
X190410714Y-112836000D01*
X190382142Y-112950285D01*
X190353571Y-113007428D01*
X190325000Y-113036000D01*
X190267857Y-113064571D01*
X190210714Y-113064571D01*
X190153571Y-113036000D01*
X190125000Y-113007428D01*
X190096428Y-112950285D01*
X190096428Y-112807428D01*
X190125000Y-112721714D01*
X190096428Y-112550285D02*
X190096428Y-112207428D01*
X190696428Y-112378857D02*
X190096428Y-112378857D01*
X190467857Y-112007428D02*
X190467857Y-111550285D01*
X190096428Y-111321714D02*
X190696428Y-110921714D01*
X190096428Y-110921714D02*
X190696428Y-111321714D01*
X190525000Y-110721714D02*
X190525000Y-110436000D01*
X190696428Y-110778857D02*
X190096428Y-110578857D01*
X190696428Y-110378857D01*
X190467857Y-110178857D02*
X190467857Y-109721714D01*
X190153571Y-109464571D02*
X190125000Y-109436000D01*
X190096428Y-109378857D01*
X190096428Y-109236000D01*
X190125000Y-109178857D01*
X190153571Y-109150285D01*
X190210714Y-109121714D01*
X190267857Y-109121714D01*
X190353571Y-109150285D01*
X190696428Y-109493142D01*
X190696428Y-109121714D01*
D20*
X193073522Y-111220666D02*
X193073522Y-111551592D01*
X193073522Y-111386129D02*
X192494402Y-111386129D01*
X192577134Y-111441283D01*
X192632288Y-111496437D01*
X192659865Y-111551592D01*
G04 #@! TO.C,LEFT-KEY1*
D17*
X190541771Y-108244238D02*
X190082152Y-108244238D01*
X190082152Y-107279038D01*
X190863504Y-107738657D02*
X191185238Y-107738657D01*
X191323123Y-108244238D02*
X190863504Y-108244238D01*
X190863504Y-107279038D01*
X191323123Y-107279038D01*
X192058514Y-107738657D02*
X191736781Y-107738657D01*
X191736781Y-108244238D02*
X191736781Y-107279038D01*
X192196400Y-107279038D01*
X192426209Y-107279038D02*
X192977752Y-107279038D01*
X192701981Y-108244238D02*
X192701981Y-107279038D01*
X193299485Y-107876542D02*
X194034876Y-107876542D01*
X194494495Y-108244238D02*
X194494495Y-107279038D01*
X195046038Y-108244238D02*
X194632381Y-107692695D01*
X195046038Y-107279038D02*
X194494495Y-107830580D01*
X195459695Y-107738657D02*
X195781428Y-107738657D01*
X195919314Y-108244238D02*
X195459695Y-108244238D01*
X195459695Y-107279038D01*
X195919314Y-107279038D01*
X196516819Y-107784619D02*
X196516819Y-108244238D01*
X196195085Y-107279038D02*
X196516819Y-107784619D01*
X196838552Y-107279038D01*
X197665866Y-108244238D02*
X197114323Y-108244238D01*
X197390095Y-108244238D02*
X197390095Y-107279038D01*
X197298171Y-107416923D01*
X197206247Y-107508847D01*
X197114323Y-107554809D01*
D19*
X190639285Y-105700285D02*
X190667857Y-105728857D01*
X190696428Y-105814571D01*
X190696428Y-105871714D01*
X190667857Y-105957428D01*
X190610714Y-106014571D01*
X190553571Y-106043142D01*
X190439285Y-106071714D01*
X190353571Y-106071714D01*
X190239285Y-106043142D01*
X190182142Y-106014571D01*
X190125000Y-105957428D01*
X190096428Y-105871714D01*
X190096428Y-105814571D01*
X190125000Y-105728857D01*
X190153571Y-105700285D01*
X190096428Y-105328857D02*
X190096428Y-105214571D01*
X190125000Y-105157428D01*
X190182142Y-105100285D01*
X190296428Y-105071714D01*
X190496428Y-105071714D01*
X190610714Y-105100285D01*
X190667857Y-105157428D01*
X190696428Y-105214571D01*
X190696428Y-105328857D01*
X190667857Y-105386000D01*
X190610714Y-105443142D01*
X190496428Y-105471714D01*
X190296428Y-105471714D01*
X190182142Y-105443142D01*
X190125000Y-105386000D01*
X190096428Y-105328857D01*
X190696428Y-104814571D02*
X190096428Y-104814571D01*
X190696428Y-104471714D01*
X190096428Y-104471714D01*
X190467857Y-104186000D02*
X190467857Y-103728857D01*
X190096428Y-103271714D02*
X190525000Y-103271714D01*
X190610714Y-103300285D01*
X190667857Y-103357428D01*
X190696428Y-103443142D01*
X190696428Y-103500285D01*
X190667857Y-103014571D02*
X190696428Y-102928857D01*
X190696428Y-102786000D01*
X190667857Y-102728857D01*
X190639285Y-102700285D01*
X190582142Y-102671714D01*
X190525000Y-102671714D01*
X190467857Y-102700285D01*
X190439285Y-102728857D01*
X190410714Y-102786000D01*
X190382142Y-102900285D01*
X190353571Y-102957428D01*
X190325000Y-102986000D01*
X190267857Y-103014571D01*
X190210714Y-103014571D01*
X190153571Y-102986000D01*
X190125000Y-102957428D01*
X190096428Y-102900285D01*
X190096428Y-102757428D01*
X190125000Y-102671714D01*
X190096428Y-102500285D02*
X190096428Y-102157428D01*
X190696428Y-102328857D02*
X190096428Y-102328857D01*
X190467857Y-101957428D02*
X190467857Y-101500285D01*
X190096428Y-101271714D02*
X190696428Y-100871714D01*
X190096428Y-100871714D02*
X190696428Y-101271714D01*
X190525000Y-100671714D02*
X190525000Y-100386000D01*
X190696428Y-100728857D02*
X190096428Y-100528857D01*
X190696428Y-100328857D01*
X190467857Y-100128857D02*
X190467857Y-99671714D01*
X190153571Y-99414571D02*
X190125000Y-99386000D01*
X190096428Y-99328857D01*
X190096428Y-99186000D01*
X190125000Y-99128857D01*
X190153571Y-99100285D01*
X190210714Y-99071714D01*
X190267857Y-99071714D01*
X190353571Y-99100285D01*
X190696428Y-99443142D01*
X190696428Y-99071714D01*
D20*
X193073522Y-101220666D02*
X193073522Y-101551592D01*
X193073522Y-101386129D02*
X192494402Y-101386129D01*
X192577134Y-101441283D01*
X192632288Y-101496437D01*
X192659865Y-101551592D01*
G04 #@! TO.C,RIGHT-KEY1*
D17*
X189614457Y-98344238D02*
X189292723Y-97884619D01*
X189062914Y-98344238D02*
X189062914Y-97379038D01*
X189430609Y-97379038D01*
X189522533Y-97425000D01*
X189568495Y-97470961D01*
X189614457Y-97562885D01*
X189614457Y-97700771D01*
X189568495Y-97792695D01*
X189522533Y-97838657D01*
X189430609Y-97884619D01*
X189062914Y-97884619D01*
X190028114Y-98344238D02*
X190028114Y-97379038D01*
X190993314Y-97425000D02*
X190901390Y-97379038D01*
X190763504Y-97379038D01*
X190625619Y-97425000D01*
X190533695Y-97516923D01*
X190487733Y-97608847D01*
X190441771Y-97792695D01*
X190441771Y-97930580D01*
X190487733Y-98114428D01*
X190533695Y-98206352D01*
X190625619Y-98298276D01*
X190763504Y-98344238D01*
X190855428Y-98344238D01*
X190993314Y-98298276D01*
X191039276Y-98252314D01*
X191039276Y-97930580D01*
X190855428Y-97930580D01*
X191452933Y-98344238D02*
X191452933Y-97379038D01*
X191452933Y-97838657D02*
X192004476Y-97838657D01*
X192004476Y-98344238D02*
X192004476Y-97379038D01*
X192326209Y-97379038D02*
X192877752Y-97379038D01*
X192601981Y-98344238D02*
X192601981Y-97379038D01*
X193199485Y-97976542D02*
X193934876Y-97976542D01*
X194394495Y-98344238D02*
X194394495Y-97379038D01*
X194946038Y-98344238D02*
X194532381Y-97792695D01*
X194946038Y-97379038D02*
X194394495Y-97930580D01*
X195359695Y-97838657D02*
X195681428Y-97838657D01*
X195819314Y-98344238D02*
X195359695Y-98344238D01*
X195359695Y-97379038D01*
X195819314Y-97379038D01*
X196416819Y-97884619D02*
X196416819Y-98344238D01*
X196095085Y-97379038D02*
X196416819Y-97884619D01*
X196738552Y-97379038D01*
X197565866Y-98344238D02*
X197014323Y-98344238D01*
X197290095Y-98344238D02*
X197290095Y-97379038D01*
X197198171Y-97516923D01*
X197106247Y-97608847D01*
X197014323Y-97654809D01*
D19*
X190539285Y-96325285D02*
X190567857Y-96353857D01*
X190596428Y-96439571D01*
X190596428Y-96496714D01*
X190567857Y-96582428D01*
X190510714Y-96639571D01*
X190453571Y-96668142D01*
X190339285Y-96696714D01*
X190253571Y-96696714D01*
X190139285Y-96668142D01*
X190082142Y-96639571D01*
X190025000Y-96582428D01*
X189996428Y-96496714D01*
X189996428Y-96439571D01*
X190025000Y-96353857D01*
X190053571Y-96325285D01*
X189996428Y-95953857D02*
X189996428Y-95839571D01*
X190025000Y-95782428D01*
X190082142Y-95725285D01*
X190196428Y-95696714D01*
X190396428Y-95696714D01*
X190510714Y-95725285D01*
X190567857Y-95782428D01*
X190596428Y-95839571D01*
X190596428Y-95953857D01*
X190567857Y-96011000D01*
X190510714Y-96068142D01*
X190396428Y-96096714D01*
X190196428Y-96096714D01*
X190082142Y-96068142D01*
X190025000Y-96011000D01*
X189996428Y-95953857D01*
X190596428Y-95439571D02*
X189996428Y-95439571D01*
X190596428Y-95096714D01*
X189996428Y-95096714D01*
X190367857Y-94811000D02*
X190367857Y-94353857D01*
X189996428Y-93896714D02*
X190425000Y-93896714D01*
X190510714Y-93925285D01*
X190567857Y-93982428D01*
X190596428Y-94068142D01*
X190596428Y-94125285D01*
X190567857Y-93639571D02*
X190596428Y-93553857D01*
X190596428Y-93411000D01*
X190567857Y-93353857D01*
X190539285Y-93325285D01*
X190482142Y-93296714D01*
X190425000Y-93296714D01*
X190367857Y-93325285D01*
X190339285Y-93353857D01*
X190310714Y-93411000D01*
X190282142Y-93525285D01*
X190253571Y-93582428D01*
X190225000Y-93611000D01*
X190167857Y-93639571D01*
X190110714Y-93639571D01*
X190053571Y-93611000D01*
X190025000Y-93582428D01*
X189996428Y-93525285D01*
X189996428Y-93382428D01*
X190025000Y-93296714D01*
X189996428Y-93125285D02*
X189996428Y-92782428D01*
X190596428Y-92953857D02*
X189996428Y-92953857D01*
X190367857Y-92582428D02*
X190367857Y-92125285D01*
X189996428Y-91896714D02*
X190596428Y-91496714D01*
X189996428Y-91496714D02*
X190596428Y-91896714D01*
X190425000Y-91296714D02*
X190425000Y-91011000D01*
X190596428Y-91353857D02*
X189996428Y-91153857D01*
X190596428Y-90953857D01*
X190367857Y-90753857D02*
X190367857Y-90296714D01*
X190053571Y-90039571D02*
X190025000Y-90011000D01*
X189996428Y-89953857D01*
X189996428Y-89811000D01*
X190025000Y-89753857D01*
X190053571Y-89725285D01*
X190110714Y-89696714D01*
X190167857Y-89696714D01*
X190253571Y-89725285D01*
X190596428Y-90068142D01*
X190596428Y-89696714D01*
D20*
X193073522Y-91220666D02*
X193073522Y-91551592D01*
X193073522Y-91386129D02*
X192494402Y-91386129D01*
X192577134Y-91441283D01*
X192632288Y-91496437D01*
X192659865Y-91551592D01*
G04 #@! TO.C,KEYPAD2*
D17*
X116036781Y-93894238D02*
X116036781Y-92929038D01*
X116588323Y-93894238D02*
X116174666Y-93342695D01*
X116588323Y-92929038D02*
X116036781Y-93480580D01*
X117001981Y-93388657D02*
X117323714Y-93388657D01*
X117461600Y-93894238D02*
X117001981Y-93894238D01*
X117001981Y-92929038D01*
X117461600Y-92929038D01*
X118059104Y-93434619D02*
X118059104Y-93894238D01*
X117737371Y-92929038D02*
X118059104Y-93434619D01*
X118380838Y-92929038D01*
X118702571Y-93894238D02*
X118702571Y-92929038D01*
X119070266Y-92929038D01*
X119162190Y-92975000D01*
X119208152Y-93020961D01*
X119254114Y-93112885D01*
X119254114Y-93250771D01*
X119208152Y-93342695D01*
X119162190Y-93388657D01*
X119070266Y-93434619D01*
X118702571Y-93434619D01*
X119621809Y-93618466D02*
X120081428Y-93618466D01*
X119529885Y-93894238D02*
X119851619Y-92929038D01*
X120173352Y-93894238D01*
X120495085Y-93894238D02*
X120495085Y-92929038D01*
X120724895Y-92929038D01*
X120862781Y-92975000D01*
X120954704Y-93066923D01*
X121000666Y-93158847D01*
X121046628Y-93342695D01*
X121046628Y-93480580D01*
X121000666Y-93664428D01*
X120954704Y-93756352D01*
X120862781Y-93848276D01*
X120724895Y-93894238D01*
X120495085Y-93894238D01*
X121414323Y-93020961D02*
X121460285Y-92975000D01*
X121552209Y-92929038D01*
X121782019Y-92929038D01*
X121873942Y-92975000D01*
X121919904Y-93020961D01*
X121965866Y-93112885D01*
X121965866Y-93204809D01*
X121919904Y-93342695D01*
X121368362Y-93894238D01*
X121965866Y-93894238D01*
G04 #@! TO.C,TO-AMP*
D13*
X108507619Y-88177380D02*
X109079047Y-88177380D01*
X108793333Y-89177380D02*
X108793333Y-88177380D01*
X109602857Y-88177380D02*
X109793333Y-88177380D01*
X109888571Y-88225000D01*
X109983809Y-88320238D01*
X110031428Y-88510714D01*
X110031428Y-88844047D01*
X109983809Y-89034523D01*
X109888571Y-89129761D01*
X109793333Y-89177380D01*
X109602857Y-89177380D01*
X109507619Y-89129761D01*
X109412380Y-89034523D01*
X109364761Y-88844047D01*
X109364761Y-88510714D01*
X109412380Y-88320238D01*
X109507619Y-88225000D01*
X109602857Y-88177380D01*
X110460000Y-88796428D02*
X111221904Y-88796428D01*
X111650476Y-88891666D02*
X112126666Y-88891666D01*
X111555238Y-89177380D02*
X111888571Y-88177380D01*
X112221904Y-89177380D01*
X112555238Y-89177380D02*
X112555238Y-88177380D01*
X112888571Y-88891666D01*
X113221904Y-88177380D01*
X113221904Y-89177380D01*
X113698095Y-89177380D02*
X113698095Y-88177380D01*
X114079047Y-88177380D01*
X114174285Y-88225000D01*
X114221904Y-88272619D01*
X114269523Y-88367857D01*
X114269523Y-88510714D01*
X114221904Y-88605952D01*
X114174285Y-88653571D01*
X114079047Y-88701190D01*
X113698095Y-88701190D01*
D19*
X107264285Y-87531857D02*
X107292857Y-87560428D01*
X107321428Y-87646142D01*
X107321428Y-87703285D01*
X107292857Y-87789000D01*
X107235714Y-87846142D01*
X107178571Y-87874714D01*
X107064285Y-87903285D01*
X106978571Y-87903285D01*
X106864285Y-87874714D01*
X106807142Y-87846142D01*
X106750000Y-87789000D01*
X106721428Y-87703285D01*
X106721428Y-87646142D01*
X106750000Y-87560428D01*
X106778571Y-87531857D01*
X106721428Y-87160428D02*
X106721428Y-87046142D01*
X106750000Y-86989000D01*
X106807142Y-86931857D01*
X106921428Y-86903285D01*
X107121428Y-86903285D01*
X107235714Y-86931857D01*
X107292857Y-86989000D01*
X107321428Y-87046142D01*
X107321428Y-87160428D01*
X107292857Y-87217571D01*
X107235714Y-87274714D01*
X107121428Y-87303285D01*
X106921428Y-87303285D01*
X106807142Y-87274714D01*
X106750000Y-87217571D01*
X106721428Y-87160428D01*
X107321428Y-86646142D02*
X106721428Y-86646142D01*
X107321428Y-86303285D01*
X106721428Y-86303285D01*
X107092857Y-86017571D02*
X107092857Y-85560428D01*
X106721428Y-85103285D02*
X107150000Y-85103285D01*
X107235714Y-85131857D01*
X107292857Y-85189000D01*
X107321428Y-85274714D01*
X107321428Y-85331857D01*
X107292857Y-84846142D02*
X107321428Y-84760428D01*
X107321428Y-84617571D01*
X107292857Y-84560428D01*
X107264285Y-84531857D01*
X107207142Y-84503285D01*
X107150000Y-84503285D01*
X107092857Y-84531857D01*
X107064285Y-84560428D01*
X107035714Y-84617571D01*
X107007142Y-84731857D01*
X106978571Y-84789000D01*
X106950000Y-84817571D01*
X106892857Y-84846142D01*
X106835714Y-84846142D01*
X106778571Y-84817571D01*
X106750000Y-84789000D01*
X106721428Y-84731857D01*
X106721428Y-84589000D01*
X106750000Y-84503285D01*
X106721428Y-84331857D02*
X106721428Y-83989000D01*
X107321428Y-84160428D02*
X106721428Y-84160428D01*
X107092857Y-83789000D02*
X107092857Y-83331857D01*
X106721428Y-83103285D02*
X107321428Y-82703285D01*
X106721428Y-82703285D02*
X107321428Y-83103285D01*
X107150000Y-82503285D02*
X107150000Y-82217571D01*
X107321428Y-82560428D02*
X106721428Y-82360428D01*
X107321428Y-82160428D01*
X107092857Y-81960428D02*
X107092857Y-81503285D01*
X106778571Y-81246142D02*
X106750000Y-81217571D01*
X106721428Y-81160428D01*
X106721428Y-81017571D01*
X106750000Y-80960428D01*
X106778571Y-80931857D01*
X106835714Y-80903285D01*
X106892857Y-80903285D01*
X106978571Y-80931857D01*
X107321428Y-81274714D01*
X107321428Y-80903285D01*
D20*
X110664033Y-85376022D02*
X110333107Y-85376022D01*
X110498570Y-85376022D02*
X110498570Y-84796902D01*
X110443416Y-84879634D01*
X110388262Y-84934788D01*
X110333107Y-84962365D01*
G04 #@! TO.C,FROM-AMP*
D13*
X107970714Y-100678571D02*
X107637380Y-100678571D01*
X107637380Y-101202380D02*
X107637380Y-100202380D01*
X108113571Y-100202380D01*
X109065952Y-101202380D02*
X108732619Y-100726190D01*
X108494523Y-101202380D02*
X108494523Y-100202380D01*
X108875476Y-100202380D01*
X108970714Y-100250000D01*
X109018333Y-100297619D01*
X109065952Y-100392857D01*
X109065952Y-100535714D01*
X109018333Y-100630952D01*
X108970714Y-100678571D01*
X108875476Y-100726190D01*
X108494523Y-100726190D01*
X109685000Y-100202380D02*
X109875476Y-100202380D01*
X109970714Y-100250000D01*
X110065952Y-100345238D01*
X110113571Y-100535714D01*
X110113571Y-100869047D01*
X110065952Y-101059523D01*
X109970714Y-101154761D01*
X109875476Y-101202380D01*
X109685000Y-101202380D01*
X109589761Y-101154761D01*
X109494523Y-101059523D01*
X109446904Y-100869047D01*
X109446904Y-100535714D01*
X109494523Y-100345238D01*
X109589761Y-100250000D01*
X109685000Y-100202380D01*
X110542142Y-101202380D02*
X110542142Y-100202380D01*
X110875476Y-100916666D01*
X111208809Y-100202380D01*
X111208809Y-101202380D01*
X111685000Y-100821428D02*
X112446904Y-100821428D01*
X112875476Y-100916666D02*
X113351666Y-100916666D01*
X112780238Y-101202380D02*
X113113571Y-100202380D01*
X113446904Y-101202380D01*
X113780238Y-101202380D02*
X113780238Y-100202380D01*
X114113571Y-100916666D01*
X114446904Y-100202380D01*
X114446904Y-101202380D01*
X114923095Y-101202380D02*
X114923095Y-100202380D01*
X115304047Y-100202380D01*
X115399285Y-100250000D01*
X115446904Y-100297619D01*
X115494523Y-100392857D01*
X115494523Y-100535714D01*
X115446904Y-100630952D01*
X115399285Y-100678571D01*
X115304047Y-100726190D01*
X114923095Y-100726190D01*
D19*
X108118142Y-92414285D02*
X108089571Y-92442857D01*
X108003857Y-92471428D01*
X107946714Y-92471428D01*
X107861000Y-92442857D01*
X107803857Y-92385714D01*
X107775285Y-92328571D01*
X107746714Y-92214285D01*
X107746714Y-92128571D01*
X107775285Y-92014285D01*
X107803857Y-91957142D01*
X107861000Y-91900000D01*
X107946714Y-91871428D01*
X108003857Y-91871428D01*
X108089571Y-91900000D01*
X108118142Y-91928571D01*
X108489571Y-91871428D02*
X108603857Y-91871428D01*
X108661000Y-91900000D01*
X108718142Y-91957142D01*
X108746714Y-92071428D01*
X108746714Y-92271428D01*
X108718142Y-92385714D01*
X108661000Y-92442857D01*
X108603857Y-92471428D01*
X108489571Y-92471428D01*
X108432428Y-92442857D01*
X108375285Y-92385714D01*
X108346714Y-92271428D01*
X108346714Y-92071428D01*
X108375285Y-91957142D01*
X108432428Y-91900000D01*
X108489571Y-91871428D01*
X109003857Y-92471428D02*
X109003857Y-91871428D01*
X109346714Y-92471428D01*
X109346714Y-91871428D01*
X109632428Y-92242857D02*
X110089571Y-92242857D01*
X110546714Y-91871428D02*
X110546714Y-92300000D01*
X110518142Y-92385714D01*
X110461000Y-92442857D01*
X110375285Y-92471428D01*
X110318142Y-92471428D01*
X110803857Y-92442857D02*
X110889571Y-92471428D01*
X111032428Y-92471428D01*
X111089571Y-92442857D01*
X111118142Y-92414285D01*
X111146714Y-92357142D01*
X111146714Y-92300000D01*
X111118142Y-92242857D01*
X111089571Y-92214285D01*
X111032428Y-92185714D01*
X110918142Y-92157142D01*
X110861000Y-92128571D01*
X110832428Y-92100000D01*
X110803857Y-92042857D01*
X110803857Y-91985714D01*
X110832428Y-91928571D01*
X110861000Y-91900000D01*
X110918142Y-91871428D01*
X111061000Y-91871428D01*
X111146714Y-91900000D01*
X111318142Y-91871428D02*
X111661000Y-91871428D01*
X111489571Y-92471428D02*
X111489571Y-91871428D01*
X111861000Y-92242857D02*
X112318142Y-92242857D01*
X112546714Y-91871428D02*
X112946714Y-92471428D01*
X112946714Y-91871428D02*
X112546714Y-92471428D01*
X113146714Y-92300000D02*
X113432428Y-92300000D01*
X113089571Y-92471428D02*
X113289571Y-91871428D01*
X113489571Y-92471428D01*
X113689571Y-92242857D02*
X114146714Y-92242857D01*
X114403857Y-91928571D02*
X114432428Y-91900000D01*
X114489571Y-91871428D01*
X114632428Y-91871428D01*
X114689571Y-91900000D01*
X114718142Y-91928571D01*
X114746714Y-91985714D01*
X114746714Y-92042857D01*
X114718142Y-92128571D01*
X114375285Y-92471428D01*
X114746714Y-92471428D01*
D20*
X110664033Y-97376022D02*
X110333107Y-97376022D01*
X110498570Y-97376022D02*
X110498570Y-96796902D01*
X110443416Y-96879634D01*
X110388262Y-96934788D01*
X110333107Y-96962365D01*
G04 #@! TO.C,KEYPAD1*
D17*
X116789995Y-101928838D02*
X116789995Y-100963638D01*
X117341537Y-101928838D02*
X116927880Y-101377295D01*
X117341537Y-100963638D02*
X116789995Y-101515180D01*
X117755195Y-101423257D02*
X118076928Y-101423257D01*
X118214814Y-101928838D02*
X117755195Y-101928838D01*
X117755195Y-100963638D01*
X118214814Y-100963638D01*
X118812318Y-101469219D02*
X118812318Y-101928838D01*
X118490585Y-100963638D02*
X118812318Y-101469219D01*
X119134052Y-100963638D01*
X119455785Y-101928838D02*
X119455785Y-100963638D01*
X119823480Y-100963638D01*
X119915404Y-101009600D01*
X119961366Y-101055561D01*
X120007328Y-101147485D01*
X120007328Y-101285371D01*
X119961366Y-101377295D01*
X119915404Y-101423257D01*
X119823480Y-101469219D01*
X119455785Y-101469219D01*
X120375023Y-101653066D02*
X120834642Y-101653066D01*
X120283099Y-101928838D02*
X120604833Y-100963638D01*
X120926566Y-101928838D01*
X121248299Y-101928838D02*
X121248299Y-100963638D01*
X121478109Y-100963638D01*
X121615995Y-101009600D01*
X121707918Y-101101523D01*
X121753880Y-101193447D01*
X121799842Y-101377295D01*
X121799842Y-101515180D01*
X121753880Y-101699028D01*
X121707918Y-101790952D01*
X121615995Y-101882876D01*
X121478109Y-101928838D01*
X121248299Y-101928838D01*
X122719080Y-101928838D02*
X122167537Y-101928838D01*
X122443309Y-101928838D02*
X122443309Y-100963638D01*
X122351385Y-101101523D01*
X122259461Y-101193447D01*
X122167537Y-101239409D01*
G04 #@! TO.C,R3*
X119454038Y-119218362D02*
X118994419Y-119540095D01*
X119454038Y-119769904D02*
X118488838Y-119769904D01*
X118488838Y-119402209D01*
X118534800Y-119310285D01*
X118580761Y-119264323D01*
X118672685Y-119218362D01*
X118810571Y-119218362D01*
X118902495Y-119264323D01*
X118948457Y-119310285D01*
X118994419Y-119402209D01*
X118994419Y-119769904D01*
X118488838Y-118896628D02*
X118488838Y-118299123D01*
X118856533Y-118620857D01*
X118856533Y-118482971D01*
X118902495Y-118391047D01*
X118948457Y-118345085D01*
X119040380Y-118299123D01*
X119270190Y-118299123D01*
X119362114Y-118345085D01*
X119408076Y-118391047D01*
X119454038Y-118482971D01*
X119454038Y-118758742D01*
X119408076Y-118850666D01*
X119362114Y-118896628D01*
G04 #@! TO.C,R4*
X123817737Y-117860638D02*
X123496004Y-117401019D01*
X123266195Y-117860638D02*
X123266195Y-116895438D01*
X123633890Y-116895438D01*
X123725814Y-116941400D01*
X123771776Y-116987361D01*
X123817737Y-117079285D01*
X123817737Y-117217171D01*
X123771776Y-117309095D01*
X123725814Y-117355057D01*
X123633890Y-117401019D01*
X123266195Y-117401019D01*
X124645052Y-117217171D02*
X124645052Y-117860638D01*
X124415242Y-116849476D02*
X124185433Y-117538904D01*
X124782937Y-117538904D01*
G04 #@! TO.C,R5*
D18*
X136705190Y-118060638D02*
X136383457Y-117601019D01*
X136153647Y-118060638D02*
X136153647Y-117095438D01*
X136521342Y-117095438D01*
X136613266Y-117141400D01*
X136659228Y-117187361D01*
X136705190Y-117279285D01*
X136705190Y-117417171D01*
X136659228Y-117509095D01*
X136613266Y-117555057D01*
X136521342Y-117601019D01*
X136153647Y-117601019D01*
X137578466Y-117095438D02*
X137118847Y-117095438D01*
X137072885Y-117555057D01*
X137118847Y-117509095D01*
X137210771Y-117463133D01*
X137440580Y-117463133D01*
X137532504Y-117509095D01*
X137578466Y-117555057D01*
X137624428Y-117646980D01*
X137624428Y-117876790D01*
X137578466Y-117968714D01*
X137532504Y-118014676D01*
X137440580Y-118060638D01*
X137210771Y-118060638D01*
X137118847Y-118014676D01*
X137072885Y-117968714D01*
G04 #@! TO.C,R6*
D17*
X148331637Y-117779038D02*
X148009904Y-117319419D01*
X147780095Y-117779038D02*
X147780095Y-116813838D01*
X148147790Y-116813838D01*
X148239714Y-116859800D01*
X148285676Y-116905761D01*
X148331637Y-116997685D01*
X148331637Y-117135571D01*
X148285676Y-117227495D01*
X148239714Y-117273457D01*
X148147790Y-117319419D01*
X147780095Y-117319419D01*
X149158952Y-116813838D02*
X148975104Y-116813838D01*
X148883180Y-116859800D01*
X148837218Y-116905761D01*
X148745295Y-117043647D01*
X148699333Y-117227495D01*
X148699333Y-117595190D01*
X148745295Y-117687114D01*
X148791257Y-117733076D01*
X148883180Y-117779038D01*
X149067028Y-117779038D01*
X149158952Y-117733076D01*
X149204914Y-117687114D01*
X149250876Y-117595190D01*
X149250876Y-117365380D01*
X149204914Y-117273457D01*
X149158952Y-117227495D01*
X149067028Y-117181533D01*
X148883180Y-117181533D01*
X148791257Y-117227495D01*
X148745295Y-117273457D01*
X148699333Y-117365380D01*
G04 #@! TO.C,OK1*
X106988838Y-124411057D02*
X106988838Y-124227209D01*
X107034800Y-124135285D01*
X107126723Y-124043362D01*
X107310571Y-123997400D01*
X107632304Y-123997400D01*
X107816152Y-124043362D01*
X107908076Y-124135285D01*
X107954038Y-124227209D01*
X107954038Y-124411057D01*
X107908076Y-124502981D01*
X107816152Y-124594904D01*
X107632304Y-124640866D01*
X107310571Y-124640866D01*
X107126723Y-124594904D01*
X107034800Y-124502981D01*
X106988838Y-124411057D01*
X107954038Y-123583742D02*
X106988838Y-123583742D01*
X107954038Y-123032200D02*
X107402495Y-123445857D01*
X106988838Y-123032200D02*
X107540380Y-123583742D01*
X107954038Y-122112962D02*
X107954038Y-122664504D01*
X107954038Y-122388733D02*
X106988838Y-122388733D01*
X107126723Y-122480657D01*
X107218647Y-122572581D01*
X107264609Y-122664504D01*
G04 #@! TO.C,OK2*
X119288838Y-124111057D02*
X119288838Y-123927209D01*
X119334800Y-123835285D01*
X119426723Y-123743362D01*
X119610571Y-123697400D01*
X119932304Y-123697400D01*
X120116152Y-123743362D01*
X120208076Y-123835285D01*
X120254038Y-123927209D01*
X120254038Y-124111057D01*
X120208076Y-124202981D01*
X120116152Y-124294904D01*
X119932304Y-124340866D01*
X119610571Y-124340866D01*
X119426723Y-124294904D01*
X119334800Y-124202981D01*
X119288838Y-124111057D01*
X120254038Y-123283742D02*
X119288838Y-123283742D01*
X120254038Y-122732200D02*
X119702495Y-123145857D01*
X119288838Y-122732200D02*
X119840380Y-123283742D01*
X119380761Y-122364504D02*
X119334800Y-122318542D01*
X119288838Y-122226619D01*
X119288838Y-121996809D01*
X119334800Y-121904885D01*
X119380761Y-121858923D01*
X119472685Y-121812962D01*
X119564609Y-121812962D01*
X119702495Y-121858923D01*
X120254038Y-122410466D01*
X120254038Y-121812962D01*
G04 #@! TO.C,OK3*
X132388838Y-124211057D02*
X132388838Y-124027209D01*
X132434800Y-123935285D01*
X132526723Y-123843362D01*
X132710571Y-123797400D01*
X133032304Y-123797400D01*
X133216152Y-123843362D01*
X133308076Y-123935285D01*
X133354038Y-124027209D01*
X133354038Y-124211057D01*
X133308076Y-124302981D01*
X133216152Y-124394904D01*
X133032304Y-124440866D01*
X132710571Y-124440866D01*
X132526723Y-124394904D01*
X132434800Y-124302981D01*
X132388838Y-124211057D01*
X133354038Y-123383742D02*
X132388838Y-123383742D01*
X133354038Y-122832200D02*
X132802495Y-123245857D01*
X132388838Y-122832200D02*
X132940380Y-123383742D01*
X132388838Y-122510466D02*
X132388838Y-121912962D01*
X132756533Y-122234695D01*
X132756533Y-122096809D01*
X132802495Y-122004885D01*
X132848457Y-121958923D01*
X132940380Y-121912962D01*
X133170190Y-121912962D01*
X133262114Y-121958923D01*
X133308076Y-122004885D01*
X133354038Y-122096809D01*
X133354038Y-122372581D01*
X133308076Y-122464504D01*
X133262114Y-122510466D01*
G04 #@! TO.C,OK4*
X145088838Y-124511057D02*
X145088838Y-124327209D01*
X145134800Y-124235285D01*
X145226723Y-124143362D01*
X145410571Y-124097400D01*
X145732304Y-124097400D01*
X145916152Y-124143362D01*
X146008076Y-124235285D01*
X146054038Y-124327209D01*
X146054038Y-124511057D01*
X146008076Y-124602981D01*
X145916152Y-124694904D01*
X145732304Y-124740866D01*
X145410571Y-124740866D01*
X145226723Y-124694904D01*
X145134800Y-124602981D01*
X145088838Y-124511057D01*
X146054038Y-123683742D02*
X145088838Y-123683742D01*
X146054038Y-123132200D02*
X145502495Y-123545857D01*
X145088838Y-123132200D02*
X145640380Y-123683742D01*
X145410571Y-122304885D02*
X146054038Y-122304885D01*
X145042876Y-122534695D02*
X145732304Y-122764504D01*
X145732304Y-122167000D01*
G04 #@! TO.C,TO-ARUDINO1*
X106538838Y-118557790D02*
X106538838Y-118006247D01*
X107504038Y-118282019D02*
X106538838Y-118282019D01*
X106538838Y-117500666D02*
X106538838Y-117316819D01*
X106584800Y-117224895D01*
X106676723Y-117132971D01*
X106860571Y-117087009D01*
X107182304Y-117087009D01*
X107366152Y-117132971D01*
X107458076Y-117224895D01*
X107504038Y-117316819D01*
X107504038Y-117500666D01*
X107458076Y-117592590D01*
X107366152Y-117684514D01*
X107182304Y-117730476D01*
X106860571Y-117730476D01*
X106676723Y-117684514D01*
X106584800Y-117592590D01*
X106538838Y-117500666D01*
X107136342Y-116673352D02*
X107136342Y-115937962D01*
X107228266Y-115524304D02*
X107228266Y-115064685D01*
X107504038Y-115616228D02*
X106538838Y-115294495D01*
X107504038Y-114972762D01*
X107504038Y-114099485D02*
X107044419Y-114421219D01*
X107504038Y-114651028D02*
X106538838Y-114651028D01*
X106538838Y-114283333D01*
X106584800Y-114191409D01*
X106630761Y-114145447D01*
X106722685Y-114099485D01*
X106860571Y-114099485D01*
X106952495Y-114145447D01*
X106998457Y-114191409D01*
X107044419Y-114283333D01*
X107044419Y-114651028D01*
X106538838Y-113685828D02*
X107320190Y-113685828D01*
X107412114Y-113639866D01*
X107458076Y-113593904D01*
X107504038Y-113501981D01*
X107504038Y-113318133D01*
X107458076Y-113226209D01*
X107412114Y-113180247D01*
X107320190Y-113134285D01*
X106538838Y-113134285D01*
X107504038Y-112674666D02*
X106538838Y-112674666D01*
X106538838Y-112444857D01*
X106584800Y-112306971D01*
X106676723Y-112215047D01*
X106768647Y-112169085D01*
X106952495Y-112123123D01*
X107090380Y-112123123D01*
X107274228Y-112169085D01*
X107366152Y-112215047D01*
X107458076Y-112306971D01*
X107504038Y-112444857D01*
X107504038Y-112674666D01*
X107504038Y-111709466D02*
X106538838Y-111709466D01*
X107504038Y-111249847D02*
X106538838Y-111249847D01*
X107504038Y-110698304D01*
X106538838Y-110698304D01*
X106538838Y-110054838D02*
X106538838Y-109870990D01*
X106584800Y-109779066D01*
X106676723Y-109687142D01*
X106860571Y-109641181D01*
X107182304Y-109641181D01*
X107366152Y-109687142D01*
X107458076Y-109779066D01*
X107504038Y-109870990D01*
X107504038Y-110054838D01*
X107458076Y-110146762D01*
X107366152Y-110238685D01*
X107182304Y-110284647D01*
X106860571Y-110284647D01*
X106676723Y-110238685D01*
X106584800Y-110146762D01*
X106538838Y-110054838D01*
X107504038Y-108721942D02*
X107504038Y-109273485D01*
X107504038Y-108997714D02*
X106538838Y-108997714D01*
X106676723Y-109089638D01*
X106768647Y-109181562D01*
X106814609Y-109273485D01*
D13*
X99942142Y-122439285D02*
X99913571Y-122467857D01*
X99827857Y-122496428D01*
X99770714Y-122496428D01*
X99685000Y-122467857D01*
X99627857Y-122410714D01*
X99599285Y-122353571D01*
X99570714Y-122239285D01*
X99570714Y-122153571D01*
X99599285Y-122039285D01*
X99627857Y-121982142D01*
X99685000Y-121925000D01*
X99770714Y-121896428D01*
X99827857Y-121896428D01*
X99913571Y-121925000D01*
X99942142Y-121953571D01*
X100313571Y-121896428D02*
X100427857Y-121896428D01*
X100485000Y-121925000D01*
X100542142Y-121982142D01*
X100570714Y-122096428D01*
X100570714Y-122296428D01*
X100542142Y-122410714D01*
X100485000Y-122467857D01*
X100427857Y-122496428D01*
X100313571Y-122496428D01*
X100256428Y-122467857D01*
X100199285Y-122410714D01*
X100170714Y-122296428D01*
X100170714Y-122096428D01*
X100199285Y-121982142D01*
X100256428Y-121925000D01*
X100313571Y-121896428D01*
X100827857Y-122496428D02*
X100827857Y-121896428D01*
X101170714Y-122496428D01*
X101170714Y-121896428D01*
X101456428Y-122267857D02*
X101913571Y-122267857D01*
X102370714Y-121896428D02*
X102370714Y-122325000D01*
X102342142Y-122410714D01*
X102285000Y-122467857D01*
X102199285Y-122496428D01*
X102142142Y-122496428D01*
X102627857Y-122467857D02*
X102713571Y-122496428D01*
X102856428Y-122496428D01*
X102913571Y-122467857D01*
X102942142Y-122439285D01*
X102970714Y-122382142D01*
X102970714Y-122325000D01*
X102942142Y-122267857D01*
X102913571Y-122239285D01*
X102856428Y-122210714D01*
X102742142Y-122182142D01*
X102685000Y-122153571D01*
X102656428Y-122125000D01*
X102627857Y-122067857D01*
X102627857Y-122010714D01*
X102656428Y-121953571D01*
X102685000Y-121925000D01*
X102742142Y-121896428D01*
X102885000Y-121896428D01*
X102970714Y-121925000D01*
X103142142Y-121896428D02*
X103485000Y-121896428D01*
X103313571Y-122496428D02*
X103313571Y-121896428D01*
X103685000Y-122267857D02*
X104142142Y-122267857D01*
X104370714Y-121896428D02*
X104770714Y-122496428D01*
X104770714Y-121896428D02*
X104370714Y-122496428D01*
X104970714Y-122325000D02*
X105256428Y-122325000D01*
X104913571Y-122496428D02*
X105113571Y-121896428D01*
X105313571Y-122496428D01*
X105513571Y-122267857D02*
X105970714Y-122267857D01*
X106542142Y-121896428D02*
X106256428Y-121896428D01*
X106227857Y-122182142D01*
X106256428Y-122153571D01*
X106313571Y-122125000D01*
X106456428Y-122125000D01*
X106513571Y-122153571D01*
X106542142Y-122182142D01*
X106570714Y-122239285D01*
X106570714Y-122382142D01*
X106542142Y-122439285D01*
X106513571Y-122467857D01*
X106456428Y-122496428D01*
X106313571Y-122496428D01*
X106256428Y-122467857D01*
X106227857Y-122439285D01*
D20*
X103973522Y-118340666D02*
X103973522Y-118671592D01*
X103973522Y-118506129D02*
X103394402Y-118506129D01*
X103477134Y-118561283D01*
X103532288Y-118616437D01*
X103559865Y-118671592D01*
G04 #@! TO.C,TO-KEYPADSW1*
D17*
X106163838Y-100682790D02*
X106163838Y-100131247D01*
X107129038Y-100407019D02*
X106163838Y-100407019D01*
X106163838Y-99625666D02*
X106163838Y-99441819D01*
X106209800Y-99349895D01*
X106301723Y-99257971D01*
X106485571Y-99212009D01*
X106807304Y-99212009D01*
X106991152Y-99257971D01*
X107083076Y-99349895D01*
X107129038Y-99441819D01*
X107129038Y-99625666D01*
X107083076Y-99717590D01*
X106991152Y-99809514D01*
X106807304Y-99855476D01*
X106485571Y-99855476D01*
X106301723Y-99809514D01*
X106209800Y-99717590D01*
X106163838Y-99625666D01*
X106761342Y-98798352D02*
X106761342Y-98062962D01*
X107129038Y-97603342D02*
X106163838Y-97603342D01*
X107129038Y-97051800D02*
X106577495Y-97465457D01*
X106163838Y-97051800D02*
X106715380Y-97603342D01*
X106623457Y-96638142D02*
X106623457Y-96316409D01*
X107129038Y-96178523D02*
X107129038Y-96638142D01*
X106163838Y-96638142D01*
X106163838Y-96178523D01*
X106669419Y-95581019D02*
X107129038Y-95581019D01*
X106163838Y-95902752D02*
X106669419Y-95581019D01*
X106163838Y-95259285D01*
X107129038Y-94937552D02*
X106163838Y-94937552D01*
X106163838Y-94569857D01*
X106209800Y-94477933D01*
X106255761Y-94431971D01*
X106347685Y-94386009D01*
X106485571Y-94386009D01*
X106577495Y-94431971D01*
X106623457Y-94477933D01*
X106669419Y-94569857D01*
X106669419Y-94937552D01*
X106853266Y-94018314D02*
X106853266Y-93558695D01*
X107129038Y-94110238D02*
X106163838Y-93788504D01*
X107129038Y-93466771D01*
X107129038Y-93145038D02*
X106163838Y-93145038D01*
X106163838Y-92915228D01*
X106209800Y-92777342D01*
X106301723Y-92685419D01*
X106393647Y-92639457D01*
X106577495Y-92593495D01*
X106715380Y-92593495D01*
X106899228Y-92639457D01*
X106991152Y-92685419D01*
X107083076Y-92777342D01*
X107129038Y-92915228D01*
X107129038Y-93145038D01*
X107083076Y-92225800D02*
X107129038Y-92087914D01*
X107129038Y-91858104D01*
X107083076Y-91766181D01*
X107037114Y-91720219D01*
X106945190Y-91674257D01*
X106853266Y-91674257D01*
X106761342Y-91720219D01*
X106715380Y-91766181D01*
X106669419Y-91858104D01*
X106623457Y-92041952D01*
X106577495Y-92133876D01*
X106531533Y-92179838D01*
X106439609Y-92225800D01*
X106347685Y-92225800D01*
X106255761Y-92179838D01*
X106209800Y-92133876D01*
X106163838Y-92041952D01*
X106163838Y-91812142D01*
X106209800Y-91674257D01*
X106163838Y-91352523D02*
X107129038Y-91122714D01*
X106439609Y-90938866D01*
X107129038Y-90755019D01*
X106163838Y-90525209D01*
X107129038Y-89651933D02*
X107129038Y-90203476D01*
X107129038Y-89927704D02*
X106163838Y-89927704D01*
X106301723Y-90019628D01*
X106393647Y-90111552D01*
X106439609Y-90203476D01*
D13*
X99867142Y-105464285D02*
X99838571Y-105492857D01*
X99752857Y-105521428D01*
X99695714Y-105521428D01*
X99610000Y-105492857D01*
X99552857Y-105435714D01*
X99524285Y-105378571D01*
X99495714Y-105264285D01*
X99495714Y-105178571D01*
X99524285Y-105064285D01*
X99552857Y-105007142D01*
X99610000Y-104950000D01*
X99695714Y-104921428D01*
X99752857Y-104921428D01*
X99838571Y-104950000D01*
X99867142Y-104978571D01*
X100238571Y-104921428D02*
X100352857Y-104921428D01*
X100410000Y-104950000D01*
X100467142Y-105007142D01*
X100495714Y-105121428D01*
X100495714Y-105321428D01*
X100467142Y-105435714D01*
X100410000Y-105492857D01*
X100352857Y-105521428D01*
X100238571Y-105521428D01*
X100181428Y-105492857D01*
X100124285Y-105435714D01*
X100095714Y-105321428D01*
X100095714Y-105121428D01*
X100124285Y-105007142D01*
X100181428Y-104950000D01*
X100238571Y-104921428D01*
X100752857Y-105521428D02*
X100752857Y-104921428D01*
X101095714Y-105521428D01*
X101095714Y-104921428D01*
X101381428Y-105292857D02*
X101838571Y-105292857D01*
X102295714Y-104921428D02*
X102295714Y-105350000D01*
X102267142Y-105435714D01*
X102210000Y-105492857D01*
X102124285Y-105521428D01*
X102067142Y-105521428D01*
X102552857Y-105492857D02*
X102638571Y-105521428D01*
X102781428Y-105521428D01*
X102838571Y-105492857D01*
X102867142Y-105464285D01*
X102895714Y-105407142D01*
X102895714Y-105350000D01*
X102867142Y-105292857D01*
X102838571Y-105264285D01*
X102781428Y-105235714D01*
X102667142Y-105207142D01*
X102610000Y-105178571D01*
X102581428Y-105150000D01*
X102552857Y-105092857D01*
X102552857Y-105035714D01*
X102581428Y-104978571D01*
X102610000Y-104950000D01*
X102667142Y-104921428D01*
X102810000Y-104921428D01*
X102895714Y-104950000D01*
X103067142Y-104921428D02*
X103410000Y-104921428D01*
X103238571Y-105521428D02*
X103238571Y-104921428D01*
X103610000Y-105292857D02*
X104067142Y-105292857D01*
X104295714Y-104921428D02*
X104695714Y-105521428D01*
X104695714Y-104921428D02*
X104295714Y-105521428D01*
X104895714Y-105350000D02*
X105181428Y-105350000D01*
X104838571Y-105521428D02*
X105038571Y-104921428D01*
X105238571Y-105521428D01*
X105438571Y-105292857D02*
X105895714Y-105292857D01*
X106467142Y-104921428D02*
X106181428Y-104921428D01*
X106152857Y-105207142D01*
X106181428Y-105178571D01*
X106238571Y-105150000D01*
X106381428Y-105150000D01*
X106438571Y-105178571D01*
X106467142Y-105207142D01*
X106495714Y-105264285D01*
X106495714Y-105407142D01*
X106467142Y-105464285D01*
X106438571Y-105492857D01*
X106381428Y-105521428D01*
X106238571Y-105521428D01*
X106181428Y-105492857D01*
X106152857Y-105464285D01*
D20*
X103973522Y-101340666D02*
X103973522Y-101671592D01*
X103973522Y-101506129D02*
X103394402Y-101506129D01*
X103477134Y-101561283D01*
X103532288Y-101616437D01*
X103559865Y-101671592D01*
G04 #@! TO.C,R7*
D17*
X119529038Y-115943362D02*
X119069419Y-116265095D01*
X119529038Y-116494904D02*
X118563838Y-116494904D01*
X118563838Y-116127209D01*
X118609800Y-116035285D01*
X118655761Y-115989323D01*
X118747685Y-115943362D01*
X118885571Y-115943362D01*
X118977495Y-115989323D01*
X119023457Y-116035285D01*
X119069419Y-116127209D01*
X119069419Y-116494904D01*
X118563838Y-115621628D02*
X118563838Y-114978162D01*
X119529038Y-115391819D01*
G04 #@! TO.C,R8*
X119629038Y-113118362D02*
X119169419Y-113440095D01*
X119629038Y-113669904D02*
X118663838Y-113669904D01*
X118663838Y-113302209D01*
X118709800Y-113210285D01*
X118755761Y-113164323D01*
X118847685Y-113118362D01*
X118985571Y-113118362D01*
X119077495Y-113164323D01*
X119123457Y-113210285D01*
X119169419Y-113302209D01*
X119169419Y-113669904D01*
X119077495Y-112566819D02*
X119031533Y-112658742D01*
X118985571Y-112704704D01*
X118893647Y-112750666D01*
X118847685Y-112750666D01*
X118755761Y-112704704D01*
X118709800Y-112658742D01*
X118663838Y-112566819D01*
X118663838Y-112382971D01*
X118709800Y-112291047D01*
X118755761Y-112245085D01*
X118847685Y-112199123D01*
X118893647Y-112199123D01*
X118985571Y-112245085D01*
X119031533Y-112291047D01*
X119077495Y-112382971D01*
X119077495Y-112566819D01*
X119123457Y-112658742D01*
X119169419Y-112704704D01*
X119261342Y-112750666D01*
X119445190Y-112750666D01*
X119537114Y-112704704D01*
X119583076Y-112658742D01*
X119629038Y-112566819D01*
X119629038Y-112382971D01*
X119583076Y-112291047D01*
X119537114Y-112245085D01*
X119445190Y-112199123D01*
X119261342Y-112199123D01*
X119169419Y-112245085D01*
X119123457Y-112291047D01*
X119077495Y-112382971D01*
G04 #@! TO.C,R9*
X119504038Y-110093362D02*
X119044419Y-110415095D01*
X119504038Y-110644904D02*
X118538838Y-110644904D01*
X118538838Y-110277209D01*
X118584800Y-110185285D01*
X118630761Y-110139323D01*
X118722685Y-110093362D01*
X118860571Y-110093362D01*
X118952495Y-110139323D01*
X118998457Y-110185285D01*
X119044419Y-110277209D01*
X119044419Y-110644904D01*
X119504038Y-109633742D02*
X119504038Y-109449895D01*
X119458076Y-109357971D01*
X119412114Y-109312009D01*
X119274228Y-109220085D01*
X119090380Y-109174123D01*
X118722685Y-109174123D01*
X118630761Y-109220085D01*
X118584800Y-109266047D01*
X118538838Y-109357971D01*
X118538838Y-109541819D01*
X118584800Y-109633742D01*
X118630761Y-109679704D01*
X118722685Y-109725666D01*
X118952495Y-109725666D01*
X119044419Y-109679704D01*
X119090380Y-109633742D01*
X119136342Y-109541819D01*
X119136342Y-109357971D01*
X119090380Y-109266047D01*
X119044419Y-109220085D01*
X118952495Y-109174123D01*
G04 #@! TO.C,R10*
X111817737Y-105560638D02*
X111496004Y-105101019D01*
X111266195Y-105560638D02*
X111266195Y-104595438D01*
X111633890Y-104595438D01*
X111725814Y-104641400D01*
X111771776Y-104687361D01*
X111817737Y-104779285D01*
X111817737Y-104917171D01*
X111771776Y-105009095D01*
X111725814Y-105055057D01*
X111633890Y-105101019D01*
X111266195Y-105101019D01*
X112736976Y-105560638D02*
X112185433Y-105560638D01*
X112461204Y-105560638D02*
X112461204Y-104595438D01*
X112369280Y-104733323D01*
X112277357Y-104825247D01*
X112185433Y-104871209D01*
X113334480Y-104595438D02*
X113426404Y-104595438D01*
X113518328Y-104641400D01*
X113564290Y-104687361D01*
X113610252Y-104779285D01*
X113656214Y-104963133D01*
X113656214Y-105192942D01*
X113610252Y-105376790D01*
X113564290Y-105468714D01*
X113518328Y-105514676D01*
X113426404Y-105560638D01*
X113334480Y-105560638D01*
X113242557Y-105514676D01*
X113196595Y-105468714D01*
X113150633Y-105376790D01*
X113104671Y-105192942D01*
X113104671Y-104963133D01*
X113150633Y-104779285D01*
X113196595Y-104687361D01*
X113242557Y-104641400D01*
X113334480Y-104595438D01*
G04 #@! TO.C,C1*
X185896628Y-118027314D02*
X185850666Y-118073276D01*
X185712781Y-118119238D01*
X185620857Y-118119238D01*
X185482971Y-118073276D01*
X185391047Y-117981352D01*
X185345085Y-117889428D01*
X185299123Y-117705580D01*
X185299123Y-117567695D01*
X185345085Y-117383847D01*
X185391047Y-117291923D01*
X185482971Y-117200000D01*
X185620857Y-117154038D01*
X185712781Y-117154038D01*
X185850666Y-117200000D01*
X185896628Y-117245961D01*
X186815866Y-118119238D02*
X186264323Y-118119238D01*
X186540095Y-118119238D02*
X186540095Y-117154038D01*
X186448171Y-117291923D01*
X186356247Y-117383847D01*
X186264323Y-117429809D01*
G04 #@! TO.C,C2*
X158406637Y-119162114D02*
X158360676Y-119208076D01*
X158222790Y-119254038D01*
X158130866Y-119254038D01*
X157992980Y-119208076D01*
X157901057Y-119116152D01*
X157855095Y-119024228D01*
X157809133Y-118840380D01*
X157809133Y-118702495D01*
X157855095Y-118518647D01*
X157901057Y-118426723D01*
X157992980Y-118334800D01*
X158130866Y-118288838D01*
X158222790Y-118288838D01*
X158360676Y-118334800D01*
X158406637Y-118380761D01*
X158774333Y-118380761D02*
X158820295Y-118334800D01*
X158912218Y-118288838D01*
X159142028Y-118288838D01*
X159233952Y-118334800D01*
X159279914Y-118380761D01*
X159325876Y-118472685D01*
X159325876Y-118564609D01*
X159279914Y-118702495D01*
X158728371Y-119254038D01*
X159325876Y-119254038D01*
G04 #@! TO.C,C3*
X108956637Y-127462114D02*
X108910676Y-127508076D01*
X108772790Y-127554038D01*
X108680866Y-127554038D01*
X108542980Y-127508076D01*
X108451057Y-127416152D01*
X108405095Y-127324228D01*
X108359133Y-127140380D01*
X108359133Y-127002495D01*
X108405095Y-126818647D01*
X108451057Y-126726723D01*
X108542980Y-126634800D01*
X108680866Y-126588838D01*
X108772790Y-126588838D01*
X108910676Y-126634800D01*
X108956637Y-126680761D01*
X109278371Y-126588838D02*
X109875876Y-126588838D01*
X109554142Y-126956533D01*
X109692028Y-126956533D01*
X109783952Y-127002495D01*
X109829914Y-127048457D01*
X109875876Y-127140380D01*
X109875876Y-127370190D01*
X109829914Y-127462114D01*
X109783952Y-127508076D01*
X109692028Y-127554038D01*
X109416257Y-127554038D01*
X109324333Y-127508076D01*
X109278371Y-127462114D01*
G04 #@! TO.C,C4*
X120771628Y-128252314D02*
X120725666Y-128298276D01*
X120587781Y-128344238D01*
X120495857Y-128344238D01*
X120357971Y-128298276D01*
X120266047Y-128206352D01*
X120220085Y-128114428D01*
X120174123Y-127930580D01*
X120174123Y-127792695D01*
X120220085Y-127608847D01*
X120266047Y-127516923D01*
X120357971Y-127425000D01*
X120495857Y-127379038D01*
X120587781Y-127379038D01*
X120725666Y-127425000D01*
X120771628Y-127470961D01*
X121598942Y-127700771D02*
X121598942Y-128344238D01*
X121369133Y-127333076D02*
X121139323Y-128022504D01*
X121736828Y-128022504D01*
G04 #@! TO.C,C5*
X134056637Y-128062114D02*
X134010676Y-128108076D01*
X133872790Y-128154038D01*
X133780866Y-128154038D01*
X133642980Y-128108076D01*
X133551057Y-128016152D01*
X133505095Y-127924228D01*
X133459133Y-127740380D01*
X133459133Y-127602495D01*
X133505095Y-127418647D01*
X133551057Y-127326723D01*
X133642980Y-127234800D01*
X133780866Y-127188838D01*
X133872790Y-127188838D01*
X134010676Y-127234800D01*
X134056637Y-127280761D01*
X134929914Y-127188838D02*
X134470295Y-127188838D01*
X134424333Y-127648457D01*
X134470295Y-127602495D01*
X134562218Y-127556533D01*
X134792028Y-127556533D01*
X134883952Y-127602495D01*
X134929914Y-127648457D01*
X134975876Y-127740380D01*
X134975876Y-127970190D01*
X134929914Y-128062114D01*
X134883952Y-128108076D01*
X134792028Y-128154038D01*
X134562218Y-128154038D01*
X134470295Y-128108076D01*
X134424333Y-128062114D01*
G04 #@! TO.C,C6*
X147631637Y-128137114D02*
X147585676Y-128183076D01*
X147447790Y-128229038D01*
X147355866Y-128229038D01*
X147217980Y-128183076D01*
X147126057Y-128091152D01*
X147080095Y-127999228D01*
X147034133Y-127815380D01*
X147034133Y-127677495D01*
X147080095Y-127493647D01*
X147126057Y-127401723D01*
X147217980Y-127309800D01*
X147355866Y-127263838D01*
X147447790Y-127263838D01*
X147585676Y-127309800D01*
X147631637Y-127355761D01*
X148458952Y-127263838D02*
X148275104Y-127263838D01*
X148183180Y-127309800D01*
X148137218Y-127355761D01*
X148045295Y-127493647D01*
X147999333Y-127677495D01*
X147999333Y-128045190D01*
X148045295Y-128137114D01*
X148091257Y-128183076D01*
X148183180Y-128229038D01*
X148367028Y-128229038D01*
X148458952Y-128183076D01*
X148504914Y-128137114D01*
X148550876Y-128045190D01*
X148550876Y-127815380D01*
X148504914Y-127723457D01*
X148458952Y-127677495D01*
X148367028Y-127631533D01*
X148183180Y-127631533D01*
X148091257Y-127677495D01*
X148045295Y-127723457D01*
X147999333Y-127815380D01*
G04 #@! TO.C,C7*
X188146628Y-109977314D02*
X188100666Y-110023276D01*
X187962781Y-110069238D01*
X187870857Y-110069238D01*
X187732971Y-110023276D01*
X187641047Y-109931352D01*
X187595085Y-109839428D01*
X187549123Y-109655580D01*
X187549123Y-109517695D01*
X187595085Y-109333847D01*
X187641047Y-109241923D01*
X187732971Y-109150000D01*
X187870857Y-109104038D01*
X187962781Y-109104038D01*
X188100666Y-109150000D01*
X188146628Y-109195961D01*
X188468362Y-109104038D02*
X189111828Y-109104038D01*
X188698171Y-110069238D01*
G04 #@! TO.C,C8*
X187896628Y-90152314D02*
X187850666Y-90198276D01*
X187712781Y-90244238D01*
X187620857Y-90244238D01*
X187482971Y-90198276D01*
X187391047Y-90106352D01*
X187345085Y-90014428D01*
X187299123Y-89830580D01*
X187299123Y-89692695D01*
X187345085Y-89508847D01*
X187391047Y-89416923D01*
X187482971Y-89325000D01*
X187620857Y-89279038D01*
X187712781Y-89279038D01*
X187850666Y-89325000D01*
X187896628Y-89370961D01*
X188448171Y-89692695D02*
X188356247Y-89646733D01*
X188310285Y-89600771D01*
X188264323Y-89508847D01*
X188264323Y-89462885D01*
X188310285Y-89370961D01*
X188356247Y-89325000D01*
X188448171Y-89279038D01*
X188632019Y-89279038D01*
X188723942Y-89325000D01*
X188769904Y-89370961D01*
X188815866Y-89462885D01*
X188815866Y-89508847D01*
X188769904Y-89600771D01*
X188723942Y-89646733D01*
X188632019Y-89692695D01*
X188448171Y-89692695D01*
X188356247Y-89738657D01*
X188310285Y-89784619D01*
X188264323Y-89876542D01*
X188264323Y-90060390D01*
X188310285Y-90152314D01*
X188356247Y-90198276D01*
X188448171Y-90244238D01*
X188632019Y-90244238D01*
X188723942Y-90198276D01*
X188769904Y-90152314D01*
X188815866Y-90060390D01*
X188815866Y-89876542D01*
X188769904Y-89784619D01*
X188723942Y-89738657D01*
X188632019Y-89692695D01*
G04 #@! TO.C,C9*
X188121628Y-100202314D02*
X188075666Y-100248276D01*
X187937781Y-100294238D01*
X187845857Y-100294238D01*
X187707971Y-100248276D01*
X187616047Y-100156352D01*
X187570085Y-100064428D01*
X187524123Y-99880580D01*
X187524123Y-99742695D01*
X187570085Y-99558847D01*
X187616047Y-99466923D01*
X187707971Y-99375000D01*
X187845857Y-99329038D01*
X187937781Y-99329038D01*
X188075666Y-99375000D01*
X188121628Y-99420961D01*
X188581247Y-100294238D02*
X188765095Y-100294238D01*
X188857019Y-100248276D01*
X188902981Y-100202314D01*
X188994904Y-100064428D01*
X189040866Y-99880580D01*
X189040866Y-99512885D01*
X188994904Y-99420961D01*
X188948942Y-99375000D01*
X188857019Y-99329038D01*
X188673171Y-99329038D01*
X188581247Y-99375000D01*
X188535285Y-99420961D01*
X188489323Y-99512885D01*
X188489323Y-99742695D01*
X188535285Y-99834619D01*
X188581247Y-99880580D01*
X188673171Y-99926542D01*
X188857019Y-99926542D01*
X188948942Y-99880580D01*
X188994904Y-99834619D01*
X189040866Y-99742695D01*
G04 #@! TD*
M02*
