M48
;DRILL file {KiCad (5.0.0)} date 11/08/18 09:58:23
;FORMAT={3:3/ absolute / metric / suppress leading zeros}
FMAT,2
METRIC,TZ
T1C0.300
T2C0.305
T3C0.813
T4C0.900
T5C1.016
T6C3.200
%
G90
G05
M71
T1
X121501Y-126504
T2
X108407Y-102064
X117551Y-129242
X125679Y-102064
X127457Y-126448
X136093Y-88348
X139395Y-90126
X139903Y-124670
X140919Y-89110
X142189Y-95206
X144729Y-81490
X151333Y-86062
T3
X121691Y-119304
X129311Y-119304
X109291Y-122334
X109291Y-124874
X116911Y-122334
X116911Y-124874
X169458Y-119370
X169458Y-126990
X109691Y-116004
X117311Y-116004
X161231Y-119404
X163771Y-119404
X134591Y-119504
X142211Y-119504
X176691Y-116004
X184311Y-116004
X124845Y-116039
X132465Y-116039
X173515Y-126994
X181135Y-126994
X188201Y-101734
X188201Y-104274
X109691Y-113004
X117311Y-113004
X188201Y-111734
X188201Y-114274
X109591Y-119204
X117211Y-119204
X134691Y-122234
X134691Y-124774
X142311Y-122234
X142311Y-124774
X150867Y-115988
X158487Y-115988
X185231Y-119904
X187771Y-119904
X150431Y-128004
X152971Y-128004
X121791Y-122234
X121791Y-124774
X129411Y-122234
X129411Y-124774
X137837Y-116055
X145457Y-116055
X109691Y-107004
X117311Y-107004
X124231Y-128004
X126771Y-128004
X147491Y-119404
X155111Y-119404
X109691Y-110004
X117311Y-110004
X147691Y-122234
X147691Y-124774
X155311Y-122234
X155311Y-124774
X163848Y-115947
X171468Y-115947
X111731Y-128104
X114271Y-128104
X137231Y-128004
X139771Y-128004
X188101Y-91734
X188101Y-94274
T4
X102701Y-92004
X102701Y-94504
X102701Y-97004
X102701Y-99504
X102701Y-102004
X171001Y-84204
X173501Y-84204
X176001Y-84204
X178501Y-84204
X181001Y-84204
X183501Y-84204
X186001Y-84204
X188501Y-84204
X194301Y-101704
X194301Y-104204
X110201Y-96204
X112701Y-96204
X146001Y-84204
X148501Y-84204
X151001Y-84204
X153501Y-84204
X156001Y-84204
X158501Y-84204
X161001Y-84204
X163501Y-84204
X110201Y-84204
X112701Y-84204
X121001Y-84204
X123501Y-84204
X126001Y-84204
X128501Y-84204
X131001Y-84204
X133501Y-84204
X136001Y-84204
X138501Y-84204
X194301Y-111704
X194301Y-114204
X194301Y-91704
X194301Y-94204
X161766Y-125994
X164266Y-125994
X185985Y-125921
X188485Y-125921
X102701Y-109004
X102701Y-111504
X102701Y-114004
X102701Y-116504
X102701Y-119004
T5
X176791Y-95434
X176791Y-100514
X176791Y-105594
X176791Y-113214
X184411Y-95434
X184411Y-100514
X184411Y-105594
X184411Y-113214
X191331Y-120352
X193871Y-120352
X196411Y-120352
X117631Y-96904
X120171Y-96904
X150621Y-95244
X150621Y-100324
X150621Y-105404
X150621Y-113024
X158241Y-95244
X158241Y-100324
X158241Y-105404
X158241Y-113024
X117831Y-103804
X120371Y-103804
X137583Y-95284
X137583Y-100364
X137583Y-105444
X137583Y-113064
X145203Y-95284
X145203Y-100364
X145203Y-105444
X145203Y-113064
X163616Y-95291
X163616Y-100371
X163616Y-105451
X163616Y-113071
X171236Y-95291
X171236Y-100371
X171236Y-105451
X171236Y-113071
X124599Y-95295
X124599Y-100375
X124599Y-105455
X124599Y-113075
X132219Y-95295
X132219Y-100375
X132219Y-105455
X132219Y-113075
X174153Y-121173
X176693Y-121173
X179233Y-121173
T6
X195001Y-85004
X102001Y-85004
X195001Y-126504
X102001Y-126504
T0
M30
