G04 #@! TF.GenerationSoftware,KiCad,Pcbnew,(5.0.0)*
G04 #@! TF.CreationDate,2018-11-08T09:58:05+09:00*
G04 #@! TF.ProjectId,MicSwitch003,4D69635377697463683030332E6B6963,rev?*
G04 #@! TF.SameCoordinates,Original*
G04 #@! TF.FileFunction,Copper,L1,Top,Signal*
G04 #@! TF.FilePolarity,Positive*
%FSLAX46Y46*%
G04 Gerber Fmt 4.6, Leading zero omitted, Abs format (unit mm)*
G04 Created by KiCad (PCBNEW (5.0.0)) date 11/08/18 09:58:05*
%MOMM*%
%LPD*%
G01*
G04 APERTURE LIST*
G04 #@! TA.AperFunction,ComponentPad*
%ADD10O,2.641600X1.320800*%
G04 #@! TD*
G04 #@! TA.AperFunction,ComponentPad*
%ADD11O,1.524000X3.048000*%
G04 #@! TD*
G04 #@! TA.AperFunction,ComponentPad*
%ADD12C,1.676400*%
G04 #@! TD*
G04 #@! TA.AperFunction,ComponentPad*
%ADD13C,1.320800*%
G04 #@! TD*
G04 #@! TA.AperFunction,ComponentPad*
%ADD14O,3.048000X1.524000*%
G04 #@! TD*
G04 #@! TA.AperFunction,ViaPad*
%ADD15C,0.609600*%
G04 #@! TD*
G04 #@! TA.AperFunction,ViaPad*
%ADD16C,0.600000*%
G04 #@! TD*
G04 #@! TA.AperFunction,Conductor*
%ADD17C,0.762000*%
G04 #@! TD*
G04 #@! TA.AperFunction,Conductor*
%ADD18C,0.508000*%
G04 #@! TD*
G04 #@! TA.AperFunction,Conductor*
%ADD19C,0.800000*%
G04 #@! TD*
G04 #@! TA.AperFunction,Conductor*
%ADD20C,0.250000*%
G04 #@! TD*
G04 #@! TA.AperFunction,Conductor*
%ADD21C,0.500000*%
G04 #@! TD*
G04 APERTURE END LIST*
D10*
G04 #@! TO.P,D1,A*
G04 #@! TO.N,Net-(D1-PadA)*
X124845100Y-116038600D03*
G04 #@! TO.P,D1,C*
G04 #@! TO.N,+5V*
X132465100Y-116038600D03*
G04 #@! TD*
G04 #@! TO.P,D2,A*
G04 #@! TO.N,Net-(D1-PadA)*
X137837100Y-116054600D03*
G04 #@! TO.P,D2,C*
G04 #@! TO.N,+5V*
X145457100Y-116054600D03*
G04 #@! TD*
G04 #@! TO.P,D3,A*
G04 #@! TO.N,Net-(D1-PadA)*
X150867100Y-115987600D03*
G04 #@! TO.P,D3,C*
G04 #@! TO.N,+5V*
X158487100Y-115987600D03*
G04 #@! TD*
G04 #@! TO.P,D4,A*
G04 #@! TO.N,Net-(D1-PadA)*
X163848100Y-115946600D03*
G04 #@! TO.P,D4,C*
G04 #@! TO.N,+5V*
X171468100Y-115946600D03*
G04 #@! TD*
D11*
G04 #@! TO.P,DSS1,3*
G04 #@! TO.N,+5V*
X191331100Y-120351600D03*
G04 #@! TO.P,DSS1,2*
G04 #@! TO.N,GND*
X193871100Y-120351600D03*
G04 #@! TO.P,DSS1,1*
G04 #@! TO.N,Net-(C1-Pad1)*
X196411100Y-120351600D03*
G04 #@! TD*
D12*
G04 #@! TO.P,DC+5V1,1*
G04 #@! TO.N,Net-(C1-Pad1)*
X188485100Y-125920600D03*
G04 #@! TO.P,DC+5V1,2*
G04 #@! TO.N,GND*
X185985100Y-125920600D03*
G04 #@! TD*
G04 #@! TO.P,CONTROL1,1*
G04 #@! TO.N,+5V*
X164266100Y-125993600D03*
G04 #@! TO.P,CONTROL1,2*
G04 #@! TO.N,Net-(C2-Pad1)*
X161766100Y-125993600D03*
G04 #@! TD*
D11*
G04 #@! TO.P,Q1,S*
G04 #@! TO.N,GND*
X179233100Y-121172600D03*
G04 #@! TO.P,Q1,D*
G04 #@! TO.N,Net-(D1-PadA)*
X176693100Y-121172600D03*
G04 #@! TO.P,Q1,G*
G04 #@! TO.N,Net-(Q1-PadG)*
X174153100Y-121172600D03*
G04 #@! TD*
D13*
G04 #@! TO.P,R1,2*
G04 #@! TO.N,Net-(C2-Pad1)*
X169458100Y-119369600D03*
G04 #@! TO.P,R1,1*
G04 #@! TO.N,Net-(Q1-PadG)*
X169458100Y-126989600D03*
G04 #@! TD*
G04 #@! TO.P,R2,2*
G04 #@! TO.N,Net-(Q1-PadG)*
X173515100Y-126993600D03*
G04 #@! TO.P,R2,1*
G04 #@! TO.N,GND*
X181135100Y-126993600D03*
G04 #@! TD*
D14*
G04 #@! TO.P,RL1,16*
G04 #@! TO.N,Net-(D1-PadA)*
X124599100Y-113074600D03*
G04 #@! TO.P,RL1,P2*
G04 #@! TO.N,Net-(FROM-AMP1-Pad1)*
X124599100Y-105454600D03*
G04 #@! TO.P,RL1,O2*
G04 #@! TO.N,Net-(CN3-LEFT1-Pad1)*
X124599100Y-100374600D03*
G04 #@! TO.P,RL1,S2*
G04 #@! TO.N,Net-(CN2-RIGHT1-Pad1)*
X124599100Y-95294600D03*
G04 #@! TO.P,RL1,S1*
G04 #@! TO.N,Net-(CN2-RIGHT1-Pad2)*
X132219100Y-95294600D03*
G04 #@! TO.P,RL1,O1*
G04 #@! TO.N,Net-(CN3-LEFT1-Pad2)*
X132219100Y-100374600D03*
G04 #@! TO.P,RL1,P1*
G04 #@! TO.N,Net-(FROM-AMP1-Pad2)*
X132219100Y-105454600D03*
G04 #@! TO.P,RL1,1*
G04 #@! TO.N,+5V*
X132219100Y-113074600D03*
G04 #@! TD*
G04 #@! TO.P,RL2,16*
G04 #@! TO.N,Net-(D1-PadA)*
X137583100Y-113063600D03*
G04 #@! TO.P,RL2,P2*
G04 #@! TO.N,Net-(CN1-MICIN1-Pad3)*
X137583100Y-105443600D03*
G04 #@! TO.P,RL2,O2*
G04 #@! TO.N,Net-(CN3-LEFT1-Pad3)*
X137583100Y-100363600D03*
G04 #@! TO.P,RL2,S2*
G04 #@! TO.N,Net-(CN2-RIGHT1-Pad3)*
X137583100Y-95283600D03*
G04 #@! TO.P,RL2,S1*
G04 #@! TO.N,Net-(CN2-RIGHT1-Pad4)*
X145203100Y-95283600D03*
G04 #@! TO.P,RL2,O1*
G04 #@! TO.N,Net-(CN3-LEFT1-Pad4)*
X145203100Y-100363600D03*
G04 #@! TO.P,RL2,P1*
G04 #@! TO.N,Net-(CN1-MICIN1-Pad4)*
X145203100Y-105443600D03*
G04 #@! TO.P,RL2,1*
G04 #@! TO.N,+5V*
X145203100Y-113063600D03*
G04 #@! TD*
G04 #@! TO.P,RL3,16*
G04 #@! TO.N,Net-(D1-PadA)*
X150621100Y-113023600D03*
G04 #@! TO.P,RL3,P2*
G04 #@! TO.N,Net-(CN1-MICIN1-Pad5)*
X150621100Y-105403600D03*
G04 #@! TO.P,RL3,O2*
G04 #@! TO.N,Net-(CN3-LEFT1-Pad5)*
X150621100Y-100323600D03*
G04 #@! TO.P,RL3,S2*
G04 #@! TO.N,Net-(CN2-RIGHT1-Pad5)*
X150621100Y-95243600D03*
G04 #@! TO.P,RL3,S1*
G04 #@! TO.N,Net-(CN2-RIGHT1-Pad6)*
X158241100Y-95243600D03*
G04 #@! TO.P,RL3,O1*
G04 #@! TO.N,Net-(CN3-LEFT1-Pad6)*
X158241100Y-100323600D03*
G04 #@! TO.P,RL3,P1*
G04 #@! TO.N,Net-(CN1-MICIN1-Pad6)*
X158241100Y-105403600D03*
G04 #@! TO.P,RL3,1*
G04 #@! TO.N,+5V*
X158241100Y-113023600D03*
G04 #@! TD*
G04 #@! TO.P,RL4,16*
G04 #@! TO.N,Net-(D1-PadA)*
X163616100Y-113070600D03*
G04 #@! TO.P,RL4,P2*
G04 #@! TO.N,Net-(CN1-MICIN1-Pad7)*
X163616100Y-105450600D03*
G04 #@! TO.P,RL4,O2*
G04 #@! TO.N,Net-(CN3-LEFT1-Pad7)*
X163616100Y-100370600D03*
G04 #@! TO.P,RL4,S2*
G04 #@! TO.N,Net-(CN2-RIGHT1-Pad7)*
X163616100Y-95290600D03*
G04 #@! TO.P,RL4,S1*
G04 #@! TO.N,Net-(CN2-RIGHT1-Pad8)*
X171236100Y-95290600D03*
G04 #@! TO.P,RL4,O1*
G04 #@! TO.N,Net-(CN3-LEFT1-Pad8)*
X171236100Y-100370600D03*
G04 #@! TO.P,RL4,P1*
G04 #@! TO.N,Net-(CN1-MICIN1-Pad8)*
X171236100Y-105450600D03*
G04 #@! TO.P,RL4,1*
G04 #@! TO.N,+5V*
X171236100Y-113070600D03*
G04 #@! TD*
D12*
G04 #@! TO.P,CN1-MICIN1,1*
G04 #@! TO.N,Net-(CN1-MICIN1-Pad1)*
X121001100Y-84203600D03*
G04 #@! TO.P,CN1-MICIN1,2*
G04 #@! TO.N,Net-(CN1-MICIN1-Pad2)*
X123501100Y-84203600D03*
G04 #@! TO.P,CN1-MICIN1,3*
G04 #@! TO.N,Net-(CN1-MICIN1-Pad3)*
X126001100Y-84203600D03*
G04 #@! TO.P,CN1-MICIN1,4*
G04 #@! TO.N,Net-(CN1-MICIN1-Pad4)*
X128501100Y-84203600D03*
G04 #@! TO.P,CN1-MICIN1,5*
G04 #@! TO.N,Net-(CN1-MICIN1-Pad5)*
X131001100Y-84203600D03*
G04 #@! TO.P,CN1-MICIN1,6*
G04 #@! TO.N,Net-(CN1-MICIN1-Pad6)*
X133501100Y-84203600D03*
G04 #@! TO.P,CN1-MICIN1,7*
G04 #@! TO.N,Net-(CN1-MICIN1-Pad7)*
X136001100Y-84203600D03*
G04 #@! TO.P,CN1-MICIN1,8*
G04 #@! TO.N,Net-(CN1-MICIN1-Pad8)*
X138501100Y-84203600D03*
G04 #@! TD*
G04 #@! TO.P,CN2-RIGHT1,1*
G04 #@! TO.N,Net-(CN2-RIGHT1-Pad1)*
X171001100Y-84203600D03*
G04 #@! TO.P,CN2-RIGHT1,2*
G04 #@! TO.N,Net-(CN2-RIGHT1-Pad2)*
X173501100Y-84203600D03*
G04 #@! TO.P,CN2-RIGHT1,3*
G04 #@! TO.N,Net-(CN2-RIGHT1-Pad3)*
X176001100Y-84203600D03*
G04 #@! TO.P,CN2-RIGHT1,4*
G04 #@! TO.N,Net-(CN2-RIGHT1-Pad4)*
X178501100Y-84203600D03*
G04 #@! TO.P,CN2-RIGHT1,5*
G04 #@! TO.N,Net-(CN2-RIGHT1-Pad5)*
X181001100Y-84203600D03*
G04 #@! TO.P,CN2-RIGHT1,6*
G04 #@! TO.N,Net-(CN2-RIGHT1-Pad6)*
X183501100Y-84203600D03*
G04 #@! TO.P,CN2-RIGHT1,7*
G04 #@! TO.N,Net-(CN2-RIGHT1-Pad7)*
X186001100Y-84203600D03*
G04 #@! TO.P,CN2-RIGHT1,8*
G04 #@! TO.N,Net-(CN2-RIGHT1-Pad8)*
X188501100Y-84203600D03*
G04 #@! TD*
G04 #@! TO.P,CN3-LEFT1,1*
G04 #@! TO.N,Net-(CN3-LEFT1-Pad1)*
X146001100Y-84203600D03*
G04 #@! TO.P,CN3-LEFT1,2*
G04 #@! TO.N,Net-(CN3-LEFT1-Pad2)*
X148501100Y-84203600D03*
G04 #@! TO.P,CN3-LEFT1,3*
G04 #@! TO.N,Net-(CN3-LEFT1-Pad3)*
X151001100Y-84203600D03*
G04 #@! TO.P,CN3-LEFT1,4*
G04 #@! TO.N,Net-(CN3-LEFT1-Pad4)*
X153501100Y-84203600D03*
G04 #@! TO.P,CN3-LEFT1,5*
G04 #@! TO.N,Net-(CN3-LEFT1-Pad5)*
X156001100Y-84203600D03*
G04 #@! TO.P,CN3-LEFT1,6*
G04 #@! TO.N,Net-(CN3-LEFT1-Pad6)*
X158501100Y-84203600D03*
G04 #@! TO.P,CN3-LEFT1,7*
G04 #@! TO.N,Net-(CN3-LEFT1-Pad7)*
X161001100Y-84203600D03*
G04 #@! TO.P,CN3-LEFT1,8*
G04 #@! TO.N,Net-(CN3-LEFT1-Pad8)*
X163501100Y-84203600D03*
G04 #@! TD*
D14*
G04 #@! TO.P,RL5,16*
G04 #@! TO.N,Net-(D1-PadA)*
X176791100Y-113213600D03*
G04 #@! TO.P,RL5,P2*
G04 #@! TO.N,Net-(C7-Pad2)*
X176791100Y-105593600D03*
G04 #@! TO.P,RL5,O2*
G04 #@! TO.N,Net-(C9-Pad2)*
X176791100Y-100513600D03*
G04 #@! TO.P,RL5,S2*
G04 #@! TO.N,Net-(C8-Pad2)*
X176791100Y-95433600D03*
G04 #@! TO.P,RL5,S1*
G04 #@! TO.N,Net-(C8-Pad1)*
X184411100Y-95433600D03*
G04 #@! TO.P,RL5,O1*
G04 #@! TO.N,Net-(C9-Pad1)*
X184411100Y-100513600D03*
G04 #@! TO.P,RL5,P1*
G04 #@! TO.N,Net-(C7-Pad1)*
X184411100Y-105593600D03*
G04 #@! TO.P,RL5,1*
G04 #@! TO.N,+5V*
X184411100Y-113213600D03*
G04 #@! TD*
D10*
G04 #@! TO.P,D5,A*
G04 #@! TO.N,Net-(D1-PadA)*
X176691100Y-116003600D03*
G04 #@! TO.P,D5,C*
G04 #@! TO.N,+5V*
X184311100Y-116003600D03*
G04 #@! TD*
D12*
G04 #@! TO.P,KEY-IN1,1*
G04 #@! TO.N,Net-(C7-Pad1)*
X194301100Y-111703600D03*
G04 #@! TO.P,KEY-IN1,2*
G04 #@! TO.N,Net-(C7-Pad2)*
X194301100Y-114203600D03*
G04 #@! TD*
G04 #@! TO.P,LEFT-KEY1,1*
G04 #@! TO.N,Net-(C9-Pad1)*
X194301100Y-101703600D03*
G04 #@! TO.P,LEFT-KEY1,2*
G04 #@! TO.N,Net-(C9-Pad2)*
X194301100Y-104203600D03*
G04 #@! TD*
G04 #@! TO.P,RIGHT-KEY1,1*
G04 #@! TO.N,Net-(C8-Pad1)*
X194301100Y-91703600D03*
G04 #@! TO.P,RIGHT-KEY1,2*
G04 #@! TO.N,Net-(C8-Pad2)*
X194301100Y-94203600D03*
G04 #@! TD*
D11*
G04 #@! TO.P,KEYPAD2,2*
G04 #@! TO.N,Net-(FROM-AMP1-Pad2)*
X117631100Y-96903600D03*
G04 #@! TO.P,KEYPAD2,1*
G04 #@! TO.N,Net-(CN1-MICIN1-Pad5)*
X120171100Y-96903600D03*
G04 #@! TD*
D12*
G04 #@! TO.P,TO-AMP,1*
G04 #@! TO.N,Net-(CN1-MICIN1-Pad1)*
X110201100Y-84203600D03*
G04 #@! TO.P,TO-AMP,2*
G04 #@! TO.N,Net-(CN1-MICIN1-Pad2)*
X112701100Y-84203600D03*
G04 #@! TD*
G04 #@! TO.P,FROM-AMP,1*
G04 #@! TO.N,Net-(FROM-AMP1-Pad1)*
X110201100Y-96203600D03*
G04 #@! TO.P,FROM-AMP,2*
G04 #@! TO.N,Net-(FROM-AMP1-Pad2)*
X112701100Y-96203600D03*
G04 #@! TD*
D11*
G04 #@! TO.P,KEYPAD1,2*
G04 #@! TO.N,Net-(C3-Pad2)*
X120371100Y-103803600D03*
G04 #@! TO.P,KEYPAD1,1*
G04 #@! TO.N,Net-(KEYPAD1-Pad1)*
X117831100Y-103803600D03*
G04 #@! TD*
D13*
G04 #@! TO.P,R3,2*
G04 #@! TO.N,Net-(C6-Pad1)*
X117211100Y-119203600D03*
G04 #@! TO.P,R3,1*
G04 #@! TO.N,Net-(KEYPAD1-Pad1)*
X109591100Y-119203600D03*
G04 #@! TD*
G04 #@! TO.P,R4,2*
G04 #@! TO.N,Net-(C5-Pad1)*
X129311100Y-119303600D03*
G04 #@! TO.P,R4,1*
G04 #@! TO.N,Net-(C6-Pad1)*
X121691100Y-119303600D03*
G04 #@! TD*
G04 #@! TO.P,R5,2*
G04 #@! TO.N,Net-(C4-Pad1)*
X142211100Y-119503600D03*
G04 #@! TO.P,R5,1*
G04 #@! TO.N,Net-(C5-Pad1)*
X134591100Y-119503600D03*
G04 #@! TD*
G04 #@! TO.P,R6,2*
G04 #@! TO.N,Net-(C3-Pad1)*
X155111100Y-119403600D03*
G04 #@! TO.P,R6,1*
G04 #@! TO.N,Net-(C4-Pad1)*
X147491100Y-119403600D03*
G04 #@! TD*
G04 #@! TO.P,OK1,4*
G04 #@! TO.N,Net-(C6-Pad1)*
X116911100Y-122333600D03*
G04 #@! TO.P,OK1,3*
G04 #@! TO.N,Net-(C3-Pad2)*
X116911100Y-124873600D03*
G04 #@! TO.P,OK1,2*
G04 #@! TO.N,Net-(OK1-Pad2)*
X109291100Y-124873600D03*
G04 #@! TO.P,OK1,1*
G04 #@! TO.N,Net-(OK1-Pad1)*
X109291100Y-122333600D03*
G04 #@! TD*
G04 #@! TO.P,OK2,4*
G04 #@! TO.N,Net-(C5-Pad1)*
X129411100Y-122233600D03*
G04 #@! TO.P,OK2,3*
G04 #@! TO.N,Net-(C3-Pad2)*
X129411100Y-124773600D03*
G04 #@! TO.P,OK2,2*
G04 #@! TO.N,Net-(OK1-Pad2)*
X121791100Y-124773600D03*
G04 #@! TO.P,OK2,1*
G04 #@! TO.N,Net-(OK2-Pad1)*
X121791100Y-122233600D03*
G04 #@! TD*
G04 #@! TO.P,OK3,4*
G04 #@! TO.N,Net-(C4-Pad1)*
X142311100Y-122233600D03*
G04 #@! TO.P,OK3,3*
G04 #@! TO.N,Net-(C3-Pad2)*
X142311100Y-124773600D03*
G04 #@! TO.P,OK3,2*
G04 #@! TO.N,Net-(OK1-Pad2)*
X134691100Y-124773600D03*
G04 #@! TO.P,OK3,1*
G04 #@! TO.N,Net-(OK3-Pad1)*
X134691100Y-122233600D03*
G04 #@! TD*
G04 #@! TO.P,OK4,4*
G04 #@! TO.N,Net-(C3-Pad1)*
X155311100Y-122233600D03*
G04 #@! TO.P,OK4,3*
G04 #@! TO.N,Net-(C3-Pad2)*
X155311100Y-124773600D03*
G04 #@! TO.P,OK4,2*
G04 #@! TO.N,Net-(OK1-Pad2)*
X147691100Y-124773600D03*
G04 #@! TO.P,OK4,1*
G04 #@! TO.N,Net-(OK4-Pad1)*
X147691100Y-122233600D03*
G04 #@! TD*
D12*
G04 #@! TO.P,TO-ARUDINO1,1*
G04 #@! TO.N,Net-(R7-Pad1)*
X102701100Y-119003600D03*
G04 #@! TO.P,TO-ARUDINO1,2*
G04 #@! TO.N,Net-(R8-Pad1)*
X102701100Y-116503600D03*
G04 #@! TO.P,TO-ARUDINO1,3*
G04 #@! TO.N,Net-(R9-Pad1)*
X102701100Y-114003600D03*
G04 #@! TO.P,TO-ARUDINO1,4*
G04 #@! TO.N,Net-(R10-Pad1)*
X102701100Y-111503600D03*
G04 #@! TO.P,TO-ARUDINO1,5*
G04 #@! TO.N,Net-(OK1-Pad2)*
X102701100Y-109003600D03*
G04 #@! TD*
G04 #@! TO.P,TO-KEYPADSW1,1*
G04 #@! TO.N,Net-(C6-Pad1)*
X102701100Y-102003600D03*
G04 #@! TO.P,TO-KEYPADSW1,2*
G04 #@! TO.N,Net-(C5-Pad1)*
X102701100Y-99503600D03*
G04 #@! TO.P,TO-KEYPADSW1,3*
G04 #@! TO.N,Net-(C4-Pad1)*
X102701100Y-97003600D03*
G04 #@! TO.P,TO-KEYPADSW1,4*
G04 #@! TO.N,Net-(C3-Pad1)*
X102701100Y-94503600D03*
G04 #@! TO.P,TO-KEYPADSW1,5*
G04 #@! TO.N,Net-(C3-Pad2)*
X102701100Y-92003600D03*
G04 #@! TD*
D13*
G04 #@! TO.P,R7,2*
G04 #@! TO.N,Net-(OK1-Pad1)*
X117311100Y-116003600D03*
G04 #@! TO.P,R7,1*
G04 #@! TO.N,Net-(R7-Pad1)*
X109691100Y-116003600D03*
G04 #@! TD*
G04 #@! TO.P,R8,2*
G04 #@! TO.N,Net-(OK2-Pad1)*
X117311100Y-113003600D03*
G04 #@! TO.P,R8,1*
G04 #@! TO.N,Net-(R8-Pad1)*
X109691100Y-113003600D03*
G04 #@! TD*
G04 #@! TO.P,R9,2*
G04 #@! TO.N,Net-(OK3-Pad1)*
X117311100Y-110003600D03*
G04 #@! TO.P,R9,1*
G04 #@! TO.N,Net-(R9-Pad1)*
X109691100Y-110003600D03*
G04 #@! TD*
G04 #@! TO.P,R10,2*
G04 #@! TO.N,Net-(OK4-Pad1)*
X117311100Y-107003600D03*
G04 #@! TO.P,R10,1*
G04 #@! TO.N,Net-(R10-Pad1)*
X109691100Y-107003600D03*
G04 #@! TD*
G04 #@! TO.P,C1,2*
G04 #@! TO.N,GND*
X185231100Y-119903600D03*
G04 #@! TO.P,C1,1*
G04 #@! TO.N,Net-(C1-Pad1)*
X187771100Y-119903600D03*
G04 #@! TD*
G04 #@! TO.P,C2,2*
G04 #@! TO.N,GND*
X163771100Y-119403600D03*
G04 #@! TO.P,C2,1*
G04 #@! TO.N,Net-(C2-Pad1)*
X161231100Y-119403600D03*
G04 #@! TD*
G04 #@! TO.P,C3,2*
G04 #@! TO.N,Net-(C3-Pad2)*
X114271100Y-128103600D03*
G04 #@! TO.P,C3,1*
G04 #@! TO.N,Net-(C3-Pad1)*
X111731100Y-128103600D03*
G04 #@! TD*
G04 #@! TO.P,C4,2*
G04 #@! TO.N,Net-(C3-Pad2)*
X124231100Y-128003600D03*
G04 #@! TO.P,C4,1*
G04 #@! TO.N,Net-(C4-Pad1)*
X126771100Y-128003600D03*
G04 #@! TD*
G04 #@! TO.P,C5,2*
G04 #@! TO.N,Net-(C3-Pad2)*
X139771100Y-128003600D03*
G04 #@! TO.P,C5,1*
G04 #@! TO.N,Net-(C5-Pad1)*
X137231100Y-128003600D03*
G04 #@! TD*
G04 #@! TO.P,C6,2*
G04 #@! TO.N,Net-(C3-Pad2)*
X152971100Y-128003600D03*
G04 #@! TO.P,C6,1*
G04 #@! TO.N,Net-(C6-Pad1)*
X150431100Y-128003600D03*
G04 #@! TD*
G04 #@! TO.P,C7,2*
G04 #@! TO.N,Net-(C7-Pad2)*
X188201100Y-114273600D03*
G04 #@! TO.P,C7,1*
G04 #@! TO.N,Net-(C7-Pad1)*
X188201100Y-111733600D03*
G04 #@! TD*
G04 #@! TO.P,C8,2*
G04 #@! TO.N,Net-(C8-Pad2)*
X188101100Y-94273600D03*
G04 #@! TO.P,C8,1*
G04 #@! TO.N,Net-(C8-Pad1)*
X188101100Y-91733600D03*
G04 #@! TD*
G04 #@! TO.P,C9,2*
G04 #@! TO.N,Net-(C9-Pad2)*
X188201100Y-104273600D03*
G04 #@! TO.P,C9,1*
G04 #@! TO.N,Net-(C9-Pad1)*
X188201100Y-101733600D03*
G04 #@! TD*
D15*
G04 #@! TO.N,Net-(C6-Pad1)*
X108407100Y-102063600D03*
G04 #@! TO.N,Net-(C5-Pad1)*
X139903100Y-124669600D03*
D16*
G04 #@! TO.N,Net-(C4-Pad1)*
X121501100Y-126503600D03*
D15*
G04 #@! TO.N,Net-(C3-Pad1)*
X117551100Y-129241600D03*
G04 #@! TO.N,Net-(OK1-Pad2)*
X127457100Y-126447600D03*
G04 #@! TO.N,Net-(CN2-RIGHT1-Pad1)*
X144729100Y-81489600D03*
G04 #@! TO.N,Net-(CN2-RIGHT1-Pad2)*
X136093100Y-88347600D03*
G04 #@! TO.N,Net-(FROM-AMP1-Pad2)*
X125679100Y-102063600D03*
G04 #@! TO.N,Net-(CN2-RIGHT1-Pad3)*
X142189100Y-95205600D03*
X151333100Y-86061600D03*
G04 #@! TO.N,Net-(CN1-MICIN1-Pad6)*
X139395100Y-90125600D03*
G04 #@! TO.N,Net-(CN1-MICIN1-Pad7)*
X140919100Y-89109600D03*
G04 #@! TD*
D17*
G04 #@! TO.N,+5V*
X132283100Y-113239600D02*
X132283100Y-116033600D01*
X132283100Y-116033600D02*
X132465100Y-116038600D01*
X132283100Y-113239600D02*
X132219100Y-113074600D01*
X145237100Y-113239600D02*
X145237100Y-116033600D01*
X145237100Y-116033600D02*
X145457100Y-116054600D01*
X145237100Y-113239600D02*
X145203100Y-113063600D01*
X184353100Y-113239600D02*
X184353100Y-115779600D01*
X184353100Y-115779600D02*
X184311100Y-116003600D01*
X184353100Y-113239600D02*
X184411100Y-113213600D01*
X190449100Y-120351600D02*
X191331100Y-120351600D01*
X186131100Y-116033600D02*
X190449100Y-120351600D01*
X184607100Y-116033600D02*
X186131100Y-116033600D01*
X184607100Y-116033600D02*
X184311100Y-116003600D01*
X171399100Y-113239600D02*
X171399100Y-115779600D01*
X171399100Y-115779600D02*
X171468100Y-115946600D01*
X171399100Y-113239600D02*
X171236100Y-113070600D01*
X158445100Y-113239600D02*
X158445100Y-115779600D01*
X158445100Y-115779600D02*
X158487100Y-115987600D01*
X158445100Y-113239600D02*
X158241100Y-113023600D01*
X179781100Y-112985600D02*
X184099100Y-112985600D01*
X178257100Y-111461600D02*
X179781100Y-112985600D01*
X173177100Y-111461600D02*
X178257100Y-111461600D01*
X171653100Y-112985600D02*
X173177100Y-111461600D01*
X184099100Y-112985600D02*
X184411100Y-113213600D01*
X171653100Y-112985600D02*
X171236100Y-113070600D01*
D18*
G04 #@! TO.N,GND*
X181305100Y-126955600D02*
X181135100Y-126993600D01*
X185877100Y-125939600D02*
X185985100Y-125920600D01*
X185369100Y-120097600D02*
X185231100Y-119903600D01*
X185877100Y-125685600D02*
X185985100Y-125920600D01*
X179273100Y-121113600D02*
X179233100Y-121172600D01*
D19*
X183962100Y-121172600D02*
X185231100Y-119903600D01*
X179233100Y-121172600D02*
X183962100Y-121172600D01*
X184912100Y-126993600D02*
X185985100Y-125920600D01*
X181135100Y-126993600D02*
X184912100Y-126993600D01*
X185231100Y-125166600D02*
X185985100Y-125920600D01*
X185231100Y-119903600D02*
X185231100Y-125166600D01*
D17*
G04 #@! TO.N,Net-(D1-PadA)*
X163779100Y-113239600D02*
X163779100Y-115779600D01*
X163779100Y-115779600D02*
X163848100Y-115946600D01*
X163779100Y-113239600D02*
X163616100Y-113070600D01*
X176733100Y-113239600D02*
X176733100Y-115779600D01*
X176733100Y-115779600D02*
X176691100Y-116003600D01*
X176733100Y-113239600D02*
X176791100Y-113213600D01*
X176733100Y-116287600D02*
X176733100Y-117557600D01*
X176733100Y-117557600D02*
X176733100Y-121113600D01*
X176733100Y-121113600D02*
X176693100Y-121172600D01*
X176733100Y-116287600D02*
X176691100Y-116003600D01*
X168605100Y-116033600D02*
X164033100Y-116033600D01*
X170129100Y-117557600D02*
X168605100Y-116033600D01*
X176733100Y-117557600D02*
X170129100Y-117557600D01*
X164033100Y-116033600D02*
X163848100Y-115946600D01*
X150825100Y-113239600D02*
X150825100Y-115779600D01*
X150825100Y-115779600D02*
X150867100Y-115987600D01*
X150825100Y-113239600D02*
X150621100Y-113023600D01*
X124663100Y-113239600D02*
X124663100Y-116033600D01*
X124663100Y-116033600D02*
X124845100Y-116038600D01*
X124663100Y-113239600D02*
X124599100Y-113074600D01*
X137617100Y-113239600D02*
X137617100Y-116033600D01*
X137617100Y-116033600D02*
X137837100Y-116054600D01*
X137617100Y-113239600D02*
X137583100Y-113063600D01*
X128981100Y-112985600D02*
X124917100Y-112985600D01*
X130759100Y-111207600D02*
X128981100Y-112985600D01*
X135839100Y-111207600D02*
X130759100Y-111207600D01*
X137363100Y-112731600D02*
X135839100Y-111207600D01*
X124917100Y-112985600D02*
X124599100Y-113074600D01*
X137363100Y-112731600D02*
X137583100Y-113063600D01*
X148285100Y-112985600D02*
X150317100Y-112985600D01*
X146507100Y-111207600D02*
X148285100Y-112985600D01*
X138887100Y-111207600D02*
X146507100Y-111207600D01*
X137617100Y-112477600D02*
X138887100Y-111207600D01*
X150317100Y-112985600D02*
X150621100Y-113023600D01*
X137617100Y-112477600D02*
X137583100Y-113063600D01*
G04 #@! TO.N,Net-(C1-Pad1)*
X187909100Y-125177600D02*
X187909100Y-122891600D01*
X187909100Y-122891600D02*
X187909100Y-120097600D01*
X188417100Y-125685600D02*
X187909100Y-125177600D01*
X187909100Y-120097600D02*
X187771100Y-119903600D01*
X188417100Y-125685600D02*
X188485100Y-125920600D01*
X196291100Y-121113600D02*
X196291100Y-120351600D01*
X196291100Y-120351600D02*
X196411100Y-120351600D01*
X187909100Y-122891600D02*
X194513100Y-122891600D01*
X194513100Y-122891600D02*
X196291100Y-121113600D01*
D18*
G04 #@! TO.N,Net-(C2-Pad1)*
X161239100Y-125431600D02*
X161239100Y-120859600D01*
X161239100Y-120859600D02*
X161239100Y-119589600D01*
X161747100Y-125939600D02*
X161239100Y-125431600D01*
X161239100Y-119589600D02*
X161231100Y-119403600D01*
X161747100Y-125939600D02*
X161766100Y-125993600D01*
X165811100Y-119589600D02*
X169367100Y-119589600D01*
X164541100Y-120859600D02*
X165811100Y-119589600D01*
X161239100Y-120859600D02*
X164541100Y-120859600D01*
X169367100Y-119589600D02*
X169458100Y-119369600D01*
D17*
G04 #@! TO.N,Net-(Q1-PadG)*
X169621100Y-126955600D02*
X173431100Y-126955600D01*
X173431100Y-126955600D02*
X173515100Y-126993600D01*
X169621100Y-126955600D02*
X169458100Y-126989600D01*
X173939100Y-126447600D02*
X173939100Y-121367600D01*
X173685100Y-126701600D02*
X173939100Y-126447600D01*
X173939100Y-121367600D02*
X174153100Y-121172600D01*
X173685100Y-126701600D02*
X173515100Y-126993600D01*
D18*
G04 #@! TO.N,Net-(C7-Pad2)*
X194259100Y-114255600D02*
X188417100Y-114255600D01*
X188417100Y-114255600D02*
X188201100Y-114273600D01*
X194259100Y-114255600D02*
X194301100Y-114203600D01*
X181305100Y-105619600D02*
X176987100Y-105619600D01*
X184099100Y-108413600D02*
X181305100Y-105619600D01*
X185623100Y-108413600D02*
X184099100Y-108413600D01*
X186639100Y-109429600D02*
X185623100Y-108413600D01*
X186639100Y-112223600D02*
X186639100Y-109429600D01*
X188417100Y-114001600D02*
X186639100Y-112223600D01*
X176987100Y-105619600D02*
X176791100Y-105593600D01*
X188417100Y-114001600D02*
X188201100Y-114273600D01*
G04 #@! TO.N,Net-(C9-Pad2)*
X194259100Y-104095600D02*
X188417100Y-104095600D01*
X188417100Y-104095600D02*
X188201100Y-104273600D01*
X194259100Y-104095600D02*
X194301100Y-104203600D01*
X181305100Y-100539600D02*
X176987100Y-100539600D01*
X184607100Y-103841600D02*
X181305100Y-100539600D01*
X188417100Y-103841600D02*
X184607100Y-103841600D01*
X176987100Y-100539600D02*
X176791100Y-100513600D01*
X188417100Y-103841600D02*
X188201100Y-104273600D01*
G04 #@! TO.N,Net-(C8-Pad2)*
X194259100Y-94189600D02*
X188163100Y-94189600D01*
X188163100Y-94189600D02*
X188101100Y-94273600D01*
X194259100Y-94189600D02*
X194301100Y-94203600D01*
G04 #@! TO.N,Net-(C8-Pad1)*
X184607100Y-95205600D02*
X187909100Y-91903600D01*
X187909100Y-91903600D02*
X188101100Y-91733600D01*
X184607100Y-95205600D02*
X184411100Y-95433600D01*
X188163100Y-91649600D02*
X194259100Y-91649600D01*
X194259100Y-91649600D02*
X194301100Y-91703600D01*
X188163100Y-91649600D02*
X188101100Y-91733600D01*
G04 #@! TO.N,Net-(C9-Pad1)*
X185623100Y-101555600D02*
X188163100Y-101555600D01*
X184607100Y-100539600D02*
X185623100Y-101555600D01*
X188163100Y-101555600D02*
X188201100Y-101733600D01*
X184607100Y-100539600D02*
X184411100Y-100513600D01*
X188417100Y-101809600D02*
X194259100Y-101809600D01*
X194259100Y-101809600D02*
X194301100Y-101703600D01*
X188417100Y-101809600D02*
X188201100Y-101733600D01*
G04 #@! TO.N,Net-(C7-Pad1)*
X194259100Y-111715600D02*
X188417100Y-111715600D01*
X188417100Y-111715600D02*
X188201100Y-111733600D01*
X194259100Y-111715600D02*
X194301100Y-111703600D01*
X188417100Y-109429600D02*
X184607100Y-105619600D01*
X188417100Y-111461600D02*
X188417100Y-109429600D01*
X184607100Y-105619600D02*
X184411100Y-105593600D01*
X188417100Y-111461600D02*
X188201100Y-111733600D01*
G04 #@! TO.N,Net-(C3-Pad2)*
X124155100Y-127971600D02*
X114503100Y-127971600D01*
X114503100Y-127971600D02*
X114271100Y-128103600D01*
X124155100Y-127971600D02*
X124231100Y-128003600D01*
X127457100Y-124923600D02*
X129235100Y-124923600D01*
X124409100Y-127971600D02*
X127457100Y-124923600D01*
X129235100Y-124923600D02*
X129411100Y-124773600D01*
X124409100Y-127971600D02*
X124231100Y-128003600D01*
X153111100Y-126955600D02*
X153111100Y-127971600D01*
X155143100Y-124923600D02*
X153238100Y-126828600D01*
X153238100Y-126828600D02*
X153111100Y-126955600D01*
X153111100Y-127971600D02*
X152971100Y-128003600D01*
X155143100Y-124923600D02*
X155311100Y-124773600D01*
X139903100Y-127209600D02*
X139903100Y-127971600D01*
X142189100Y-124923600D02*
X139903100Y-127209600D01*
X139903100Y-127971600D02*
X139771100Y-128003600D01*
X142189100Y-124923600D02*
X142311100Y-124773600D01*
X151333100Y-126701600D02*
X153111100Y-126701600D01*
X151079100Y-126447600D02*
X151333100Y-126701600D01*
X143967100Y-126447600D02*
X151079100Y-126447600D01*
X142443100Y-124923600D02*
X143967100Y-126447600D01*
X153111100Y-126701600D02*
X153238100Y-126828600D01*
X142443100Y-124923600D02*
X142311100Y-124773600D01*
X155143100Y-124161600D02*
X155143100Y-124669600D01*
X153111100Y-122129600D02*
X155143100Y-124161600D01*
X153111100Y-112477600D02*
X153111100Y-122129600D01*
X150317100Y-109683600D02*
X153111100Y-112477600D01*
X121361100Y-109683600D02*
X150317100Y-109683600D01*
X120599100Y-108921600D02*
X121361100Y-109683600D01*
X120599100Y-103841600D02*
X120599100Y-108921600D01*
X155143100Y-124669600D02*
X155311100Y-124773600D01*
X120599100Y-103841600D02*
X120371100Y-103803600D01*
G04 #@! TO.N,Net-(KEYPAD1-Pad1)*
X109677100Y-118065600D02*
X109677100Y-119081600D01*
X115773100Y-111969600D02*
X109677100Y-118065600D01*
X115773100Y-105873600D02*
X115773100Y-111969600D01*
X117805100Y-103841600D02*
X115773100Y-105873600D01*
X109677100Y-119081600D02*
X109591100Y-119203600D01*
X117805100Y-103841600D02*
X117831100Y-103803600D01*
G04 #@! TO.N,Net-(C6-Pad1)*
X117043100Y-119335600D02*
X117043100Y-122129600D01*
X117043100Y-122129600D02*
X116911100Y-122333600D01*
X117043100Y-119335600D02*
X117211100Y-119203600D01*
X108407100Y-102063600D02*
X102819100Y-102063600D01*
X102819100Y-102063600D02*
X102701100Y-102003600D01*
G04 #@! TO.N,Net-(C5-Pad1)*
X129235100Y-122129600D02*
X129235100Y-119335600D01*
X129235100Y-119335600D02*
X129311100Y-119303600D01*
X129235100Y-122129600D02*
X129411100Y-122233600D01*
X129489100Y-119335600D02*
X134569100Y-119335600D01*
X134569100Y-119335600D02*
X134591100Y-119503600D01*
X129489100Y-119335600D02*
X129311100Y-119303600D01*
X137363100Y-127209600D02*
X137363100Y-127971600D01*
X139903100Y-124669600D02*
X137363100Y-127209600D01*
X137363100Y-127971600D02*
X137231100Y-128003600D01*
G04 #@! TO.N,Net-(C4-Pad1)*
X135077100Y-127971600D02*
X126949100Y-127971600D01*
X140665100Y-122383600D02*
X135077100Y-127971600D01*
X142189100Y-122383600D02*
X140665100Y-122383600D01*
X126949100Y-127971600D02*
X126771100Y-128003600D01*
X142189100Y-122383600D02*
X142311100Y-122233600D01*
X142189100Y-122129600D02*
X142189100Y-119589600D01*
X142189100Y-119589600D02*
X142211100Y-119503600D01*
X142189100Y-122129600D02*
X142311100Y-122233600D01*
X142443100Y-119335600D02*
X147269100Y-119335600D01*
X147269100Y-119335600D02*
X147491100Y-119403600D01*
X142443100Y-119335600D02*
X142211100Y-119503600D01*
X102565100Y-97237600D02*
X102701100Y-97003600D01*
D20*
X101515707Y-97003600D02*
X101419307Y-97100000D01*
X102701100Y-97003600D02*
X101515707Y-97003600D01*
X101419307Y-97100000D02*
X101419307Y-97180693D01*
D21*
X101419307Y-97180693D02*
X100800000Y-97800000D01*
X100800000Y-97800000D02*
X100800000Y-120100000D01*
X100800000Y-120100000D02*
X102200000Y-121500000D01*
X102200000Y-121500000D02*
X104400000Y-121500000D01*
X104400000Y-121500000D02*
X105100000Y-122200000D01*
X105100000Y-122200000D02*
X105100000Y-122900000D01*
X105100000Y-122900000D02*
X108700000Y-126500000D01*
X108700000Y-126500000D02*
X121497500Y-126500000D01*
X121497500Y-126500000D02*
X121501100Y-126503600D01*
D18*
G04 #@! TO.N,Net-(C3-Pad1)*
X155143100Y-119589600D02*
X155143100Y-122129600D01*
X155143100Y-122129600D02*
X155311100Y-122233600D01*
X155143100Y-119589600D02*
X155111100Y-119403600D01*
X111709100Y-127971600D02*
X111731100Y-128103600D01*
X102565100Y-94697600D02*
X102701100Y-94503600D01*
X156413100Y-122383600D02*
X155397100Y-122383600D01*
X158191100Y-124161600D02*
X156413100Y-122383600D01*
X158191100Y-125431600D02*
X158191100Y-124161600D01*
X154127100Y-129495600D02*
X158191100Y-125431600D01*
X117805100Y-129495600D02*
X154127100Y-129495600D01*
X117551100Y-129241600D02*
X117805100Y-129495600D01*
X155397100Y-122383600D02*
X155311100Y-122233600D01*
D21*
X101515707Y-94503600D02*
X99800000Y-96219307D01*
X109172216Y-128103600D02*
X111731100Y-128103600D01*
X99800000Y-96219307D02*
X99800000Y-120600000D01*
X102701100Y-94503600D02*
X101515707Y-94503600D01*
X99800000Y-120600000D02*
X101800000Y-122600000D01*
X101800000Y-122600000D02*
X103668616Y-122600000D01*
X103668616Y-122600000D02*
X109172216Y-128103600D01*
D18*
G04 #@! TO.N,Net-(OK1-Pad2)*
X132791100Y-124923600D02*
X134569100Y-124923600D01*
X131267100Y-126447600D02*
X132791100Y-124923600D01*
X127457100Y-126447600D02*
X131267100Y-126447600D01*
X134569100Y-124923600D02*
X134691100Y-124773600D01*
G04 #@! TO.N,Net-(OK1-Pad1)*
X111201100Y-122129600D02*
X109423100Y-122129600D01*
X117297100Y-116033600D02*
X111201100Y-122129600D01*
X109423100Y-122129600D02*
X109291100Y-122333600D01*
X117297100Y-116033600D02*
X117311100Y-116003600D01*
G04 #@! TO.N,Net-(OK2-Pad1)*
X117551100Y-114001600D02*
X117551100Y-113239600D01*
X120091100Y-116541600D02*
X117551100Y-114001600D01*
X120091100Y-120605600D02*
X120091100Y-116541600D01*
X121615100Y-122129600D02*
X120091100Y-120605600D01*
X117551100Y-113239600D02*
X117311100Y-113003600D01*
X121615100Y-122129600D02*
X121791100Y-122233600D01*
G04 #@! TO.N,Net-(OK4-Pad1)*
X147777100Y-121367600D02*
X147777100Y-122129600D01*
X149047100Y-120097600D02*
X147777100Y-121367600D01*
X149047100Y-118827600D02*
X149047100Y-120097600D01*
X147777100Y-117557600D02*
X149047100Y-118827600D01*
X123647100Y-117557600D02*
X147777100Y-117557600D01*
X118821100Y-112731600D02*
X123647100Y-117557600D01*
X118821100Y-108413600D02*
X118821100Y-112731600D01*
X117551100Y-107143600D02*
X118821100Y-108413600D01*
X147777100Y-122129600D02*
X147691100Y-122233600D01*
X117551100Y-107143600D02*
X117311100Y-107003600D01*
G04 #@! TO.N,Net-(R7-Pad1)*
X105613100Y-116033600D02*
X109677100Y-116033600D01*
X102819100Y-118827600D02*
X105613100Y-116033600D01*
X109677100Y-116033600D02*
X109691100Y-116003600D01*
X102819100Y-118827600D02*
X102701100Y-119003600D01*
G04 #@! TO.N,Net-(R8-Pad1)*
X105867100Y-113239600D02*
X109677100Y-113239600D01*
X102819100Y-116287600D02*
X105867100Y-113239600D01*
X109677100Y-113239600D02*
X109691100Y-113003600D01*
X102819100Y-116287600D02*
X102701100Y-116503600D01*
G04 #@! TO.N,Net-(R9-Pad1)*
X106629100Y-110191600D02*
X109677100Y-110191600D01*
X102819100Y-114001600D02*
X106629100Y-110191600D01*
X109677100Y-110191600D02*
X109691100Y-110003600D01*
X102819100Y-114001600D02*
X102701100Y-114003600D01*
G04 #@! TO.N,Net-(R10-Pad1)*
X107137100Y-107143600D02*
X109677100Y-107143600D01*
X102819100Y-111461600D02*
X107137100Y-107143600D01*
X109677100Y-107143600D02*
X109691100Y-107003600D01*
X102819100Y-111461600D02*
X102701100Y-111503600D01*
G04 #@! TO.N,Net-(FROM-AMP1-Pad1)*
X124409100Y-104857600D02*
X124409100Y-105365600D01*
X118821100Y-99269600D02*
X124409100Y-104857600D01*
X113487100Y-99269600D02*
X118821100Y-99269600D01*
X110439100Y-96221600D02*
X113487100Y-99269600D01*
X124409100Y-105365600D02*
X124599100Y-105454600D01*
X110439100Y-96221600D02*
X110201100Y-96203600D01*
G04 #@! TO.N,Net-(CN3-LEFT1-Pad1)*
X124663100Y-99777600D02*
X124663100Y-100285600D01*
X134823100Y-89617600D02*
X124663100Y-99777600D01*
X136855100Y-89617600D02*
X134823100Y-89617600D01*
X139649100Y-86823600D02*
X136855100Y-89617600D01*
X143459100Y-86823600D02*
X139649100Y-86823600D01*
X145999100Y-84283600D02*
X143459100Y-86823600D01*
X124663100Y-100285600D02*
X124599100Y-100374600D01*
X145999100Y-84283600D02*
X146001100Y-84203600D01*
G04 #@! TO.N,Net-(CN2-RIGHT1-Pad1)*
X168351100Y-81489600D02*
X144729100Y-81489600D01*
X170891100Y-84029600D02*
X168351100Y-81489600D01*
X170891100Y-84029600D02*
X171001100Y-84203600D01*
G04 #@! TO.N,Net-(CN2-RIGHT1-Pad2)*
X136601100Y-88347600D02*
X136093100Y-88347600D01*
X139141100Y-85807600D02*
X136601100Y-88347600D01*
X141935100Y-85807600D02*
X139141100Y-85807600D01*
X145237100Y-82505600D02*
X141935100Y-85807600D01*
X166827100Y-82505600D02*
X145237100Y-82505600D01*
X170129100Y-85807600D02*
X166827100Y-82505600D01*
X171907100Y-85807600D02*
X170129100Y-85807600D01*
X173431100Y-84283600D02*
X171907100Y-85807600D01*
X173431100Y-84283600D02*
X173501100Y-84203600D01*
G04 #@! TO.N,Net-(CN3-LEFT1-Pad2)*
X132283100Y-98253600D02*
X132283100Y-100285600D01*
X135077100Y-95459600D02*
X132283100Y-98253600D01*
X135077100Y-92919600D02*
X135077100Y-95459600D01*
X140157100Y-87839600D02*
X135077100Y-92919600D01*
X144729100Y-87839600D02*
X140157100Y-87839600D01*
X148285100Y-84283600D02*
X144729100Y-87839600D01*
X132283100Y-100285600D02*
X132219100Y-100374600D01*
X148285100Y-84283600D02*
X148501100Y-84203600D01*
G04 #@! TO.N,Net-(FROM-AMP1-Pad2)*
X113233100Y-96729600D02*
X117551100Y-96729600D01*
X112725100Y-96221600D02*
X113233100Y-96729600D01*
X117551100Y-96729600D02*
X117631100Y-96903600D01*
X112725100Y-96221600D02*
X112701100Y-96203600D01*
X128981100Y-105365600D02*
X132029100Y-105365600D01*
X125679100Y-102063600D02*
X128981100Y-105365600D01*
X132029100Y-105365600D02*
X132219100Y-105454600D01*
G04 #@! TO.N,Net-(CN2-RIGHT1-Pad3)*
X151333100Y-86061600D02*
X142189100Y-95205600D01*
G04 #@! TO.N,Net-(CN3-LEFT1-Pad4)*
X145237100Y-98253600D02*
X145237100Y-100285600D01*
X148285100Y-95205600D02*
X145237100Y-98253600D01*
X148285100Y-90633600D02*
X148285100Y-95205600D01*
X153365100Y-85553600D02*
X148285100Y-90633600D01*
X153365100Y-84283600D02*
X153365100Y-85553600D01*
X145237100Y-100285600D02*
X145203100Y-100363600D01*
X153365100Y-84283600D02*
X153501100Y-84203600D01*
G04 #@! TO.N,Net-(CN1-MICIN1-Pad5)*
X130759100Y-86061600D02*
X130759100Y-84283600D01*
X120091100Y-96729600D02*
X130759100Y-86061600D01*
X130759100Y-84283600D02*
X131001100Y-84203600D01*
X120091100Y-96729600D02*
X120171100Y-96903600D01*
G04 #@! TO.N,Net-(CN3-LEFT1-Pad5)*
X150825100Y-97999600D02*
X150825100Y-100285600D01*
X154889100Y-93935600D02*
X150825100Y-97999600D01*
X154889100Y-85299600D02*
X154889100Y-93935600D01*
X155905100Y-84283600D02*
X154889100Y-85299600D01*
X150825100Y-100285600D02*
X150621100Y-100323600D01*
X155905100Y-84283600D02*
X156001100Y-84203600D01*
G04 #@! TO.N,Net-(CN3-LEFT1-Pad6)*
X158191100Y-98253600D02*
X158191100Y-100285600D01*
X155905100Y-95967600D02*
X158191100Y-98253600D01*
X155905100Y-86823600D02*
X155905100Y-95967600D01*
X158445100Y-84283600D02*
X155905100Y-86823600D01*
X158191100Y-100285600D02*
X158241100Y-100323600D01*
X158445100Y-84283600D02*
X158501100Y-84203600D01*
G04 #@! TO.N,Net-(CN1-MICIN1-Pad6)*
X153619100Y-105365600D02*
X158191100Y-105365600D01*
X151333100Y-103079600D02*
X153619100Y-105365600D01*
X143459100Y-103079600D02*
X151333100Y-103079600D01*
X139903100Y-99523600D02*
X143459100Y-103079600D01*
X139903100Y-90633600D02*
X139903100Y-99523600D01*
X139395100Y-90125600D02*
X139903100Y-90633600D01*
X158191100Y-105365600D02*
X158241100Y-105403600D01*
G04 #@! TO.N,Net-(CN1-MICIN1-Pad7)*
X161239100Y-105365600D02*
X163525100Y-105365600D01*
X157937100Y-102063600D02*
X161239100Y-105365600D01*
X143967100Y-102063600D02*
X157937100Y-102063600D01*
X140919100Y-99015600D02*
X143967100Y-102063600D01*
X140919100Y-89109600D02*
X140919100Y-99015600D01*
X163525100Y-105365600D02*
X163616100Y-105450600D01*
G04 #@! TO.N,Net-(CN3-LEFT1-Pad7)*
X163525100Y-98253600D02*
X163525100Y-100285600D01*
X161239100Y-95967600D02*
X163525100Y-98253600D01*
X161239100Y-84283600D02*
X161239100Y-95967600D01*
X163525100Y-100285600D02*
X163616100Y-100370600D01*
X161239100Y-84283600D02*
X161001100Y-84203600D01*
G04 #@! TO.N,Net-(CN2-RIGHT1-Pad8)*
X173939100Y-95205600D02*
X171399100Y-95205600D01*
X183337100Y-85807600D02*
X173939100Y-95205600D01*
X186893100Y-85807600D02*
X183337100Y-85807600D01*
X188417100Y-84283600D02*
X186893100Y-85807600D01*
X171399100Y-95205600D02*
X171236100Y-95290600D01*
X188417100Y-84283600D02*
X188501100Y-84203600D01*
G04 #@! TO.N,Net-(CN3-LEFT1-Pad8)*
X171145100Y-98253600D02*
X171145100Y-100285600D01*
X163525100Y-90633600D02*
X171145100Y-98253600D01*
X163525100Y-84283600D02*
X163525100Y-90633600D01*
X171145100Y-100285600D02*
X171236100Y-100370600D01*
X163525100Y-84283600D02*
X163501100Y-84203600D01*
G04 #@! TO.N,Net-(CN1-MICIN1-Pad8)*
X166573100Y-105619600D02*
X171145100Y-105619600D01*
X165049100Y-107143600D02*
X166573100Y-105619600D01*
X129235100Y-107143600D02*
X165049100Y-107143600D01*
X124155100Y-102063600D02*
X129235100Y-107143600D01*
X123139100Y-102063600D02*
X124155100Y-102063600D01*
X122123100Y-101047600D02*
X123139100Y-102063600D01*
X122123100Y-99777600D02*
X122123100Y-101047600D01*
X124917100Y-96983600D02*
X122123100Y-99777600D01*
X125933100Y-96983600D02*
X124917100Y-96983600D01*
X138633100Y-84283600D02*
X125933100Y-96983600D01*
X171145100Y-105619600D02*
X171236100Y-105450600D01*
X138633100Y-84283600D02*
X138501100Y-84203600D01*
G04 #@! TO.N,Net-(CN1-MICIN1-Pad1)*
X111963100Y-85807600D02*
X110439100Y-84283600D01*
X119329100Y-85807600D02*
X111963100Y-85807600D01*
X120853100Y-84283600D02*
X119329100Y-85807600D01*
X110439100Y-84283600D02*
X110201100Y-84203600D01*
X120853100Y-84283600D02*
X121001100Y-84203600D01*
G04 #@! TO.N,Net-(CN1-MICIN1-Pad2)*
X118821100Y-84029600D02*
X112725100Y-84029600D01*
X120345100Y-82505600D02*
X118821100Y-84029600D01*
X121869100Y-82505600D02*
X120345100Y-82505600D01*
X123393100Y-84029600D02*
X121869100Y-82505600D01*
X112725100Y-84029600D02*
X112701100Y-84203600D01*
X123393100Y-84029600D02*
X123501100Y-84203600D01*
G04 #@! TD*
M02*
