M48
;DRILL file {KiCad (5.0.0)} date 11/08/18 09:59:38
;FORMAT={3:3/ absolute / metric / suppress leading zeros}
FMAT,2
METRIC,TZ
T1C0.300
T2C0.400
T3C0.800
T4C0.813
T5C0.900
T6C1.000
T7C1.001
T8C1.016
T9C1.270
T10C2.200
T11C3.200
%
G90
G05
M71
T1
X98200Y-107200
X101800Y-109600
X103500Y-113500
X107000Y-114000
X111000Y-114000
X112000Y-94000
X113500Y-96000
X113500Y-98500
X114500Y-94000
X114500Y-102000
X115000Y-114000
X115500Y-98000
X115500Y-101500
X116500Y-93500
X117000Y-98000
X117000Y-101000
X117000Y-103000
X118000Y-92000
X118000Y-94000
X118000Y-98000
X118000Y-102500
X118000Y-104500
X119000Y-105500
X119000Y-114000
X122000Y-105500
X125000Y-114000
X125500Y-105500
X129000Y-114000
X129500Y-105500
X133000Y-108000
X133000Y-112000
X134000Y-106000
X134000Y-110000
X134000Y-114000
T2
X97800Y-77600
X97800Y-84000
X98000Y-91000
X98000Y-97000
X98200Y-102600
X100800Y-76200
X103500Y-107500
X103600Y-71200
X103800Y-73600
X108000Y-107500
X108800Y-71400
X114400Y-89400
X114600Y-83200
X114800Y-71400
X114800Y-77200
X118500Y-109250
X120500Y-79750
X153000Y-81500
T3
X160500Y-103500
X165500Y-103500
X101000Y-98460
X101000Y-103540
X126500Y-107000
X131500Y-107000
X154500Y-75000
X159500Y-75000
X102000Y-79920
X102000Y-82460
X102000Y-85000
X99960Y-92500
X105040Y-92500
X121500Y-106960
X121500Y-112040
X107600Y-95520
X107600Y-98060
X107600Y-100600
T4
X105730Y-104000
X108270Y-104000
X102230Y-89000
X104770Y-89000
T5
X139500Y-99000
X139500Y-103000
X139500Y-107000
X157500Y-99000
X157500Y-107000
X164300Y-80700
X164300Y-83200
X121500Y-72700
X124000Y-72700
X126500Y-72700
X127800Y-112300
X130300Y-112300
X164300Y-92200
X164300Y-94700
X133000Y-78000
X133000Y-82000
X133000Y-86000
X151000Y-78000
X151000Y-86000
X107750Y-112300
X110250Y-112300
X112750Y-112300
X115250Y-112300
T6
X110610Y-79690
X110610Y-87310
X118230Y-79690
X118230Y-87310
X123310Y-79690
X123310Y-87310
X128390Y-79690
X128390Y-87310
X115110Y-92190
X115110Y-99810
X122730Y-92190
X122730Y-99810
X127810Y-92190
X127810Y-99810
X132890Y-92190
X132890Y-99810
T7
X111997Y-102000
X107497Y-90000
T8
X157500Y-88000
X157500Y-90540
T9
X111997Y-91840
X107497Y-79840
T10
X142000Y-72000
X142000Y-92000
X148500Y-93000
X148500Y-113000
T11
X165000Y-72100
X99100Y-72100
X99100Y-112900
X165000Y-113000
T0
M30
