G04 #@! TF.GenerationSoftware,KiCad,Pcbnew,(5.0.0)*
G04 #@! TF.CreationDate,2018-11-08T09:59:28+09:00*
G04 #@! TF.ProjectId,Headphone-controler-v2r2,4865616470686F6E652D636F6E74726F,rev?*
G04 #@! TF.SameCoordinates,Original*
G04 #@! TF.FileFunction,Soldermask,Bot*
G04 #@! TF.FilePolarity,Negative*
%FSLAX46Y46*%
G04 Gerber Fmt 4.6, Leading zero omitted, Abs format (unit mm)*
G04 Created by KiCad (PCBNEW (5.0.0)) date 11/08/18 09:59:28*
%MOMM*%
%LPD*%
G01*
G04 APERTURE LIST*
%ADD10R,1.700000X1.700000*%
%ADD11C,1.700000*%
%ADD12C,2.076400*%
%ADD13C,1.708000*%
%ADD14R,2.432000X2.432000*%
%ADD15O,2.432000X2.432000*%
%ADD16R,2.200000X2.200000*%
%ADD17C,2.200000*%
%ADD18C,1.720800*%
%ADD19R,3.400000X4.400000*%
%ADD20O,3.400000X2.400000*%
%ADD21C,2.398980*%
%ADD22R,2.398980X2.398980*%
%ADD23C,6.100000*%
G04 APERTURE END LIST*
D10*
G04 #@! TO.C,F1*
X131500000Y-107000000D03*
D11*
X126500000Y-107000000D03*
G04 #@! TD*
D12*
G04 #@! TO.C,JP2*
X127800000Y-112300000D03*
X130300000Y-112300000D03*
G04 #@! TD*
D10*
G04 #@! TO.C,C1*
X159500000Y-75000000D03*
D11*
X154500000Y-75000000D03*
G04 #@! TD*
D10*
G04 #@! TO.C,C2*
X165500000Y-103500000D03*
D11*
X160500000Y-103500000D03*
G04 #@! TD*
D13*
G04 #@! TO.C,C3*
X121500000Y-106960000D03*
X121500000Y-112040000D03*
G04 #@! TD*
G04 #@! TO.C,C4*
X99960000Y-92500000D03*
X105040000Y-92500000D03*
G04 #@! TD*
G04 #@! TO.C,C5*
X101000000Y-98460000D03*
X101000000Y-103540000D03*
G04 #@! TD*
D12*
G04 #@! TO.C,JP1*
X124000000Y-72700000D03*
X121500000Y-72700000D03*
X126500000Y-72700000D03*
G04 #@! TD*
G04 #@! TO.C,JP3*
X112750000Y-112300000D03*
X115250000Y-112300000D03*
X110250000Y-112300000D03*
X107750000Y-112300000D03*
G04 #@! TD*
D14*
G04 #@! TO.C,JP4*
X157500000Y-88000000D03*
D15*
X157500000Y-90540000D03*
G04 #@! TD*
D12*
G04 #@! TO.C,JP5*
X164300000Y-83200000D03*
X164300000Y-80700000D03*
G04 #@! TD*
G04 #@! TO.C,JP6*
X164300000Y-94700000D03*
X164300000Y-92200000D03*
G04 #@! TD*
D16*
G04 #@! TO.C,Q1*
X102000000Y-85000000D03*
D17*
X102000000Y-82460000D03*
X102000000Y-79920000D03*
G04 #@! TD*
D16*
G04 #@! TO.C,Q2*
X107600000Y-100600000D03*
D17*
X107600000Y-98060000D03*
X107600000Y-95520000D03*
G04 #@! TD*
D18*
G04 #@! TO.C,R1*
X102230000Y-89000000D03*
X104770000Y-89000000D03*
G04 #@! TD*
G04 #@! TO.C,R2*
X105730000Y-104000000D03*
X108270000Y-104000000D03*
G04 #@! TD*
D17*
G04 #@! TO.C,RL1*
X110610000Y-79690000D03*
X110610000Y-87310000D03*
X118230000Y-87310000D03*
X123310000Y-87310000D03*
X128390000Y-87310000D03*
X118230000Y-79690000D03*
X123310000Y-79690000D03*
X128390000Y-79690000D03*
G04 #@! TD*
G04 #@! TO.C,RL2*
X115110000Y-92190000D03*
X115110000Y-99810000D03*
X122730000Y-99810000D03*
X127810000Y-99810000D03*
X132890000Y-99810000D03*
X122730000Y-92190000D03*
X127810000Y-92190000D03*
X132890000Y-92190000D03*
G04 #@! TD*
D19*
G04 #@! TO.C,T1*
X142000000Y-92000000D03*
D20*
X133000000Y-78000000D03*
X133000000Y-86000000D03*
X151000000Y-78000000D03*
X133000000Y-82000000D03*
X151000000Y-86000000D03*
D19*
X142000000Y-72000000D03*
G04 #@! TD*
G04 #@! TO.C,T2*
X148500000Y-113000000D03*
D20*
X139500000Y-99000000D03*
X139500000Y-107000000D03*
X157500000Y-99000000D03*
X139500000Y-103000000D03*
X157500000Y-107000000D03*
D19*
X148500000Y-93000000D03*
G04 #@! TD*
D21*
G04 #@! TO.C,D1*
X107497460Y-79840000D03*
D22*
X107497460Y-90000000D03*
G04 #@! TD*
D21*
G04 #@! TO.C,D2*
X111997460Y-91840000D03*
D22*
X111997460Y-102000000D03*
G04 #@! TD*
D23*
G04 #@! TO.C,REF\002A\002A*
X165000000Y-72100000D03*
G04 #@! TD*
G04 #@! TO.C,REF\002A\002A*
X165000000Y-113000000D03*
G04 #@! TD*
G04 #@! TO.C,REF\002A\002A*
X99100000Y-72100000D03*
G04 #@! TD*
G04 #@! TO.C,REF\002A\002A*
X99100000Y-112900000D03*
G04 #@! TD*
M02*
