G04 #@! TF.GenerationSoftware,KiCad,Pcbnew,(5.0.0)*
G04 #@! TF.CreationDate,2018-11-08T10:10:24+09:00*
G04 #@! TF.ProjectId,HeadphoneSwitch,4865616470686F6E655377697463682E,rev?*
G04 #@! TF.SameCoordinates,Original*
G04 #@! TF.FileFunction,Legend,Top*
G04 #@! TF.FilePolarity,Positive*
%FSLAX46Y46*%
G04 Gerber Fmt 4.6, Leading zero omitted, Abs format (unit mm)*
G04 Created by KiCad (PCBNEW (5.0.0)) date 11/08/18 10:10:24*
%MOMM*%
%LPD*%
G01*
G04 APERTURE LIST*
%ADD10C,0.081280*%
%ADD11C,0.065024*%
%ADD12C,0.048768*%
%ADD13C,0.127000*%
%ADD14C,0.152400*%
%ADD15C,0.254000*%
%ADD16C,0.046329*%
%ADD17C,0.090000*%
%ADD18C,0.060000*%
%ADD19C,0.077216*%
G04 APERTURE END LIST*
D10*
X150807779Y-127371676D02*
X150945665Y-127417638D01*
X151175474Y-127417638D01*
X151267398Y-127371676D01*
X151313360Y-127325714D01*
X151359322Y-127233790D01*
X151359322Y-127141866D01*
X151313360Y-127049942D01*
X151267398Y-127003980D01*
X151175474Y-126958019D01*
X150991627Y-126912057D01*
X150899703Y-126866095D01*
X150853741Y-126820133D01*
X150807779Y-126728209D01*
X150807779Y-126636285D01*
X150853741Y-126544361D01*
X150899703Y-126498400D01*
X150991627Y-126452438D01*
X151221436Y-126452438D01*
X151359322Y-126498400D01*
X151956827Y-126452438D02*
X152140674Y-126452438D01*
X152232598Y-126498400D01*
X152324522Y-126590323D01*
X152370484Y-126774171D01*
X152370484Y-127095904D01*
X152324522Y-127279752D01*
X152232598Y-127371676D01*
X152140674Y-127417638D01*
X151956827Y-127417638D01*
X151864903Y-127371676D01*
X151772979Y-127279752D01*
X151727017Y-127095904D01*
X151727017Y-126774171D01*
X151772979Y-126590323D01*
X151864903Y-126498400D01*
X151956827Y-126452438D01*
X152738179Y-126544361D02*
X152784141Y-126498400D01*
X152876065Y-126452438D01*
X153105874Y-126452438D01*
X153197798Y-126498400D01*
X153243760Y-126544361D01*
X153289722Y-126636285D01*
X153289722Y-126728209D01*
X153243760Y-126866095D01*
X152692217Y-127417638D01*
X153289722Y-127417638D01*
X154254922Y-127417638D02*
X153933189Y-126958019D01*
X153703379Y-127417638D02*
X153703379Y-126452438D01*
X154071074Y-126452438D01*
X154162998Y-126498400D01*
X154208960Y-126544361D01*
X154254922Y-126636285D01*
X154254922Y-126774171D01*
X154208960Y-126866095D01*
X154162998Y-126912057D01*
X154071074Y-126958019D01*
X153703379Y-126958019D01*
X155403970Y-127417638D02*
X155403970Y-126774171D01*
X155403970Y-126452438D02*
X155358008Y-126498400D01*
X155403970Y-126544361D01*
X155449932Y-126498400D01*
X155403970Y-126452438D01*
X155403970Y-126544361D01*
X155863589Y-126774171D02*
X155863589Y-127417638D01*
X155863589Y-126866095D02*
X155909551Y-126820133D01*
X156001474Y-126774171D01*
X156139360Y-126774171D01*
X156231284Y-126820133D01*
X156277246Y-126912057D01*
X156277246Y-127417638D01*
X156598979Y-126774171D02*
X156966674Y-126774171D01*
X156736865Y-126452438D02*
X156736865Y-127279752D01*
X156782827Y-127371676D01*
X156874751Y-127417638D01*
X156966674Y-127417638D01*
X157656103Y-127371676D02*
X157564179Y-127417638D01*
X157380332Y-127417638D01*
X157288408Y-127371676D01*
X157242446Y-127279752D01*
X157242446Y-126912057D01*
X157288408Y-126820133D01*
X157380332Y-126774171D01*
X157564179Y-126774171D01*
X157656103Y-126820133D01*
X157702065Y-126912057D01*
X157702065Y-127003980D01*
X157242446Y-127095904D01*
X158115722Y-127417638D02*
X158115722Y-126774171D01*
X158115722Y-126958019D02*
X158161684Y-126866095D01*
X158207646Y-126820133D01*
X158299570Y-126774171D01*
X158391493Y-126774171D01*
X158575341Y-126774171D02*
X158943036Y-126774171D01*
X158713227Y-127417638D02*
X158713227Y-126590323D01*
X158759189Y-126498400D01*
X158851112Y-126452438D01*
X158943036Y-126452438D01*
X159678427Y-127417638D02*
X159678427Y-126912057D01*
X159632465Y-126820133D01*
X159540541Y-126774171D01*
X159356693Y-126774171D01*
X159264770Y-126820133D01*
X159678427Y-127371676D02*
X159586503Y-127417638D01*
X159356693Y-127417638D01*
X159264770Y-127371676D01*
X159218808Y-127279752D01*
X159218808Y-127187828D01*
X159264770Y-127095904D01*
X159356693Y-127049942D01*
X159586503Y-127049942D01*
X159678427Y-127003980D01*
X160551703Y-127371676D02*
X160459779Y-127417638D01*
X160275932Y-127417638D01*
X160184008Y-127371676D01*
X160138046Y-127325714D01*
X160092084Y-127233790D01*
X160092084Y-126958019D01*
X160138046Y-126866095D01*
X160184008Y-126820133D01*
X160275932Y-126774171D01*
X160459779Y-126774171D01*
X160551703Y-126820133D01*
X161333055Y-127371676D02*
X161241132Y-127417638D01*
X161057284Y-127417638D01*
X160965360Y-127371676D01*
X160919398Y-127279752D01*
X160919398Y-126912057D01*
X160965360Y-126820133D01*
X161057284Y-126774171D01*
X161241132Y-126774171D01*
X161333055Y-126820133D01*
X161379017Y-126912057D01*
X161379017Y-127003980D01*
X160919398Y-127095904D01*
X162528065Y-127417638D02*
X162528065Y-126452438D01*
X162528065Y-126820133D02*
X162619989Y-126774171D01*
X162803836Y-126774171D01*
X162895760Y-126820133D01*
X162941722Y-126866095D01*
X162987684Y-126958019D01*
X162987684Y-127233790D01*
X162941722Y-127325714D01*
X162895760Y-127371676D01*
X162803836Y-127417638D01*
X162619989Y-127417638D01*
X162528065Y-127371676D01*
X163539227Y-127417638D02*
X163447303Y-127371676D01*
X163401341Y-127325714D01*
X163355379Y-127233790D01*
X163355379Y-126958019D01*
X163401341Y-126866095D01*
X163447303Y-126820133D01*
X163539227Y-126774171D01*
X163677112Y-126774171D01*
X163769036Y-126820133D01*
X163814998Y-126866095D01*
X163860960Y-126958019D01*
X163860960Y-127233790D01*
X163814998Y-127325714D01*
X163769036Y-127371676D01*
X163677112Y-127417638D01*
X163539227Y-127417638D01*
X164688274Y-127417638D02*
X164688274Y-126912057D01*
X164642312Y-126820133D01*
X164550389Y-126774171D01*
X164366541Y-126774171D01*
X164274617Y-126820133D01*
X164688274Y-127371676D02*
X164596351Y-127417638D01*
X164366541Y-127417638D01*
X164274617Y-127371676D01*
X164228655Y-127279752D01*
X164228655Y-127187828D01*
X164274617Y-127095904D01*
X164366541Y-127049942D01*
X164596351Y-127049942D01*
X164688274Y-127003980D01*
X165147893Y-127417638D02*
X165147893Y-126774171D01*
X165147893Y-126958019D02*
X165193855Y-126866095D01*
X165239817Y-126820133D01*
X165331741Y-126774171D01*
X165423665Y-126774171D01*
X166159055Y-127417638D02*
X166159055Y-126452438D01*
X166159055Y-127371676D02*
X166067132Y-127417638D01*
X165883284Y-127417638D01*
X165791360Y-127371676D01*
X165745398Y-127325714D01*
X165699436Y-127233790D01*
X165699436Y-126958019D01*
X165745398Y-126866095D01*
X165791360Y-126820133D01*
X165883284Y-126774171D01*
X166067132Y-126774171D01*
X166159055Y-126820133D01*
D11*
X153263674Y-128436057D02*
X153447521Y-128950830D01*
X153631369Y-128436057D01*
X153925525Y-128877291D02*
X153962295Y-128914060D01*
X153925525Y-128950830D01*
X153888756Y-128914060D01*
X153925525Y-128877291D01*
X153925525Y-128950830D01*
X154697685Y-128950830D02*
X154256451Y-128950830D01*
X154477068Y-128950830D02*
X154477068Y-128178670D01*
X154403529Y-128288979D01*
X154329990Y-128362518D01*
X154256451Y-128399287D01*
X155028611Y-128950830D02*
X155028611Y-128436057D01*
X155028611Y-128583135D02*
X155065380Y-128509596D01*
X155102150Y-128472826D01*
X155175689Y-128436057D01*
X155249228Y-128436057D01*
X155911079Y-128950830D02*
X155469845Y-128950830D01*
X155690462Y-128950830D02*
X155690462Y-128178670D01*
X155616923Y-128288979D01*
X155543384Y-128362518D01*
X155469845Y-128399287D01*
X157418630Y-128950830D02*
X157418630Y-128178670D01*
X157418630Y-128472826D02*
X157492169Y-128436057D01*
X157639247Y-128436057D01*
X157712786Y-128472826D01*
X157749556Y-128509596D01*
X157786325Y-128583135D01*
X157786325Y-128803752D01*
X157749556Y-128877291D01*
X157712786Y-128914060D01*
X157639247Y-128950830D01*
X157492169Y-128950830D01*
X157418630Y-128914060D01*
X158043712Y-128436057D02*
X158227559Y-128950830D01*
X158411407Y-128436057D02*
X158227559Y-128950830D01*
X158154020Y-129134678D01*
X158117251Y-129171447D01*
X158043712Y-129208217D01*
X159514493Y-128178670D02*
X159514493Y-128730213D01*
X159477723Y-128840521D01*
X159404184Y-128914060D01*
X159293876Y-128950830D01*
X159220337Y-128950830D01*
X159882188Y-128950830D02*
X159882188Y-128178670D01*
X160654348Y-128950830D02*
X160213114Y-128950830D01*
X160433731Y-128950830D02*
X160433731Y-128178670D01*
X160360192Y-128288979D01*
X160286653Y-128362518D01*
X160213114Y-128399287D01*
X161242660Y-128546365D02*
X160985274Y-128546365D01*
X160985274Y-128950830D02*
X160985274Y-128178670D01*
X161352969Y-128178670D01*
X162014820Y-128950830D02*
X161647125Y-128950830D01*
X161647125Y-128178670D01*
X162529594Y-128546365D02*
X162639902Y-128583135D01*
X162676672Y-128619904D01*
X162713441Y-128693443D01*
X162713441Y-128803752D01*
X162676672Y-128877291D01*
X162639902Y-128914060D01*
X162566363Y-128950830D01*
X162272207Y-128950830D01*
X162272207Y-128178670D01*
X162529594Y-128178670D01*
X162603133Y-128215440D01*
X162639902Y-128252209D01*
X162676672Y-128325748D01*
X162676672Y-128399287D01*
X162639902Y-128472826D01*
X162603133Y-128509596D01*
X162529594Y-128546365D01*
X162272207Y-128546365D01*
D12*
X192199522Y-99304666D02*
X192199522Y-99635592D01*
X192199522Y-99470129D02*
X191620402Y-99470129D01*
X191703134Y-99525283D01*
X191758288Y-99580437D01*
X191785865Y-99635592D01*
D13*
G04 #@! TO.C,DSS62*
X159715100Y-82505600D02*
X159715100Y-84537600D01*
X152603100Y-82505600D02*
X159715100Y-82505600D01*
X152603100Y-84537600D02*
X152603100Y-82505600D01*
X159715100Y-84537600D02*
X152603100Y-84537600D01*
G04 #@! TO.C,DSS63*
X160223100Y-88093600D02*
X160223100Y-90125600D01*
X153111100Y-88093600D02*
X160223100Y-88093600D01*
X153111100Y-90125600D02*
X153111100Y-88093600D01*
X160223100Y-90125600D02*
X153111100Y-90125600D01*
G04 #@! TO.C,DSS64*
X159969100Y-93427600D02*
X159969100Y-95459600D01*
X152857100Y-93427600D02*
X159969100Y-93427600D01*
X152857100Y-95459600D02*
X152857100Y-93427600D01*
X159969100Y-95459600D02*
X152857100Y-95459600D01*
G04 #@! TO.C,DSS65*
X187655100Y-127717600D02*
X187655100Y-125685600D01*
X194767100Y-127717600D02*
X187655100Y-127717600D01*
X194767100Y-125685600D02*
X194767100Y-127717600D01*
X187655100Y-125685600D02*
X194767100Y-125685600D01*
D14*
G04 #@! TO.C,IC1*
X174193100Y-93173600D02*
X176098100Y-93173600D01*
X174193100Y-93173600D02*
X174193100Y-83013600D01*
X179273100Y-83013600D02*
X174193100Y-83013600D01*
X179273100Y-83013600D02*
X179273100Y-93173600D01*
X176098100Y-93173600D02*
G75*
G02X177368100Y-93173600I635000J0D01*
G01*
X177368100Y-93173600D02*
X179273100Y-93173600D01*
G04 #@! TO.C,JP10*
X188671100Y-123018600D02*
X188671100Y-121748600D01*
X189306100Y-121113600D02*
X188671100Y-121748600D01*
X191211100Y-121748600D02*
X190576100Y-121113600D01*
X189306100Y-123653600D02*
X188671100Y-123018600D01*
X190576100Y-123653600D02*
X189306100Y-123653600D01*
X191211100Y-123018600D02*
X190576100Y-123653600D01*
X191211100Y-121748600D02*
X191211100Y-123018600D01*
X188671100Y-100158600D02*
X188671100Y-98888600D01*
X189306100Y-98253600D02*
X188671100Y-98888600D01*
X191211100Y-98888600D02*
X190576100Y-98253600D01*
X190576100Y-98253600D02*
X189306100Y-98253600D01*
X188671100Y-101428600D02*
X189306100Y-100793600D01*
X188671100Y-102698600D02*
X188671100Y-101428600D01*
X189306100Y-103333600D02*
X188671100Y-102698600D01*
X190576100Y-103333600D02*
X189306100Y-103333600D01*
X191211100Y-102698600D02*
X190576100Y-103333600D01*
X191211100Y-101428600D02*
X191211100Y-102698600D01*
X190576100Y-100793600D02*
X191211100Y-101428600D01*
X189306100Y-100793600D02*
X188671100Y-100158600D01*
X190576100Y-100793600D02*
X189306100Y-100793600D01*
X191211100Y-100158600D02*
X190576100Y-100793600D01*
X191211100Y-98888600D02*
X191211100Y-100158600D01*
X188671100Y-107778600D02*
X188671100Y-106508600D01*
X189306100Y-105873600D02*
X188671100Y-106508600D01*
X191211100Y-106508600D02*
X190576100Y-105873600D01*
X188671100Y-103968600D02*
X189306100Y-103333600D01*
X188671100Y-105238600D02*
X188671100Y-103968600D01*
X189306100Y-105873600D02*
X188671100Y-105238600D01*
X190576100Y-105873600D02*
X189306100Y-105873600D01*
X191211100Y-105238600D02*
X190576100Y-105873600D01*
X191211100Y-103968600D02*
X191211100Y-105238600D01*
X190576100Y-103333600D02*
X191211100Y-103968600D01*
X188671100Y-109048600D02*
X189306100Y-108413600D01*
X188671100Y-110318600D02*
X188671100Y-109048600D01*
X189306100Y-110953600D02*
X188671100Y-110318600D01*
X190576100Y-110953600D02*
X189306100Y-110953600D01*
X191211100Y-110318600D02*
X190576100Y-110953600D01*
X191211100Y-109048600D02*
X191211100Y-110318600D01*
X190576100Y-108413600D02*
X191211100Y-109048600D01*
X189306100Y-108413600D02*
X188671100Y-107778600D01*
X190576100Y-108413600D02*
X189306100Y-108413600D01*
X191211100Y-107778600D02*
X190576100Y-108413600D01*
X191211100Y-106508600D02*
X191211100Y-107778600D01*
X188671100Y-115398600D02*
X188671100Y-114128600D01*
X189306100Y-113493600D02*
X188671100Y-114128600D01*
X191211100Y-114128600D02*
X190576100Y-113493600D01*
X188671100Y-111588600D02*
X189306100Y-110953600D01*
X188671100Y-112858600D02*
X188671100Y-111588600D01*
X189306100Y-113493600D02*
X188671100Y-112858600D01*
X190576100Y-113493600D02*
X189306100Y-113493600D01*
X191211100Y-112858600D02*
X190576100Y-113493600D01*
X191211100Y-111588600D02*
X191211100Y-112858600D01*
X190576100Y-110953600D02*
X191211100Y-111588600D01*
X188671100Y-116668600D02*
X189306100Y-116033600D01*
X188671100Y-117938600D02*
X188671100Y-116668600D01*
X189306100Y-118573600D02*
X188671100Y-117938600D01*
X190576100Y-118573600D02*
X189306100Y-118573600D01*
X191211100Y-117938600D02*
X190576100Y-118573600D01*
X191211100Y-116668600D02*
X191211100Y-117938600D01*
X190576100Y-116033600D02*
X191211100Y-116668600D01*
X189306100Y-116033600D02*
X188671100Y-115398600D01*
X190576100Y-116033600D02*
X189306100Y-116033600D01*
X191211100Y-115398600D02*
X190576100Y-116033600D01*
X191211100Y-114128600D02*
X191211100Y-115398600D01*
X188671100Y-119208600D02*
X189306100Y-118573600D01*
X188671100Y-120478600D02*
X188671100Y-119208600D01*
X189306100Y-121113600D02*
X188671100Y-120478600D01*
X190576100Y-121113600D02*
X189306100Y-121113600D01*
X191211100Y-120478600D02*
X190576100Y-121113600D01*
X191211100Y-119208600D02*
X191211100Y-120478600D01*
X190576100Y-118573600D02*
X191211100Y-119208600D01*
G04 #@! TO.C,JP7*
X187401100Y-83648600D02*
X187401100Y-84918600D01*
X186766100Y-85553600D02*
X187401100Y-84918600D01*
X184861100Y-84918600D02*
X185496100Y-85553600D01*
X186766100Y-83013600D02*
X187401100Y-83648600D01*
X185496100Y-83013600D02*
X186766100Y-83013600D01*
X184861100Y-83648600D02*
X185496100Y-83013600D01*
X184861100Y-84918600D02*
X184861100Y-83648600D01*
X187401100Y-91268600D02*
X187401100Y-92538600D01*
X186766100Y-93173600D02*
X187401100Y-92538600D01*
X184861100Y-92538600D02*
X185496100Y-93173600D01*
X185496100Y-93173600D02*
X186766100Y-93173600D01*
X187401100Y-89998600D02*
X186766100Y-90633600D01*
X187401100Y-88728600D02*
X187401100Y-89998600D01*
X186766100Y-88093600D02*
X187401100Y-88728600D01*
X185496100Y-88093600D02*
X186766100Y-88093600D01*
X184861100Y-88728600D02*
X185496100Y-88093600D01*
X184861100Y-89998600D02*
X184861100Y-88728600D01*
X185496100Y-90633600D02*
X184861100Y-89998600D01*
X186766100Y-90633600D02*
X187401100Y-91268600D01*
X185496100Y-90633600D02*
X186766100Y-90633600D01*
X184861100Y-91268600D02*
X185496100Y-90633600D01*
X184861100Y-92538600D02*
X184861100Y-91268600D01*
X187401100Y-87458600D02*
X186766100Y-88093600D01*
X187401100Y-86188600D02*
X187401100Y-87458600D01*
X186766100Y-85553600D02*
X187401100Y-86188600D01*
X185496100Y-85553600D02*
X186766100Y-85553600D01*
X184861100Y-86188600D02*
X185496100Y-85553600D01*
X184861100Y-87458600D02*
X184861100Y-86188600D01*
X185496100Y-88093600D02*
X184861100Y-87458600D01*
G04 #@! TO.C,JP8*
X163525100Y-96094600D02*
X163525100Y-94824600D01*
X164160100Y-94189600D02*
X163525100Y-94824600D01*
X166065100Y-94824600D02*
X165430100Y-94189600D01*
X164160100Y-96729600D02*
X163525100Y-96094600D01*
X165430100Y-96729600D02*
X164160100Y-96729600D01*
X166065100Y-96094600D02*
X165430100Y-96729600D01*
X166065100Y-94824600D02*
X166065100Y-96094600D01*
X163525100Y-83394600D02*
X163525100Y-82124600D01*
X164160100Y-81489600D02*
X163525100Y-82124600D01*
X166065100Y-82124600D02*
X165430100Y-81489600D01*
X165430100Y-81489600D02*
X164160100Y-81489600D01*
X163525100Y-84664600D02*
X164160100Y-84029600D01*
X163525100Y-85934600D02*
X163525100Y-84664600D01*
X164160100Y-86569600D02*
X163525100Y-85934600D01*
X165430100Y-86569600D02*
X164160100Y-86569600D01*
X166065100Y-85934600D02*
X165430100Y-86569600D01*
X166065100Y-84664600D02*
X166065100Y-85934600D01*
X165430100Y-84029600D02*
X166065100Y-84664600D01*
X164160100Y-84029600D02*
X163525100Y-83394600D01*
X165430100Y-84029600D02*
X164160100Y-84029600D01*
X166065100Y-83394600D02*
X165430100Y-84029600D01*
X166065100Y-82124600D02*
X166065100Y-83394600D01*
X163525100Y-91014600D02*
X163525100Y-89744600D01*
X164160100Y-89109600D02*
X163525100Y-89744600D01*
X166065100Y-89744600D02*
X165430100Y-89109600D01*
X163525100Y-87204600D02*
X164160100Y-86569600D01*
X163525100Y-88474600D02*
X163525100Y-87204600D01*
X164160100Y-89109600D02*
X163525100Y-88474600D01*
X165430100Y-89109600D02*
X164160100Y-89109600D01*
X166065100Y-88474600D02*
X165430100Y-89109600D01*
X166065100Y-87204600D02*
X166065100Y-88474600D01*
X165430100Y-86569600D02*
X166065100Y-87204600D01*
X163525100Y-92284600D02*
X164160100Y-91649600D01*
X163525100Y-93554600D02*
X163525100Y-92284600D01*
X164160100Y-94189600D02*
X163525100Y-93554600D01*
X165430100Y-94189600D02*
X164160100Y-94189600D01*
X166065100Y-93554600D02*
X165430100Y-94189600D01*
X166065100Y-92284600D02*
X166065100Y-93554600D01*
X165430100Y-91649600D02*
X166065100Y-92284600D01*
X164160100Y-91649600D02*
X163525100Y-91014600D01*
X165430100Y-91649600D02*
X164160100Y-91649600D01*
X166065100Y-91014600D02*
X165430100Y-91649600D01*
X166065100Y-89744600D02*
X166065100Y-91014600D01*
G04 #@! TO.C,JP9*
X172415100Y-124542600D02*
X171780100Y-125177600D01*
X172415100Y-123272600D02*
X172415100Y-124542600D01*
X171780100Y-122637600D02*
X172415100Y-123272600D01*
X170510100Y-122637600D02*
X171780100Y-122637600D01*
X169875100Y-123272600D02*
X170510100Y-122637600D01*
X169875100Y-124542600D02*
X169875100Y-123272600D01*
X170510100Y-125177600D02*
X169875100Y-124542600D01*
X172415100Y-125812600D02*
X172415100Y-127082600D01*
X171780100Y-127717600D02*
X172415100Y-127082600D01*
X169875100Y-127082600D02*
X170510100Y-127717600D01*
X170510100Y-127717600D02*
X171780100Y-127717600D01*
X171780100Y-125177600D02*
X172415100Y-125812600D01*
X170510100Y-125177600D02*
X171780100Y-125177600D01*
X169875100Y-125812600D02*
X170510100Y-125177600D01*
X169875100Y-127082600D02*
X169875100Y-125812600D01*
D15*
G04 #@! TO.C,LED1*
X170891100Y-100285600D02*
G75*
G02X169126800Y-99261800I-56J2032000D01*
G01*
X172442300Y-99566200D02*
G75*
G02X170891100Y-100285600I-1551163J1312600D01*
G01*
X170891100Y-96221600D02*
G75*
G03X169098200Y-97297400I60J-2032000D01*
G01*
X172452100Y-96952700D02*
G75*
G03X170891100Y-96221600I-1560988J-1300900D01*
G01*
D14*
X170891100Y-99777600D02*
G75*
G02X169688100Y-99189200I8J1524000D01*
G01*
X172094100Y-99189200D02*
G75*
G02X170891100Y-99777600I-1203008J935600D01*
G01*
X170891100Y-96729600D02*
G75*
G03X169671900Y-97339200I0J-1524000D01*
G01*
X172131200Y-97367799D02*
G75*
G03X170891100Y-96729600I-1240134J-885801D01*
G01*
D15*
G04 #@! TO.C,LED2*
X170891100Y-105365600D02*
G75*
G02X169126800Y-104341800I-56J2032000D01*
G01*
X172442300Y-104646200D02*
G75*
G02X170891100Y-105365600I-1551163J1312600D01*
G01*
X170891100Y-101301600D02*
G75*
G03X169098200Y-102377400I60J-2032000D01*
G01*
X172452100Y-102032700D02*
G75*
G03X170891100Y-101301600I-1560988J-1300900D01*
G01*
D14*
X170891100Y-104857600D02*
G75*
G02X169688100Y-104269200I8J1524000D01*
G01*
X172094100Y-104269200D02*
G75*
G02X170891100Y-104857600I-1203008J935600D01*
G01*
X170891100Y-101809600D02*
G75*
G03X169671900Y-102419200I0J-1524000D01*
G01*
X172131200Y-102447799D02*
G75*
G03X170891100Y-101809600I-1240134J-885801D01*
G01*
D15*
G04 #@! TO.C,LED3*
X170891100Y-110445600D02*
G75*
G02X169126800Y-109421800I-56J2032000D01*
G01*
X172442300Y-109726200D02*
G75*
G02X170891100Y-110445600I-1551163J1312600D01*
G01*
X170891100Y-106381600D02*
G75*
G03X169098200Y-107457400I60J-2032000D01*
G01*
X172452100Y-107112700D02*
G75*
G03X170891100Y-106381600I-1560988J-1300900D01*
G01*
D14*
X170891100Y-109937600D02*
G75*
G02X169688100Y-109349200I8J1524000D01*
G01*
X172094100Y-109349200D02*
G75*
G02X170891100Y-109937600I-1203008J935600D01*
G01*
X170891100Y-106889600D02*
G75*
G03X169671900Y-107499200I0J-1524000D01*
G01*
X172131200Y-107527799D02*
G75*
G03X170891100Y-106889600I-1240134J-885801D01*
G01*
D15*
G04 #@! TO.C,LED4*
X170891100Y-115525600D02*
G75*
G02X169126800Y-114501800I-56J2032000D01*
G01*
X172442300Y-114806200D02*
G75*
G02X170891100Y-115525600I-1551163J1312600D01*
G01*
X170891100Y-111461600D02*
G75*
G03X169098200Y-112537400I60J-2032000D01*
G01*
X172452100Y-112192700D02*
G75*
G03X170891100Y-111461600I-1560988J-1300900D01*
G01*
D14*
X170891100Y-115017600D02*
G75*
G02X169688100Y-114429200I8J1524000D01*
G01*
X172094100Y-114429200D02*
G75*
G02X170891100Y-115017600I-1203008J935600D01*
G01*
X170891100Y-111969600D02*
G75*
G03X169671900Y-112579200I0J-1524000D01*
G01*
X172131200Y-112607799D02*
G75*
G03X170891100Y-111969600I-1240134J-885801D01*
G01*
D15*
G04 #@! TO.C,LED5*
X170891100Y-120605600D02*
G75*
G02X169126800Y-119581800I-56J2032000D01*
G01*
X172442300Y-119886200D02*
G75*
G02X170891100Y-120605600I-1551163J1312600D01*
G01*
X170891100Y-116541600D02*
G75*
G03X169098200Y-117617400I60J-2032000D01*
G01*
X172452100Y-117272700D02*
G75*
G03X170891100Y-116541600I-1560988J-1300900D01*
G01*
D14*
X170891100Y-120097600D02*
G75*
G02X169688100Y-119509200I8J1524000D01*
G01*
X172094100Y-119509200D02*
G75*
G02X170891100Y-120097600I-1203008J935600D01*
G01*
X170891100Y-117049600D02*
G75*
G03X169671900Y-117659200I0J-1524000D01*
G01*
X172131200Y-117687799D02*
G75*
G03X170891100Y-117049600I-1240134J-885801D01*
G01*
G04 #@! TO.C,OK1*
X180035100Y-95713600D02*
G75*
G03X182067100Y-95713600I1016000J0D01*
G01*
X178130100Y-95713600D02*
X180035100Y-95713600D01*
X183972100Y-95713600D02*
X182067100Y-95713600D01*
X183972100Y-100793600D02*
X178130100Y-100793600D01*
X178130100Y-95713600D02*
X178130100Y-100793600D01*
X183972100Y-100793600D02*
X183972100Y-95713600D01*
G04 #@! TO.C,OK2*
X180035100Y-102063600D02*
G75*
G03X182067100Y-102063600I1016000J0D01*
G01*
X178130100Y-102063600D02*
X180035100Y-102063600D01*
X183972100Y-102063600D02*
X182067100Y-102063600D01*
X183972100Y-107143600D02*
X178130100Y-107143600D01*
X178130100Y-102063600D02*
X178130100Y-107143600D01*
X183972100Y-107143600D02*
X183972100Y-102063600D01*
G04 #@! TO.C,OK3*
X180035100Y-108413600D02*
G75*
G03X182067100Y-108413600I1016000J0D01*
G01*
X178130100Y-108413600D02*
X180035100Y-108413600D01*
X183972100Y-108413600D02*
X182067100Y-108413600D01*
X183972100Y-113493600D02*
X178130100Y-113493600D01*
X178130100Y-108413600D02*
X178130100Y-113493600D01*
X183972100Y-113493600D02*
X183972100Y-108413600D01*
G04 #@! TO.C,OK4*
X180035100Y-114763600D02*
G75*
G03X182067100Y-114763600I1016000J0D01*
G01*
X178130100Y-114763600D02*
X180035100Y-114763600D01*
X183972100Y-114763600D02*
X182067100Y-114763600D01*
X183972100Y-119843600D02*
X178130100Y-119843600D01*
X178130100Y-114763600D02*
X178130100Y-119843600D01*
X183972100Y-119843600D02*
X183972100Y-114763600D01*
G04 #@! TO.C,OK5*
X180035100Y-121113600D02*
G75*
G03X182067100Y-121113600I1016000J0D01*
G01*
X178130100Y-121113600D02*
X180035100Y-121113600D01*
X183972100Y-121113600D02*
X182067100Y-121113600D01*
X183972100Y-126193600D02*
X178130100Y-126193600D01*
X178130100Y-121113600D02*
X178130100Y-126193600D01*
X183972100Y-126193600D02*
X183972100Y-121113600D01*
G04 #@! TO.C,PAD1*
X194513100Y-97491600D02*
X194259100Y-97491600D01*
X194513100Y-97745600D02*
X194513100Y-97491600D01*
X194513100Y-99015600D02*
X194513100Y-98761600D01*
X194259100Y-99015600D02*
X194513100Y-99015600D01*
X192989100Y-99015600D02*
X193243100Y-99015600D01*
X192989100Y-98761600D02*
X192989100Y-99015600D01*
X192989100Y-97491600D02*
X192989100Y-97745600D01*
X193243100Y-97491600D02*
X192989100Y-97491600D01*
G04 #@! TO.C,PAD10*
X151333100Y-109175600D02*
X151079100Y-109175600D01*
X151333100Y-109429600D02*
X151333100Y-109175600D01*
X151333100Y-110699600D02*
X151333100Y-110445600D01*
X151079100Y-110699600D02*
X151333100Y-110699600D01*
X149809100Y-110699600D02*
X150063100Y-110699600D01*
X149809100Y-110445600D02*
X149809100Y-110699600D01*
X149809100Y-109175600D02*
X149809100Y-109429600D01*
X150063100Y-109175600D02*
X149809100Y-109175600D01*
G04 #@! TO.C,PAD11*
X151333100Y-106635600D02*
X151079100Y-106635600D01*
X151333100Y-106889600D02*
X151333100Y-106635600D01*
X151333100Y-108159600D02*
X151333100Y-107905600D01*
X151079100Y-108159600D02*
X151333100Y-108159600D01*
X149809100Y-108159600D02*
X150063100Y-108159600D01*
X149809100Y-107905600D02*
X149809100Y-108159600D01*
X149809100Y-106635600D02*
X149809100Y-106889600D01*
X150063100Y-106635600D02*
X149809100Y-106635600D01*
G04 #@! TO.C,PAD12*
X151333100Y-82251600D02*
X151079100Y-82251600D01*
X151333100Y-82505600D02*
X151333100Y-82251600D01*
X151333100Y-83775600D02*
X151333100Y-83521600D01*
X151079100Y-83775600D02*
X151333100Y-83775600D01*
X149809100Y-83775600D02*
X150063100Y-83775600D01*
X149809100Y-83521600D02*
X149809100Y-83775600D01*
X149809100Y-82251600D02*
X149809100Y-82505600D01*
X150063100Y-82251600D02*
X149809100Y-82251600D01*
G04 #@! TO.C,PAD13*
X164033100Y-121875600D02*
X163779100Y-121875600D01*
X164033100Y-122129600D02*
X164033100Y-121875600D01*
X164033100Y-123399600D02*
X164033100Y-123145600D01*
X163779100Y-123399600D02*
X164033100Y-123399600D01*
X162509100Y-123399600D02*
X162763100Y-123399600D01*
X162509100Y-123145600D02*
X162509100Y-123399600D01*
X162509100Y-121875600D02*
X162509100Y-122129600D01*
X162763100Y-121875600D02*
X162509100Y-121875600D01*
G04 #@! TO.C,PAD14*
X161493100Y-121875600D02*
X161239100Y-121875600D01*
X161493100Y-122129600D02*
X161493100Y-121875600D01*
X161493100Y-123399600D02*
X161493100Y-123145600D01*
X161239100Y-123399600D02*
X161493100Y-123399600D01*
X159969100Y-123399600D02*
X160223100Y-123399600D01*
X159969100Y-123145600D02*
X159969100Y-123399600D01*
X159969100Y-121875600D02*
X159969100Y-122129600D01*
X160223100Y-121875600D02*
X159969100Y-121875600D01*
G04 #@! TO.C,PAD15*
X158953100Y-121875600D02*
X158699100Y-121875600D01*
X158953100Y-122129600D02*
X158953100Y-121875600D01*
X158953100Y-123399600D02*
X158953100Y-123145600D01*
X158699100Y-123399600D02*
X158953100Y-123399600D01*
X157429100Y-123399600D02*
X157683100Y-123399600D01*
X157429100Y-123145600D02*
X157429100Y-123399600D01*
X157429100Y-121875600D02*
X157429100Y-122129600D01*
X157683100Y-121875600D02*
X157429100Y-121875600D01*
G04 #@! TO.C,PAD16*
X156413100Y-121875600D02*
X156159100Y-121875600D01*
X156413100Y-122129600D02*
X156413100Y-121875600D01*
X156413100Y-123399600D02*
X156413100Y-123145600D01*
X156159100Y-123399600D02*
X156413100Y-123399600D01*
X154889100Y-123399600D02*
X155143100Y-123399600D01*
X154889100Y-123145600D02*
X154889100Y-123399600D01*
X154889100Y-121875600D02*
X154889100Y-122129600D01*
X155143100Y-121875600D02*
X154889100Y-121875600D01*
G04 #@! TO.C,PAD17*
X153873100Y-121875600D02*
X153619100Y-121875600D01*
X153873100Y-122129600D02*
X153873100Y-121875600D01*
X153873100Y-123399600D02*
X153873100Y-123145600D01*
X153619100Y-123399600D02*
X153873100Y-123399600D01*
X152349100Y-123399600D02*
X152603100Y-123399600D01*
X152349100Y-123145600D02*
X152349100Y-123399600D01*
X152349100Y-121875600D02*
X152349100Y-122129600D01*
X152603100Y-121875600D02*
X152349100Y-121875600D01*
G04 #@! TO.C,PAD18*
X164033100Y-116795600D02*
X163779100Y-116795600D01*
X164033100Y-117049600D02*
X164033100Y-116795600D01*
X164033100Y-118319600D02*
X164033100Y-118065600D01*
X163779100Y-118319600D02*
X164033100Y-118319600D01*
X162509100Y-118319600D02*
X162763100Y-118319600D01*
X162509100Y-118065600D02*
X162509100Y-118319600D01*
X162509100Y-116795600D02*
X162509100Y-117049600D01*
X162763100Y-116795600D02*
X162509100Y-116795600D01*
G04 #@! TO.C,PAD19*
X161493100Y-116795600D02*
X161239100Y-116795600D01*
X161493100Y-117049600D02*
X161493100Y-116795600D01*
X161493100Y-118319600D02*
X161493100Y-118065600D01*
X161239100Y-118319600D02*
X161493100Y-118319600D01*
X159969100Y-118319600D02*
X160223100Y-118319600D01*
X159969100Y-118065600D02*
X159969100Y-118319600D01*
X159969100Y-116795600D02*
X159969100Y-117049600D01*
X160223100Y-116795600D02*
X159969100Y-116795600D01*
G04 #@! TO.C,PAD2*
X184099100Y-82251600D02*
X183845100Y-82251600D01*
X184099100Y-82505600D02*
X184099100Y-82251600D01*
X184099100Y-83775600D02*
X184099100Y-83521600D01*
X183845100Y-83775600D02*
X184099100Y-83775600D01*
X182575100Y-83775600D02*
X182829100Y-83775600D01*
X182575100Y-83521600D02*
X182575100Y-83775600D01*
X182575100Y-82251600D02*
X182575100Y-82505600D01*
X182829100Y-82251600D02*
X182575100Y-82251600D01*
G04 #@! TO.C,PAD20*
X158953100Y-116795600D02*
X158699100Y-116795600D01*
X158953100Y-117049600D02*
X158953100Y-116795600D01*
X158953100Y-118319600D02*
X158953100Y-118065600D01*
X158699100Y-118319600D02*
X158953100Y-118319600D01*
X157429100Y-118319600D02*
X157683100Y-118319600D01*
X157429100Y-118065600D02*
X157429100Y-118319600D01*
X157429100Y-116795600D02*
X157429100Y-117049600D01*
X157683100Y-116795600D02*
X157429100Y-116795600D01*
G04 #@! TO.C,PAD21*
X156413100Y-116795600D02*
X156159100Y-116795600D01*
X156413100Y-117049600D02*
X156413100Y-116795600D01*
X156413100Y-118319600D02*
X156413100Y-118065600D01*
X156159100Y-118319600D02*
X156413100Y-118319600D01*
X154889100Y-118319600D02*
X155143100Y-118319600D01*
X154889100Y-118065600D02*
X154889100Y-118319600D01*
X154889100Y-116795600D02*
X154889100Y-117049600D01*
X155143100Y-116795600D02*
X154889100Y-116795600D01*
G04 #@! TO.C,PAD22*
X153873100Y-116795600D02*
X153619100Y-116795600D01*
X153873100Y-117049600D02*
X153873100Y-116795600D01*
X153873100Y-118319600D02*
X153873100Y-118065600D01*
X153619100Y-118319600D02*
X153873100Y-118319600D01*
X152349100Y-118319600D02*
X152603100Y-118319600D01*
X152349100Y-118065600D02*
X152349100Y-118319600D01*
X152349100Y-116795600D02*
X152349100Y-117049600D01*
X152603100Y-116795600D02*
X152349100Y-116795600D01*
G04 #@! TO.C,PAD23*
X153873100Y-124415600D02*
X153619100Y-124415600D01*
X153873100Y-124669600D02*
X153873100Y-124415600D01*
X153873100Y-125939600D02*
X153873100Y-125685600D01*
X153619100Y-125939600D02*
X153873100Y-125939600D01*
X152349100Y-125939600D02*
X152603100Y-125939600D01*
X152349100Y-125685600D02*
X152349100Y-125939600D01*
X152349100Y-124415600D02*
X152349100Y-124669600D01*
X152603100Y-124415600D02*
X152349100Y-124415600D01*
G04 #@! TO.C,PAD24*
X164033100Y-119335600D02*
X163779100Y-119335600D01*
X164033100Y-119589600D02*
X164033100Y-119335600D01*
X164033100Y-120859600D02*
X164033100Y-120605600D01*
X163779100Y-120859600D02*
X164033100Y-120859600D01*
X162509100Y-120859600D02*
X162763100Y-120859600D01*
X162509100Y-120605600D02*
X162509100Y-120859600D01*
X162509100Y-119335600D02*
X162509100Y-119589600D01*
X162763100Y-119335600D02*
X162509100Y-119335600D01*
G04 #@! TO.C,PAD25*
X161493100Y-119335600D02*
X161239100Y-119335600D01*
X161493100Y-119589600D02*
X161493100Y-119335600D01*
X161493100Y-120859600D02*
X161493100Y-120605600D01*
X161239100Y-120859600D02*
X161493100Y-120859600D01*
X159969100Y-120859600D02*
X160223100Y-120859600D01*
X159969100Y-120605600D02*
X159969100Y-120859600D01*
X159969100Y-119335600D02*
X159969100Y-119589600D01*
X160223100Y-119335600D02*
X159969100Y-119335600D01*
G04 #@! TO.C,PAD26*
X158953100Y-119335600D02*
X158699100Y-119335600D01*
X158953100Y-119589600D02*
X158953100Y-119335600D01*
X158953100Y-120859600D02*
X158953100Y-120605600D01*
X158699100Y-120859600D02*
X158953100Y-120859600D01*
X157429100Y-120859600D02*
X157683100Y-120859600D01*
X157429100Y-120605600D02*
X157429100Y-120859600D01*
X157429100Y-119335600D02*
X157429100Y-119589600D01*
X157683100Y-119335600D02*
X157429100Y-119335600D01*
G04 #@! TO.C,PAD27*
X156413100Y-119335600D02*
X156159100Y-119335600D01*
X156413100Y-119589600D02*
X156413100Y-119335600D01*
X156413100Y-120859600D02*
X156413100Y-120605600D01*
X156159100Y-120859600D02*
X156413100Y-120859600D01*
X154889100Y-120859600D02*
X155143100Y-120859600D01*
X154889100Y-120605600D02*
X154889100Y-120859600D01*
X154889100Y-119335600D02*
X154889100Y-119589600D01*
X155143100Y-119335600D02*
X154889100Y-119335600D01*
G04 #@! TO.C,PAD28*
X153873100Y-119335600D02*
X153619100Y-119335600D01*
X153873100Y-119589600D02*
X153873100Y-119335600D01*
X153873100Y-120859600D02*
X153873100Y-120605600D01*
X153619100Y-120859600D02*
X153873100Y-120859600D01*
X152349100Y-120859600D02*
X152603100Y-120859600D01*
X152349100Y-120605600D02*
X152349100Y-120859600D01*
X152349100Y-119335600D02*
X152349100Y-119589600D01*
X152603100Y-119335600D02*
X152349100Y-119335600D01*
G04 #@! TO.C,PAD29*
X164033100Y-114255600D02*
X163779100Y-114255600D01*
X164033100Y-114509600D02*
X164033100Y-114255600D01*
X164033100Y-115779600D02*
X164033100Y-115525600D01*
X163779100Y-115779600D02*
X164033100Y-115779600D01*
X162509100Y-115779600D02*
X162763100Y-115779600D01*
X162509100Y-115525600D02*
X162509100Y-115779600D01*
X162509100Y-114255600D02*
X162509100Y-114509600D01*
X162763100Y-114255600D02*
X162509100Y-114255600D01*
G04 #@! TO.C,PAD3*
X170383100Y-91141600D02*
X170129100Y-91141600D01*
X170383100Y-91395600D02*
X170383100Y-91141600D01*
X170383100Y-92665600D02*
X170383100Y-92411600D01*
X170129100Y-92665600D02*
X170383100Y-92665600D01*
X168859100Y-92665600D02*
X169113100Y-92665600D01*
X168859100Y-92411600D02*
X168859100Y-92665600D01*
X168859100Y-91141600D02*
X168859100Y-91395600D01*
X169113100Y-91141600D02*
X168859100Y-91141600D01*
G04 #@! TO.C,PAD30*
X161493100Y-114255600D02*
X161239100Y-114255600D01*
X161493100Y-114509600D02*
X161493100Y-114255600D01*
X161493100Y-115779600D02*
X161493100Y-115525600D01*
X161239100Y-115779600D02*
X161493100Y-115779600D01*
X159969100Y-115779600D02*
X160223100Y-115779600D01*
X159969100Y-115525600D02*
X159969100Y-115779600D01*
X159969100Y-114255600D02*
X159969100Y-114509600D01*
X160223100Y-114255600D02*
X159969100Y-114255600D01*
G04 #@! TO.C,PAD31*
X158953100Y-114255600D02*
X158699100Y-114255600D01*
X158953100Y-114509600D02*
X158953100Y-114255600D01*
X158953100Y-115779600D02*
X158953100Y-115525600D01*
X158699100Y-115779600D02*
X158953100Y-115779600D01*
X157429100Y-115779600D02*
X157683100Y-115779600D01*
X157429100Y-115525600D02*
X157429100Y-115779600D01*
X157429100Y-114255600D02*
X157429100Y-114509600D01*
X157683100Y-114255600D02*
X157429100Y-114255600D01*
G04 #@! TO.C,PAD32*
X156413100Y-114255600D02*
X156159100Y-114255600D01*
X156413100Y-114509600D02*
X156413100Y-114255600D01*
X156413100Y-115779600D02*
X156413100Y-115525600D01*
X156159100Y-115779600D02*
X156413100Y-115779600D01*
X154889100Y-115779600D02*
X155143100Y-115779600D01*
X154889100Y-115525600D02*
X154889100Y-115779600D01*
X154889100Y-114255600D02*
X154889100Y-114509600D01*
X155143100Y-114255600D02*
X154889100Y-114255600D01*
G04 #@! TO.C,PAD33*
X153873100Y-114255600D02*
X153619100Y-114255600D01*
X153873100Y-114509600D02*
X153873100Y-114255600D01*
X153873100Y-115779600D02*
X153873100Y-115525600D01*
X153619100Y-115779600D02*
X153873100Y-115779600D01*
X152349100Y-115779600D02*
X152603100Y-115779600D01*
X152349100Y-115525600D02*
X152349100Y-115779600D01*
X152349100Y-114255600D02*
X152349100Y-114509600D01*
X152603100Y-114255600D02*
X152349100Y-114255600D01*
G04 #@! TO.C,PAD34*
X164033100Y-124415600D02*
X163779100Y-124415600D01*
X164033100Y-124669600D02*
X164033100Y-124415600D01*
X164033100Y-125939600D02*
X164033100Y-125685600D01*
X163779100Y-125939600D02*
X164033100Y-125939600D01*
X162509100Y-125939600D02*
X162763100Y-125939600D01*
X162509100Y-125685600D02*
X162509100Y-125939600D01*
X162509100Y-124415600D02*
X162509100Y-124669600D01*
X162763100Y-124415600D02*
X162509100Y-124415600D01*
G04 #@! TO.C,PAD35*
X161493100Y-124415600D02*
X161239100Y-124415600D01*
X161493100Y-124669600D02*
X161493100Y-124415600D01*
X161493100Y-125939600D02*
X161493100Y-125685600D01*
X161239100Y-125939600D02*
X161493100Y-125939600D01*
X159969100Y-125939600D02*
X160223100Y-125939600D01*
X159969100Y-125685600D02*
X159969100Y-125939600D01*
X159969100Y-124415600D02*
X159969100Y-124669600D01*
X160223100Y-124415600D02*
X159969100Y-124415600D01*
G04 #@! TO.C,PAD36*
X158953100Y-124415600D02*
X158699100Y-124415600D01*
X158953100Y-124669600D02*
X158953100Y-124415600D01*
X158953100Y-125939600D02*
X158953100Y-125685600D01*
X158699100Y-125939600D02*
X158953100Y-125939600D01*
X157429100Y-125939600D02*
X157683100Y-125939600D01*
X157429100Y-125685600D02*
X157429100Y-125939600D01*
X157429100Y-124415600D02*
X157429100Y-124669600D01*
X157683100Y-124415600D02*
X157429100Y-124415600D01*
G04 #@! TO.C,PAD37*
X156413100Y-124415600D02*
X156159100Y-124415600D01*
X156413100Y-124669600D02*
X156413100Y-124415600D01*
X156413100Y-125939600D02*
X156413100Y-125685600D01*
X156159100Y-125939600D02*
X156413100Y-125939600D01*
X154889100Y-125939600D02*
X155143100Y-125939600D01*
X154889100Y-125685600D02*
X154889100Y-125939600D01*
X154889100Y-124415600D02*
X154889100Y-124669600D01*
X155143100Y-124415600D02*
X154889100Y-124415600D01*
G04 #@! TO.C,PAD38*
X166573100Y-114255600D02*
X166319100Y-114255600D01*
X166573100Y-114509600D02*
X166573100Y-114255600D01*
X166573100Y-115779600D02*
X166573100Y-115525600D01*
X166319100Y-115779600D02*
X166573100Y-115779600D01*
X165049100Y-115779600D02*
X165303100Y-115779600D01*
X165049100Y-115525600D02*
X165049100Y-115779600D01*
X165049100Y-114255600D02*
X165049100Y-114509600D01*
X165303100Y-114255600D02*
X165049100Y-114255600D01*
G04 #@! TO.C,PAD39*
X166573100Y-124415600D02*
X166319100Y-124415600D01*
X166573100Y-124669600D02*
X166573100Y-124415600D01*
X166573100Y-125939600D02*
X166573100Y-125685600D01*
X166319100Y-125939600D02*
X166573100Y-125939600D01*
X165049100Y-125939600D02*
X165303100Y-125939600D01*
X165049100Y-125685600D02*
X165049100Y-125939600D01*
X165049100Y-124415600D02*
X165049100Y-124669600D01*
X165303100Y-124415600D02*
X165049100Y-124415600D01*
G04 #@! TO.C,PAD4*
X170383100Y-88601600D02*
X170129100Y-88601600D01*
X170383100Y-88855600D02*
X170383100Y-88601600D01*
X170383100Y-90125600D02*
X170383100Y-89871600D01*
X170129100Y-90125600D02*
X170383100Y-90125600D01*
X168859100Y-90125600D02*
X169113100Y-90125600D01*
X168859100Y-89871600D02*
X168859100Y-90125600D01*
X168859100Y-88601600D02*
X168859100Y-88855600D01*
X169113100Y-88601600D02*
X168859100Y-88601600D01*
G04 #@! TO.C,PAD5*
X170383100Y-86061600D02*
X170129100Y-86061600D01*
X170383100Y-86315600D02*
X170383100Y-86061600D01*
X170383100Y-87585600D02*
X170383100Y-87331600D01*
X170129100Y-87585600D02*
X170383100Y-87585600D01*
X168859100Y-87585600D02*
X169113100Y-87585600D01*
X168859100Y-87331600D02*
X168859100Y-87585600D01*
X168859100Y-86061600D02*
X168859100Y-86315600D01*
X169113100Y-86061600D02*
X168859100Y-86061600D01*
G04 #@! TO.C,PAD6*
X170383100Y-83521600D02*
X170129100Y-83521600D01*
X170383100Y-83775600D02*
X170383100Y-83521600D01*
X170383100Y-85045600D02*
X170383100Y-84791600D01*
X170129100Y-85045600D02*
X170383100Y-85045600D01*
X168859100Y-85045600D02*
X169113100Y-85045600D01*
X168859100Y-84791600D02*
X168859100Y-85045600D01*
X168859100Y-83521600D02*
X168859100Y-83775600D01*
X169113100Y-83521600D02*
X168859100Y-83521600D01*
G04 #@! TO.C,PAD7*
X151333100Y-116795600D02*
X151079100Y-116795600D01*
X151333100Y-117049600D02*
X151333100Y-116795600D01*
X151333100Y-118319600D02*
X151333100Y-118065600D01*
X151079100Y-118319600D02*
X151333100Y-118319600D01*
X149809100Y-118319600D02*
X150063100Y-118319600D01*
X149809100Y-118065600D02*
X149809100Y-118319600D01*
X149809100Y-116795600D02*
X149809100Y-117049600D01*
X150063100Y-116795600D02*
X149809100Y-116795600D01*
G04 #@! TO.C,PAD8*
X151333100Y-114255600D02*
X151079100Y-114255600D01*
X151333100Y-114509600D02*
X151333100Y-114255600D01*
X151333100Y-115779600D02*
X151333100Y-115525600D01*
X151079100Y-115779600D02*
X151333100Y-115779600D01*
X149809100Y-115779600D02*
X150063100Y-115779600D01*
X149809100Y-115525600D02*
X149809100Y-115779600D01*
X149809100Y-114255600D02*
X149809100Y-114509600D01*
X150063100Y-114255600D02*
X149809100Y-114255600D01*
G04 #@! TO.C,PAD9*
X151333100Y-111715600D02*
X151079100Y-111715600D01*
X151333100Y-111969600D02*
X151333100Y-111715600D01*
X151333100Y-113239600D02*
X151333100Y-112985600D01*
X151079100Y-113239600D02*
X151333100Y-113239600D01*
X149809100Y-113239600D02*
X150063100Y-113239600D01*
X149809100Y-112985600D02*
X149809100Y-113239600D01*
X149809100Y-111715600D02*
X149809100Y-111969600D01*
X150063100Y-111715600D02*
X149809100Y-111715600D01*
G04 #@! TO.C,R10*
X162382100Y-112858600D02*
X162001100Y-112858600D01*
X162382100Y-110572600D02*
X162001100Y-110572600D01*
X161874100Y-112731600D02*
X157048100Y-112731600D01*
X161874100Y-112731600D02*
X162001100Y-112858600D01*
X161874100Y-110699600D02*
X157048100Y-110699600D01*
X161874100Y-110699600D02*
X162001100Y-110572600D01*
X157048100Y-112731600D02*
X156921100Y-112858600D01*
X156540100Y-112858600D02*
X156921100Y-112858600D01*
X157048100Y-110699600D02*
X156921100Y-110572600D01*
X156540100Y-110572600D02*
X156921100Y-110572600D01*
X162636100Y-110826600D02*
G75*
G03X162382100Y-110572600I-254000J0D01*
G01*
X162636100Y-112604600D02*
G75*
G02X162382100Y-112858600I-254000J0D01*
G01*
X156540100Y-112858600D02*
G75*
G02X156286100Y-112604600I0J254000D01*
G01*
X156540100Y-110572600D02*
G75*
G03X156286100Y-110826600I0J-254000D01*
G01*
G04 #@! TO.C,R5*
X157048100Y-98634600D02*
X156667100Y-98634600D01*
X157048100Y-96348600D02*
X156667100Y-96348600D01*
X156540100Y-98507600D02*
X151714100Y-98507600D01*
X156540100Y-98507600D02*
X156667100Y-98634600D01*
X156540100Y-96475600D02*
X151714100Y-96475600D01*
X156540100Y-96475600D02*
X156667100Y-96348600D01*
X151714100Y-98507600D02*
X151587100Y-98634600D01*
X151206100Y-98634600D02*
X151587100Y-98634600D01*
X151714100Y-96475600D02*
X151587100Y-96348600D01*
X151206100Y-96348600D02*
X151587100Y-96348600D01*
X157302100Y-96602600D02*
G75*
G03X157048100Y-96348600I-254000J0D01*
G01*
X157302100Y-98380600D02*
G75*
G02X157048100Y-98634600I-254000J0D01*
G01*
X151206100Y-98634600D02*
G75*
G02X150952100Y-98380600I0J254000D01*
G01*
X151206100Y-96348600D02*
G75*
G03X150952100Y-96602600I0J-254000D01*
G01*
G04 #@! TO.C,R3*
X157048100Y-87458600D02*
X156667100Y-87458600D01*
X157048100Y-85172600D02*
X156667100Y-85172600D01*
X156540100Y-87331600D02*
X151714100Y-87331600D01*
X156540100Y-87331600D02*
X156667100Y-87458600D01*
X156540100Y-85299600D02*
X151714100Y-85299600D01*
X156540100Y-85299600D02*
X156667100Y-85172600D01*
X151714100Y-87331600D02*
X151587100Y-87458600D01*
X151206100Y-87458600D02*
X151587100Y-87458600D01*
X151714100Y-85299600D02*
X151587100Y-85172600D01*
X151206100Y-85172600D02*
X151587100Y-85172600D01*
X157302100Y-85426600D02*
G75*
G03X157048100Y-85172600I-254000J0D01*
G01*
X157302100Y-87204600D02*
G75*
G02X157048100Y-87458600I-254000J0D01*
G01*
X151206100Y-87458600D02*
G75*
G02X150952100Y-87204600I0J254000D01*
G01*
X151206100Y-85172600D02*
G75*
G03X150952100Y-85426600I0J-254000D01*
G01*
G04 #@! TO.C,R4*
X157048100Y-93046600D02*
X156667100Y-93046600D01*
X157048100Y-90760600D02*
X156667100Y-90760600D01*
X156540100Y-92919600D02*
X151714100Y-92919600D01*
X156540100Y-92919600D02*
X156667100Y-93046600D01*
X156540100Y-90887600D02*
X151714100Y-90887600D01*
X156540100Y-90887600D02*
X156667100Y-90760600D01*
X151714100Y-92919600D02*
X151587100Y-93046600D01*
X151206100Y-93046600D02*
X151587100Y-93046600D01*
X151714100Y-90887600D02*
X151587100Y-90760600D01*
X151206100Y-90760600D02*
X151587100Y-90760600D01*
X157302100Y-91014600D02*
G75*
G03X157048100Y-90760600I-254000J0D01*
G01*
X157302100Y-92792600D02*
G75*
G02X157048100Y-93046600I-254000J0D01*
G01*
X151206100Y-93046600D02*
G75*
G02X150952100Y-92792600I0J254000D01*
G01*
X151206100Y-90760600D02*
G75*
G03X150952100Y-91014600I0J-254000D01*
G01*
G04 #@! TO.C,R6*
X162382100Y-101682600D02*
X162001100Y-101682600D01*
X162382100Y-99396600D02*
X162001100Y-99396600D01*
X161874100Y-101555600D02*
X157048100Y-101555600D01*
X161874100Y-101555600D02*
X162001100Y-101682600D01*
X161874100Y-99523600D02*
X157048100Y-99523600D01*
X161874100Y-99523600D02*
X162001100Y-99396600D01*
X157048100Y-101555600D02*
X156921100Y-101682600D01*
X156540100Y-101682600D02*
X156921100Y-101682600D01*
X157048100Y-99523600D02*
X156921100Y-99396600D01*
X156540100Y-99396600D02*
X156921100Y-99396600D01*
X162636100Y-99650600D02*
G75*
G03X162382100Y-99396600I-254000J0D01*
G01*
X162636100Y-101428600D02*
G75*
G02X162382100Y-101682600I-254000J0D01*
G01*
X156540100Y-101682600D02*
G75*
G02X156286100Y-101428600I0J254000D01*
G01*
X156540100Y-99396600D02*
G75*
G03X156286100Y-99650600I0J-254000D01*
G01*
G04 #@! TO.C,R7*
X162382100Y-104476600D02*
X162001100Y-104476600D01*
X162382100Y-102190600D02*
X162001100Y-102190600D01*
X161874100Y-104349600D02*
X157048100Y-104349600D01*
X161874100Y-104349600D02*
X162001100Y-104476600D01*
X161874100Y-102317600D02*
X157048100Y-102317600D01*
X161874100Y-102317600D02*
X162001100Y-102190600D01*
X157048100Y-104349600D02*
X156921100Y-104476600D01*
X156540100Y-104476600D02*
X156921100Y-104476600D01*
X157048100Y-102317600D02*
X156921100Y-102190600D01*
X156540100Y-102190600D02*
X156921100Y-102190600D01*
X162636100Y-102444600D02*
G75*
G03X162382100Y-102190600I-254000J0D01*
G01*
X162636100Y-104222600D02*
G75*
G02X162382100Y-104476600I-254000J0D01*
G01*
X156540100Y-104476600D02*
G75*
G02X156286100Y-104222600I0J254000D01*
G01*
X156540100Y-102190600D02*
G75*
G03X156286100Y-102444600I0J-254000D01*
G01*
G04 #@! TO.C,R8*
X162382100Y-107270600D02*
X162001100Y-107270600D01*
X162382100Y-104984600D02*
X162001100Y-104984600D01*
X161874100Y-107143600D02*
X157048100Y-107143600D01*
X161874100Y-107143600D02*
X162001100Y-107270600D01*
X161874100Y-105111600D02*
X157048100Y-105111600D01*
X161874100Y-105111600D02*
X162001100Y-104984600D01*
X157048100Y-107143600D02*
X156921100Y-107270600D01*
X156540100Y-107270600D02*
X156921100Y-107270600D01*
X157048100Y-105111600D02*
X156921100Y-104984600D01*
X156540100Y-104984600D02*
X156921100Y-104984600D01*
X162636100Y-105238600D02*
G75*
G03X162382100Y-104984600I-254000J0D01*
G01*
X162636100Y-107016600D02*
G75*
G02X162382100Y-107270600I-254000J0D01*
G01*
X156540100Y-107270600D02*
G75*
G02X156286100Y-107016600I0J254000D01*
G01*
X156540100Y-104984600D02*
G75*
G03X156286100Y-105238600I0J-254000D01*
G01*
G04 #@! TO.C,R9*
X162382100Y-110064600D02*
X162001100Y-110064600D01*
X162382100Y-107778600D02*
X162001100Y-107778600D01*
X161874100Y-109937600D02*
X157048100Y-109937600D01*
X161874100Y-109937600D02*
X162001100Y-110064600D01*
X161874100Y-107905600D02*
X157048100Y-107905600D01*
X161874100Y-107905600D02*
X162001100Y-107778600D01*
X157048100Y-109937600D02*
X156921100Y-110064600D01*
X156540100Y-110064600D02*
X156921100Y-110064600D01*
X157048100Y-107905600D02*
X156921100Y-107778600D01*
X156540100Y-107778600D02*
X156921100Y-107778600D01*
X162636100Y-108032600D02*
G75*
G03X162382100Y-107778600I-254000J0D01*
G01*
X162636100Y-109810600D02*
G75*
G02X162382100Y-110064600I-254000J0D01*
G01*
X156540100Y-110064600D02*
G75*
G02X156286100Y-109810600I0J254000D01*
G01*
X156540100Y-107778600D02*
G75*
G03X156286100Y-108032600I0J-254000D01*
G01*
G04 #@! TO.C,PAD40*
X193243100Y-94951600D02*
X192989100Y-94951600D01*
X193243100Y-95205600D02*
X193243100Y-94951600D01*
X193243100Y-96475600D02*
X193243100Y-96221600D01*
X192989100Y-96475600D02*
X193243100Y-96475600D01*
X191719100Y-96475600D02*
X191973100Y-96475600D01*
X191719100Y-96221600D02*
X191719100Y-96475600D01*
X191719100Y-94951600D02*
X191719100Y-95205600D01*
X191973100Y-94951600D02*
X191719100Y-94951600D01*
G04 #@! TO.C,PAD41*
X193243100Y-92411600D02*
X192989100Y-92411600D01*
X193243100Y-92665600D02*
X193243100Y-92411600D01*
X193243100Y-93935600D02*
X193243100Y-93681600D01*
X192989100Y-93935600D02*
X193243100Y-93935600D01*
X191719100Y-93935600D02*
X191973100Y-93935600D01*
X191719100Y-93681600D02*
X191719100Y-93935600D01*
X191719100Y-92411600D02*
X191719100Y-92665600D01*
X191973100Y-92411600D02*
X191719100Y-92411600D01*
G04 #@! TO.C,PAD42*
X193243100Y-89871600D02*
X192989100Y-89871600D01*
X193243100Y-90125600D02*
X193243100Y-89871600D01*
X193243100Y-91395600D02*
X193243100Y-91141600D01*
X192989100Y-91395600D02*
X193243100Y-91395600D01*
X191719100Y-91395600D02*
X191973100Y-91395600D01*
X191719100Y-91141600D02*
X191719100Y-91395600D01*
X191719100Y-89871600D02*
X191719100Y-90125600D01*
X191973100Y-89871600D02*
X191719100Y-89871600D01*
G04 #@! TO.C,PAD43*
X193243100Y-87331600D02*
X192989100Y-87331600D01*
X193243100Y-87585600D02*
X193243100Y-87331600D01*
X193243100Y-88855600D02*
X193243100Y-88601600D01*
X192989100Y-88855600D02*
X193243100Y-88855600D01*
X191719100Y-88855600D02*
X191973100Y-88855600D01*
X191719100Y-88601600D02*
X191719100Y-88855600D01*
X191719100Y-87331600D02*
X191719100Y-87585600D01*
X191973100Y-87331600D02*
X191719100Y-87331600D01*
G04 #@! TD*
G04 #@! TO.C,DSS62*
D16*
X150322480Y-81801542D02*
X150322480Y-81222422D01*
X150460366Y-81222422D01*
X150543097Y-81250000D01*
X150598251Y-81305154D01*
X150625829Y-81360308D01*
X150653406Y-81470617D01*
X150653406Y-81553348D01*
X150625829Y-81663657D01*
X150598251Y-81718811D01*
X150543097Y-81773965D01*
X150460366Y-81801542D01*
X150322480Y-81801542D01*
X150874023Y-81773965D02*
X150956754Y-81801542D01*
X151094640Y-81801542D01*
X151149794Y-81773965D01*
X151177371Y-81746388D01*
X151204949Y-81691234D01*
X151204949Y-81636080D01*
X151177371Y-81580925D01*
X151149794Y-81553348D01*
X151094640Y-81525771D01*
X150984331Y-81498194D01*
X150929177Y-81470617D01*
X150901600Y-81443040D01*
X150874023Y-81387885D01*
X150874023Y-81332731D01*
X150901600Y-81277577D01*
X150929177Y-81250000D01*
X150984331Y-81222422D01*
X151122217Y-81222422D01*
X151204949Y-81250000D01*
X151425566Y-81773965D02*
X151508297Y-81801542D01*
X151646183Y-81801542D01*
X151701337Y-81773965D01*
X151728914Y-81746388D01*
X151756491Y-81691234D01*
X151756491Y-81636080D01*
X151728914Y-81580925D01*
X151701337Y-81553348D01*
X151646183Y-81525771D01*
X151535874Y-81498194D01*
X151480720Y-81470617D01*
X151453143Y-81443040D01*
X151425566Y-81387885D01*
X151425566Y-81332731D01*
X151453143Y-81277577D01*
X151480720Y-81250000D01*
X151535874Y-81222422D01*
X151673760Y-81222422D01*
X151756491Y-81250000D01*
X152252880Y-81222422D02*
X152142571Y-81222422D01*
X152087417Y-81250000D01*
X152059840Y-81277577D01*
X152004686Y-81360308D01*
X151977109Y-81470617D01*
X151977109Y-81691234D01*
X152004686Y-81746388D01*
X152032263Y-81773965D01*
X152087417Y-81801542D01*
X152197726Y-81801542D01*
X152252880Y-81773965D01*
X152280457Y-81746388D01*
X152308034Y-81691234D01*
X152308034Y-81553348D01*
X152280457Y-81498194D01*
X152252880Y-81470617D01*
X152197726Y-81443040D01*
X152087417Y-81443040D01*
X152032263Y-81470617D01*
X152004686Y-81498194D01*
X151977109Y-81553348D01*
X152528651Y-81277577D02*
X152556229Y-81250000D01*
X152611383Y-81222422D01*
X152749269Y-81222422D01*
X152804423Y-81250000D01*
X152832000Y-81277577D01*
X152859577Y-81332731D01*
X152859577Y-81387885D01*
X152832000Y-81470617D01*
X152501074Y-81801542D01*
X152859577Y-81801542D01*
D17*
X153684357Y-81257142D02*
X153884357Y-81257142D01*
X153970071Y-81571428D02*
X153684357Y-81571428D01*
X153684357Y-80971428D01*
X153970071Y-80971428D01*
X154227214Y-81571428D02*
X154227214Y-80971428D01*
X154427214Y-81400000D01*
X154627214Y-80971428D01*
X154627214Y-81571428D01*
X154912928Y-81571428D02*
X154912928Y-80971428D01*
X155398642Y-81257142D02*
X155198642Y-81257142D01*
X155198642Y-81571428D02*
X155198642Y-80971428D01*
X155484357Y-80971428D01*
X155712928Y-81571428D02*
X155712928Y-80971428D01*
X156284357Y-81571428D02*
X155998642Y-81571428D01*
X155998642Y-80971428D01*
X156398642Y-80971428D02*
X156741500Y-80971428D01*
X156570071Y-81571428D02*
X156570071Y-80971428D01*
X156941500Y-81257142D02*
X157141500Y-81257142D01*
X157227214Y-81571428D02*
X156941500Y-81571428D01*
X156941500Y-80971428D01*
X157227214Y-80971428D01*
X157827214Y-81571428D02*
X157627214Y-81285714D01*
X157484357Y-81571428D02*
X157484357Y-80971428D01*
X157712928Y-80971428D01*
X157770071Y-81000000D01*
X157798642Y-81028571D01*
X157827214Y-81085714D01*
X157827214Y-81171428D01*
X157798642Y-81228571D01*
X157770071Y-81257142D01*
X157712928Y-81285714D01*
X157484357Y-81285714D01*
G04 #@! TO.C,DSS63*
D16*
X150072480Y-88551542D02*
X150072480Y-87972422D01*
X150210366Y-87972422D01*
X150293097Y-88000000D01*
X150348251Y-88055154D01*
X150375829Y-88110308D01*
X150403406Y-88220617D01*
X150403406Y-88303348D01*
X150375829Y-88413657D01*
X150348251Y-88468811D01*
X150293097Y-88523965D01*
X150210366Y-88551542D01*
X150072480Y-88551542D01*
X150624023Y-88523965D02*
X150706754Y-88551542D01*
X150844640Y-88551542D01*
X150899794Y-88523965D01*
X150927371Y-88496388D01*
X150954949Y-88441234D01*
X150954949Y-88386080D01*
X150927371Y-88330925D01*
X150899794Y-88303348D01*
X150844640Y-88275771D01*
X150734331Y-88248194D01*
X150679177Y-88220617D01*
X150651600Y-88193040D01*
X150624023Y-88137885D01*
X150624023Y-88082731D01*
X150651600Y-88027577D01*
X150679177Y-88000000D01*
X150734331Y-87972422D01*
X150872217Y-87972422D01*
X150954949Y-88000000D01*
X151175566Y-88523965D02*
X151258297Y-88551542D01*
X151396183Y-88551542D01*
X151451337Y-88523965D01*
X151478914Y-88496388D01*
X151506491Y-88441234D01*
X151506491Y-88386080D01*
X151478914Y-88330925D01*
X151451337Y-88303348D01*
X151396183Y-88275771D01*
X151285874Y-88248194D01*
X151230720Y-88220617D01*
X151203143Y-88193040D01*
X151175566Y-88137885D01*
X151175566Y-88082731D01*
X151203143Y-88027577D01*
X151230720Y-88000000D01*
X151285874Y-87972422D01*
X151423760Y-87972422D01*
X151506491Y-88000000D01*
X152002880Y-87972422D02*
X151892571Y-87972422D01*
X151837417Y-88000000D01*
X151809840Y-88027577D01*
X151754686Y-88110308D01*
X151727109Y-88220617D01*
X151727109Y-88441234D01*
X151754686Y-88496388D01*
X151782263Y-88523965D01*
X151837417Y-88551542D01*
X151947726Y-88551542D01*
X152002880Y-88523965D01*
X152030457Y-88496388D01*
X152058034Y-88441234D01*
X152058034Y-88303348D01*
X152030457Y-88248194D01*
X152002880Y-88220617D01*
X151947726Y-88193040D01*
X151837417Y-88193040D01*
X151782263Y-88220617D01*
X151754686Y-88248194D01*
X151727109Y-88303348D01*
X152251074Y-87972422D02*
X152609577Y-87972422D01*
X152416537Y-88193040D01*
X152499269Y-88193040D01*
X152554423Y-88220617D01*
X152582000Y-88248194D01*
X152609577Y-88303348D01*
X152609577Y-88441234D01*
X152582000Y-88496388D01*
X152554423Y-88523965D01*
X152499269Y-88551542D01*
X152333806Y-88551542D01*
X152278651Y-88523965D01*
X152251074Y-88496388D01*
D17*
X161007142Y-91315642D02*
X161007142Y-91115642D01*
X161321428Y-91029928D02*
X161321428Y-91315642D01*
X160721428Y-91315642D01*
X160721428Y-91029928D01*
X161321428Y-90772785D02*
X160721428Y-90772785D01*
X161150000Y-90572785D01*
X160721428Y-90372785D01*
X161321428Y-90372785D01*
X161321428Y-90087071D02*
X160721428Y-90087071D01*
X161007142Y-89601357D02*
X161007142Y-89801357D01*
X161321428Y-89801357D02*
X160721428Y-89801357D01*
X160721428Y-89515642D01*
X161321428Y-89287071D02*
X160721428Y-89287071D01*
X161321428Y-88715642D02*
X161321428Y-89001357D01*
X160721428Y-89001357D01*
X160721428Y-88601357D02*
X160721428Y-88258500D01*
X161321428Y-88429928D02*
X160721428Y-88429928D01*
X161007142Y-88058500D02*
X161007142Y-87858500D01*
X161321428Y-87772785D02*
X161321428Y-88058500D01*
X160721428Y-88058500D01*
X160721428Y-87772785D01*
X161321428Y-87172785D02*
X161035714Y-87372785D01*
X161321428Y-87515642D02*
X160721428Y-87515642D01*
X160721428Y-87287071D01*
X160750000Y-87229928D01*
X160778571Y-87201357D01*
X160835714Y-87172785D01*
X160921428Y-87172785D01*
X160978571Y-87201357D01*
X161007142Y-87229928D01*
X161035714Y-87287071D01*
X161035714Y-87515642D01*
G04 #@! TO.C,DSS64*
D16*
X149572480Y-94551542D02*
X149572480Y-93972422D01*
X149710366Y-93972422D01*
X149793097Y-94000000D01*
X149848251Y-94055154D01*
X149875829Y-94110308D01*
X149903406Y-94220617D01*
X149903406Y-94303348D01*
X149875829Y-94413657D01*
X149848251Y-94468811D01*
X149793097Y-94523965D01*
X149710366Y-94551542D01*
X149572480Y-94551542D01*
X150124023Y-94523965D02*
X150206754Y-94551542D01*
X150344640Y-94551542D01*
X150399794Y-94523965D01*
X150427371Y-94496388D01*
X150454949Y-94441234D01*
X150454949Y-94386080D01*
X150427371Y-94330925D01*
X150399794Y-94303348D01*
X150344640Y-94275771D01*
X150234331Y-94248194D01*
X150179177Y-94220617D01*
X150151600Y-94193040D01*
X150124023Y-94137885D01*
X150124023Y-94082731D01*
X150151600Y-94027577D01*
X150179177Y-94000000D01*
X150234331Y-93972422D01*
X150372217Y-93972422D01*
X150454949Y-94000000D01*
X150675566Y-94523965D02*
X150758297Y-94551542D01*
X150896183Y-94551542D01*
X150951337Y-94523965D01*
X150978914Y-94496388D01*
X151006491Y-94441234D01*
X151006491Y-94386080D01*
X150978914Y-94330925D01*
X150951337Y-94303348D01*
X150896183Y-94275771D01*
X150785874Y-94248194D01*
X150730720Y-94220617D01*
X150703143Y-94193040D01*
X150675566Y-94137885D01*
X150675566Y-94082731D01*
X150703143Y-94027577D01*
X150730720Y-94000000D01*
X150785874Y-93972422D01*
X150923760Y-93972422D01*
X151006491Y-94000000D01*
X151502880Y-93972422D02*
X151392571Y-93972422D01*
X151337417Y-94000000D01*
X151309840Y-94027577D01*
X151254686Y-94110308D01*
X151227109Y-94220617D01*
X151227109Y-94441234D01*
X151254686Y-94496388D01*
X151282263Y-94523965D01*
X151337417Y-94551542D01*
X151447726Y-94551542D01*
X151502880Y-94523965D01*
X151530457Y-94496388D01*
X151558034Y-94441234D01*
X151558034Y-94303348D01*
X151530457Y-94248194D01*
X151502880Y-94220617D01*
X151447726Y-94193040D01*
X151337417Y-94193040D01*
X151282263Y-94220617D01*
X151254686Y-94248194D01*
X151227109Y-94303348D01*
X152054423Y-94165462D02*
X152054423Y-94551542D01*
X151916537Y-93944845D02*
X151778651Y-94358502D01*
X152137154Y-94358502D01*
D17*
X161007142Y-96565642D02*
X161007142Y-96365642D01*
X161321428Y-96279928D02*
X161321428Y-96565642D01*
X160721428Y-96565642D01*
X160721428Y-96279928D01*
X161321428Y-96022785D02*
X160721428Y-96022785D01*
X161150000Y-95822785D01*
X160721428Y-95622785D01*
X161321428Y-95622785D01*
X161321428Y-95337071D02*
X160721428Y-95337071D01*
X161007142Y-94851357D02*
X161007142Y-95051357D01*
X161321428Y-95051357D02*
X160721428Y-95051357D01*
X160721428Y-94765642D01*
X161321428Y-94537071D02*
X160721428Y-94537071D01*
X161321428Y-93965642D02*
X161321428Y-94251357D01*
X160721428Y-94251357D01*
X160721428Y-93851357D02*
X160721428Y-93508500D01*
X161321428Y-93679928D02*
X160721428Y-93679928D01*
X161007142Y-93308500D02*
X161007142Y-93108500D01*
X161321428Y-93022785D02*
X161321428Y-93308500D01*
X160721428Y-93308500D01*
X160721428Y-93022785D01*
X161321428Y-92422785D02*
X161035714Y-92622785D01*
X161321428Y-92765642D02*
X160721428Y-92765642D01*
X160721428Y-92537071D01*
X160750000Y-92479928D01*
X160778571Y-92451357D01*
X160835714Y-92422785D01*
X160921428Y-92422785D01*
X160978571Y-92451357D01*
X161007142Y-92479928D01*
X161035714Y-92537071D01*
X161035714Y-92765642D01*
G04 #@! TO.C,DSS65*
D18*
X184431857Y-128221428D02*
X184431857Y-127621428D01*
X184574714Y-127621428D01*
X184660428Y-127650000D01*
X184717571Y-127707142D01*
X184746142Y-127764285D01*
X184774714Y-127878571D01*
X184774714Y-127964285D01*
X184746142Y-128078571D01*
X184717571Y-128135714D01*
X184660428Y-128192857D01*
X184574714Y-128221428D01*
X184431857Y-128221428D01*
X185003285Y-128192857D02*
X185089000Y-128221428D01*
X185231857Y-128221428D01*
X185289000Y-128192857D01*
X185317571Y-128164285D01*
X185346142Y-128107142D01*
X185346142Y-128050000D01*
X185317571Y-127992857D01*
X185289000Y-127964285D01*
X185231857Y-127935714D01*
X185117571Y-127907142D01*
X185060428Y-127878571D01*
X185031857Y-127850000D01*
X185003285Y-127792857D01*
X185003285Y-127735714D01*
X185031857Y-127678571D01*
X185060428Y-127650000D01*
X185117571Y-127621428D01*
X185260428Y-127621428D01*
X185346142Y-127650000D01*
X185574714Y-128192857D02*
X185660428Y-128221428D01*
X185803285Y-128221428D01*
X185860428Y-128192857D01*
X185889000Y-128164285D01*
X185917571Y-128107142D01*
X185917571Y-128050000D01*
X185889000Y-127992857D01*
X185860428Y-127964285D01*
X185803285Y-127935714D01*
X185689000Y-127907142D01*
X185631857Y-127878571D01*
X185603285Y-127850000D01*
X185574714Y-127792857D01*
X185574714Y-127735714D01*
X185603285Y-127678571D01*
X185631857Y-127650000D01*
X185689000Y-127621428D01*
X185831857Y-127621428D01*
X185917571Y-127650000D01*
X186431857Y-127621428D02*
X186317571Y-127621428D01*
X186260428Y-127650000D01*
X186231857Y-127678571D01*
X186174714Y-127764285D01*
X186146142Y-127878571D01*
X186146142Y-128107142D01*
X186174714Y-128164285D01*
X186203285Y-128192857D01*
X186260428Y-128221428D01*
X186374714Y-128221428D01*
X186431857Y-128192857D01*
X186460428Y-128164285D01*
X186489000Y-128107142D01*
X186489000Y-127964285D01*
X186460428Y-127907142D01*
X186431857Y-127878571D01*
X186374714Y-127850000D01*
X186260428Y-127850000D01*
X186203285Y-127878571D01*
X186174714Y-127907142D01*
X186146142Y-127964285D01*
X187031857Y-127621428D02*
X186746142Y-127621428D01*
X186717571Y-127907142D01*
X186746142Y-127878571D01*
X186803285Y-127850000D01*
X186946142Y-127850000D01*
X187003285Y-127878571D01*
X187031857Y-127907142D01*
X187060428Y-127964285D01*
X187060428Y-128107142D01*
X187031857Y-128164285D01*
X187003285Y-128192857D01*
X186946142Y-128221428D01*
X186803285Y-128221428D01*
X186746142Y-128192857D01*
X186717571Y-128164285D01*
D17*
X195407142Y-126798642D02*
X195407142Y-126598642D01*
X195721428Y-126512928D02*
X195721428Y-126798642D01*
X195121428Y-126798642D01*
X195121428Y-126512928D01*
X195721428Y-126255785D02*
X195121428Y-126255785D01*
X195550000Y-126055785D01*
X195121428Y-125855785D01*
X195721428Y-125855785D01*
X195721428Y-125570071D02*
X195121428Y-125570071D01*
X195407142Y-125084357D02*
X195407142Y-125284357D01*
X195721428Y-125284357D02*
X195121428Y-125284357D01*
X195121428Y-124998642D01*
X195721428Y-124770071D02*
X195121428Y-124770071D01*
X195721428Y-124198642D02*
X195721428Y-124484357D01*
X195121428Y-124484357D01*
X195121428Y-124084357D02*
X195121428Y-123741500D01*
X195721428Y-123912928D02*
X195121428Y-123912928D01*
X195407142Y-123541500D02*
X195407142Y-123341500D01*
X195721428Y-123255785D02*
X195721428Y-123541500D01*
X195121428Y-123541500D01*
X195121428Y-123255785D01*
X195721428Y-122655785D02*
X195435714Y-122855785D01*
X195721428Y-122998642D02*
X195121428Y-122998642D01*
X195121428Y-122770071D01*
X195150000Y-122712928D01*
X195178571Y-122684357D01*
X195235714Y-122655785D01*
X195321428Y-122655785D01*
X195378571Y-122684357D01*
X195407142Y-122712928D01*
X195435714Y-122770071D01*
X195435714Y-122998642D01*
G04 #@! TO.C,IC1*
D19*
X174734038Y-82463230D02*
X174734038Y-81691070D01*
X175542967Y-82389691D02*
X175506198Y-82426460D01*
X175395889Y-82463230D01*
X175322350Y-82463230D01*
X175212041Y-82426460D01*
X175138502Y-82352921D01*
X175101733Y-82279382D01*
X175064963Y-82132304D01*
X175064963Y-82021996D01*
X175101733Y-81874918D01*
X175138502Y-81801379D01*
X175212041Y-81727840D01*
X175322350Y-81691070D01*
X175395889Y-81691070D01*
X175506198Y-81727840D01*
X175542967Y-81764609D01*
X176278358Y-82463230D02*
X175837123Y-82463230D01*
X176057740Y-82463230D02*
X176057740Y-81691070D01*
X175984201Y-81801379D01*
X175910662Y-81874918D01*
X175837123Y-81911687D01*
G04 #@! TO.C,JP10*
X188954655Y-96441070D02*
X188954655Y-96992613D01*
X188917885Y-97102921D01*
X188844346Y-97176460D01*
X188734038Y-97213230D01*
X188660498Y-97213230D01*
X189322350Y-97213230D02*
X189322350Y-96441070D01*
X189616506Y-96441070D01*
X189690045Y-96477840D01*
X189726815Y-96514609D01*
X189763584Y-96588148D01*
X189763584Y-96698457D01*
X189726815Y-96771996D01*
X189690045Y-96808765D01*
X189616506Y-96845535D01*
X189322350Y-96845535D01*
X190498975Y-97213230D02*
X190057740Y-97213230D01*
X190278358Y-97213230D02*
X190278358Y-96441070D01*
X190204818Y-96551379D01*
X190131279Y-96624918D01*
X190057740Y-96661687D01*
X190976978Y-96441070D02*
X191050518Y-96441070D01*
X191124057Y-96477840D01*
X191160826Y-96514609D01*
X191197596Y-96588148D01*
X191234365Y-96735226D01*
X191234365Y-96919074D01*
X191197596Y-97066152D01*
X191160826Y-97139691D01*
X191124057Y-97176460D01*
X191050518Y-97213230D01*
X190976978Y-97213230D01*
X190903439Y-97176460D01*
X190866670Y-97139691D01*
X190829900Y-97066152D01*
X190793131Y-96919074D01*
X190793131Y-96735226D01*
X190829900Y-96588148D01*
X190866670Y-96514609D01*
X190903439Y-96477840D01*
X190976978Y-96441070D01*
G04 #@! TO.C,JP7*
X185258411Y-94213230D02*
X185258411Y-94764773D01*
X185221641Y-94875081D01*
X185148102Y-94948620D01*
X185037794Y-94985390D01*
X184964255Y-94985390D01*
X185626106Y-94985390D02*
X185626106Y-94213230D01*
X185920262Y-94213230D01*
X185993801Y-94250000D01*
X186030571Y-94286769D01*
X186067341Y-94360308D01*
X186067341Y-94470617D01*
X186030571Y-94544156D01*
X185993801Y-94580925D01*
X185920262Y-94617695D01*
X185626106Y-94617695D01*
X186324727Y-94213230D02*
X186839501Y-94213230D01*
X186508575Y-94985390D01*
G04 #@! TO.C,JP8*
X167454655Y-81691070D02*
X167454655Y-82242613D01*
X167417885Y-82352921D01*
X167344346Y-82426460D01*
X167234038Y-82463230D01*
X167160498Y-82463230D01*
X167822350Y-82463230D02*
X167822350Y-81691070D01*
X168116506Y-81691070D01*
X168190045Y-81727840D01*
X168226815Y-81764609D01*
X168263584Y-81838148D01*
X168263584Y-81948457D01*
X168226815Y-82021996D01*
X168190045Y-82058765D01*
X168116506Y-82095535D01*
X167822350Y-82095535D01*
X168704818Y-82021996D02*
X168631279Y-81985226D01*
X168594510Y-81948457D01*
X168557740Y-81874918D01*
X168557740Y-81838148D01*
X168594510Y-81764609D01*
X168631279Y-81727840D01*
X168704818Y-81691070D01*
X168851897Y-81691070D01*
X168925436Y-81727840D01*
X168962205Y-81764609D01*
X168998975Y-81838148D01*
X168998975Y-81874918D01*
X168962205Y-81948457D01*
X168925436Y-81985226D01*
X168851897Y-82021996D01*
X168704818Y-82021996D01*
X168631279Y-82058765D01*
X168594510Y-82095535D01*
X168557740Y-82169074D01*
X168557740Y-82316152D01*
X168594510Y-82389691D01*
X168631279Y-82426460D01*
X168704818Y-82463230D01*
X168851897Y-82463230D01*
X168925436Y-82426460D01*
X168962205Y-82389691D01*
X168998975Y-82316152D01*
X168998975Y-82169074D01*
X168962205Y-82095535D01*
X168925436Y-82058765D01*
X168851897Y-82021996D01*
G04 #@! TO.C,JP9*
X173704655Y-122441070D02*
X173704655Y-122992613D01*
X173667885Y-123102921D01*
X173594346Y-123176460D01*
X173484038Y-123213230D01*
X173410498Y-123213230D01*
X174072350Y-123213230D02*
X174072350Y-122441070D01*
X174366506Y-122441070D01*
X174440045Y-122477840D01*
X174476815Y-122514609D01*
X174513584Y-122588148D01*
X174513584Y-122698457D01*
X174476815Y-122771996D01*
X174440045Y-122808765D01*
X174366506Y-122845535D01*
X174072350Y-122845535D01*
X174881279Y-123213230D02*
X175028358Y-123213230D01*
X175101897Y-123176460D01*
X175138666Y-123139691D01*
X175212205Y-123029382D01*
X175248975Y-122882304D01*
X175248975Y-122588148D01*
X175212205Y-122514609D01*
X175175436Y-122477840D01*
X175101897Y-122441070D01*
X174954818Y-122441070D01*
X174881279Y-122477840D01*
X174844510Y-122514609D01*
X174807740Y-122588148D01*
X174807740Y-122771996D01*
X174844510Y-122845535D01*
X174881279Y-122882304D01*
X174954818Y-122919074D01*
X175101897Y-122919074D01*
X175175436Y-122882304D01*
X175212205Y-122845535D01*
X175248975Y-122771996D01*
G04 #@! TO.C,LED1*
X173397833Y-97213230D02*
X173030138Y-97213230D01*
X173030138Y-96441070D01*
X173655219Y-96808765D02*
X173912606Y-96808765D01*
X174022915Y-97213230D02*
X173655219Y-97213230D01*
X173655219Y-96441070D01*
X174022915Y-96441070D01*
X174353840Y-97213230D02*
X174353840Y-96441070D01*
X174537688Y-96441070D01*
X174647997Y-96477840D01*
X174721536Y-96551379D01*
X174758305Y-96624918D01*
X174795075Y-96771996D01*
X174795075Y-96882304D01*
X174758305Y-97029382D01*
X174721536Y-97102921D01*
X174647997Y-97176460D01*
X174537688Y-97213230D01*
X174353840Y-97213230D01*
X175530465Y-97213230D02*
X175089231Y-97213230D01*
X175309848Y-97213230D02*
X175309848Y-96441070D01*
X175236309Y-96551379D01*
X175162770Y-96624918D01*
X175089231Y-96661687D01*
G04 #@! TO.C,LED2*
X173397833Y-102213230D02*
X173030138Y-102213230D01*
X173030138Y-101441070D01*
X173655219Y-101808765D02*
X173912606Y-101808765D01*
X174022915Y-102213230D02*
X173655219Y-102213230D01*
X173655219Y-101441070D01*
X174022915Y-101441070D01*
X174353840Y-102213230D02*
X174353840Y-101441070D01*
X174537688Y-101441070D01*
X174647997Y-101477840D01*
X174721536Y-101551379D01*
X174758305Y-101624918D01*
X174795075Y-101771996D01*
X174795075Y-101882304D01*
X174758305Y-102029382D01*
X174721536Y-102102921D01*
X174647997Y-102176460D01*
X174537688Y-102213230D01*
X174353840Y-102213230D01*
X175089231Y-101514609D02*
X175126000Y-101477840D01*
X175199539Y-101441070D01*
X175383387Y-101441070D01*
X175456926Y-101477840D01*
X175493696Y-101514609D01*
X175530465Y-101588148D01*
X175530465Y-101661687D01*
X175493696Y-101771996D01*
X175052461Y-102213230D01*
X175530465Y-102213230D01*
G04 #@! TO.C,LED3*
X173397833Y-107995830D02*
X173030138Y-107995830D01*
X173030138Y-107223670D01*
X173655219Y-107591365D02*
X173912606Y-107591365D01*
X174022915Y-107995830D02*
X173655219Y-107995830D01*
X173655219Y-107223670D01*
X174022915Y-107223670D01*
X174353840Y-107995830D02*
X174353840Y-107223670D01*
X174537688Y-107223670D01*
X174647997Y-107260440D01*
X174721536Y-107333979D01*
X174758305Y-107407518D01*
X174795075Y-107554596D01*
X174795075Y-107664904D01*
X174758305Y-107811982D01*
X174721536Y-107885521D01*
X174647997Y-107959060D01*
X174537688Y-107995830D01*
X174353840Y-107995830D01*
X175052461Y-107223670D02*
X175530465Y-107223670D01*
X175273078Y-107517826D01*
X175383387Y-107517826D01*
X175456926Y-107554596D01*
X175493696Y-107591365D01*
X175530465Y-107664904D01*
X175530465Y-107848752D01*
X175493696Y-107922291D01*
X175456926Y-107959060D01*
X175383387Y-107995830D01*
X175162770Y-107995830D01*
X175089231Y-107959060D01*
X175052461Y-107922291D01*
G04 #@! TO.C,LED4*
X173397833Y-113075830D02*
X173030138Y-113075830D01*
X173030138Y-112303670D01*
X173655219Y-112671365D02*
X173912606Y-112671365D01*
X174022915Y-113075830D02*
X173655219Y-113075830D01*
X173655219Y-112303670D01*
X174022915Y-112303670D01*
X174353840Y-113075830D02*
X174353840Y-112303670D01*
X174537688Y-112303670D01*
X174647997Y-112340440D01*
X174721536Y-112413979D01*
X174758305Y-112487518D01*
X174795075Y-112634596D01*
X174795075Y-112744904D01*
X174758305Y-112891982D01*
X174721536Y-112965521D01*
X174647997Y-113039060D01*
X174537688Y-113075830D01*
X174353840Y-113075830D01*
X175456926Y-112561057D02*
X175456926Y-113075830D01*
X175273078Y-112266900D02*
X175089231Y-112818443D01*
X175567235Y-112818443D01*
G04 #@! TO.C,LED5*
X173397833Y-118155830D02*
X173030138Y-118155830D01*
X173030138Y-117383670D01*
X173655219Y-117751365D02*
X173912606Y-117751365D01*
X174022915Y-118155830D02*
X173655219Y-118155830D01*
X173655219Y-117383670D01*
X174022915Y-117383670D01*
X174353840Y-118155830D02*
X174353840Y-117383670D01*
X174537688Y-117383670D01*
X174647997Y-117420440D01*
X174721536Y-117493979D01*
X174758305Y-117567518D01*
X174795075Y-117714596D01*
X174795075Y-117824904D01*
X174758305Y-117971982D01*
X174721536Y-118045521D01*
X174647997Y-118119060D01*
X174537688Y-118155830D01*
X174353840Y-118155830D01*
X175493696Y-117383670D02*
X175126000Y-117383670D01*
X175089231Y-117751365D01*
X175126000Y-117714596D01*
X175199539Y-117677826D01*
X175383387Y-117677826D01*
X175456926Y-117714596D01*
X175493696Y-117751365D01*
X175530465Y-117824904D01*
X175530465Y-118008752D01*
X175493696Y-118082291D01*
X175456926Y-118119060D01*
X175383387Y-118155830D01*
X175199539Y-118155830D01*
X175126000Y-118119060D01*
X175089231Y-118082291D01*
G04 #@! TO.C,OK1*
X178765216Y-94523670D02*
X178912294Y-94523670D01*
X178985833Y-94560440D01*
X179059372Y-94633979D01*
X179096141Y-94781057D01*
X179096141Y-95038443D01*
X179059372Y-95185521D01*
X178985833Y-95259060D01*
X178912294Y-95295830D01*
X178765216Y-95295830D01*
X178691677Y-95259060D01*
X178618138Y-95185521D01*
X178581368Y-95038443D01*
X178581368Y-94781057D01*
X178618138Y-94633979D01*
X178691677Y-94560440D01*
X178765216Y-94523670D01*
X179427067Y-95295830D02*
X179427067Y-94523670D01*
X179868301Y-95295830D02*
X179537376Y-94854596D01*
X179868301Y-94523670D02*
X179427067Y-94964904D01*
X180603692Y-95295830D02*
X180162458Y-95295830D01*
X180383075Y-95295830D02*
X180383075Y-94523670D01*
X180309536Y-94633979D01*
X180235997Y-94707518D01*
X180162458Y-94744287D01*
G04 #@! TO.C,OK2*
X178765216Y-100873670D02*
X178912294Y-100873670D01*
X178985833Y-100910440D01*
X179059372Y-100983979D01*
X179096141Y-101131057D01*
X179096141Y-101388443D01*
X179059372Y-101535521D01*
X178985833Y-101609060D01*
X178912294Y-101645830D01*
X178765216Y-101645830D01*
X178691677Y-101609060D01*
X178618138Y-101535521D01*
X178581368Y-101388443D01*
X178581368Y-101131057D01*
X178618138Y-100983979D01*
X178691677Y-100910440D01*
X178765216Y-100873670D01*
X179427067Y-101645830D02*
X179427067Y-100873670D01*
X179868301Y-101645830D02*
X179537376Y-101204596D01*
X179868301Y-100873670D02*
X179427067Y-101314904D01*
X180162458Y-100947209D02*
X180199227Y-100910440D01*
X180272766Y-100873670D01*
X180456614Y-100873670D01*
X180530153Y-100910440D01*
X180566922Y-100947209D01*
X180603692Y-101020748D01*
X180603692Y-101094287D01*
X180566922Y-101204596D01*
X180125688Y-101645830D01*
X180603692Y-101645830D01*
G04 #@! TO.C,OK3*
X178765216Y-107223670D02*
X178912294Y-107223670D01*
X178985833Y-107260440D01*
X179059372Y-107333979D01*
X179096141Y-107481057D01*
X179096141Y-107738443D01*
X179059372Y-107885521D01*
X178985833Y-107959060D01*
X178912294Y-107995830D01*
X178765216Y-107995830D01*
X178691677Y-107959060D01*
X178618138Y-107885521D01*
X178581368Y-107738443D01*
X178581368Y-107481057D01*
X178618138Y-107333979D01*
X178691677Y-107260440D01*
X178765216Y-107223670D01*
X179427067Y-107995830D02*
X179427067Y-107223670D01*
X179868301Y-107995830D02*
X179537376Y-107554596D01*
X179868301Y-107223670D02*
X179427067Y-107664904D01*
X180125688Y-107223670D02*
X180603692Y-107223670D01*
X180346305Y-107517826D01*
X180456614Y-107517826D01*
X180530153Y-107554596D01*
X180566922Y-107591365D01*
X180603692Y-107664904D01*
X180603692Y-107848752D01*
X180566922Y-107922291D01*
X180530153Y-107959060D01*
X180456614Y-107995830D01*
X180235997Y-107995830D01*
X180162458Y-107959060D01*
X180125688Y-107922291D01*
G04 #@! TO.C,OK4*
X178765216Y-113573670D02*
X178912294Y-113573670D01*
X178985833Y-113610440D01*
X179059372Y-113683979D01*
X179096141Y-113831057D01*
X179096141Y-114088443D01*
X179059372Y-114235521D01*
X178985833Y-114309060D01*
X178912294Y-114345830D01*
X178765216Y-114345830D01*
X178691677Y-114309060D01*
X178618138Y-114235521D01*
X178581368Y-114088443D01*
X178581368Y-113831057D01*
X178618138Y-113683979D01*
X178691677Y-113610440D01*
X178765216Y-113573670D01*
X179427067Y-114345830D02*
X179427067Y-113573670D01*
X179868301Y-114345830D02*
X179537376Y-113904596D01*
X179868301Y-113573670D02*
X179427067Y-114014904D01*
X180530153Y-113831057D02*
X180530153Y-114345830D01*
X180346305Y-113536900D02*
X180162458Y-114088443D01*
X180640461Y-114088443D01*
G04 #@! TO.C,OK5*
X178765216Y-119923670D02*
X178912294Y-119923670D01*
X178985833Y-119960440D01*
X179059372Y-120033979D01*
X179096141Y-120181057D01*
X179096141Y-120438443D01*
X179059372Y-120585521D01*
X178985833Y-120659060D01*
X178912294Y-120695830D01*
X178765216Y-120695830D01*
X178691677Y-120659060D01*
X178618138Y-120585521D01*
X178581368Y-120438443D01*
X178581368Y-120181057D01*
X178618138Y-120033979D01*
X178691677Y-119960440D01*
X178765216Y-119923670D01*
X179427067Y-120695830D02*
X179427067Y-119923670D01*
X179868301Y-120695830D02*
X179537376Y-120254596D01*
X179868301Y-119923670D02*
X179427067Y-120364904D01*
X180566922Y-119923670D02*
X180199227Y-119923670D01*
X180162458Y-120291365D01*
X180199227Y-120254596D01*
X180272766Y-120217826D01*
X180456614Y-120217826D01*
X180530153Y-120254596D01*
X180566922Y-120291365D01*
X180603692Y-120364904D01*
X180603692Y-120548752D01*
X180566922Y-120622291D01*
X180530153Y-120659060D01*
X180456614Y-120695830D01*
X180272766Y-120695830D01*
X180199227Y-120659060D01*
X180162458Y-120622291D01*
G04 #@! TO.C,R10*
X152925272Y-112213230D02*
X152667885Y-111845535D01*
X152484038Y-112213230D02*
X152484038Y-111441070D01*
X152778194Y-111441070D01*
X152851733Y-111477840D01*
X152888502Y-111514609D01*
X152925272Y-111588148D01*
X152925272Y-111698457D01*
X152888502Y-111771996D01*
X152851733Y-111808765D01*
X152778194Y-111845535D01*
X152484038Y-111845535D01*
X153660662Y-112213230D02*
X153219428Y-112213230D01*
X153440045Y-112213230D02*
X153440045Y-111441070D01*
X153366506Y-111551379D01*
X153292967Y-111624918D01*
X153219428Y-111661687D01*
X154138666Y-111441070D02*
X154212205Y-111441070D01*
X154285744Y-111477840D01*
X154322514Y-111514609D01*
X154359283Y-111588148D01*
X154396053Y-111735226D01*
X154396053Y-111919074D01*
X154359283Y-112066152D01*
X154322514Y-112139691D01*
X154285744Y-112176460D01*
X154212205Y-112213230D01*
X154138666Y-112213230D01*
X154065127Y-112176460D01*
X154028358Y-112139691D01*
X153991588Y-112066152D01*
X153954818Y-111919074D01*
X153954818Y-111735226D01*
X153991588Y-111588148D01*
X154028358Y-111514609D01*
X154065127Y-111477840D01*
X154138666Y-111441070D01*
G04 #@! TO.C,R5*
X159675272Y-98463230D02*
X159417885Y-98095535D01*
X159234038Y-98463230D02*
X159234038Y-97691070D01*
X159528194Y-97691070D01*
X159601733Y-97727840D01*
X159638502Y-97764609D01*
X159675272Y-97838148D01*
X159675272Y-97948457D01*
X159638502Y-98021996D01*
X159601733Y-98058765D01*
X159528194Y-98095535D01*
X159234038Y-98095535D01*
X160373893Y-97691070D02*
X160006198Y-97691070D01*
X159969428Y-98058765D01*
X160006198Y-98021996D01*
X160079737Y-97985226D01*
X160263584Y-97985226D01*
X160337123Y-98021996D01*
X160373893Y-98058765D01*
X160410662Y-98132304D01*
X160410662Y-98316152D01*
X160373893Y-98389691D01*
X160337123Y-98426460D01*
X160263584Y-98463230D01*
X160079737Y-98463230D01*
X160006198Y-98426460D01*
X159969428Y-98389691D01*
G04 #@! TO.C,R3*
X159675272Y-86463230D02*
X159417885Y-86095535D01*
X159234038Y-86463230D02*
X159234038Y-85691070D01*
X159528194Y-85691070D01*
X159601733Y-85727840D01*
X159638502Y-85764609D01*
X159675272Y-85838148D01*
X159675272Y-85948457D01*
X159638502Y-86021996D01*
X159601733Y-86058765D01*
X159528194Y-86095535D01*
X159234038Y-86095535D01*
X159932658Y-85691070D02*
X160410662Y-85691070D01*
X160153276Y-85985226D01*
X160263584Y-85985226D01*
X160337123Y-86021996D01*
X160373893Y-86058765D01*
X160410662Y-86132304D01*
X160410662Y-86316152D01*
X160373893Y-86389691D01*
X160337123Y-86426460D01*
X160263584Y-86463230D01*
X160042967Y-86463230D01*
X159969428Y-86426460D01*
X159932658Y-86389691D01*
G04 #@! TO.C,R4*
X159675272Y-92213230D02*
X159417885Y-91845535D01*
X159234038Y-92213230D02*
X159234038Y-91441070D01*
X159528194Y-91441070D01*
X159601733Y-91477840D01*
X159638502Y-91514609D01*
X159675272Y-91588148D01*
X159675272Y-91698457D01*
X159638502Y-91771996D01*
X159601733Y-91808765D01*
X159528194Y-91845535D01*
X159234038Y-91845535D01*
X160337123Y-91698457D02*
X160337123Y-92213230D01*
X160153276Y-91404300D02*
X159969428Y-91955843D01*
X160447432Y-91955843D01*
G04 #@! TO.C,R6*
X164925272Y-99963230D02*
X164667885Y-99595535D01*
X164484038Y-99963230D02*
X164484038Y-99191070D01*
X164778194Y-99191070D01*
X164851733Y-99227840D01*
X164888502Y-99264609D01*
X164925272Y-99338148D01*
X164925272Y-99448457D01*
X164888502Y-99521996D01*
X164851733Y-99558765D01*
X164778194Y-99595535D01*
X164484038Y-99595535D01*
X165587123Y-99191070D02*
X165440045Y-99191070D01*
X165366506Y-99227840D01*
X165329737Y-99264609D01*
X165256198Y-99374918D01*
X165219428Y-99521996D01*
X165219428Y-99816152D01*
X165256198Y-99889691D01*
X165292967Y-99926460D01*
X165366506Y-99963230D01*
X165513584Y-99963230D01*
X165587123Y-99926460D01*
X165623893Y-99889691D01*
X165660662Y-99816152D01*
X165660662Y-99632304D01*
X165623893Y-99558765D01*
X165587123Y-99521996D01*
X165513584Y-99485226D01*
X165366506Y-99485226D01*
X165292967Y-99521996D01*
X165256198Y-99558765D01*
X165219428Y-99632304D01*
G04 #@! TO.C,R7*
X165175272Y-102713230D02*
X164917885Y-102345535D01*
X164734038Y-102713230D02*
X164734038Y-101941070D01*
X165028194Y-101941070D01*
X165101733Y-101977840D01*
X165138502Y-102014609D01*
X165175272Y-102088148D01*
X165175272Y-102198457D01*
X165138502Y-102271996D01*
X165101733Y-102308765D01*
X165028194Y-102345535D01*
X164734038Y-102345535D01*
X165432658Y-101941070D02*
X165947432Y-101941070D01*
X165616506Y-102713230D01*
G04 #@! TO.C,R8*
X165175272Y-105963230D02*
X164917885Y-105595535D01*
X164734038Y-105963230D02*
X164734038Y-105191070D01*
X165028194Y-105191070D01*
X165101733Y-105227840D01*
X165138502Y-105264609D01*
X165175272Y-105338148D01*
X165175272Y-105448457D01*
X165138502Y-105521996D01*
X165101733Y-105558765D01*
X165028194Y-105595535D01*
X164734038Y-105595535D01*
X165616506Y-105521996D02*
X165542967Y-105485226D01*
X165506198Y-105448457D01*
X165469428Y-105374918D01*
X165469428Y-105338148D01*
X165506198Y-105264609D01*
X165542967Y-105227840D01*
X165616506Y-105191070D01*
X165763584Y-105191070D01*
X165837123Y-105227840D01*
X165873893Y-105264609D01*
X165910662Y-105338148D01*
X165910662Y-105374918D01*
X165873893Y-105448457D01*
X165837123Y-105485226D01*
X165763584Y-105521996D01*
X165616506Y-105521996D01*
X165542967Y-105558765D01*
X165506198Y-105595535D01*
X165469428Y-105669074D01*
X165469428Y-105816152D01*
X165506198Y-105889691D01*
X165542967Y-105926460D01*
X165616506Y-105963230D01*
X165763584Y-105963230D01*
X165837123Y-105926460D01*
X165873893Y-105889691D01*
X165910662Y-105816152D01*
X165910662Y-105669074D01*
X165873893Y-105595535D01*
X165837123Y-105558765D01*
X165763584Y-105521996D01*
G04 #@! TO.C,R9*
X165425272Y-109713230D02*
X165167885Y-109345535D01*
X164984038Y-109713230D02*
X164984038Y-108941070D01*
X165278194Y-108941070D01*
X165351733Y-108977840D01*
X165388502Y-109014609D01*
X165425272Y-109088148D01*
X165425272Y-109198457D01*
X165388502Y-109271996D01*
X165351733Y-109308765D01*
X165278194Y-109345535D01*
X164984038Y-109345535D01*
X165792967Y-109713230D02*
X165940045Y-109713230D01*
X166013584Y-109676460D01*
X166050354Y-109639691D01*
X166123893Y-109529382D01*
X166160662Y-109382304D01*
X166160662Y-109088148D01*
X166123893Y-109014609D01*
X166087123Y-108977840D01*
X166013584Y-108941070D01*
X165866506Y-108941070D01*
X165792967Y-108977840D01*
X165756198Y-109014609D01*
X165719428Y-109088148D01*
X165719428Y-109271996D01*
X165756198Y-109345535D01*
X165792967Y-109382304D01*
X165866506Y-109419074D01*
X166013584Y-109419074D01*
X166087123Y-109382304D01*
X166123893Y-109345535D01*
X166160662Y-109271996D01*
G04 #@! TO.C,U1*
D10*
X192123891Y-116444838D02*
X192123891Y-115479638D01*
X192767358Y-115479638D02*
X192951206Y-115479638D01*
X193043129Y-115525600D01*
X193135053Y-115617523D01*
X193181015Y-115801371D01*
X193181015Y-116123104D01*
X193135053Y-116306952D01*
X193043129Y-116398876D01*
X192951206Y-116444838D01*
X192767358Y-116444838D01*
X192675434Y-116398876D01*
X192583510Y-116306952D01*
X192537548Y-116123104D01*
X192537548Y-115801371D01*
X192583510Y-115617523D01*
X192675434Y-115525600D01*
X192767358Y-115479638D01*
X193594672Y-116444838D02*
X193594672Y-115801371D01*
X193594672Y-115985219D02*
X193640634Y-115893295D01*
X193686596Y-115847333D01*
X193778520Y-115801371D01*
X193870444Y-115801371D01*
X148140779Y-125593676D02*
X148278665Y-125639638D01*
X148508474Y-125639638D01*
X148600398Y-125593676D01*
X148646360Y-125547714D01*
X148692322Y-125455790D01*
X148692322Y-125363866D01*
X148646360Y-125271942D01*
X148600398Y-125225980D01*
X148508474Y-125180019D01*
X148324627Y-125134057D01*
X148232703Y-125088095D01*
X148186741Y-125042133D01*
X148140779Y-124950209D01*
X148140779Y-124858285D01*
X148186741Y-124766361D01*
X148232703Y-124720400D01*
X148324627Y-124674438D01*
X148554436Y-124674438D01*
X148692322Y-124720400D01*
X149105979Y-125639638D02*
X149105979Y-124674438D01*
X149335789Y-124674438D01*
X149473674Y-124720400D01*
X149565598Y-124812323D01*
X149611560Y-124904247D01*
X149657522Y-125088095D01*
X149657522Y-125225980D01*
X149611560Y-125409828D01*
X149565598Y-125501752D01*
X149473674Y-125593676D01*
X149335789Y-125639638D01*
X149105979Y-125639638D01*
X150025217Y-125363866D02*
X150484836Y-125363866D01*
X149933293Y-125639638D02*
X150255027Y-124674438D01*
X150576760Y-125639638D01*
X148140779Y-128133676D02*
X148278665Y-128179638D01*
X148508474Y-128179638D01*
X148600398Y-128133676D01*
X148646360Y-128087714D01*
X148692322Y-127995790D01*
X148692322Y-127903866D01*
X148646360Y-127811942D01*
X148600398Y-127765980D01*
X148508474Y-127720019D01*
X148324627Y-127674057D01*
X148232703Y-127628095D01*
X148186741Y-127582133D01*
X148140779Y-127490209D01*
X148140779Y-127398285D01*
X148186741Y-127306361D01*
X148232703Y-127260400D01*
X148324627Y-127214438D01*
X148554436Y-127214438D01*
X148692322Y-127260400D01*
X149657522Y-128087714D02*
X149611560Y-128133676D01*
X149473674Y-128179638D01*
X149381751Y-128179638D01*
X149243865Y-128133676D01*
X149151941Y-128041752D01*
X149105979Y-127949828D01*
X149060017Y-127765980D01*
X149060017Y-127628095D01*
X149105979Y-127444247D01*
X149151941Y-127352323D01*
X149243865Y-127260400D01*
X149381751Y-127214438D01*
X149473674Y-127214438D01*
X149611560Y-127260400D01*
X149657522Y-127306361D01*
X150530798Y-128179638D02*
X150071179Y-128179638D01*
X150071179Y-127214438D01*
X145699138Y-95303958D02*
X144733938Y-95303958D01*
X144733938Y-95074148D01*
X144779900Y-94936263D01*
X144871823Y-94844339D01*
X144963747Y-94798377D01*
X145147595Y-94752415D01*
X145285480Y-94752415D01*
X145469328Y-94798377D01*
X145561252Y-94844339D01*
X145653176Y-94936263D01*
X145699138Y-95074148D01*
X145699138Y-95303958D01*
X145699138Y-94338758D02*
X145055671Y-94338758D01*
X144733938Y-94338758D02*
X144779900Y-94384720D01*
X144825861Y-94338758D01*
X144779900Y-94292796D01*
X144733938Y-94338758D01*
X144825861Y-94338758D01*
X145055671Y-93465482D02*
X145837023Y-93465482D01*
X145928947Y-93511444D01*
X145974909Y-93557406D01*
X146020871Y-93649329D01*
X146020871Y-93787215D01*
X145974909Y-93879139D01*
X145653176Y-93465482D02*
X145699138Y-93557406D01*
X145699138Y-93741253D01*
X145653176Y-93833177D01*
X145607214Y-93879139D01*
X145515290Y-93925101D01*
X145239519Y-93925101D01*
X145147595Y-93879139D01*
X145101633Y-93833177D01*
X145055671Y-93741253D01*
X145055671Y-93557406D01*
X145101633Y-93465482D01*
X145699138Y-93005863D02*
X145055671Y-93005863D01*
X144733938Y-93005863D02*
X144779900Y-93051825D01*
X144825861Y-93005863D01*
X144779900Y-92959901D01*
X144733938Y-93005863D01*
X144825861Y-93005863D01*
X145055671Y-92684129D02*
X145055671Y-92316434D01*
X144733938Y-92546244D02*
X145561252Y-92546244D01*
X145653176Y-92500282D01*
X145699138Y-92408358D01*
X145699138Y-92316434D01*
X145699138Y-91581044D02*
X145193557Y-91581044D01*
X145101633Y-91627006D01*
X145055671Y-91718929D01*
X145055671Y-91902777D01*
X145101633Y-91994701D01*
X145653176Y-91581044D02*
X145699138Y-91672968D01*
X145699138Y-91902777D01*
X145653176Y-91994701D01*
X145561252Y-92040663D01*
X145469328Y-92040663D01*
X145377404Y-91994701D01*
X145331442Y-91902777D01*
X145331442Y-91672968D01*
X145285480Y-91581044D01*
X145699138Y-90983539D02*
X145653176Y-91075463D01*
X145561252Y-91121425D01*
X144733938Y-91121425D01*
X145699138Y-89880453D02*
X144733938Y-89880453D01*
X144687976Y-88731406D02*
X145928947Y-89558720D01*
X144733938Y-88225825D02*
X144733938Y-88041977D01*
X144779900Y-87950053D01*
X144871823Y-87858129D01*
X145055671Y-87812168D01*
X145377404Y-87812168D01*
X145561252Y-87858129D01*
X145653176Y-87950053D01*
X145699138Y-88041977D01*
X145699138Y-88225825D01*
X145653176Y-88317748D01*
X145561252Y-88409672D01*
X145377404Y-88455634D01*
X145055671Y-88455634D01*
X144871823Y-88409672D01*
X144779900Y-88317748D01*
X144733938Y-88225825D01*
X145699138Y-114607958D02*
X144733938Y-114607958D01*
X144733938Y-114378148D01*
X144779900Y-114240263D01*
X144871823Y-114148339D01*
X144963747Y-114102377D01*
X145147595Y-114056415D01*
X145285480Y-114056415D01*
X145469328Y-114102377D01*
X145561252Y-114148339D01*
X145653176Y-114240263D01*
X145699138Y-114378148D01*
X145699138Y-114607958D01*
X145699138Y-113642758D02*
X145055671Y-113642758D01*
X144733938Y-113642758D02*
X144779900Y-113688720D01*
X144825861Y-113642758D01*
X144779900Y-113596796D01*
X144733938Y-113642758D01*
X144825861Y-113642758D01*
X145055671Y-112769482D02*
X145837023Y-112769482D01*
X145928947Y-112815444D01*
X145974909Y-112861406D01*
X146020871Y-112953329D01*
X146020871Y-113091215D01*
X145974909Y-113183139D01*
X145653176Y-112769482D02*
X145699138Y-112861406D01*
X145699138Y-113045253D01*
X145653176Y-113137177D01*
X145607214Y-113183139D01*
X145515290Y-113229101D01*
X145239519Y-113229101D01*
X145147595Y-113183139D01*
X145101633Y-113137177D01*
X145055671Y-113045253D01*
X145055671Y-112861406D01*
X145101633Y-112769482D01*
X145699138Y-112309863D02*
X145055671Y-112309863D01*
X144733938Y-112309863D02*
X144779900Y-112355825D01*
X144825861Y-112309863D01*
X144779900Y-112263901D01*
X144733938Y-112309863D01*
X144825861Y-112309863D01*
X145055671Y-111988129D02*
X145055671Y-111620434D01*
X144733938Y-111850244D02*
X145561252Y-111850244D01*
X145653176Y-111804282D01*
X145699138Y-111712358D01*
X145699138Y-111620434D01*
X145699138Y-110885044D02*
X145193557Y-110885044D01*
X145101633Y-110931006D01*
X145055671Y-111022929D01*
X145055671Y-111206777D01*
X145101633Y-111298701D01*
X145653176Y-110885044D02*
X145699138Y-110976968D01*
X145699138Y-111206777D01*
X145653176Y-111298701D01*
X145561252Y-111344663D01*
X145469328Y-111344663D01*
X145377404Y-111298701D01*
X145331442Y-111206777D01*
X145331442Y-110976968D01*
X145285480Y-110885044D01*
X145699138Y-110287539D02*
X145653176Y-110379463D01*
X145561252Y-110425425D01*
X144733938Y-110425425D01*
X145699138Y-109184453D02*
X144733938Y-109184453D01*
X144687976Y-108035406D02*
X145928947Y-108862720D01*
X144733938Y-107529825D02*
X144733938Y-107345977D01*
X144779900Y-107254053D01*
X144871823Y-107162129D01*
X145055671Y-107116168D01*
X145377404Y-107116168D01*
X145561252Y-107162129D01*
X145653176Y-107254053D01*
X145699138Y-107345977D01*
X145699138Y-107529825D01*
X145653176Y-107621748D01*
X145561252Y-107713672D01*
X145377404Y-107759634D01*
X145055671Y-107759634D01*
X144871823Y-107713672D01*
X144779900Y-107621748D01*
X144733938Y-107529825D01*
X148239138Y-82937012D02*
X148239138Y-82845089D01*
X148285100Y-82753165D01*
X148331061Y-82707203D01*
X148422985Y-82661241D01*
X148606833Y-82615279D01*
X148836642Y-82615279D01*
X149020490Y-82661241D01*
X149112414Y-82707203D01*
X149158376Y-82753165D01*
X149204338Y-82845089D01*
X149204338Y-82937012D01*
X149158376Y-83028936D01*
X149112414Y-83074898D01*
X149020490Y-83120860D01*
X148836642Y-83166822D01*
X148606833Y-83166822D01*
X148422985Y-83120860D01*
X148331061Y-83074898D01*
X148285100Y-83028936D01*
X148239138Y-82937012D01*
X149204338Y-85155279D02*
X149204338Y-85706822D01*
X149204338Y-85431051D02*
X148239138Y-85431051D01*
X148377023Y-85522974D01*
X148468947Y-85614898D01*
X148514909Y-85706822D01*
X148331061Y-88246822D02*
X148285100Y-88200860D01*
X148239138Y-88108936D01*
X148239138Y-87879127D01*
X148285100Y-87787203D01*
X148331061Y-87741241D01*
X148422985Y-87695279D01*
X148514909Y-87695279D01*
X148652795Y-87741241D01*
X149204338Y-88292784D01*
X149204338Y-87695279D01*
X148239138Y-90832784D02*
X148239138Y-90235279D01*
X148606833Y-90557012D01*
X148606833Y-90419127D01*
X148652795Y-90327203D01*
X148698757Y-90281241D01*
X148790680Y-90235279D01*
X149020490Y-90235279D01*
X149112414Y-90281241D01*
X149158376Y-90327203D01*
X149204338Y-90419127D01*
X149204338Y-90694898D01*
X149158376Y-90786822D01*
X149112414Y-90832784D01*
X148560871Y-92867203D02*
X149204338Y-92867203D01*
X148193176Y-93097012D02*
X148882604Y-93326822D01*
X148882604Y-92729317D01*
X148239138Y-95361241D02*
X148239138Y-95820860D01*
X148698757Y-95866822D01*
X148652795Y-95820860D01*
X148606833Y-95728936D01*
X148606833Y-95499127D01*
X148652795Y-95407203D01*
X148698757Y-95361241D01*
X148790680Y-95315279D01*
X149020490Y-95315279D01*
X149112414Y-95361241D01*
X149158376Y-95407203D01*
X149204338Y-95499127D01*
X149204338Y-95728936D01*
X149158376Y-95820860D01*
X149112414Y-95866822D01*
X148239138Y-97947203D02*
X148239138Y-98131051D01*
X148285100Y-98222974D01*
X148331061Y-98268936D01*
X148468947Y-98360860D01*
X148652795Y-98406822D01*
X149020490Y-98406822D01*
X149112414Y-98360860D01*
X149158376Y-98314898D01*
X149204338Y-98222974D01*
X149204338Y-98039127D01*
X149158376Y-97947203D01*
X149112414Y-97901241D01*
X149020490Y-97855279D01*
X148790680Y-97855279D01*
X148698757Y-97901241D01*
X148652795Y-97947203D01*
X148606833Y-98039127D01*
X148606833Y-98222974D01*
X148652795Y-98314898D01*
X148698757Y-98360860D01*
X148790680Y-98406822D01*
X148239138Y-100992784D02*
X148239138Y-100349317D01*
X149204338Y-100762974D01*
X148652795Y-104826974D02*
X148606833Y-104918898D01*
X148560871Y-104964860D01*
X148468947Y-105010822D01*
X148422985Y-105010822D01*
X148331061Y-104964860D01*
X148285100Y-104918898D01*
X148239138Y-104826974D01*
X148239138Y-104643127D01*
X148285100Y-104551203D01*
X148331061Y-104505241D01*
X148422985Y-104459279D01*
X148468947Y-104459279D01*
X148560871Y-104505241D01*
X148606833Y-104551203D01*
X148652795Y-104643127D01*
X148652795Y-104826974D01*
X148698757Y-104918898D01*
X148744719Y-104964860D01*
X148836642Y-105010822D01*
X149020490Y-105010822D01*
X149112414Y-104964860D01*
X149158376Y-104918898D01*
X149204338Y-104826974D01*
X149204338Y-104643127D01*
X149158376Y-104551203D01*
X149112414Y-104505241D01*
X149020490Y-104459279D01*
X148836642Y-104459279D01*
X148744719Y-104505241D01*
X148698757Y-104551203D01*
X148652795Y-104643127D01*
X149204338Y-107458898D02*
X149204338Y-107275051D01*
X149158376Y-107183127D01*
X149112414Y-107137165D01*
X148974528Y-107045241D01*
X148790680Y-106999279D01*
X148422985Y-106999279D01*
X148331061Y-107045241D01*
X148285100Y-107091203D01*
X148239138Y-107183127D01*
X148239138Y-107366974D01*
X148285100Y-107458898D01*
X148331061Y-107504860D01*
X148422985Y-107550822D01*
X148652795Y-107550822D01*
X148744719Y-107504860D01*
X148790680Y-107458898D01*
X148836642Y-107366974D01*
X148836642Y-107183127D01*
X148790680Y-107091203D01*
X148744719Y-107045241D01*
X148652795Y-106999279D01*
X149204338Y-109950517D02*
X149204338Y-110502060D01*
X149204338Y-110226289D02*
X148239138Y-110226289D01*
X148377023Y-110318212D01*
X148468947Y-110410136D01*
X148514909Y-110502060D01*
X148239138Y-109353012D02*
X148239138Y-109261089D01*
X148285100Y-109169165D01*
X148331061Y-109123203D01*
X148422985Y-109077241D01*
X148606833Y-109031279D01*
X148836642Y-109031279D01*
X149020490Y-109077241D01*
X149112414Y-109123203D01*
X149158376Y-109169165D01*
X149204338Y-109261089D01*
X149204338Y-109353012D01*
X149158376Y-109444936D01*
X149112414Y-109490898D01*
X149020490Y-109536860D01*
X148836642Y-109582822D01*
X148606833Y-109582822D01*
X148422985Y-109536860D01*
X148331061Y-109490898D01*
X148285100Y-109444936D01*
X148239138Y-109353012D01*
X149204338Y-112490517D02*
X149204338Y-113042060D01*
X149204338Y-112766289D02*
X148239138Y-112766289D01*
X148377023Y-112858212D01*
X148468947Y-112950136D01*
X148514909Y-113042060D01*
X149204338Y-111571279D02*
X149204338Y-112122822D01*
X149204338Y-111847051D02*
X148239138Y-111847051D01*
X148377023Y-111938974D01*
X148468947Y-112030898D01*
X148514909Y-112122822D01*
X149204338Y-115030517D02*
X149204338Y-115582060D01*
X149204338Y-115306289D02*
X148239138Y-115306289D01*
X148377023Y-115398212D01*
X148468947Y-115490136D01*
X148514909Y-115582060D01*
X148331061Y-114662822D02*
X148285100Y-114616860D01*
X148239138Y-114524936D01*
X148239138Y-114295127D01*
X148285100Y-114203203D01*
X148331061Y-114157241D01*
X148422985Y-114111279D01*
X148514909Y-114111279D01*
X148652795Y-114157241D01*
X149204338Y-114708784D01*
X149204338Y-114111279D01*
X149204338Y-117570517D02*
X149204338Y-118122060D01*
X149204338Y-117846289D02*
X148239138Y-117846289D01*
X148377023Y-117938212D01*
X148468947Y-118030136D01*
X148514909Y-118122060D01*
X148239138Y-117248784D02*
X148239138Y-116651279D01*
X148606833Y-116973012D01*
X148606833Y-116835127D01*
X148652795Y-116743203D01*
X148698757Y-116697241D01*
X148790680Y-116651279D01*
X149020490Y-116651279D01*
X149112414Y-116697241D01*
X149158376Y-116743203D01*
X149204338Y-116835127D01*
X149204338Y-117110898D01*
X149158376Y-117202822D01*
X149112414Y-117248784D01*
X148727398Y-119916171D02*
X148727398Y-120697523D01*
X148681436Y-120789447D01*
X148635474Y-120835409D01*
X148543551Y-120881371D01*
X148405665Y-120881371D01*
X148313741Y-120835409D01*
X148727398Y-120513676D02*
X148635474Y-120559638D01*
X148451627Y-120559638D01*
X148359703Y-120513676D01*
X148313741Y-120467714D01*
X148267779Y-120375790D01*
X148267779Y-120100019D01*
X148313741Y-120008095D01*
X148359703Y-119962133D01*
X148451627Y-119916171D01*
X148635474Y-119916171D01*
X148727398Y-119962133D01*
X149187017Y-119916171D02*
X149187017Y-120559638D01*
X149187017Y-120008095D02*
X149232979Y-119962133D01*
X149324903Y-119916171D01*
X149462789Y-119916171D01*
X149554712Y-119962133D01*
X149600674Y-120054057D01*
X149600674Y-120559638D01*
X150473951Y-120559638D02*
X150473951Y-119594438D01*
X150473951Y-120513676D02*
X150382027Y-120559638D01*
X150198179Y-120559638D01*
X150106255Y-120513676D01*
X150060293Y-120467714D01*
X150014332Y-120375790D01*
X150014332Y-120100019D01*
X150060293Y-120008095D01*
X150106255Y-119962133D01*
X150198179Y-119916171D01*
X150382027Y-119916171D01*
X150473951Y-119962133D01*
X148140779Y-122823866D02*
X148600398Y-122823866D01*
X148048855Y-123099638D02*
X148370589Y-122134438D01*
X148692322Y-123099638D01*
X149565598Y-123099638D02*
X149243865Y-122640019D01*
X149014055Y-123099638D02*
X149014055Y-122134438D01*
X149381751Y-122134438D01*
X149473674Y-122180400D01*
X149519636Y-122226361D01*
X149565598Y-122318285D01*
X149565598Y-122456171D01*
X149519636Y-122548095D01*
X149473674Y-122594057D01*
X149381751Y-122640019D01*
X149014055Y-122640019D01*
X150346951Y-123053676D02*
X150255027Y-123099638D01*
X150071179Y-123099638D01*
X149979255Y-123053676D01*
X149933293Y-122961752D01*
X149933293Y-122594057D01*
X149979255Y-122502133D01*
X150071179Y-122456171D01*
X150255027Y-122456171D01*
X150346951Y-122502133D01*
X150392912Y-122594057D01*
X150392912Y-122685980D01*
X149933293Y-122777904D01*
X150668684Y-122456171D02*
X151036379Y-122456171D01*
X150806570Y-123099638D02*
X150806570Y-122272323D01*
X150852532Y-122180400D01*
X150944455Y-122134438D01*
X151036379Y-122134438D01*
X193238838Y-82007739D02*
X193238838Y-82467358D01*
X193698457Y-82513320D01*
X193652495Y-82467358D01*
X193606533Y-82375434D01*
X193606533Y-82145625D01*
X193652495Y-82053701D01*
X193698457Y-82007739D01*
X193790380Y-81961777D01*
X194020190Y-81961777D01*
X194112114Y-82007739D01*
X194158076Y-82053701D01*
X194204038Y-82145625D01*
X194204038Y-82375434D01*
X194158076Y-82467358D01*
X194112114Y-82513320D01*
X193810571Y-84553701D02*
X194454038Y-84553701D01*
X193442876Y-84783510D02*
X194132304Y-85013320D01*
X194132304Y-84415815D01*
X193488838Y-87309282D02*
X193488838Y-86711777D01*
X193856533Y-87033510D01*
X193856533Y-86895625D01*
X193902495Y-86803701D01*
X193948457Y-86757739D01*
X194040380Y-86711777D01*
X194270190Y-86711777D01*
X194362114Y-86757739D01*
X194408076Y-86803701D01*
X194454038Y-86895625D01*
X194454038Y-87171396D01*
X194408076Y-87263320D01*
X194362114Y-87309282D01*
X193580761Y-89763320D02*
X193534800Y-89717358D01*
X193488838Y-89625434D01*
X193488838Y-89395625D01*
X193534800Y-89303701D01*
X193580761Y-89257739D01*
X193672685Y-89211777D01*
X193764609Y-89211777D01*
X193902495Y-89257739D01*
X194454038Y-89809282D01*
X194454038Y-89211777D01*
X194454038Y-91961777D02*
X194454038Y-92513320D01*
X194454038Y-92237548D02*
X193488838Y-92237548D01*
X193626723Y-92329472D01*
X193718647Y-92421396D01*
X193764609Y-92513320D01*
X193488838Y-95033510D02*
X193488838Y-94941587D01*
X193534800Y-94849663D01*
X193580761Y-94803701D01*
X193672685Y-94757739D01*
X193856533Y-94711777D01*
X194086342Y-94711777D01*
X194270190Y-94757739D01*
X194362114Y-94803701D01*
X194408076Y-94849663D01*
X194454038Y-94941587D01*
X194454038Y-95033510D01*
X194408076Y-95125434D01*
X194362114Y-95171396D01*
X194270190Y-95217358D01*
X194086342Y-95263320D01*
X193856533Y-95263320D01*
X193672685Y-95217358D01*
X193580761Y-95171396D01*
X193534800Y-95125434D01*
X193488838Y-95033510D01*
X197031066Y-93164820D02*
X197031066Y-92705201D01*
X197306838Y-93256744D02*
X196341638Y-92935010D01*
X197306838Y-92613277D01*
X196663371Y-92291544D02*
X197306838Y-92291544D01*
X196755295Y-92291544D02*
X196709333Y-92245582D01*
X196663371Y-92153658D01*
X196663371Y-92015772D01*
X196709333Y-91923848D01*
X196801257Y-91877887D01*
X197306838Y-91877887D01*
X197306838Y-91004610D02*
X196801257Y-91004610D01*
X196709333Y-91050572D01*
X196663371Y-91142496D01*
X196663371Y-91326344D01*
X196709333Y-91418268D01*
X197260876Y-91004610D02*
X197306838Y-91096534D01*
X197306838Y-91326344D01*
X197260876Y-91418268D01*
X197168952Y-91464229D01*
X197077028Y-91464229D01*
X196985104Y-91418268D01*
X196939142Y-91326344D01*
X196939142Y-91096534D01*
X196893180Y-91004610D01*
X197306838Y-90407106D02*
X197260876Y-90499029D01*
X197168952Y-90544991D01*
X196341638Y-90544991D01*
X197306838Y-89901525D02*
X197260876Y-89993448D01*
X197214914Y-90039410D01*
X197122990Y-90085372D01*
X196847219Y-90085372D01*
X196755295Y-90039410D01*
X196709333Y-89993448D01*
X196663371Y-89901525D01*
X196663371Y-89763639D01*
X196709333Y-89671715D01*
X196755295Y-89625753D01*
X196847219Y-89579791D01*
X197122990Y-89579791D01*
X197214914Y-89625753D01*
X197260876Y-89671715D01*
X197306838Y-89763639D01*
X197306838Y-89901525D01*
X196663371Y-88752477D02*
X197444723Y-88752477D01*
X197536647Y-88798439D01*
X197582609Y-88844401D01*
X197628571Y-88936325D01*
X197628571Y-89074210D01*
X197582609Y-89166134D01*
X197260876Y-88752477D02*
X197306838Y-88844401D01*
X197306838Y-89028248D01*
X197260876Y-89120172D01*
X197214914Y-89166134D01*
X197122990Y-89212096D01*
X196847219Y-89212096D01*
X196755295Y-89166134D01*
X196709333Y-89120172D01*
X196663371Y-89028248D01*
X196663371Y-88844401D01*
X196709333Y-88752477D01*
X197306838Y-87557468D02*
X196341638Y-87557468D01*
X196663371Y-87097848D02*
X197306838Y-87097848D01*
X196755295Y-87097848D02*
X196709333Y-87051887D01*
X196663371Y-86959963D01*
X196663371Y-86822077D01*
X196709333Y-86730153D01*
X196801257Y-86684191D01*
X197306838Y-86684191D01*
X192993938Y-101583544D02*
X193959138Y-101261810D01*
X192993938Y-100940077D01*
X193959138Y-100618344D02*
X193315671Y-100618344D01*
X192993938Y-100618344D02*
X193039900Y-100664306D01*
X193085861Y-100618344D01*
X193039900Y-100572382D01*
X192993938Y-100618344D01*
X193085861Y-100618344D01*
X193315671Y-100158725D02*
X193959138Y-100158725D01*
X193407595Y-100158725D02*
X193361633Y-100112763D01*
X193315671Y-100020839D01*
X193315671Y-99882953D01*
X193361633Y-99791029D01*
X193453557Y-99745068D01*
X193959138Y-99745068D01*
X193039900Y-104948277D02*
X192993938Y-105040201D01*
X192993938Y-105178087D01*
X193039900Y-105315972D01*
X193131823Y-105407896D01*
X193223747Y-105453858D01*
X193407595Y-105499820D01*
X193545480Y-105499820D01*
X193729328Y-105453858D01*
X193821252Y-105407896D01*
X193913176Y-105315972D01*
X193959138Y-105178087D01*
X193959138Y-105086163D01*
X193913176Y-104948277D01*
X193867214Y-104902315D01*
X193545480Y-104902315D01*
X193545480Y-105086163D01*
X193315671Y-104488658D02*
X193959138Y-104488658D01*
X193407595Y-104488658D02*
X193361633Y-104442696D01*
X193315671Y-104350772D01*
X193315671Y-104212887D01*
X193361633Y-104120963D01*
X193453557Y-104075001D01*
X193959138Y-104075001D01*
X193959138Y-103201725D02*
X192993938Y-103201725D01*
X193913176Y-103201725D02*
X193959138Y-103293648D01*
X193959138Y-103477496D01*
X193913176Y-103569420D01*
X193867214Y-103615382D01*
X193775290Y-103661344D01*
X193499519Y-103661344D01*
X193407595Y-103615382D01*
X193361633Y-103569420D01*
X193315671Y-103477496D01*
X193315671Y-103293648D01*
X193361633Y-103201725D01*
X192993938Y-108225039D02*
X192993938Y-108684658D01*
X193453557Y-108730620D01*
X193407595Y-108684658D01*
X193361633Y-108592734D01*
X193361633Y-108362925D01*
X193407595Y-108271001D01*
X193453557Y-108225039D01*
X193545480Y-108179077D01*
X193775290Y-108179077D01*
X193867214Y-108225039D01*
X193913176Y-108271001D01*
X193959138Y-108362925D01*
X193959138Y-108592734D01*
X193913176Y-108684658D01*
X193867214Y-108730620D01*
X193315671Y-107857344D02*
X193959138Y-107627534D01*
X193315671Y-107397725D01*
X192993938Y-111570582D02*
X192993938Y-110973077D01*
X193361633Y-111294810D01*
X193361633Y-111156925D01*
X193407595Y-111065001D01*
X193453557Y-111019039D01*
X193545480Y-110973077D01*
X193775290Y-110973077D01*
X193867214Y-111019039D01*
X193913176Y-111065001D01*
X193959138Y-111156925D01*
X193959138Y-111432696D01*
X193913176Y-111524620D01*
X193867214Y-111570582D01*
X193315671Y-110651344D02*
X193959138Y-110421534D01*
X193315671Y-110191725D01*
X192123891Y-113904838D02*
X191802158Y-113445219D01*
X191572348Y-113904838D02*
X191572348Y-112939638D01*
X191940044Y-112939638D01*
X192031968Y-112985600D01*
X192077929Y-113031561D01*
X192123891Y-113123485D01*
X192123891Y-113261371D01*
X192077929Y-113353295D01*
X192031968Y-113399257D01*
X191940044Y-113445219D01*
X191572348Y-113445219D01*
X192491587Y-113858876D02*
X192629472Y-113904838D01*
X192859282Y-113904838D01*
X192951206Y-113858876D01*
X192997168Y-113812914D01*
X193043129Y-113720990D01*
X193043129Y-113629066D01*
X192997168Y-113537142D01*
X192951206Y-113491180D01*
X192859282Y-113445219D01*
X192675434Y-113399257D01*
X192583510Y-113353295D01*
X192537548Y-113307333D01*
X192491587Y-113215409D01*
X192491587Y-113123485D01*
X192537548Y-113031561D01*
X192583510Y-112985600D01*
X192675434Y-112939638D01*
X192905244Y-112939638D01*
X193043129Y-112985600D01*
X193318901Y-112939638D02*
X193870444Y-112939638D01*
X193594672Y-113904838D02*
X193594672Y-112939638D01*
G04 #@! TD*
M02*
