M48
;DRILL file {KiCad (5.0.0)} date 11/08/18 10:10:29
;FORMAT={3:3/ absolute / metric / suppress leading zeros}
FMAT,2
METRIC,TZ
T1C0.813
T2C0.914
T3C1.000
T4C1.016
%
G90
G05
M71
T1
X155651Y-106128
X163271Y-106128
X172923Y-84284
X172923Y-86824
X172923Y-89364
X172923Y-91904
X180543Y-84284
X180543Y-86824
X180543Y-89364
X180543Y-91904
X169621Y-118574
X172161Y-118574
X150317Y-86316
X157937Y-86316
X177241Y-116034
X177241Y-118574
X184861Y-116034
X184861Y-118574
X177241Y-122384
X177241Y-124924
X184861Y-122384
X184861Y-124924
X169621Y-113494
X172161Y-113494
X169621Y-108414
X172161Y-108414
X177241Y-109684
X177241Y-112224
X184861Y-109684
X184861Y-112224
X155651Y-103334
X163271Y-103334
X155651Y-111716
X163271Y-111716
X177241Y-103334
X177241Y-105874
X184861Y-103334
X184861Y-105874
X169621Y-98254
X172161Y-98254
X169621Y-103334
X172161Y-103334
X177241Y-96984
X177241Y-99524
X184861Y-96984
X184861Y-99524
X155651Y-100540
X163271Y-100540
X150317Y-97492
X157937Y-97492
X155651Y-108922
X163271Y-108922
X150317Y-91904
X157937Y-91904
T2
X155651Y-115018
X155651Y-120098
X153111Y-120098
X155651Y-122638
X163271Y-122638
X158191Y-122638
X169621Y-84284
X163271Y-115018
X155651Y-117558
X158191Y-125178
X192481Y-90634
X163271Y-117558
X193751Y-98254
X158191Y-117558
X165811Y-125178
X158191Y-120098
X169621Y-91904
X160731Y-117558
X150571Y-115018
X169621Y-86824
X163271Y-120098
X160731Y-125178
X192481Y-88094
X150571Y-107398
X150571Y-109938
X153111Y-122638
X169621Y-89364
X150571Y-117558
X158191Y-115018
X153111Y-125178
X192481Y-93174
X160731Y-122638
X192481Y-95714
X163271Y-125178
X160731Y-120098
X155651Y-125178
X183337Y-83014
X165811Y-115018
X150571Y-112478
X153111Y-115018
X153111Y-117558
X160731Y-115018
X150571Y-83014
T3
X147015Y-83014
X147015Y-85554
X147015Y-88094
X147015Y-90634
X147015Y-93174
X147015Y-95714
X147015Y-98254
X147015Y-100794
X147015Y-104858
X147015Y-107398
X147015Y-109938
X147015Y-112478
X147015Y-115018
X147015Y-117558
X147015Y-120098
X147015Y-122638
X147015Y-125178
X147015Y-127718
X195275Y-83014
X195275Y-85554
X195275Y-88094
X195275Y-90634
X195275Y-93174
X195275Y-95714
X195275Y-100794
X195275Y-103334
X195275Y-105874
X195275Y-108414
X195275Y-110954
X195275Y-113494
X195275Y-116034
X195275Y-118574
T4
X164795Y-82760
X164795Y-85300
X164795Y-87840
X164795Y-90380
X164795Y-92920
X164795Y-95460
X188671Y-126702
X191211Y-126702
X193751Y-126702
X189941Y-99524
X189941Y-102064
X189941Y-104604
X189941Y-107144
X189941Y-109684
X189941Y-112224
X189941Y-114764
X189941Y-117304
X189941Y-119844
X189941Y-122384
X153873Y-94444
X156413Y-94444
X158953Y-94444
X171145Y-123908
X171145Y-126448
X154127Y-89110
X156667Y-89110
X159207Y-89110
X186131Y-84284
X186131Y-86824
X186131Y-89364
X186131Y-91904
X153619Y-83522
X156159Y-83522
X158699Y-83522
T0
M30
