M48
;DRILL file {KiCad 4.0.4-stable} date 09/19/16 20:25:34
;FORMAT={-:-/ absolute / metric / decimal}
FMAT,2
METRIC,TZ
T1C0.400
T2C0.600
T3C0.800
T4C0.800
T5C0.900
T6C1.001
T7C1.016
T8C1.143
T9C1.270
T10C1.600
T11C3.200
%
G90
G05
M71
T1
X103.25Y-94.75
X103.5Y-98.25
X104.75Y-93.75
X105.Y-76.25
X105.Y-80.5
X105.Y-84.75
X105.Y-88.75
X155.Y-115.5
X155.Y-118.5
X156.5Y-113.
X160.Y-104.
X160.Y-107.5
X160.Y-111.5
T2
X94.Y-95.7
X99.Y-97.
T3
X91.5Y-101.5
X91.5Y-106.5
X91.5Y-110.
X92.5Y-97.5
X94.Y-91.
X95.Y-80.
X96.Y-94.
X96.5Y-89.
X97.Y-114.
X97.5Y-75.
X99.Y-91.
X99.Y-117.5
X99.6Y-106.6
X99.6Y-111.6
X100.Y-80.
X100.Y-85.
X102.5Y-75.
X102.5Y-112.5
X102.5Y-117.5
X105.6Y-96.2
X105.6Y-101.2
X105.6Y-110.
X107.5Y-75.
X107.5Y-112.5
X107.5Y-117.5
X110.6Y-110.
X112.5Y-75.
X112.5Y-112.5
X112.5Y-117.5
X115.Y-100.
X117.5Y-75.
X117.5Y-112.5
X117.5Y-117.5
X118.6Y-106.8
X118.6Y-109.3
X122.4Y-96.2
X122.4Y-101.2
X122.5Y-75.
X122.5Y-117.5
X124.Y-110.
X125.Y-77.5
X125.Y-82.5
X125.Y-87.5
X125.Y-92.5
X125.Y-95.
X125.Y-97.5
X125.Y-105.
X127.5Y-75.
X127.5Y-105.
X127.5Y-107.5
X129.Y-110.
X129.4Y-97.4
X129.4Y-102.4
X130.Y-77.5
X130.Y-95.
X130.Y-100.
X132.5Y-75.
X132.5Y-77.5
X132.5Y-82.5
X132.5Y-87.5
X132.5Y-92.5
X132.5Y-105.
X132.5Y-110.
X134.Y-114.4
X135.Y-100.
X135.Y-116.5
X136.4Y-109.8
X137.Y-97.5
X137.Y-102.5
X137.5Y-75.
X137.5Y-105.
X141.4Y-109.8
X142.5Y-75.
X142.5Y-100.
X142.5Y-102.5
X142.5Y-105.
X147.5Y-75.
X147.5Y-100.
X147.8Y-110.
X150.Y-112.5
X152.5Y-75.
X152.5Y-97.5
X152.5Y-102.5
X152.5Y-107.5
X152.8Y-110.
X155.Y-77.5
X155.Y-82.5
X155.Y-85.
X155.Y-90.
X155.Y-95.
X157.5Y-80.
X157.5Y-95.
X157.5Y-99.
X157.5Y-101.5
X160.Y-80.
X160.Y-85.
X160.Y-90.
X160.Y-92.5
T4
X99.6Y-114.2
X102.Y-101.
X132.2Y-116.2
X144.4Y-116.2
X156.2Y-110.
T5
X93.6Y-83.4
X93.6Y-85.9
X93.8Y-107.8
X93.8Y-110.3
X124.8Y-116.2
X127.3Y-116.2
X137.6Y-116.2
X140.1Y-116.2
X149.2Y-116.2
X151.7Y-116.2
T6
X100.7Y-77.7
X103.Y-83.38
X103.Y-91.
X103.24Y-77.7
X109.2Y-100.597
X139.8Y-100.597
T7
X93.96Y-100.5
X96.5Y-100.5
X99.04Y-100.5
T8
X112.26Y-96.6
X114.8Y-96.6
X117.34Y-96.6
X141.66Y-96.6
X144.2Y-96.6
X146.74Y-96.6
T9
X119.36Y-100.597
X149.96Y-100.597
T10
X109.8Y-89.5
X119.8Y-89.5
X139.2Y-89.5
X149.2Y-89.5
T11
X93.Y-76.
X93.Y-117.
X159.Y-76.
X159.Y-117.
T0
M30
