G04 #@! TF.FileFunction,Legend,Top*
%FSLAX46Y46*%
G04 Gerber Fmt 4.6, Leading zero omitted, Abs format (unit mm)*
G04 Created by KiCad (PCBNEW 4.0.4-stable) date 09/19/16 20:25:30*
%MOMM*%
%LPD*%
G01*
G04 APERTURE LIST*
%ADD10C,0.100000*%
%ADD11C,0.200000*%
%ADD12C,0.150000*%
%ADD13C,0.500000*%
%ADD14C,0.127000*%
%ADD15C,0.048768*%
%ADD16C,0.101600*%
G04 APERTURE END LIST*
D10*
D11*
X126902381Y-89357143D02*
X125902381Y-89357143D01*
X125902381Y-88976190D01*
X125950000Y-88880952D01*
X125997619Y-88833333D01*
X126092857Y-88785714D01*
X126235714Y-88785714D01*
X126330952Y-88833333D01*
X126378571Y-88880952D01*
X126426190Y-88976190D01*
X126426190Y-89357143D01*
X126902381Y-88214286D02*
X126854762Y-88309524D01*
X126807143Y-88357143D01*
X126711905Y-88404762D01*
X126426190Y-88404762D01*
X126330952Y-88357143D01*
X126283333Y-88309524D01*
X126235714Y-88214286D01*
X126235714Y-88071428D01*
X126283333Y-87976190D01*
X126330952Y-87928571D01*
X126426190Y-87880952D01*
X126711905Y-87880952D01*
X126807143Y-87928571D01*
X126854762Y-87976190D01*
X126902381Y-88071428D01*
X126902381Y-88214286D01*
X126235714Y-87547619D02*
X126902381Y-87357143D01*
X126426190Y-87166666D01*
X126902381Y-86976190D01*
X126235714Y-86785714D01*
X126854762Y-86023809D02*
X126902381Y-86119047D01*
X126902381Y-86309524D01*
X126854762Y-86404762D01*
X126759524Y-86452381D01*
X126378571Y-86452381D01*
X126283333Y-86404762D01*
X126235714Y-86309524D01*
X126235714Y-86119047D01*
X126283333Y-86023809D01*
X126378571Y-85976190D01*
X126473810Y-85976190D01*
X126569048Y-86452381D01*
X126902381Y-85547619D02*
X126235714Y-85547619D01*
X126426190Y-85547619D02*
X126330952Y-85500000D01*
X126283333Y-85452381D01*
X126235714Y-85357143D01*
X126235714Y-85261904D01*
X125902381Y-84166666D02*
X126711905Y-84166666D01*
X126807143Y-84119047D01*
X126854762Y-84071428D01*
X126902381Y-83976190D01*
X126902381Y-83785713D01*
X126854762Y-83690475D01*
X126807143Y-83642856D01*
X126711905Y-83595237D01*
X125902381Y-83595237D01*
X126235714Y-83119047D02*
X126902381Y-83119047D01*
X126330952Y-83119047D02*
X126283333Y-83071428D01*
X126235714Y-82976190D01*
X126235714Y-82833332D01*
X126283333Y-82738094D01*
X126378571Y-82690475D01*
X126902381Y-82690475D01*
X126902381Y-82214285D02*
X126235714Y-82214285D01*
X125902381Y-82214285D02*
X125950000Y-82261904D01*
X125997619Y-82214285D01*
X125950000Y-82166666D01*
X125902381Y-82214285D01*
X125997619Y-82214285D01*
X126235714Y-81880952D02*
X126235714Y-81500000D01*
X125902381Y-81738095D02*
X126759524Y-81738095D01*
X126854762Y-81690476D01*
X126902381Y-81595238D01*
X126902381Y-81500000D01*
X127697619Y-89071429D02*
X127650000Y-89023810D01*
X127602381Y-88928572D01*
X127602381Y-88690476D01*
X127650000Y-88595238D01*
X127697619Y-88547619D01*
X127792857Y-88500000D01*
X127888095Y-88500000D01*
X128030952Y-88547619D01*
X128602381Y-89119048D01*
X128602381Y-88500000D01*
X127602381Y-87880953D02*
X127602381Y-87785714D01*
X127650000Y-87690476D01*
X127697619Y-87642857D01*
X127792857Y-87595238D01*
X127983333Y-87547619D01*
X128221429Y-87547619D01*
X128411905Y-87595238D01*
X128507143Y-87642857D01*
X128554762Y-87690476D01*
X128602381Y-87785714D01*
X128602381Y-87880953D01*
X128554762Y-87976191D01*
X128507143Y-88023810D01*
X128411905Y-88071429D01*
X128221429Y-88119048D01*
X127983333Y-88119048D01*
X127792857Y-88071429D01*
X127697619Y-88023810D01*
X127650000Y-87976191D01*
X127602381Y-87880953D01*
X128602381Y-86595238D02*
X128602381Y-87166667D01*
X128602381Y-86880953D02*
X127602381Y-86880953D01*
X127745238Y-86976191D01*
X127840476Y-87071429D01*
X127888095Y-87166667D01*
X127602381Y-85738095D02*
X127602381Y-85928572D01*
X127650000Y-86023810D01*
X127697619Y-86071429D01*
X127840476Y-86166667D01*
X128030952Y-86214286D01*
X128411905Y-86214286D01*
X128507143Y-86166667D01*
X128554762Y-86119048D01*
X128602381Y-86023810D01*
X128602381Y-85833333D01*
X128554762Y-85738095D01*
X128507143Y-85690476D01*
X128411905Y-85642857D01*
X128173810Y-85642857D01*
X128078571Y-85690476D01*
X128030952Y-85738095D01*
X127983333Y-85833333D01*
X127983333Y-86023810D01*
X128030952Y-86119048D01*
X128078571Y-86166667D01*
X128173810Y-86214286D01*
X128983333Y-84166666D02*
X128935714Y-84214286D01*
X128792857Y-84309524D01*
X128697619Y-84357143D01*
X128554762Y-84404762D01*
X128316667Y-84452381D01*
X128126190Y-84452381D01*
X127888095Y-84404762D01*
X127745238Y-84357143D01*
X127650000Y-84309524D01*
X127507143Y-84214286D01*
X127459524Y-84166666D01*
X128554762Y-83357142D02*
X128602381Y-83452380D01*
X128602381Y-83642857D01*
X128554762Y-83738095D01*
X128507143Y-83785714D01*
X128411905Y-83833333D01*
X128126190Y-83833333D01*
X128030952Y-83785714D01*
X127983333Y-83738095D01*
X127935714Y-83642857D01*
X127935714Y-83452380D01*
X127983333Y-83357142D01*
X128983333Y-83023809D02*
X128935714Y-82976190D01*
X128792857Y-82880952D01*
X128697619Y-82833333D01*
X128554762Y-82785714D01*
X128316667Y-82738095D01*
X128126190Y-82738095D01*
X127888095Y-82785714D01*
X127745238Y-82833333D01*
X127650000Y-82880952D01*
X127507143Y-82976190D01*
X127459524Y-83023809D01*
X130254762Y-90785714D02*
X130302381Y-90642857D01*
X130302381Y-90404761D01*
X130254762Y-90309523D01*
X130207143Y-90261904D01*
X130111905Y-90214285D01*
X130016667Y-90214285D01*
X129921429Y-90261904D01*
X129873810Y-90309523D01*
X129826190Y-90404761D01*
X129778571Y-90595238D01*
X129730952Y-90690476D01*
X129683333Y-90738095D01*
X129588095Y-90785714D01*
X129492857Y-90785714D01*
X129397619Y-90738095D01*
X129350000Y-90690476D01*
X129302381Y-90595238D01*
X129302381Y-90357142D01*
X129350000Y-90214285D01*
X130254762Y-89404761D02*
X130302381Y-89499999D01*
X130302381Y-89690476D01*
X130254762Y-89785714D01*
X130159524Y-89833333D01*
X129778571Y-89833333D01*
X129683333Y-89785714D01*
X129635714Y-89690476D01*
X129635714Y-89499999D01*
X129683333Y-89404761D01*
X129778571Y-89357142D01*
X129873810Y-89357142D01*
X129969048Y-89833333D01*
X130302381Y-88928571D02*
X129635714Y-88928571D01*
X129302381Y-88928571D02*
X129350000Y-88976190D01*
X129397619Y-88928571D01*
X129350000Y-88880952D01*
X129302381Y-88928571D01*
X129397619Y-88928571D01*
X130302381Y-88452381D02*
X129635714Y-88452381D01*
X129302381Y-88452381D02*
X129350000Y-88500000D01*
X129397619Y-88452381D01*
X129350000Y-88404762D01*
X129302381Y-88452381D01*
X129397619Y-88452381D01*
X130254762Y-87547619D02*
X130302381Y-87642857D01*
X130302381Y-87833334D01*
X130254762Y-87928572D01*
X130207143Y-87976191D01*
X130111905Y-88023810D01*
X129826190Y-88023810D01*
X129730952Y-87976191D01*
X129683333Y-87928572D01*
X129635714Y-87833334D01*
X129635714Y-87642857D01*
X129683333Y-87547619D01*
X130302381Y-87119048D02*
X129302381Y-87119048D01*
X130302381Y-86690476D02*
X129778571Y-86690476D01*
X129683333Y-86738095D01*
X129635714Y-86833333D01*
X129635714Y-86976191D01*
X129683333Y-87071429D01*
X129730952Y-87119048D01*
X130302381Y-86214286D02*
X129635714Y-86214286D01*
X129302381Y-86214286D02*
X129350000Y-86261905D01*
X129397619Y-86214286D01*
X129350000Y-86166667D01*
X129302381Y-86214286D01*
X129397619Y-86214286D01*
X129302381Y-85119048D02*
X129302381Y-84547619D01*
X130302381Y-84833334D02*
X129302381Y-84833334D01*
X130302381Y-83785714D02*
X129778571Y-83785714D01*
X129683333Y-83833333D01*
X129635714Y-83928571D01*
X129635714Y-84119048D01*
X129683333Y-84214286D01*
X130254762Y-83785714D02*
X130302381Y-83880952D01*
X130302381Y-84119048D01*
X130254762Y-84214286D01*
X130159524Y-84261905D01*
X130064286Y-84261905D01*
X129969048Y-84214286D01*
X129921429Y-84119048D01*
X129921429Y-83880952D01*
X129873810Y-83785714D01*
X129635714Y-83309524D02*
X130302381Y-83309524D01*
X129730952Y-83309524D02*
X129683333Y-83261905D01*
X129635714Y-83166667D01*
X129635714Y-83023809D01*
X129683333Y-82928571D01*
X129778571Y-82880952D01*
X130302381Y-82880952D01*
X130302381Y-81976190D02*
X129778571Y-81976190D01*
X129683333Y-82023809D01*
X129635714Y-82119047D01*
X129635714Y-82309524D01*
X129683333Y-82404762D01*
X130254762Y-81976190D02*
X130302381Y-82071428D01*
X130302381Y-82309524D01*
X130254762Y-82404762D01*
X130159524Y-82452381D01*
X130064286Y-82452381D01*
X129969048Y-82404762D01*
X129921429Y-82309524D01*
X129921429Y-82071428D01*
X129873810Y-81976190D01*
X130302381Y-81500000D02*
X129302381Y-81500000D01*
X129921429Y-81404762D02*
X130302381Y-81119047D01*
X129635714Y-81119047D02*
X130016667Y-81500000D01*
X130302381Y-80261904D02*
X129778571Y-80261904D01*
X129683333Y-80309523D01*
X129635714Y-80404761D01*
X129635714Y-80595238D01*
X129683333Y-80690476D01*
X130254762Y-80261904D02*
X130302381Y-80357142D01*
X130302381Y-80595238D01*
X130254762Y-80690476D01*
X130159524Y-80738095D01*
X130064286Y-80738095D01*
X129969048Y-80690476D01*
X129921429Y-80595238D01*
X129921429Y-80357142D01*
X129873810Y-80261904D01*
X131002381Y-87023809D02*
X131716667Y-87023809D01*
X131859524Y-87071429D01*
X131954762Y-87166667D01*
X132002381Y-87309524D01*
X132002381Y-87404762D01*
X132002381Y-86547619D02*
X131002381Y-86547619D01*
X132002381Y-85547619D02*
X132002381Y-86119048D01*
X132002381Y-85833334D02*
X131002381Y-85833334D01*
X131145238Y-85928572D01*
X131240476Y-86023810D01*
X131288095Y-86119048D01*
X131478571Y-84785714D02*
X131478571Y-85119048D01*
X132002381Y-85119048D02*
X131002381Y-85119048D01*
X131002381Y-84642857D01*
X132002381Y-83785714D02*
X132002381Y-84261905D01*
X131002381Y-84261905D01*
X131478571Y-83119047D02*
X131526190Y-82976190D01*
X131573810Y-82928571D01*
X131669048Y-82880952D01*
X131811905Y-82880952D01*
X131907143Y-82928571D01*
X131954762Y-82976190D01*
X132002381Y-83071428D01*
X132002381Y-83452381D01*
X131002381Y-83452381D01*
X131002381Y-83119047D01*
X131050000Y-83023809D01*
X131097619Y-82976190D01*
X131192857Y-82928571D01*
X131288095Y-82928571D01*
X131383333Y-82976190D01*
X131430952Y-83023809D01*
X131478571Y-83119047D01*
X131478571Y-83452381D01*
D12*
X134399000Y-99975000D02*
X124401000Y-99975000D01*
X134395000Y-100115000D02*
X124405000Y-100115000D01*
X134387000Y-100255000D02*
X124413000Y-100255000D01*
X134375000Y-100395000D02*
X124425000Y-100395000D01*
X134360000Y-100535000D02*
X124440000Y-100535000D01*
X134340000Y-100675000D02*
X124460000Y-100675000D01*
X134316000Y-100815000D02*
X124484000Y-100815000D01*
X134287000Y-100955000D02*
X124513000Y-100955000D01*
X134255000Y-101095000D02*
X124545000Y-101095000D01*
X134218000Y-101235000D02*
X124582000Y-101235000D01*
X134177000Y-101375000D02*
X124623000Y-101375000D01*
X134132000Y-101515000D02*
X129866000Y-101515000D01*
X128934000Y-101515000D02*
X124668000Y-101515000D01*
X134082000Y-101655000D02*
X130067000Y-101655000D01*
X128733000Y-101655000D02*
X124718000Y-101655000D01*
X134027000Y-101795000D02*
X130196000Y-101795000D01*
X128604000Y-101795000D02*
X124773000Y-101795000D01*
X133967000Y-101935000D02*
X130285000Y-101935000D01*
X128515000Y-101935000D02*
X124833000Y-101935000D01*
X133902000Y-102075000D02*
X130346000Y-102075000D01*
X128454000Y-102075000D02*
X124898000Y-102075000D01*
X133832000Y-102215000D02*
X130383000Y-102215000D01*
X128417000Y-102215000D02*
X124968000Y-102215000D01*
X133756000Y-102355000D02*
X130399000Y-102355000D01*
X128401000Y-102355000D02*
X125044000Y-102355000D01*
X133674000Y-102495000D02*
X130395000Y-102495000D01*
X128405000Y-102495000D02*
X125126000Y-102495000D01*
X133586000Y-102635000D02*
X130372000Y-102635000D01*
X128428000Y-102635000D02*
X125214000Y-102635000D01*
X133491000Y-102775000D02*
X130327000Y-102775000D01*
X128473000Y-102775000D02*
X125309000Y-102775000D01*
X133389000Y-102915000D02*
X130257000Y-102915000D01*
X128543000Y-102915000D02*
X125411000Y-102915000D01*
X133279000Y-103055000D02*
X130156000Y-103055000D01*
X128644000Y-103055000D02*
X125521000Y-103055000D01*
X133161000Y-103195000D02*
X130007000Y-103195000D01*
X128793000Y-103195000D02*
X125639000Y-103195000D01*
X133033000Y-103335000D02*
X129755000Y-103335000D01*
X129045000Y-103335000D02*
X125767000Y-103335000D01*
X132896000Y-103475000D02*
X125904000Y-103475000D01*
X132746000Y-103615000D02*
X126054000Y-103615000D01*
X132584000Y-103755000D02*
X126216000Y-103755000D01*
X132407000Y-103895000D02*
X126393000Y-103895000D01*
X132211000Y-104035000D02*
X126589000Y-104035000D01*
X131993000Y-104175000D02*
X126807000Y-104175000D01*
X131747000Y-104315000D02*
X127053000Y-104315000D01*
X131462000Y-104455000D02*
X127338000Y-104455000D01*
X131120000Y-104595000D02*
X127680000Y-104595000D01*
X130674000Y-104735000D02*
X128126000Y-104735000D01*
X129899000Y-104875000D02*
X128901000Y-104875000D01*
X130400000Y-102400000D02*
G75*
G03X130400000Y-102400000I-1000000J0D01*
G01*
X134437500Y-99900000D02*
G75*
G03X134437500Y-99900000I-5037500J0D01*
G01*
X138000000Y-96500000D02*
X138000000Y-103500000D01*
X138000000Y-103500000D02*
X136000000Y-103500000D01*
X136000000Y-103500000D02*
X136000000Y-96500000D01*
X136000000Y-96500000D02*
X138000000Y-96500000D01*
X153500000Y-96500000D02*
X153500000Y-103500000D01*
X153500000Y-103500000D02*
X151500000Y-103500000D01*
X151500000Y-103500000D02*
X151500000Y-96500000D01*
X151500000Y-96500000D02*
X153500000Y-96500000D01*
X108025000Y-114999000D02*
X108025000Y-105001000D01*
X107885000Y-114995000D02*
X107885000Y-105005000D01*
X107745000Y-114987000D02*
X107745000Y-105013000D01*
X107605000Y-114975000D02*
X107605000Y-105025000D01*
X107465000Y-114960000D02*
X107465000Y-105040000D01*
X107325000Y-114940000D02*
X107325000Y-105060000D01*
X107185000Y-114916000D02*
X107185000Y-105084000D01*
X107045000Y-114887000D02*
X107045000Y-105113000D01*
X106905000Y-114855000D02*
X106905000Y-105145000D01*
X106765000Y-114818000D02*
X106765000Y-105182000D01*
X106625000Y-114777000D02*
X106625000Y-105223000D01*
X106485000Y-114732000D02*
X106485000Y-110466000D01*
X106485000Y-109534000D02*
X106485000Y-105268000D01*
X106345000Y-114682000D02*
X106345000Y-110667000D01*
X106345000Y-109333000D02*
X106345000Y-105318000D01*
X106205000Y-114627000D02*
X106205000Y-110796000D01*
X106205000Y-109204000D02*
X106205000Y-105373000D01*
X106065000Y-114567000D02*
X106065000Y-110885000D01*
X106065000Y-109115000D02*
X106065000Y-105433000D01*
X105925000Y-114502000D02*
X105925000Y-110946000D01*
X105925000Y-109054000D02*
X105925000Y-105498000D01*
X105785000Y-114432000D02*
X105785000Y-110983000D01*
X105785000Y-109017000D02*
X105785000Y-105568000D01*
X105645000Y-114356000D02*
X105645000Y-110999000D01*
X105645000Y-109001000D02*
X105645000Y-105644000D01*
X105505000Y-114274000D02*
X105505000Y-110995000D01*
X105505000Y-109005000D02*
X105505000Y-105726000D01*
X105365000Y-114186000D02*
X105365000Y-110972000D01*
X105365000Y-109028000D02*
X105365000Y-105814000D01*
X105225000Y-114091000D02*
X105225000Y-110927000D01*
X105225000Y-109073000D02*
X105225000Y-105909000D01*
X105085000Y-113989000D02*
X105085000Y-110857000D01*
X105085000Y-109143000D02*
X105085000Y-106011000D01*
X104945000Y-113879000D02*
X104945000Y-110756000D01*
X104945000Y-109244000D02*
X104945000Y-106121000D01*
X104805000Y-113761000D02*
X104805000Y-110607000D01*
X104805000Y-109393000D02*
X104805000Y-106239000D01*
X104665000Y-113633000D02*
X104665000Y-110355000D01*
X104665000Y-109645000D02*
X104665000Y-106367000D01*
X104525000Y-113496000D02*
X104525000Y-106504000D01*
X104385000Y-113346000D02*
X104385000Y-106654000D01*
X104245000Y-113184000D02*
X104245000Y-106816000D01*
X104105000Y-113007000D02*
X104105000Y-106993000D01*
X103965000Y-112811000D02*
X103965000Y-107189000D01*
X103825000Y-112593000D02*
X103825000Y-107407000D01*
X103685000Y-112347000D02*
X103685000Y-107653000D01*
X103545000Y-112062000D02*
X103545000Y-107938000D01*
X103405000Y-111720000D02*
X103405000Y-108280000D01*
X103265000Y-111274000D02*
X103265000Y-108726000D01*
X103125000Y-110499000D02*
X103125000Y-109501000D01*
X106600000Y-110000000D02*
G75*
G03X106600000Y-110000000I-1000000J0D01*
G01*
X113137500Y-110000000D02*
G75*
G03X113137500Y-110000000I-5037500J0D01*
G01*
X106600000Y-95200000D02*
X106600000Y-102200000D01*
X106600000Y-102200000D02*
X104600000Y-102200000D01*
X104600000Y-102200000D02*
X104600000Y-95200000D01*
X104600000Y-95200000D02*
X106600000Y-95200000D01*
X123400000Y-95200000D02*
X123400000Y-102200000D01*
X123400000Y-102200000D02*
X121400000Y-102200000D01*
X121400000Y-102200000D02*
X121400000Y-95200000D01*
X121400000Y-95200000D02*
X123400000Y-95200000D01*
X100501000Y-79014000D02*
X100501000Y-78814000D01*
X100501000Y-76420000D02*
X100501000Y-76600000D01*
X103728744Y-76730357D02*
G75*
G03X100501000Y-76414000I-1727744J-1003643D01*
G01*
X103053006Y-76600932D02*
G75*
G03X100950000Y-76600000I-1052006J-1133068D01*
G01*
X100513780Y-79040726D02*
G75*
G03X103751000Y-78694000I1497220J1306726D01*
G01*
X100987111Y-78813253D02*
G75*
G03X103035000Y-78794000I1013889J1079253D01*
G01*
X147420000Y-100597460D02*
X148436000Y-100597460D01*
X142594000Y-100597460D02*
X141324000Y-100597460D01*
X142848000Y-99327460D02*
X142848000Y-101867460D01*
X143102000Y-99327460D02*
X143102000Y-101867460D01*
X143356000Y-99327460D02*
X143356000Y-101867460D01*
X142594000Y-99327460D02*
X142594000Y-101867460D01*
X143610000Y-99327460D02*
X142340000Y-101867460D01*
X142340000Y-99327460D02*
X143610000Y-101867460D01*
X143610000Y-99327460D02*
X143610000Y-101867460D01*
X142975000Y-99327460D02*
X142975000Y-101867460D01*
X142340000Y-101867460D02*
X142340000Y-99327460D01*
X142340000Y-99327460D02*
X147420000Y-99327460D01*
X147420000Y-99327460D02*
X147420000Y-101867460D01*
X147420000Y-101867460D02*
X142340000Y-101867460D01*
X116820000Y-100597460D02*
X117836000Y-100597460D01*
X111994000Y-100597460D02*
X110724000Y-100597460D01*
X112248000Y-99327460D02*
X112248000Y-101867460D01*
X112502000Y-99327460D02*
X112502000Y-101867460D01*
X112756000Y-99327460D02*
X112756000Y-101867460D01*
X111994000Y-99327460D02*
X111994000Y-101867460D01*
X113010000Y-99327460D02*
X111740000Y-101867460D01*
X111740000Y-99327460D02*
X113010000Y-101867460D01*
X113010000Y-99327460D02*
X113010000Y-101867460D01*
X112375000Y-99327460D02*
X112375000Y-101867460D01*
X111740000Y-101867460D02*
X111740000Y-99327460D01*
X111740000Y-99327460D02*
X116820000Y-99327460D01*
X116820000Y-99327460D02*
X116820000Y-101867460D01*
X116820000Y-101867460D02*
X111740000Y-101867460D01*
X93000000Y-89250000D02*
X100000000Y-89250000D01*
X100000000Y-89250000D02*
X100000000Y-92750000D01*
X100000000Y-92750000D02*
X93000000Y-92750000D01*
X93000000Y-92750000D02*
X93000000Y-89250000D01*
X146800000Y-108250000D02*
X153800000Y-108250000D01*
X153800000Y-108250000D02*
X153800000Y-111750000D01*
X153800000Y-111750000D02*
X146800000Y-111750000D01*
X146800000Y-111750000D02*
X146800000Y-108250000D01*
X142400000Y-111550000D02*
X135400000Y-111550000D01*
X135400000Y-111550000D02*
X135400000Y-108050000D01*
X135400000Y-108050000D02*
X142400000Y-108050000D01*
X142400000Y-108050000D02*
X142400000Y-111550000D01*
X123000000Y-108250000D02*
X130000000Y-108250000D01*
X130000000Y-108250000D02*
X130000000Y-111750000D01*
X130000000Y-111750000D02*
X123000000Y-111750000D01*
X123000000Y-111750000D02*
X123000000Y-108250000D01*
D10*
G36*
X90500000Y-84400000D02*
X90500000Y-84900000D01*
X91000000Y-84900000D01*
X91000000Y-84400000D01*
X90500000Y-84400000D01*
G37*
G36*
X95800000Y-80900000D02*
X95800000Y-88400000D01*
X96800000Y-88400000D01*
X96800000Y-80900000D01*
X95800000Y-80900000D01*
G37*
G36*
X90400000Y-87900000D02*
X90400000Y-88400000D01*
X96800000Y-88400000D01*
X96800000Y-87900000D01*
X90400000Y-87900000D01*
G37*
G36*
X90400000Y-80900000D02*
X90400000Y-81400000D01*
X96800000Y-81400000D01*
X96800000Y-80900000D01*
X90400000Y-80900000D01*
G37*
G36*
X90410000Y-80900000D02*
X90410000Y-83200000D01*
X90910000Y-83200000D01*
X90910000Y-80900000D01*
X90410000Y-80900000D01*
G37*
G36*
X90400000Y-86090000D02*
X90400000Y-88390000D01*
X90900000Y-88390000D01*
X90900000Y-86090000D01*
X90400000Y-86090000D01*
G37*
G36*
X90900000Y-82970000D02*
X90900000Y-86220000D01*
X91400000Y-86220000D01*
X91400000Y-82970000D01*
X90900000Y-82970000D01*
G37*
G36*
X90400000Y-84600000D02*
X90400000Y-84700000D01*
X90500000Y-84700000D01*
X90500000Y-84600000D01*
X90400000Y-84600000D01*
G37*
G36*
X150200000Y-119300000D02*
X150700000Y-119300000D01*
X150700000Y-118800000D01*
X150200000Y-118800000D01*
X150200000Y-119300000D01*
G37*
G36*
X146700000Y-114000000D02*
X154200000Y-114000000D01*
X154200000Y-113000000D01*
X146700000Y-113000000D01*
X146700000Y-114000000D01*
G37*
G36*
X153700000Y-119400000D02*
X154200000Y-119400000D01*
X154200000Y-113000000D01*
X153700000Y-113000000D01*
X153700000Y-119400000D01*
G37*
G36*
X146700000Y-119400000D02*
X147200000Y-119400000D01*
X147200000Y-113000000D01*
X146700000Y-113000000D01*
X146700000Y-119400000D01*
G37*
G36*
X146700000Y-119390000D02*
X149000000Y-119390000D01*
X149000000Y-118890000D01*
X146700000Y-118890000D01*
X146700000Y-119390000D01*
G37*
G36*
X151890000Y-119400000D02*
X154190000Y-119400000D01*
X154190000Y-118900000D01*
X151890000Y-118900000D01*
X151890000Y-119400000D01*
G37*
G36*
X148770000Y-118900000D02*
X152020000Y-118900000D01*
X152020000Y-118400000D01*
X148770000Y-118400000D01*
X148770000Y-118900000D01*
G37*
G36*
X150400000Y-119400000D02*
X150500000Y-119400000D01*
X150500000Y-119300000D01*
X150400000Y-119300000D01*
X150400000Y-119400000D01*
G37*
G36*
X138600000Y-119300000D02*
X139100000Y-119300000D01*
X139100000Y-118800000D01*
X138600000Y-118800000D01*
X138600000Y-119300000D01*
G37*
G36*
X135100000Y-114000000D02*
X142600000Y-114000000D01*
X142600000Y-113000000D01*
X135100000Y-113000000D01*
X135100000Y-114000000D01*
G37*
G36*
X142100000Y-119400000D02*
X142600000Y-119400000D01*
X142600000Y-113000000D01*
X142100000Y-113000000D01*
X142100000Y-119400000D01*
G37*
G36*
X135100000Y-119400000D02*
X135600000Y-119400000D01*
X135600000Y-113000000D01*
X135100000Y-113000000D01*
X135100000Y-119400000D01*
G37*
G36*
X135100000Y-119390000D02*
X137400000Y-119390000D01*
X137400000Y-118890000D01*
X135100000Y-118890000D01*
X135100000Y-119390000D01*
G37*
G36*
X140290000Y-119400000D02*
X142590000Y-119400000D01*
X142590000Y-118900000D01*
X140290000Y-118900000D01*
X140290000Y-119400000D01*
G37*
G36*
X137170000Y-118900000D02*
X140420000Y-118900000D01*
X140420000Y-118400000D01*
X137170000Y-118400000D01*
X137170000Y-118900000D01*
G37*
G36*
X138800000Y-119400000D02*
X138900000Y-119400000D01*
X138900000Y-119300000D01*
X138800000Y-119300000D01*
X138800000Y-119400000D01*
G37*
G36*
X125800000Y-119300000D02*
X126300000Y-119300000D01*
X126300000Y-118800000D01*
X125800000Y-118800000D01*
X125800000Y-119300000D01*
G37*
G36*
X122300000Y-114000000D02*
X129800000Y-114000000D01*
X129800000Y-113000000D01*
X122300000Y-113000000D01*
X122300000Y-114000000D01*
G37*
G36*
X129300000Y-119400000D02*
X129800000Y-119400000D01*
X129800000Y-113000000D01*
X129300000Y-113000000D01*
X129300000Y-119400000D01*
G37*
G36*
X122300000Y-119400000D02*
X122800000Y-119400000D01*
X122800000Y-113000000D01*
X122300000Y-113000000D01*
X122300000Y-119400000D01*
G37*
G36*
X122300000Y-119390000D02*
X124600000Y-119390000D01*
X124600000Y-118890000D01*
X122300000Y-118890000D01*
X122300000Y-119390000D01*
G37*
G36*
X127490000Y-119400000D02*
X129790000Y-119400000D01*
X129790000Y-118900000D01*
X127490000Y-118900000D01*
X127490000Y-119400000D01*
G37*
G36*
X124370000Y-118900000D02*
X127620000Y-118900000D01*
X127620000Y-118400000D01*
X124370000Y-118400000D01*
X124370000Y-118900000D01*
G37*
G36*
X126000000Y-119400000D02*
X126100000Y-119400000D01*
X126100000Y-119300000D01*
X126000000Y-119300000D01*
X126000000Y-119400000D01*
G37*
D12*
X149026000Y-94949000D02*
X149026000Y-98378000D01*
X139374000Y-94949000D02*
X139374000Y-98378000D01*
X149534000Y-93806000D02*
X138866000Y-93806000D01*
X145978000Y-94822000D02*
X145978000Y-93552000D01*
X142422000Y-94822000D02*
X142422000Y-93552000D01*
X138866000Y-94949000D02*
X149534000Y-94949000D01*
X149534000Y-98378000D02*
X138866000Y-98378000D01*
X138866000Y-93552000D02*
X138866000Y-98378000D01*
X149534000Y-93552000D02*
X149534000Y-98378000D01*
X149534000Y-93552000D02*
X138866000Y-93552000D01*
X119626000Y-94949000D02*
X119626000Y-98378000D01*
X109974000Y-94949000D02*
X109974000Y-98378000D01*
X120134000Y-93806000D02*
X109466000Y-93806000D01*
X116578000Y-94822000D02*
X116578000Y-93552000D01*
X113022000Y-94822000D02*
X113022000Y-93552000D01*
X109466000Y-94949000D02*
X120134000Y-94949000D01*
X120134000Y-98378000D02*
X109466000Y-98378000D01*
X109466000Y-93552000D02*
X109466000Y-98378000D01*
X120134000Y-93552000D02*
X120134000Y-98378000D01*
X120134000Y-93552000D02*
X109466000Y-93552000D01*
X100000000Y-94650000D02*
X93000000Y-94650000D01*
X100000000Y-98050000D02*
X93000000Y-98050000D01*
X93000000Y-98050000D02*
X93000000Y-94650000D01*
X100000000Y-98050000D02*
X100000000Y-94650000D01*
X160649000Y-100325000D02*
X154351000Y-100325000D01*
X160643000Y-100465000D02*
X154357000Y-100465000D01*
X160630000Y-100605000D02*
X157946000Y-100605000D01*
X157054000Y-100605000D02*
X154370000Y-100605000D01*
X160611000Y-100745000D02*
X158156000Y-100745000D01*
X156844000Y-100745000D02*
X154389000Y-100745000D01*
X160585000Y-100885000D02*
X158289000Y-100885000D01*
X156711000Y-100885000D02*
X154415000Y-100885000D01*
X160553000Y-101025000D02*
X158380000Y-101025000D01*
X156620000Y-101025000D02*
X154447000Y-101025000D01*
X160514000Y-101165000D02*
X158442000Y-101165000D01*
X156558000Y-101165000D02*
X154486000Y-101165000D01*
X160468000Y-101305000D02*
X158481000Y-101305000D01*
X156519000Y-101305000D02*
X154532000Y-101305000D01*
X160415000Y-101445000D02*
X158498000Y-101445000D01*
X156502000Y-101445000D02*
X154585000Y-101445000D01*
X160353000Y-101585000D02*
X158496000Y-101585000D01*
X156504000Y-101585000D02*
X154647000Y-101585000D01*
X160283000Y-101725000D02*
X158474000Y-101725000D01*
X156526000Y-101725000D02*
X154717000Y-101725000D01*
X160204000Y-101865000D02*
X158431000Y-101865000D01*
X156569000Y-101865000D02*
X154796000Y-101865000D01*
X160116000Y-102005000D02*
X158363000Y-102005000D01*
X156637000Y-102005000D02*
X154884000Y-102005000D01*
X160016000Y-102145000D02*
X158264000Y-102145000D01*
X156736000Y-102145000D02*
X154984000Y-102145000D01*
X159904000Y-102285000D02*
X158119000Y-102285000D01*
X156881000Y-102285000D02*
X155096000Y-102285000D01*
X159779000Y-102425000D02*
X157880000Y-102425000D01*
X157120000Y-102425000D02*
X155221000Y-102425000D01*
X159636000Y-102565000D02*
X155364000Y-102565000D01*
X159474000Y-102705000D02*
X155526000Y-102705000D01*
X159286000Y-102845000D02*
X155714000Y-102845000D01*
X159063000Y-102985000D02*
X155937000Y-102985000D01*
X158787000Y-103125000D02*
X156213000Y-103125000D01*
X158412000Y-103265000D02*
X156588000Y-103265000D01*
X158500000Y-101500000D02*
G75*
G03X158500000Y-101500000I-1000000J0D01*
G01*
X160687500Y-100250000D02*
G75*
G03X160687500Y-100250000I-3187500J0D01*
G01*
X121749000Y-108125000D02*
X115451000Y-108125000D01*
X121743000Y-108265000D02*
X115457000Y-108265000D01*
X121730000Y-108405000D02*
X119046000Y-108405000D01*
X118154000Y-108405000D02*
X115470000Y-108405000D01*
X121711000Y-108545000D02*
X119256000Y-108545000D01*
X117944000Y-108545000D02*
X115489000Y-108545000D01*
X121685000Y-108685000D02*
X119389000Y-108685000D01*
X117811000Y-108685000D02*
X115515000Y-108685000D01*
X121653000Y-108825000D02*
X119480000Y-108825000D01*
X117720000Y-108825000D02*
X115547000Y-108825000D01*
X121614000Y-108965000D02*
X119542000Y-108965000D01*
X117658000Y-108965000D02*
X115586000Y-108965000D01*
X121568000Y-109105000D02*
X119581000Y-109105000D01*
X117619000Y-109105000D02*
X115632000Y-109105000D01*
X121515000Y-109245000D02*
X119598000Y-109245000D01*
X117602000Y-109245000D02*
X115685000Y-109245000D01*
X121453000Y-109385000D02*
X119596000Y-109385000D01*
X117604000Y-109385000D02*
X115747000Y-109385000D01*
X121383000Y-109525000D02*
X119574000Y-109525000D01*
X117626000Y-109525000D02*
X115817000Y-109525000D01*
X121304000Y-109665000D02*
X119531000Y-109665000D01*
X117669000Y-109665000D02*
X115896000Y-109665000D01*
X121216000Y-109805000D02*
X119463000Y-109805000D01*
X117737000Y-109805000D02*
X115984000Y-109805000D01*
X121116000Y-109945000D02*
X119364000Y-109945000D01*
X117836000Y-109945000D02*
X116084000Y-109945000D01*
X121004000Y-110085000D02*
X119219000Y-110085000D01*
X117981000Y-110085000D02*
X116196000Y-110085000D01*
X120879000Y-110225000D02*
X118980000Y-110225000D01*
X118220000Y-110225000D02*
X116321000Y-110225000D01*
X120736000Y-110365000D02*
X116464000Y-110365000D01*
X120574000Y-110505000D02*
X116626000Y-110505000D01*
X120386000Y-110645000D02*
X116814000Y-110645000D01*
X120163000Y-110785000D02*
X117037000Y-110785000D01*
X119887000Y-110925000D02*
X117313000Y-110925000D01*
X119512000Y-111065000D02*
X117688000Y-111065000D01*
X119600000Y-109300000D02*
G75*
G03X119600000Y-109300000I-1000000J0D01*
G01*
X121787500Y-108050000D02*
G75*
G03X121787500Y-108050000I-3187500J0D01*
G01*
D13*
X144200000Y-92700000D02*
X144200000Y-92000000D01*
X144400000Y-93200000D02*
G75*
G03X144400000Y-93200000I-200000J0D01*
G01*
X146700000Y-77000000D02*
X146700000Y-88100000D01*
X136000000Y-76900000D02*
X137200000Y-76900000D01*
X137200000Y-76900000D02*
X137200000Y-88100000D01*
X137200000Y-88100000D02*
X141700000Y-88100000D01*
X141700000Y-88100000D02*
X141700000Y-77000000D01*
X141700000Y-77000000D02*
X142700000Y-77000000D01*
X142700000Y-77000000D02*
X142700000Y-88100000D01*
X142700000Y-88100000D02*
X145700000Y-88100000D01*
X145700000Y-88100000D02*
X145700000Y-77000000D01*
X145700000Y-77000000D02*
X146700000Y-77000000D01*
X146900000Y-88100000D02*
X151200000Y-88100000D01*
X151200000Y-88100000D02*
X151200000Y-77000000D01*
X151200000Y-77000000D02*
X152400000Y-77000000D01*
X135950000Y-93000000D02*
X135950000Y-77000000D01*
X152450000Y-93000000D02*
X152400000Y-77000000D01*
X144200000Y-93000000D02*
X152450000Y-93000000D01*
X152450000Y-93000000D02*
X152500000Y-93000000D01*
X144200000Y-93000000D02*
X135950000Y-93000000D01*
X135950000Y-93000000D02*
X135900000Y-93000000D01*
X114800000Y-92700000D02*
X114800000Y-92000000D01*
X115000000Y-93200000D02*
G75*
G03X115000000Y-93200000I-200000J0D01*
G01*
X117300000Y-77000000D02*
X117300000Y-88100000D01*
X106600000Y-76900000D02*
X107800000Y-76900000D01*
X107800000Y-76900000D02*
X107800000Y-88100000D01*
X107800000Y-88100000D02*
X112300000Y-88100000D01*
X112300000Y-88100000D02*
X112300000Y-77000000D01*
X112300000Y-77000000D02*
X113300000Y-77000000D01*
X113300000Y-77000000D02*
X113300000Y-88100000D01*
X113300000Y-88100000D02*
X116300000Y-88100000D01*
X116300000Y-88100000D02*
X116300000Y-77000000D01*
X116300000Y-77000000D02*
X117300000Y-77000000D01*
X117500000Y-88100000D02*
X121800000Y-88100000D01*
X121800000Y-88100000D02*
X121800000Y-77000000D01*
X121800000Y-77000000D02*
X123000000Y-77000000D01*
X106550000Y-93000000D02*
X106550000Y-77000000D01*
X123050000Y-93000000D02*
X123000000Y-77000000D01*
X114800000Y-93000000D02*
X123050000Y-93000000D01*
X123050000Y-93000000D02*
X123100000Y-93000000D01*
X114800000Y-93000000D02*
X106550000Y-93000000D01*
X106550000Y-93000000D02*
X106500000Y-93000000D01*
D12*
X101350000Y-105600000D02*
X101350000Y-112600000D01*
X101350000Y-112600000D02*
X97850000Y-112600000D01*
X97850000Y-112600000D02*
X97850000Y-105600000D01*
X97850000Y-105600000D02*
X101350000Y-105600000D01*
D10*
G36*
X90700000Y-108800000D02*
X90700000Y-109300000D01*
X91200000Y-109300000D01*
X91200000Y-108800000D01*
X90700000Y-108800000D01*
G37*
G36*
X96000000Y-105300000D02*
X96000000Y-112800000D01*
X97000000Y-112800000D01*
X97000000Y-105300000D01*
X96000000Y-105300000D01*
G37*
G36*
X90600000Y-112300000D02*
X90600000Y-112800000D01*
X97000000Y-112800000D01*
X97000000Y-112300000D01*
X90600000Y-112300000D01*
G37*
G36*
X90600000Y-105300000D02*
X90600000Y-105800000D01*
X97000000Y-105800000D01*
X97000000Y-105300000D01*
X90600000Y-105300000D01*
G37*
G36*
X90610000Y-105300000D02*
X90610000Y-107600000D01*
X91110000Y-107600000D01*
X91110000Y-105300000D01*
X90610000Y-105300000D01*
G37*
G36*
X90600000Y-110490000D02*
X90600000Y-112790000D01*
X91100000Y-112790000D01*
X91100000Y-110490000D01*
X90600000Y-110490000D01*
G37*
G36*
X91100000Y-107370000D02*
X91100000Y-110620000D01*
X91600000Y-110620000D01*
X91600000Y-107370000D01*
X91100000Y-107370000D01*
G37*
G36*
X90600000Y-109000000D02*
X90600000Y-109100000D01*
X90700000Y-109100000D01*
X90700000Y-109000000D01*
X90600000Y-109000000D01*
G37*
D12*
X101730000Y-89730000D02*
X101730000Y-84650000D01*
X101730000Y-84650000D02*
X104270000Y-84650000D01*
X104270000Y-84650000D02*
X104270000Y-89730000D01*
X104270000Y-89730000D02*
X101730000Y-89730000D01*
D14*
X100056000Y-101516000D02*
X92944000Y-101516000D01*
X92944000Y-101516000D02*
X92944000Y-99484000D01*
X92944000Y-99484000D02*
X100056000Y-99484000D01*
X100056000Y-99484000D02*
X100056000Y-101516000D01*
D12*
X129333334Y-93857143D02*
X129285715Y-93904762D01*
X129142858Y-93952381D01*
X129047620Y-93952381D01*
X128904762Y-93904762D01*
X128809524Y-93809524D01*
X128761905Y-93714286D01*
X128714286Y-93523810D01*
X128714286Y-93380952D01*
X128761905Y-93190476D01*
X128809524Y-93095238D01*
X128904762Y-93000000D01*
X129047620Y-92952381D01*
X129142858Y-92952381D01*
X129285715Y-93000000D01*
X129333334Y-93047619D01*
X130285715Y-93952381D02*
X129714286Y-93952381D01*
X130000000Y-93952381D02*
X130000000Y-92952381D01*
X129904762Y-93095238D01*
X129809524Y-93190476D01*
X129714286Y-93238095D01*
X135833334Y-105357143D02*
X135785715Y-105404762D01*
X135642858Y-105452381D01*
X135547620Y-105452381D01*
X135404762Y-105404762D01*
X135309524Y-105309524D01*
X135261905Y-105214286D01*
X135214286Y-105023810D01*
X135214286Y-104880952D01*
X135261905Y-104690476D01*
X135309524Y-104595238D01*
X135404762Y-104500000D01*
X135547620Y-104452381D01*
X135642858Y-104452381D01*
X135785715Y-104500000D01*
X135833334Y-104547619D01*
X136214286Y-104547619D02*
X136261905Y-104500000D01*
X136357143Y-104452381D01*
X136595239Y-104452381D01*
X136690477Y-104500000D01*
X136738096Y-104547619D01*
X136785715Y-104642857D01*
X136785715Y-104738095D01*
X136738096Y-104880952D01*
X136166667Y-105452381D01*
X136785715Y-105452381D01*
X152333334Y-105357143D02*
X152285715Y-105404762D01*
X152142858Y-105452381D01*
X152047620Y-105452381D01*
X151904762Y-105404762D01*
X151809524Y-105309524D01*
X151761905Y-105214286D01*
X151714286Y-105023810D01*
X151714286Y-104880952D01*
X151761905Y-104690476D01*
X151809524Y-104595238D01*
X151904762Y-104500000D01*
X152047620Y-104452381D01*
X152142858Y-104452381D01*
X152285715Y-104500000D01*
X152333334Y-104547619D01*
X152666667Y-104452381D02*
X153285715Y-104452381D01*
X152952381Y-104833333D01*
X153095239Y-104833333D01*
X153190477Y-104880952D01*
X153238096Y-104928571D01*
X153285715Y-105023810D01*
X153285715Y-105261905D01*
X153238096Y-105357143D01*
X153190477Y-105404762D01*
X153095239Y-105452381D01*
X152809524Y-105452381D01*
X152714286Y-105404762D01*
X152666667Y-105357143D01*
X108033334Y-116557143D02*
X107985715Y-116604762D01*
X107842858Y-116652381D01*
X107747620Y-116652381D01*
X107604762Y-116604762D01*
X107509524Y-116509524D01*
X107461905Y-116414286D01*
X107414286Y-116223810D01*
X107414286Y-116080952D01*
X107461905Y-115890476D01*
X107509524Y-115795238D01*
X107604762Y-115700000D01*
X107747620Y-115652381D01*
X107842858Y-115652381D01*
X107985715Y-115700000D01*
X108033334Y-115747619D01*
X108938096Y-115652381D02*
X108461905Y-115652381D01*
X108414286Y-116128571D01*
X108461905Y-116080952D01*
X108557143Y-116033333D01*
X108795239Y-116033333D01*
X108890477Y-116080952D01*
X108938096Y-116128571D01*
X108985715Y-116223810D01*
X108985715Y-116461905D01*
X108938096Y-116557143D01*
X108890477Y-116604762D01*
X108795239Y-116652381D01*
X108557143Y-116652381D01*
X108461905Y-116604762D01*
X108414286Y-116557143D01*
X105333334Y-103857143D02*
X105285715Y-103904762D01*
X105142858Y-103952381D01*
X105047620Y-103952381D01*
X104904762Y-103904762D01*
X104809524Y-103809524D01*
X104761905Y-103714286D01*
X104714286Y-103523810D01*
X104714286Y-103380952D01*
X104761905Y-103190476D01*
X104809524Y-103095238D01*
X104904762Y-103000000D01*
X105047620Y-102952381D01*
X105142858Y-102952381D01*
X105285715Y-103000000D01*
X105333334Y-103047619D01*
X106190477Y-102952381D02*
X106000000Y-102952381D01*
X105904762Y-103000000D01*
X105857143Y-103047619D01*
X105761905Y-103190476D01*
X105714286Y-103380952D01*
X105714286Y-103761905D01*
X105761905Y-103857143D01*
X105809524Y-103904762D01*
X105904762Y-103952381D01*
X106095239Y-103952381D01*
X106190477Y-103904762D01*
X106238096Y-103857143D01*
X106285715Y-103761905D01*
X106285715Y-103523810D01*
X106238096Y-103428571D01*
X106190477Y-103380952D01*
X106095239Y-103333333D01*
X105904762Y-103333333D01*
X105809524Y-103380952D01*
X105761905Y-103428571D01*
X105714286Y-103523810D01*
X122333334Y-103857143D02*
X122285715Y-103904762D01*
X122142858Y-103952381D01*
X122047620Y-103952381D01*
X121904762Y-103904762D01*
X121809524Y-103809524D01*
X121761905Y-103714286D01*
X121714286Y-103523810D01*
X121714286Y-103380952D01*
X121761905Y-103190476D01*
X121809524Y-103095238D01*
X121904762Y-103000000D01*
X122047620Y-102952381D01*
X122142858Y-102952381D01*
X122285715Y-103000000D01*
X122333334Y-103047619D01*
X122666667Y-102952381D02*
X123333334Y-102952381D01*
X122904762Y-103952381D01*
X101871905Y-81212381D02*
X101871905Y-80212381D01*
X102110000Y-80212381D01*
X102252858Y-80260000D01*
X102348096Y-80355238D01*
X102395715Y-80450476D01*
X102443334Y-80640952D01*
X102443334Y-80783810D01*
X102395715Y-80974286D01*
X102348096Y-81069524D01*
X102252858Y-81164762D01*
X102110000Y-81212381D01*
X101871905Y-81212381D01*
X103395715Y-81212381D02*
X102824286Y-81212381D01*
X103110000Y-81212381D02*
X103110000Y-80212381D01*
X103014762Y-80355238D01*
X102919524Y-80450476D01*
X102824286Y-80498095D01*
X98748095Y-79892381D02*
X98748095Y-78892381D01*
X99319524Y-79892381D02*
X98890952Y-79320952D01*
X99319524Y-78892381D02*
X98748095Y-79463810D01*
X144449245Y-103589841D02*
X144449245Y-102589841D01*
X144687340Y-102589841D01*
X144830198Y-102637460D01*
X144925436Y-102732698D01*
X144973055Y-102827936D01*
X145020674Y-103018412D01*
X145020674Y-103161270D01*
X144973055Y-103351746D01*
X144925436Y-103446984D01*
X144830198Y-103542222D01*
X144687340Y-103589841D01*
X144449245Y-103589841D01*
X145877817Y-102589841D02*
X145687340Y-102589841D01*
X145592102Y-102637460D01*
X145544483Y-102685079D01*
X145449245Y-102827936D01*
X145401626Y-103018412D01*
X145401626Y-103399365D01*
X145449245Y-103494603D01*
X145496864Y-103542222D01*
X145592102Y-103589841D01*
X145782579Y-103589841D01*
X145877817Y-103542222D01*
X145925436Y-103494603D01*
X145973055Y-103399365D01*
X145973055Y-103161270D01*
X145925436Y-103066031D01*
X145877817Y-103018412D01*
X145782579Y-102970793D01*
X145592102Y-102970793D01*
X145496864Y-103018412D01*
X145449245Y-103066031D01*
X145401626Y-103161270D01*
X113849245Y-103589841D02*
X113849245Y-102589841D01*
X114087340Y-102589841D01*
X114230198Y-102637460D01*
X114325436Y-102732698D01*
X114373055Y-102827936D01*
X114420674Y-103018412D01*
X114420674Y-103161270D01*
X114373055Y-103351746D01*
X114325436Y-103446984D01*
X114230198Y-103542222D01*
X114087340Y-103589841D01*
X113849245Y-103589841D01*
X114754007Y-102589841D02*
X115420674Y-102589841D01*
X114992102Y-103589841D01*
X91166667Y-90928571D02*
X90833333Y-90928571D01*
X90833333Y-91452381D02*
X90833333Y-90452381D01*
X91309524Y-90452381D01*
X92214286Y-91452381D02*
X91642857Y-91452381D01*
X91928571Y-91452381D02*
X91928571Y-90452381D01*
X91833333Y-90595238D01*
X91738095Y-90690476D01*
X91642857Y-90738095D01*
X149766667Y-107028571D02*
X149433333Y-107028571D01*
X149433333Y-107552381D02*
X149433333Y-106552381D01*
X149909524Y-106552381D01*
X150242857Y-106647619D02*
X150290476Y-106600000D01*
X150385714Y-106552381D01*
X150623810Y-106552381D01*
X150719048Y-106600000D01*
X150766667Y-106647619D01*
X150814286Y-106742857D01*
X150814286Y-106838095D01*
X150766667Y-106980952D01*
X150195238Y-107552381D01*
X150814286Y-107552381D01*
X133866667Y-108728571D02*
X133533333Y-108728571D01*
X133533333Y-109252381D02*
X133533333Y-108252381D01*
X134009524Y-108252381D01*
X134295238Y-108252381D02*
X134914286Y-108252381D01*
X134580952Y-108633333D01*
X134723810Y-108633333D01*
X134819048Y-108680952D01*
X134866667Y-108728571D01*
X134914286Y-108823810D01*
X134914286Y-109061905D01*
X134866667Y-109157143D01*
X134819048Y-109204762D01*
X134723810Y-109252381D01*
X134438095Y-109252381D01*
X134342857Y-109204762D01*
X134295238Y-109157143D01*
X121266667Y-111528571D02*
X120933333Y-111528571D01*
X120933333Y-112052381D02*
X120933333Y-111052381D01*
X121409524Y-111052381D01*
X122219048Y-111385714D02*
X122219048Y-112052381D01*
X121980952Y-111004762D02*
X121742857Y-111719048D01*
X122361905Y-111719048D01*
D14*
X97787262Y-82942548D02*
X97787262Y-81736048D01*
X98246881Y-81736048D01*
X98361786Y-81793500D01*
X98419238Y-81850952D01*
X98476690Y-81965857D01*
X98476690Y-82138214D01*
X98419238Y-82253119D01*
X98361786Y-82310571D01*
X98246881Y-82368024D01*
X97787262Y-82368024D01*
X99625738Y-82942548D02*
X98936310Y-82942548D01*
X99281024Y-82942548D02*
X99281024Y-81736048D01*
X99166119Y-81908405D01*
X99051214Y-82023310D01*
X98936310Y-82080762D01*
D15*
X94772423Y-85468766D02*
X94772423Y-85799691D01*
X94772423Y-85634229D02*
X94193303Y-85634229D01*
X94276034Y-85689383D01*
X94331189Y-85744537D01*
X94358766Y-85799691D01*
D14*
X154787262Y-114442548D02*
X154787262Y-113236048D01*
X155246881Y-113236048D01*
X155361786Y-113293500D01*
X155419238Y-113350952D01*
X155476690Y-113465857D01*
X155476690Y-113638214D01*
X155419238Y-113753119D01*
X155361786Y-113810571D01*
X155246881Y-113868024D01*
X154787262Y-113868024D01*
X155936310Y-113350952D02*
X155993762Y-113293500D01*
X156108667Y-113236048D01*
X156395929Y-113236048D01*
X156510833Y-113293500D01*
X156568286Y-113350952D01*
X156625738Y-113465857D01*
X156625738Y-113580762D01*
X156568286Y-113753119D01*
X155878857Y-114442548D01*
X156625738Y-114442548D01*
D15*
X152151234Y-114972423D02*
X151820309Y-114972423D01*
X151985771Y-114972423D02*
X151985771Y-114393303D01*
X151930617Y-114476034D01*
X151875463Y-114531189D01*
X151820309Y-114558766D01*
D14*
X133187262Y-112942548D02*
X133187262Y-111736048D01*
X133646881Y-111736048D01*
X133761786Y-111793500D01*
X133819238Y-111850952D01*
X133876690Y-111965857D01*
X133876690Y-112138214D01*
X133819238Y-112253119D01*
X133761786Y-112310571D01*
X133646881Y-112368024D01*
X133187262Y-112368024D01*
X134278857Y-111736048D02*
X135025738Y-111736048D01*
X134623571Y-112195667D01*
X134795929Y-112195667D01*
X134910833Y-112253119D01*
X134968286Y-112310571D01*
X135025738Y-112425476D01*
X135025738Y-112712738D01*
X134968286Y-112827643D01*
X134910833Y-112885095D01*
X134795929Y-112942548D01*
X134451214Y-112942548D01*
X134336310Y-112885095D01*
X134278857Y-112827643D01*
D15*
X140275463Y-115261983D02*
X139944538Y-115261983D01*
X140110000Y-115261983D02*
X140110000Y-114682863D01*
X140054846Y-114765594D01*
X139999692Y-114820749D01*
X139944538Y-114848326D01*
D14*
X119787262Y-114442548D02*
X119787262Y-113236048D01*
X120246881Y-113236048D01*
X120361786Y-113293500D01*
X120419238Y-113350952D01*
X120476690Y-113465857D01*
X120476690Y-113638214D01*
X120419238Y-113753119D01*
X120361786Y-113810571D01*
X120246881Y-113868024D01*
X119787262Y-113868024D01*
X121510833Y-113638214D02*
X121510833Y-114442548D01*
X121223571Y-113178595D02*
X120936310Y-114040381D01*
X121683190Y-114040381D01*
D15*
X127751234Y-114972423D02*
X127420309Y-114972423D01*
X127585771Y-114972423D02*
X127585771Y-114393303D01*
X127530617Y-114476034D01*
X127475463Y-114531189D01*
X127420309Y-114558766D01*
D12*
X136238095Y-94452381D02*
X136238095Y-95261905D01*
X136285714Y-95357143D01*
X136333333Y-95404762D01*
X136428571Y-95452381D01*
X136619048Y-95452381D01*
X136714286Y-95404762D01*
X136761905Y-95357143D01*
X136809524Y-95261905D01*
X136809524Y-94452381D01*
X137809524Y-95452381D02*
X137238095Y-95452381D01*
X137523809Y-95452381D02*
X137523809Y-94452381D01*
X137428571Y-94595238D01*
X137333333Y-94690476D01*
X137238095Y-94738095D01*
X107238095Y-94452381D02*
X107238095Y-95261905D01*
X107285714Y-95357143D01*
X107333333Y-95404762D01*
X107428571Y-95452381D01*
X107619048Y-95452381D01*
X107714286Y-95404762D01*
X107761905Y-95357143D01*
X107809524Y-95261905D01*
X107809524Y-94452381D01*
X108238095Y-94547619D02*
X108285714Y-94500000D01*
X108380952Y-94452381D01*
X108619048Y-94452381D01*
X108714286Y-94500000D01*
X108761905Y-94547619D01*
X108809524Y-94642857D01*
X108809524Y-94738095D01*
X108761905Y-94880952D01*
X108190476Y-95452381D01*
X108809524Y-95452381D01*
X101595238Y-98452381D02*
X101833333Y-99452381D01*
X102023810Y-98738095D01*
X102214286Y-99452381D01*
X102452381Y-98452381D01*
X103357143Y-99452381D02*
X102785714Y-99452381D01*
X103071428Y-99452381D02*
X103071428Y-98452381D01*
X102976190Y-98595238D01*
X102880952Y-98690476D01*
X102785714Y-98738095D01*
X155095238Y-105952381D02*
X155333333Y-106952381D01*
X155523810Y-106238095D01*
X155714286Y-106952381D01*
X155952381Y-105952381D01*
X156285714Y-106047619D02*
X156333333Y-106000000D01*
X156428571Y-105952381D01*
X156666667Y-105952381D01*
X156761905Y-106000000D01*
X156809524Y-106047619D01*
X156857143Y-106142857D01*
X156857143Y-106238095D01*
X156809524Y-106380952D01*
X156238095Y-106952381D01*
X156857143Y-106952381D01*
X143495238Y-112252381D02*
X143733333Y-113252381D01*
X143923810Y-112538095D01*
X144114286Y-113252381D01*
X144352381Y-112252381D01*
X144638095Y-112252381D02*
X145257143Y-112252381D01*
X144923809Y-112633333D01*
X145066667Y-112633333D01*
X145161905Y-112680952D01*
X145209524Y-112728571D01*
X145257143Y-112823810D01*
X145257143Y-113061905D01*
X145209524Y-113157143D01*
X145161905Y-113204762D01*
X145066667Y-113252381D01*
X144780952Y-113252381D01*
X144685714Y-113204762D01*
X144638095Y-113157143D01*
X130195238Y-112152381D02*
X130433333Y-113152381D01*
X130623810Y-112438095D01*
X130814286Y-113152381D01*
X131052381Y-112152381D01*
X131861905Y-112485714D02*
X131861905Y-113152381D01*
X131623809Y-112104762D02*
X131385714Y-112819048D01*
X132004762Y-112819048D01*
X91452381Y-97238095D02*
X92452381Y-96904762D01*
X91452381Y-96571428D01*
X92166667Y-96285714D02*
X92166667Y-95809523D01*
X92452381Y-96380952D02*
X91452381Y-96047619D01*
X92452381Y-95714285D01*
X92452381Y-94809523D02*
X91976190Y-95142857D01*
X92452381Y-95380952D02*
X91452381Y-95380952D01*
X91452381Y-94999999D01*
X91500000Y-94904761D01*
X91547619Y-94857142D01*
X91642857Y-94809523D01*
X91785714Y-94809523D01*
X91880952Y-94857142D01*
X91928571Y-94904761D01*
X91976190Y-94999999D01*
X91976190Y-95380952D01*
X92452381Y-93857142D02*
X92452381Y-94428571D01*
X92452381Y-94142857D02*
X91452381Y-94142857D01*
X91595238Y-94238095D01*
X91690476Y-94333333D01*
X91738095Y-94428571D01*
X158833334Y-96357143D02*
X158785715Y-96404762D01*
X158642858Y-96452381D01*
X158547620Y-96452381D01*
X158404762Y-96404762D01*
X158309524Y-96309524D01*
X158261905Y-96214286D01*
X158214286Y-96023810D01*
X158214286Y-95880952D01*
X158261905Y-95690476D01*
X158309524Y-95595238D01*
X158404762Y-95500000D01*
X158547620Y-95452381D01*
X158642858Y-95452381D01*
X158785715Y-95500000D01*
X158833334Y-95547619D01*
X159690477Y-95785714D02*
X159690477Y-96452381D01*
X159452381Y-95404762D02*
X159214286Y-96119048D01*
X159833334Y-96119048D01*
X114333334Y-106357143D02*
X114285715Y-106404762D01*
X114142858Y-106452381D01*
X114047620Y-106452381D01*
X113904762Y-106404762D01*
X113809524Y-106309524D01*
X113761905Y-106214286D01*
X113714286Y-106023810D01*
X113714286Y-105880952D01*
X113761905Y-105690476D01*
X113809524Y-105595238D01*
X113904762Y-105500000D01*
X114047620Y-105452381D01*
X114142858Y-105452381D01*
X114285715Y-105500000D01*
X114333334Y-105547619D01*
X114904762Y-105880952D02*
X114809524Y-105833333D01*
X114761905Y-105785714D01*
X114714286Y-105690476D01*
X114714286Y-105642857D01*
X114761905Y-105547619D01*
X114809524Y-105500000D01*
X114904762Y-105452381D01*
X115095239Y-105452381D01*
X115190477Y-105500000D01*
X115238096Y-105547619D01*
X115285715Y-105642857D01*
X115285715Y-105690476D01*
X115238096Y-105785714D01*
X115190477Y-105833333D01*
X115095239Y-105880952D01*
X114904762Y-105880952D01*
X114809524Y-105928571D01*
X114761905Y-105976190D01*
X114714286Y-106071429D01*
X114714286Y-106261905D01*
X114761905Y-106357143D01*
X114809524Y-106404762D01*
X114904762Y-106452381D01*
X115095239Y-106452381D01*
X115190477Y-106404762D01*
X115238096Y-106357143D01*
X115285715Y-106261905D01*
X115285715Y-106071429D01*
X115238096Y-105976190D01*
X115190477Y-105928571D01*
X115095239Y-105880952D01*
X144052381Y-76552381D02*
X143719047Y-76076190D01*
X143480952Y-76552381D02*
X143480952Y-75552381D01*
X143861905Y-75552381D01*
X143957143Y-75600000D01*
X144004762Y-75647619D01*
X144052381Y-75742857D01*
X144052381Y-75885714D01*
X144004762Y-75980952D01*
X143957143Y-76028571D01*
X143861905Y-76076190D01*
X143480952Y-76076190D01*
X144480952Y-76028571D02*
X144814286Y-76028571D01*
X144957143Y-76552381D02*
X144480952Y-76552381D01*
X144480952Y-75552381D01*
X144957143Y-75552381D01*
X145719048Y-76028571D02*
X145385714Y-76028571D01*
X145385714Y-76552381D02*
X145385714Y-75552381D01*
X145861905Y-75552381D01*
X146195238Y-75647619D02*
X146242857Y-75600000D01*
X146338095Y-75552381D01*
X146576191Y-75552381D01*
X146671429Y-75600000D01*
X146719048Y-75647619D01*
X146766667Y-75742857D01*
X146766667Y-75838095D01*
X146719048Y-75980952D01*
X146147619Y-76552381D01*
X146766667Y-76552381D01*
X113952381Y-76452381D02*
X113619047Y-75976190D01*
X113380952Y-76452381D02*
X113380952Y-75452381D01*
X113761905Y-75452381D01*
X113857143Y-75500000D01*
X113904762Y-75547619D01*
X113952381Y-75642857D01*
X113952381Y-75785714D01*
X113904762Y-75880952D01*
X113857143Y-75928571D01*
X113761905Y-75976190D01*
X113380952Y-75976190D01*
X114380952Y-75928571D02*
X114714286Y-75928571D01*
X114857143Y-76452381D02*
X114380952Y-76452381D01*
X114380952Y-75452381D01*
X114857143Y-75452381D01*
X115619048Y-75928571D02*
X115285714Y-75928571D01*
X115285714Y-76452381D02*
X115285714Y-75452381D01*
X115761905Y-75452381D01*
X116666667Y-76452381D02*
X116095238Y-76452381D01*
X116380952Y-76452381D02*
X116380952Y-75452381D01*
X116285714Y-75595238D01*
X116190476Y-75690476D01*
X116095238Y-75738095D01*
X102166667Y-106428571D02*
X101833333Y-106428571D01*
X101833333Y-106952381D02*
X101833333Y-105952381D01*
X102309524Y-105952381D01*
X103166667Y-105952381D02*
X102690476Y-105952381D01*
X102642857Y-106428571D01*
X102690476Y-106380952D01*
X102785714Y-106333333D01*
X103023810Y-106333333D01*
X103119048Y-106380952D01*
X103166667Y-106428571D01*
X103214286Y-106523810D01*
X103214286Y-106761905D01*
X103166667Y-106857143D01*
X103119048Y-106904762D01*
X103023810Y-106952381D01*
X102785714Y-106952381D01*
X102690476Y-106904762D01*
X102642857Y-106857143D01*
D14*
X93487262Y-104942548D02*
X93487262Y-103736048D01*
X93946881Y-103736048D01*
X94061786Y-103793500D01*
X94119238Y-103850952D01*
X94176690Y-103965857D01*
X94176690Y-104138214D01*
X94119238Y-104253119D01*
X94061786Y-104310571D01*
X93946881Y-104368024D01*
X93487262Y-104368024D01*
X95268286Y-103736048D02*
X94693762Y-103736048D01*
X94636310Y-104310571D01*
X94693762Y-104253119D01*
X94808667Y-104195667D01*
X95095929Y-104195667D01*
X95210833Y-104253119D01*
X95268286Y-104310571D01*
X95325738Y-104425476D01*
X95325738Y-104712738D01*
X95268286Y-104827643D01*
X95210833Y-104885095D01*
X95095929Y-104942548D01*
X94808667Y-104942548D01*
X94693762Y-104885095D01*
X94636310Y-104827643D01*
D15*
X94972423Y-109868766D02*
X94972423Y-110199691D01*
X94972423Y-110034229D02*
X94393303Y-110034229D01*
X94476034Y-110089383D01*
X94531189Y-110144537D01*
X94558766Y-110199691D01*
D12*
X101295238Y-113852381D02*
X101533333Y-114852381D01*
X101723810Y-114138095D01*
X101914286Y-114852381D01*
X102152381Y-113852381D01*
X103009524Y-113852381D02*
X102533333Y-113852381D01*
X102485714Y-114328571D01*
X102533333Y-114280952D01*
X102628571Y-114233333D01*
X102866667Y-114233333D01*
X102961905Y-114280952D01*
X103009524Y-114328571D01*
X103057143Y-114423810D01*
X103057143Y-114661905D01*
X103009524Y-114757143D01*
X102961905Y-114804762D01*
X102866667Y-114852381D01*
X102628571Y-114852381D01*
X102533333Y-114804762D01*
X102485714Y-114757143D01*
X100333334Y-87952381D02*
X100000000Y-87476190D01*
X99761905Y-87952381D02*
X99761905Y-86952381D01*
X100142858Y-86952381D01*
X100238096Y-87000000D01*
X100285715Y-87047619D01*
X100333334Y-87142857D01*
X100333334Y-87285714D01*
X100285715Y-87380952D01*
X100238096Y-87428571D01*
X100142858Y-87476190D01*
X99761905Y-87476190D01*
X101285715Y-87952381D02*
X100714286Y-87952381D01*
X101000000Y-87952381D02*
X101000000Y-86952381D01*
X100904762Y-87095238D01*
X100809524Y-87190476D01*
X100714286Y-87238095D01*
D16*
X100491429Y-101842571D02*
X100089262Y-101842571D01*
X100089262Y-102474548D02*
X100089262Y-101268048D01*
X100663786Y-101268048D01*
X101123405Y-102474548D02*
X101123405Y-101268048D01*
X102329905Y-102474548D02*
X101640477Y-102474548D01*
X101985191Y-102474548D02*
X101985191Y-101268048D01*
X101870286Y-101440405D01*
X101755381Y-101555310D01*
X101640477Y-101612762D01*
M02*
